%TF.GenerationSoftware,KiCad,Pcbnew,9.0.4*%
%TF.CreationDate,2025-09-13T12:43:26+05:30*%
%TF.ProjectId,Udayate,55646179-6174-4652-9e6b-696361645f70,1*%
%TF.SameCoordinates,Original*%
%TF.FileFunction,Drillmap*%
%TF.FilePolarity,Positive*%
%FSLAX45Y45*%
G04 Gerber Fmt 4.5, Leading zero omitted, Abs format (unit mm)*
G04 Created by KiCad (PCBNEW 9.0.4) date 2025-09-13 12:43:26*
%MOMM*%
%LPD*%
G01*
G04 APERTURE LIST*
%ADD10C,0.050000*%
%ADD11C,0.200000*%
%ADD12C,0.100000*%
%ADD13C,0.320000*%
G04 APERTURE END LIST*
D10*
X17520000Y-7200000D02*
G75*
G02*
X17870000Y-7550000I0J-350000D01*
G01*
X11860000Y-7550000D02*
X11860000Y-12850000D01*
X12210000Y-13200000D02*
X17520000Y-13200000D01*
X12210000Y-13200000D02*
G75*
G02*
X11860000Y-12850000I0J350000D01*
G01*
X11860000Y-7550000D02*
G75*
G02*
X12210000Y-7200000I350000J0D01*
G01*
X17870000Y-12850000D02*
X17870000Y-7550000D01*
X17870000Y-12850000D02*
G75*
G02*
X17520000Y-13200000I-350000J0D01*
G01*
X17520000Y-7200000D02*
X12210000Y-7200000D01*
D11*
D12*
X11981500Y-10231500D02*
X12018500Y-10268500D01*
X12018500Y-10231500D02*
X11981500Y-10268500D01*
X12071500Y-8751500D02*
X12108500Y-8788500D01*
X12108500Y-8751500D02*
X12071500Y-8788500D01*
X12281500Y-8934000D02*
X12318500Y-8971000D01*
X12318500Y-8934000D02*
X12281500Y-8971000D01*
X12321500Y-9421500D02*
X12358500Y-9458500D01*
X12358500Y-9421500D02*
X12321500Y-9458500D01*
X12321500Y-9621500D02*
X12358500Y-9658500D01*
X12358500Y-9621500D02*
X12321500Y-9658500D01*
X12321500Y-9821500D02*
X12358500Y-9858500D01*
X12358500Y-9821500D02*
X12321500Y-9858500D01*
X12321500Y-10021500D02*
X12358500Y-10058500D01*
X12358500Y-10021500D02*
X12321500Y-10058500D01*
X12461500Y-10141500D02*
X12498500Y-10178500D01*
X12498500Y-10141500D02*
X12461500Y-10178500D01*
X12481500Y-9321500D02*
X12518500Y-9358500D01*
X12518500Y-9321500D02*
X12481500Y-9358500D01*
X12556500Y-7926500D02*
X12593500Y-7963500D01*
X12593500Y-7926500D02*
X12556500Y-7963500D01*
X12641500Y-7341500D02*
X12678500Y-7378500D01*
X12678500Y-7341500D02*
X12641500Y-7378500D01*
X12651500Y-10191500D02*
X12688500Y-10228500D01*
X12688500Y-10191500D02*
X12651500Y-10228500D01*
X12661500Y-12971500D02*
X12698500Y-13008500D01*
X12698500Y-12971500D02*
X12661500Y-13008500D01*
X12681500Y-9321500D02*
X12718500Y-9358500D01*
X12718500Y-9321500D02*
X12681500Y-9358500D01*
X12711500Y-12481500D02*
X12748500Y-12518500D01*
X12748500Y-12481500D02*
X12711500Y-12518500D01*
X12741500Y-7541500D02*
X12778500Y-7578500D01*
X12778500Y-7541500D02*
X12741500Y-7578500D01*
X12791500Y-7891500D02*
X12828500Y-7928500D01*
X12828500Y-7891500D02*
X12791500Y-7928500D01*
X12841500Y-7341500D02*
X12878500Y-7378500D01*
X12878500Y-7341500D02*
X12841500Y-7378500D01*
X12851500Y-10191500D02*
X12888500Y-10228500D01*
X12888500Y-10191500D02*
X12851500Y-10228500D01*
X12861500Y-11981500D02*
X12898500Y-12018500D01*
X12898500Y-11981500D02*
X12861500Y-12018500D01*
X12871500Y-11631500D02*
X12908500Y-11668500D01*
X12908500Y-11631500D02*
X12871500Y-11668500D01*
X12881500Y-9321500D02*
X12918500Y-9358500D01*
X12918500Y-9321500D02*
X12881500Y-9358500D01*
X12891500Y-11271500D02*
X12928500Y-11308500D01*
X12928500Y-11271500D02*
X12891500Y-11308500D01*
X12941500Y-7541500D02*
X12978500Y-7578500D01*
X12978500Y-7541500D02*
X12941500Y-7578500D01*
X12991500Y-7991500D02*
X13028500Y-8028500D01*
X13028500Y-7991500D02*
X12991500Y-8028500D01*
X13011500Y-9131500D02*
X13048500Y-9168500D01*
X13048500Y-9131500D02*
X13011500Y-9168500D01*
X13041500Y-7341500D02*
X13078500Y-7378500D01*
X13078500Y-7341500D02*
X13041500Y-7378500D01*
X13041500Y-8321500D02*
X13078500Y-8358500D01*
X13078500Y-8321500D02*
X13041500Y-8358500D01*
X13041500Y-8481500D02*
X13078500Y-8518500D01*
X13078500Y-8481500D02*
X13041500Y-8518500D01*
X13051500Y-10191500D02*
X13088500Y-10228500D01*
X13088500Y-10191500D02*
X13051500Y-10228500D01*
X13081500Y-9321500D02*
X13118500Y-9358500D01*
X13118500Y-9321500D02*
X13081500Y-9358500D01*
X13131500Y-8781500D02*
X13168500Y-8818500D01*
X13168500Y-8781500D02*
X13131500Y-8818500D01*
X13141500Y-7541500D02*
X13178500Y-7578500D01*
X13178500Y-7541500D02*
X13141500Y-7578500D01*
X13151500Y-10761500D02*
X13188500Y-10798500D01*
X13188500Y-10761500D02*
X13151500Y-10798500D01*
X13191500Y-7891500D02*
X13228500Y-7928500D01*
X13228500Y-7891500D02*
X13191500Y-7928500D01*
X13211500Y-11971500D02*
X13248500Y-12008500D01*
X13248500Y-11971500D02*
X13211500Y-12008500D01*
X13221500Y-11671500D02*
X13258500Y-11708500D01*
X13258500Y-11671500D02*
X13221500Y-11708500D01*
X13231500Y-8981500D02*
X13268500Y-9018500D01*
X13268500Y-8981500D02*
X13231500Y-9018500D01*
X13231500Y-10111500D02*
X13268500Y-10148500D01*
X13268500Y-10111500D02*
X13231500Y-10148500D01*
X13241500Y-7341500D02*
X13278500Y-7378500D01*
X13278500Y-7341500D02*
X13241500Y-7378500D01*
X13241500Y-9611500D02*
X13278500Y-9648500D01*
X13278500Y-9611500D02*
X13241500Y-9648500D01*
X13241500Y-10571500D02*
X13278500Y-10608500D01*
X13278500Y-10571500D02*
X13241500Y-10608500D01*
X13251500Y-9901500D02*
X13288500Y-9938500D01*
X13288500Y-9901500D02*
X13251500Y-9938500D01*
X13281500Y-10991500D02*
X13318500Y-11028500D01*
X13318500Y-10991500D02*
X13281500Y-11028500D01*
X13291500Y-9191500D02*
X13328500Y-9228500D01*
X13328500Y-9191500D02*
X13291500Y-9228500D01*
X13301500Y-9371500D02*
X13338500Y-9408500D01*
X13338500Y-9371500D02*
X13301500Y-9408500D01*
X13311500Y-8321500D02*
X13348500Y-8358500D01*
X13348500Y-8321500D02*
X13311500Y-8358500D01*
X13321500Y-12181500D02*
X13358500Y-12218500D01*
X13358500Y-12181500D02*
X13321500Y-12218500D01*
X13331500Y-8781500D02*
X13368500Y-8818500D01*
X13368500Y-8781500D02*
X13331500Y-8818500D01*
X13341500Y-7541500D02*
X13378500Y-7578500D01*
X13378500Y-7541500D02*
X13341500Y-7578500D01*
X13361500Y-9941500D02*
X13398500Y-9978500D01*
X13398500Y-9941500D02*
X13361500Y-9978500D01*
X13361500Y-10081500D02*
X13398500Y-10118500D01*
X13398500Y-10081500D02*
X13361500Y-10118500D01*
X13381500Y-9771500D02*
X13418500Y-9808500D01*
X13418500Y-9771500D02*
X13381500Y-9808500D01*
X13391500Y-7991500D02*
X13428500Y-8028500D01*
X13428500Y-7991500D02*
X13391500Y-8028500D01*
X13411500Y-8521500D02*
X13448500Y-8558500D01*
X13448500Y-8521500D02*
X13411500Y-8558500D01*
X13411500Y-10381500D02*
X13448500Y-10418500D01*
X13448500Y-10381500D02*
X13411500Y-10418500D01*
X13431500Y-8981500D02*
X13468500Y-9018500D01*
X13468500Y-8981500D02*
X13431500Y-9018500D01*
X13441500Y-11141500D02*
X13478500Y-11178500D01*
X13478500Y-11141500D02*
X13441500Y-11178500D01*
X13451500Y-9491500D02*
X13488500Y-9528500D01*
X13488500Y-9491500D02*
X13451500Y-9528500D01*
X13471500Y-7741500D02*
X13508500Y-7778500D01*
X13508500Y-7741500D02*
X13471500Y-7778500D01*
X13501500Y-11691500D02*
X13538500Y-11728500D01*
X13538500Y-11691500D02*
X13501500Y-11728500D01*
X13511500Y-8321500D02*
X13548500Y-8358500D01*
X13548500Y-8321500D02*
X13511500Y-8358500D01*
X13531500Y-7321500D02*
X13568500Y-7358500D01*
X13568500Y-7321500D02*
X13531500Y-7358500D01*
X13561500Y-11931500D02*
X13598500Y-11968500D01*
X13598500Y-11931500D02*
X13561500Y-11968500D01*
X13581500Y-9771500D02*
X13618500Y-9808500D01*
X13618500Y-9771500D02*
X13581500Y-9808500D01*
X13581500Y-11301500D02*
X13618500Y-11338500D01*
X13618500Y-11301500D02*
X13581500Y-11338500D01*
X13611500Y-8521500D02*
X13648500Y-8558500D01*
X13648500Y-8521500D02*
X13611500Y-8558500D01*
X13611500Y-9211500D02*
X13648500Y-9248500D01*
X13648500Y-9211500D02*
X13611500Y-9248500D01*
X13615400Y-7451500D02*
X13652400Y-7488500D01*
X13652400Y-7451500D02*
X13615400Y-7488500D01*
X13621500Y-9331500D02*
X13658500Y-9368500D01*
X13658500Y-9331500D02*
X13621500Y-9368500D01*
X13651500Y-9511500D02*
X13688500Y-9548500D01*
X13688500Y-9511500D02*
X13651500Y-9548500D01*
X13661500Y-12141500D02*
X13698500Y-12178500D01*
X13698500Y-12141500D02*
X13661500Y-12178500D01*
X13731500Y-7321500D02*
X13768500Y-7358500D01*
X13768500Y-7321500D02*
X13731500Y-7358500D01*
X13731500Y-7441500D02*
X13768500Y-7478500D01*
X13768500Y-7441500D02*
X13731500Y-7478500D01*
X13751500Y-8531500D02*
X13788500Y-8568500D01*
X13788500Y-8531500D02*
X13751500Y-8568500D01*
X13781500Y-9771500D02*
X13818500Y-9808500D01*
X13818500Y-9771500D02*
X13781500Y-9808500D01*
X13811500Y-9541500D02*
X13848500Y-9578500D01*
X13848500Y-9541500D02*
X13811500Y-9578500D01*
X13831500Y-8871500D02*
X13868500Y-8908500D01*
X13868500Y-8871500D02*
X13831500Y-8908500D01*
X13931500Y-7531500D02*
X13968500Y-7568500D01*
X13968500Y-7531500D02*
X13931500Y-7568500D01*
X13931500Y-7891500D02*
X13968500Y-7928500D01*
X13968500Y-7891500D02*
X13931500Y-7928500D01*
X13941500Y-11841500D02*
X13978500Y-11878500D01*
X13978500Y-11841500D02*
X13941500Y-11878500D01*
X14011500Y-12131500D02*
X14048500Y-12168500D01*
X14048500Y-12131500D02*
X14011500Y-12168500D01*
X14031500Y-7331500D02*
X14068500Y-7368500D01*
X14068500Y-7331500D02*
X14031500Y-7368500D01*
X14111500Y-8621500D02*
X14148500Y-8658500D01*
X14148500Y-8621500D02*
X14111500Y-8658500D01*
X14131500Y-7531500D02*
X14168500Y-7568500D01*
X14168500Y-7531500D02*
X14131500Y-7568500D01*
X14145250Y-10768375D02*
X14182250Y-10805375D01*
X14182250Y-10768375D02*
X14145250Y-10805375D01*
X14171500Y-9721500D02*
X14208500Y-9758500D01*
X14208500Y-9721500D02*
X14171500Y-9758500D01*
X14191500Y-9911500D02*
X14228500Y-9948500D01*
X14228500Y-9911500D02*
X14191500Y-9948500D01*
X14211500Y-7741500D02*
X14248500Y-7778500D01*
X14248500Y-7741500D02*
X14211500Y-7778500D01*
X14211500Y-8141500D02*
X14248500Y-8178500D01*
X14248500Y-8141500D02*
X14211500Y-8178500D01*
X14221500Y-7611500D02*
X14258500Y-7648500D01*
X14258500Y-7611500D02*
X14221500Y-7648500D01*
X14231500Y-7331500D02*
X14268500Y-7368500D01*
X14268500Y-7331500D02*
X14231500Y-7368500D01*
X14261500Y-8621500D02*
X14298500Y-8658500D01*
X14298500Y-8621500D02*
X14261500Y-8658500D01*
X14271500Y-9571500D02*
X14308500Y-9608500D01*
X14308500Y-9571500D02*
X14271500Y-9608500D01*
X14281500Y-11831500D02*
X14318500Y-11868500D01*
X14318500Y-11831500D02*
X14281500Y-11868500D01*
X14285250Y-10768375D02*
X14322250Y-10805375D01*
X14322250Y-10768375D02*
X14285250Y-10805375D01*
X14291500Y-10201500D02*
X14328500Y-10238500D01*
X14328500Y-10201500D02*
X14291500Y-10238500D01*
X14341500Y-9431500D02*
X14378500Y-9468500D01*
X14378500Y-9431500D02*
X14341500Y-9468500D01*
X14351500Y-9811500D02*
X14388500Y-9848500D01*
X14388500Y-9811500D02*
X14351500Y-9848500D01*
X14381500Y-10101500D02*
X14418500Y-10138500D01*
X14418500Y-10101500D02*
X14381500Y-10138500D01*
X14461500Y-9661500D02*
X14498500Y-9698500D01*
X14498500Y-9661500D02*
X14461500Y-9698500D01*
X14471500Y-7321500D02*
X14508500Y-7358500D01*
X14508500Y-7321500D02*
X14471500Y-7358500D01*
X14471500Y-10001500D02*
X14508500Y-10038500D01*
X14508500Y-10001500D02*
X14471500Y-10038500D01*
X14481500Y-8301500D02*
X14518500Y-8338500D01*
X14518500Y-8301500D02*
X14481500Y-8338500D01*
X14481500Y-9431500D02*
X14518500Y-9468500D01*
X14518500Y-9431500D02*
X14481500Y-9468500D01*
X14541500Y-9831500D02*
X14578500Y-9868500D01*
X14578500Y-9831500D02*
X14541500Y-9868500D01*
X14561500Y-9511500D02*
X14598500Y-9548500D01*
X14598500Y-9511500D02*
X14561500Y-9548500D01*
X14561500Y-11951500D02*
X14598500Y-11988500D01*
X14598500Y-11951500D02*
X14561500Y-11988500D01*
X14561500Y-12081500D02*
X14598500Y-12118500D01*
X14598500Y-12081500D02*
X14561500Y-12118500D01*
X14561500Y-12201500D02*
X14598500Y-12238500D01*
X14598500Y-12201500D02*
X14561500Y-12238500D01*
X14598000Y-7455250D02*
X14635000Y-7492250D01*
X14635000Y-7455250D02*
X14598000Y-7492250D01*
X14601500Y-8301500D02*
X14638500Y-8338500D01*
X14638500Y-8301500D02*
X14601500Y-8338500D01*
X14621500Y-10081500D02*
X14658500Y-10118500D01*
X14658500Y-10081500D02*
X14621500Y-10118500D01*
X14651500Y-11361500D02*
X14688500Y-11398500D01*
X14688500Y-11361500D02*
X14651500Y-11398500D01*
X14661500Y-9451500D02*
X14698500Y-9488500D01*
X14698500Y-9451500D02*
X14661500Y-9488500D01*
X14671500Y-7321500D02*
X14708500Y-7358500D01*
X14708500Y-7321500D02*
X14671500Y-7358500D01*
X14681500Y-10221500D02*
X14718500Y-10258500D01*
X14718500Y-10221500D02*
X14681500Y-10258500D01*
X14711500Y-11951500D02*
X14748500Y-11988500D01*
X14748500Y-11951500D02*
X14711500Y-11988500D01*
X14748000Y-7455250D02*
X14785000Y-7492250D01*
X14785000Y-7455250D02*
X14748000Y-7492250D01*
X14771500Y-9721500D02*
X14808500Y-9758500D01*
X14808500Y-9721500D02*
X14771500Y-9758500D01*
X14781500Y-9831500D02*
X14818500Y-9868500D01*
X14818500Y-9831500D02*
X14781500Y-9868500D01*
X14791500Y-9561500D02*
X14828500Y-9598500D01*
X14828500Y-9561500D02*
X14791500Y-9598500D01*
X14881500Y-9741500D02*
X14918500Y-9778500D01*
X14918500Y-9741500D02*
X14881500Y-9778500D01*
X14911500Y-10741500D02*
X14948500Y-10778500D01*
X14948500Y-10741500D02*
X14911500Y-10778500D01*
X14921500Y-7321500D02*
X14958500Y-7358500D01*
X14958500Y-7321500D02*
X14921500Y-7358500D01*
X14921500Y-8364000D02*
X14958500Y-8401000D01*
X14958500Y-8364000D02*
X14921500Y-8401000D01*
X14921500Y-8481500D02*
X14958500Y-8518500D01*
X14958500Y-8481500D02*
X14921500Y-8518500D01*
X14921500Y-11951500D02*
X14958500Y-11988500D01*
X14958500Y-11951500D02*
X14921500Y-11988500D01*
X14961500Y-7881500D02*
X14998500Y-7918500D01*
X14998500Y-7881500D02*
X14961500Y-7918500D01*
X15011500Y-11381500D02*
X15048500Y-11418500D01*
X15048500Y-11381500D02*
X15011500Y-11418500D01*
X15021500Y-7521500D02*
X15058500Y-7558500D01*
X15058500Y-7521500D02*
X15021500Y-7558500D01*
X15061500Y-11951500D02*
X15098500Y-11988500D01*
X15098500Y-11951500D02*
X15061500Y-11988500D01*
X15061500Y-12091500D02*
X15098500Y-12128500D01*
X15098500Y-12091500D02*
X15061500Y-12128500D01*
X15061500Y-12231500D02*
X15098500Y-12268500D01*
X15098500Y-12231500D02*
X15061500Y-12268500D01*
X15071500Y-8901500D02*
X15108500Y-8938500D01*
X15108500Y-8901500D02*
X15071500Y-8938500D01*
X15071500Y-10741500D02*
X15108500Y-10778500D01*
X15108500Y-10741500D02*
X15071500Y-10778500D01*
X15111500Y-10931500D02*
X15148500Y-10968500D01*
X15148500Y-10931500D02*
X15111500Y-10968500D01*
X15121500Y-7321500D02*
X15158500Y-7358500D01*
X15158500Y-7321500D02*
X15121500Y-7358500D01*
X15121500Y-11121500D02*
X15158500Y-11158500D01*
X15158500Y-11121500D02*
X15121500Y-11158500D01*
X15201500Y-8911500D02*
X15238500Y-8948500D01*
X15238500Y-8911500D02*
X15201500Y-8948500D01*
X15221500Y-7521500D02*
X15258500Y-7558500D01*
X15258500Y-7521500D02*
X15221500Y-7558500D01*
X15221500Y-10291500D02*
X15258500Y-10328500D01*
X15258500Y-10291500D02*
X15221500Y-10328500D01*
X15231500Y-8311500D02*
X15268500Y-8348500D01*
X15268500Y-8311500D02*
X15231500Y-8348500D01*
X15311500Y-11471500D02*
X15348500Y-11508500D01*
X15348500Y-11471500D02*
X15311500Y-11508500D01*
X15321500Y-7321500D02*
X15358500Y-7358500D01*
X15358500Y-7321500D02*
X15321500Y-7358500D01*
X15341500Y-8321500D02*
X15378500Y-8358500D01*
X15378500Y-8321500D02*
X15341500Y-8358500D01*
X15361500Y-7971500D02*
X15398500Y-8008500D01*
X15398500Y-7971500D02*
X15361500Y-8008500D01*
X15421500Y-7521500D02*
X15458500Y-7558500D01*
X15458500Y-7521500D02*
X15421500Y-7558500D01*
X15441500Y-12501500D02*
X15478500Y-12538500D01*
X15478500Y-12501500D02*
X15441500Y-12538500D01*
X15461500Y-12731500D02*
X15498500Y-12768500D01*
X15498500Y-12731500D02*
X15461500Y-12768500D01*
X15521500Y-7321500D02*
X15558500Y-7358500D01*
X15558500Y-7321500D02*
X15521500Y-7358500D01*
X15531500Y-11321500D02*
X15568500Y-11358500D01*
X15568500Y-11321500D02*
X15531500Y-11358500D01*
X15571500Y-8611500D02*
X15608500Y-8648500D01*
X15608500Y-8611500D02*
X15571500Y-8648500D01*
X15571500Y-8731500D02*
X15608500Y-8768500D01*
X15608500Y-8731500D02*
X15571500Y-8768500D01*
X15571500Y-12431500D02*
X15608500Y-12468500D01*
X15608500Y-12431500D02*
X15571500Y-12468500D01*
X15571500Y-12566500D02*
X15608500Y-12603500D01*
X15608500Y-12566500D02*
X15571500Y-12603500D01*
X15571500Y-12691500D02*
X15608500Y-12728500D01*
X15608500Y-12691500D02*
X15571500Y-12728500D01*
X15571500Y-12801500D02*
X15608500Y-12838500D01*
X15608500Y-12801500D02*
X15571500Y-12838500D01*
X15621500Y-7521500D02*
X15658500Y-7558500D01*
X15658500Y-7521500D02*
X15621500Y-7558500D01*
X15641500Y-10891500D02*
X15678500Y-10928500D01*
X15678500Y-10891500D02*
X15641500Y-10928500D01*
X15681500Y-11071500D02*
X15718500Y-11108500D01*
X15718500Y-11071500D02*
X15681500Y-11108500D01*
X15741500Y-11321500D02*
X15778500Y-11358500D01*
X15778500Y-11321500D02*
X15741500Y-11358500D01*
X15761500Y-9321500D02*
X15798500Y-9358500D01*
X15798500Y-9321500D02*
X15761500Y-9358500D01*
X15761500Y-9471500D02*
X15798500Y-9508500D01*
X15798500Y-9471500D02*
X15761500Y-9508500D01*
X15761500Y-10701500D02*
X15798500Y-10738500D01*
X15798500Y-10701500D02*
X15761500Y-10738500D01*
X15771500Y-7751500D02*
X15808500Y-7788500D01*
X15808500Y-7751500D02*
X15771500Y-7788500D01*
X15771500Y-8151500D02*
X15808500Y-8188500D01*
X15808500Y-8151500D02*
X15771500Y-8188500D01*
X15821500Y-11241500D02*
X15858500Y-11278500D01*
X15858500Y-11241500D02*
X15821500Y-11278500D01*
X15871500Y-7951500D02*
X15908500Y-7988500D01*
X15908500Y-7951500D02*
X15871500Y-7988500D01*
X15921500Y-11321500D02*
X15958500Y-11358500D01*
X15958500Y-11321500D02*
X15921500Y-11358500D01*
X15971500Y-7751500D02*
X16008500Y-7788500D01*
X16008500Y-7751500D02*
X15971500Y-7788500D01*
X15971500Y-8151500D02*
X16008500Y-8188500D01*
X16008500Y-8151500D02*
X15971500Y-8188500D01*
X15991500Y-9791500D02*
X16028500Y-9828500D01*
X16028500Y-9791500D02*
X15991500Y-9828500D01*
X16051500Y-10991500D02*
X16088500Y-11028500D01*
X16088500Y-10991500D02*
X16051500Y-11028500D01*
X16071500Y-7951500D02*
X16108500Y-7988500D01*
X16108500Y-7951500D02*
X16071500Y-7988500D01*
X16071500Y-8621500D02*
X16108500Y-8658500D01*
X16108500Y-8621500D02*
X16071500Y-8658500D01*
X16071500Y-9021500D02*
X16108500Y-9058500D01*
X16108500Y-9021500D02*
X16071500Y-9058500D01*
X16071500Y-9421500D02*
X16108500Y-9458500D01*
X16108500Y-9421500D02*
X16071500Y-9458500D01*
X16081500Y-10731500D02*
X16118500Y-10768500D01*
X16118500Y-10731500D02*
X16081500Y-10768500D01*
X16091500Y-9821500D02*
X16128500Y-9858500D01*
X16128500Y-9821500D02*
X16091500Y-9858500D01*
X16091500Y-9931500D02*
X16128500Y-9968500D01*
X16128500Y-9931500D02*
X16091500Y-9968500D01*
X16131500Y-10451500D02*
X16168500Y-10488500D01*
X16168500Y-10451500D02*
X16131500Y-10488500D01*
X16171500Y-7751500D02*
X16208500Y-7788500D01*
X16208500Y-7751500D02*
X16171500Y-7788500D01*
X16171500Y-8151500D02*
X16208500Y-8188500D01*
X16208500Y-8151500D02*
X16171500Y-8188500D01*
X16171500Y-8821500D02*
X16208500Y-8858500D01*
X16208500Y-8821500D02*
X16171500Y-8858500D01*
X16171500Y-9221500D02*
X16208500Y-9258500D01*
X16208500Y-9221500D02*
X16171500Y-9258500D01*
X16199500Y-12581500D02*
X16236500Y-12618500D01*
X16236500Y-12581500D02*
X16199500Y-12618500D01*
X16208000Y-12790000D02*
X16245000Y-12827000D01*
X16245000Y-12790000D02*
X16208000Y-12827000D01*
X16208500Y-12451500D02*
X16245500Y-12488500D01*
X16245500Y-12451500D02*
X16208500Y-12488500D01*
X16222500Y-12665500D02*
X16259500Y-12702500D01*
X16259500Y-12665500D02*
X16222500Y-12702500D01*
X16271500Y-7951500D02*
X16308500Y-7988500D01*
X16308500Y-7951500D02*
X16271500Y-7988500D01*
X16301500Y-11571500D02*
X16338500Y-11608500D01*
X16338500Y-11571500D02*
X16301500Y-11608500D01*
X16311500Y-12791500D02*
X16348500Y-12828500D01*
X16348500Y-12791500D02*
X16311500Y-12828500D01*
X16341500Y-10991500D02*
X16378500Y-11028500D01*
X16378500Y-10991500D02*
X16341500Y-11028500D01*
X16351500Y-11281500D02*
X16388500Y-11318500D01*
X16388500Y-11281500D02*
X16351500Y-11318500D01*
X16391500Y-12851500D02*
X16428500Y-12888500D01*
X16428500Y-12851500D02*
X16391500Y-12888500D01*
X16441500Y-9561500D02*
X16478500Y-9598500D01*
X16478500Y-9561500D02*
X16441500Y-9598500D01*
X16451500Y-8511500D02*
X16488500Y-8548500D01*
X16488500Y-8511500D02*
X16451500Y-8548500D01*
X16451500Y-8911500D02*
X16488500Y-8948500D01*
X16488500Y-8911500D02*
X16451500Y-8948500D01*
X16471500Y-11871500D02*
X16508500Y-11908500D01*
X16508500Y-11871500D02*
X16471500Y-11908500D01*
X16471500Y-11991500D02*
X16508500Y-12028500D01*
X16508500Y-11991500D02*
X16471500Y-12028500D01*
X16491500Y-12851500D02*
X16528500Y-12888500D01*
X16528500Y-12851500D02*
X16491500Y-12888500D01*
X16511500Y-10691500D02*
X16548500Y-10728500D01*
X16548500Y-10691500D02*
X16511500Y-10728500D01*
X16551500Y-8711500D02*
X16588500Y-8748500D01*
X16588500Y-8711500D02*
X16551500Y-8748500D01*
X16601500Y-11241500D02*
X16638500Y-11278500D01*
X16638500Y-11241500D02*
X16601500Y-11278500D01*
X16606500Y-11796500D02*
X16643500Y-11833500D01*
X16643500Y-11796500D02*
X16606500Y-11833500D01*
X16621500Y-9731500D02*
X16658500Y-9768500D01*
X16658500Y-9731500D02*
X16621500Y-9768500D01*
X16621500Y-9831500D02*
X16658500Y-9868500D01*
X16658500Y-9831500D02*
X16621500Y-9868500D01*
X16621500Y-9951500D02*
X16658500Y-9988500D01*
X16658500Y-9951500D02*
X16621500Y-9988500D01*
X16621500Y-10061500D02*
X16658500Y-10098500D01*
X16658500Y-10061500D02*
X16621500Y-10098500D01*
X16621500Y-13041500D02*
X16658500Y-13078500D01*
X16658500Y-13041500D02*
X16621500Y-13078500D01*
X16631500Y-9051500D02*
X16668500Y-9088500D01*
X16668500Y-9051500D02*
X16631500Y-9088500D01*
X16631500Y-9161500D02*
X16668500Y-9198500D01*
X16668500Y-9161500D02*
X16631500Y-9198500D01*
X16631500Y-9283500D02*
X16668500Y-9320500D01*
X16668500Y-9283500D02*
X16631500Y-9320500D01*
X16631500Y-9391500D02*
X16668500Y-9428500D01*
X16668500Y-9391500D02*
X16631500Y-9428500D01*
X16641500Y-9561500D02*
X16678500Y-9598500D01*
X16678500Y-9561500D02*
X16641500Y-9598500D01*
X16651500Y-8511500D02*
X16688500Y-8548500D01*
X16688500Y-8511500D02*
X16651500Y-8548500D01*
X16651500Y-8911500D02*
X16688500Y-8948500D01*
X16688500Y-8911500D02*
X16651500Y-8948500D01*
X16711500Y-10791500D02*
X16748500Y-10828500D01*
X16748500Y-10791500D02*
X16711500Y-10828500D01*
X16721500Y-12321500D02*
X16758500Y-12358500D01*
X16758500Y-12321500D02*
X16721500Y-12358500D01*
X16751500Y-8711500D02*
X16788500Y-8748500D01*
X16788500Y-8711500D02*
X16751500Y-8748500D01*
X16761500Y-7661500D02*
X16798500Y-7698500D01*
X16798500Y-7661500D02*
X16761500Y-7698500D01*
X16771500Y-13041500D02*
X16808500Y-13078500D01*
X16808500Y-13041500D02*
X16771500Y-13078500D01*
X16851500Y-8511500D02*
X16888500Y-8548500D01*
X16888500Y-8511500D02*
X16851500Y-8548500D01*
X16851500Y-8911500D02*
X16888500Y-8948500D01*
X16888500Y-8911500D02*
X16851500Y-8948500D01*
X16861500Y-7861500D02*
X16898500Y-7898500D01*
X16898500Y-7861500D02*
X16861500Y-7898500D01*
X16871500Y-12321500D02*
X16908500Y-12358500D01*
X16908500Y-12321500D02*
X16871500Y-12358500D01*
X16891500Y-8221500D02*
X16928500Y-8258500D01*
X16928500Y-8221500D02*
X16891500Y-8258500D01*
X16911500Y-10691500D02*
X16948500Y-10728500D01*
X16948500Y-10691500D02*
X16911500Y-10728500D01*
X16931500Y-11201500D02*
X16968500Y-11238500D01*
X16968500Y-11201500D02*
X16931500Y-11238500D01*
X16931500Y-11601500D02*
X16968500Y-11638500D01*
X16968500Y-11601500D02*
X16931500Y-11638500D01*
X16941500Y-8141500D02*
X16978500Y-8178500D01*
X16978500Y-8141500D02*
X16941500Y-8178500D01*
X16951500Y-8711500D02*
X16988500Y-8748500D01*
X16988500Y-8711500D02*
X16951500Y-8748500D01*
X16951500Y-10961500D02*
X16988500Y-10998500D01*
X16988500Y-10961500D02*
X16951500Y-10998500D01*
X16961500Y-7661500D02*
X16998500Y-7698500D01*
X16998500Y-7661500D02*
X16961500Y-7698500D01*
X16988250Y-10231500D02*
X17025250Y-10268500D01*
X17025250Y-10231500D02*
X16988250Y-10268500D01*
X17021500Y-8371500D02*
X17058500Y-8408500D01*
X17058500Y-8371500D02*
X17021500Y-8408500D01*
X17031500Y-11401500D02*
X17068500Y-11438500D01*
X17068500Y-11401500D02*
X17031500Y-11438500D01*
X17031500Y-11801500D02*
X17068500Y-11838500D01*
X17068500Y-11801500D02*
X17031500Y-11838500D01*
X17061500Y-7861500D02*
X17098500Y-7898500D01*
X17098500Y-7861500D02*
X17061500Y-7898500D01*
X17101500Y-12131500D02*
X17138500Y-12168500D01*
X17138500Y-12131500D02*
X17101500Y-12168500D01*
X17101500Y-12291500D02*
X17138500Y-12328500D01*
X17138500Y-12291500D02*
X17101500Y-12328500D01*
X17111500Y-10791500D02*
X17148500Y-10828500D01*
X17148500Y-10791500D02*
X17111500Y-10828500D01*
X17118375Y-8444625D02*
X17155375Y-8481625D01*
X17155375Y-8444625D02*
X17118375Y-8481625D01*
X17121500Y-10921500D02*
X17158500Y-10958500D01*
X17158500Y-10921500D02*
X17121500Y-10958500D01*
X17128375Y-8594625D02*
X17165375Y-8631625D01*
X17165375Y-8594625D02*
X17128375Y-8631625D01*
X17131500Y-11201500D02*
X17168500Y-11238500D01*
X17168500Y-11201500D02*
X17131500Y-11238500D01*
X17131500Y-11601500D02*
X17168500Y-11638500D01*
X17168500Y-11601500D02*
X17131500Y-11638500D01*
X17231500Y-11401500D02*
X17268500Y-11438500D01*
X17268500Y-11401500D02*
X17231500Y-11438500D01*
X17231500Y-11801500D02*
X17268500Y-11838500D01*
X17268500Y-11801500D02*
X17231500Y-11838500D01*
X17601500Y-9261500D02*
X17638500Y-9298500D01*
X17638500Y-9261500D02*
X17601500Y-9298500D01*
X17601500Y-9661500D02*
X17638500Y-9698500D01*
X17638500Y-9661500D02*
X17601500Y-9698500D01*
X17701500Y-9461500D02*
X17738500Y-9498500D01*
X17738500Y-9461500D02*
X17701500Y-9498500D01*
X17701500Y-9861500D02*
X17738500Y-9898500D01*
X17738500Y-9861500D02*
X17701500Y-9898500D01*
X17192000Y-9138000D02*
G75*
G02*
X17132000Y-9138000I-30000J0D01*
G01*
X17132000Y-9138000D02*
G75*
G02*
X17192000Y-9138000I30000J0D01*
G01*
X17107000Y-9168000D02*
X17217000Y-9168000D01*
X17217000Y-9108000D02*
G75*
G02*
X17217000Y-9168000I0J-30000D01*
G01*
X17217000Y-9108000D02*
X17107000Y-9108000D01*
X17107000Y-9108000D02*
G75*
G03*
X17107000Y-9168000I0J-30000D01*
G01*
X17192000Y-10002000D02*
G75*
G02*
X17132000Y-10002000I-30000J0D01*
G01*
X17132000Y-10002000D02*
G75*
G02*
X17192000Y-10002000I30000J0D01*
G01*
X17107000Y-10032000D02*
X17217000Y-10032000D01*
X17217000Y-9972000D02*
G75*
G02*
X17217000Y-10032000I0J-30000D01*
G01*
X17217000Y-9972000D02*
X17107000Y-9972000D01*
X17107000Y-9972000D02*
G75*
G03*
X17107000Y-10032000I0J-30000D01*
G01*
X17610000Y-9138000D02*
G75*
G02*
X17550000Y-9138000I-30000J0D01*
G01*
X17550000Y-9138000D02*
G75*
G02*
X17610000Y-9138000I30000J0D01*
G01*
X17540000Y-9168000D02*
X17620000Y-9168000D01*
X17620000Y-9108000D02*
G75*
G02*
X17620000Y-9168000I0J-30000D01*
G01*
X17620000Y-9108000D02*
X17540000Y-9108000D01*
X17540000Y-9108000D02*
G75*
G03*
X17540000Y-9168000I0J-30000D01*
G01*
X17610000Y-10002000D02*
G75*
G02*
X17550000Y-10002000I-30000J0D01*
G01*
X17550000Y-10002000D02*
G75*
G02*
X17610000Y-10002000I30000J0D01*
G01*
X17540000Y-10032000D02*
X17620000Y-10032000D01*
X17620000Y-9972000D02*
G75*
G02*
X17620000Y-10032000I0J-30000D01*
G01*
X17620000Y-9972000D02*
X17540000Y-9972000D01*
X17540000Y-9972000D02*
G75*
G03*
X17540000Y-10032000I0J-30000D01*
G01*
X12076000Y-11068000D02*
X12076000Y-11168000D01*
X12026000Y-11118000D02*
X12126000Y-11118000D01*
X12076000Y-11422000D02*
X12076000Y-11522000D01*
X12026000Y-11472000D02*
X12126000Y-11472000D01*
X12076000Y-11776000D02*
X12076000Y-11876000D01*
X12026000Y-11826000D02*
X12126000Y-11826000D01*
X12076000Y-12130000D02*
X12076000Y-12230000D01*
X12026000Y-12180000D02*
X12126000Y-12180000D01*
X12330000Y-11068000D02*
X12330000Y-11168000D01*
X12280000Y-11118000D02*
X12380000Y-11118000D01*
X12330000Y-11422000D02*
X12330000Y-11522000D01*
X12280000Y-11472000D02*
X12380000Y-11472000D01*
X12330000Y-11776000D02*
X12330000Y-11876000D01*
X12280000Y-11826000D02*
X12380000Y-11826000D01*
X12330000Y-12130000D02*
X12330000Y-12230000D01*
X12280000Y-12180000D02*
X12380000Y-12180000D01*
X12584000Y-11068000D02*
X12584000Y-11168000D01*
X12534000Y-11118000D02*
X12634000Y-11118000D01*
X12584000Y-11422000D02*
X12584000Y-11522000D01*
X12534000Y-11472000D02*
X12634000Y-11472000D01*
X12584000Y-11776000D02*
X12584000Y-11876000D01*
X12534000Y-11826000D02*
X12634000Y-11826000D01*
X12584000Y-12130000D02*
X12584000Y-12230000D01*
X12534000Y-12180000D02*
X12634000Y-12180000D01*
X13116000Y-12401000D02*
X13116000Y-12501000D01*
X13066000Y-12451000D02*
X13166000Y-12451000D01*
X13116000Y-12655000D02*
X13116000Y-12755000D01*
X13066000Y-12705000D02*
X13166000Y-12705000D01*
X13116000Y-12909000D02*
X13116000Y-13009000D01*
X13066000Y-12959000D02*
X13166000Y-12959000D01*
X13470000Y-12402000D02*
X13470000Y-12502000D01*
X13420000Y-12452000D02*
X13520000Y-12452000D01*
X13470000Y-12656000D02*
X13470000Y-12756000D01*
X13420000Y-12706000D02*
X13520000Y-12706000D01*
X13470000Y-12910000D02*
X13470000Y-13010000D01*
X13420000Y-12960000D02*
X13520000Y-12960000D01*
X13824000Y-12402000D02*
X13824000Y-12502000D01*
X13774000Y-12452000D02*
X13874000Y-12452000D01*
X13824000Y-12656000D02*
X13824000Y-12756000D01*
X13774000Y-12706000D02*
X13874000Y-12706000D01*
X13824000Y-12910000D02*
X13824000Y-13010000D01*
X13774000Y-12960000D02*
X13874000Y-12960000D01*
X14178000Y-12401000D02*
X14178000Y-12501000D01*
X14128000Y-12451000D02*
X14228000Y-12451000D01*
X14178000Y-12655000D02*
X14178000Y-12755000D01*
X14128000Y-12705000D02*
X14228000Y-12705000D01*
X14178000Y-12909000D02*
X14178000Y-13009000D01*
X14128000Y-12959000D02*
X14228000Y-12959000D01*
X15892000Y-7400000D02*
X15892000Y-7500000D01*
X15842000Y-7450000D02*
X15942000Y-7450000D01*
X16146000Y-7400000D02*
X16146000Y-7500000D01*
X16096000Y-7450000D02*
X16196000Y-7450000D01*
X16400000Y-7400000D02*
X16400000Y-7500000D01*
X16350000Y-7450000D02*
X16450000Y-7450000D01*
X16654000Y-7400000D02*
X16654000Y-7500000D01*
X16604000Y-7450000D02*
X16704000Y-7450000D01*
X17234981Y-9303981D02*
X17234981Y-9258019D01*
X17189019Y-9258019D01*
X17189019Y-9303981D01*
X17234981Y-9303981D01*
X17234981Y-9881981D02*
X17234981Y-9836019D01*
X17189019Y-9836019D01*
X17189019Y-9881981D01*
X17234981Y-9881981D01*
D13*
X12210000Y-7710000D02*
X12370000Y-7550000D01*
X12210000Y-7390000D01*
X12050000Y-7550000D01*
X12210000Y-7710000D01*
X12210000Y-13010000D02*
X12370000Y-12850000D01*
X12210000Y-12690000D01*
X12050000Y-12850000D01*
X12210000Y-13010000D01*
X17520000Y-7710000D02*
X17680000Y-7550000D01*
X17520000Y-7390000D01*
X17360000Y-7550000D01*
X17520000Y-7710000D01*
X17520000Y-13010000D02*
X17680000Y-12850000D01*
X17520000Y-12690000D01*
X17360000Y-12850000D01*
X17520000Y-13010000D01*
D11*
X12118277Y-13513984D02*
X12118277Y-13313984D01*
X12118277Y-13313984D02*
X12165896Y-13313984D01*
X12165896Y-13313984D02*
X12194467Y-13323508D01*
X12194467Y-13323508D02*
X12213515Y-13342555D01*
X12213515Y-13342555D02*
X12223039Y-13361603D01*
X12223039Y-13361603D02*
X12232562Y-13399698D01*
X12232562Y-13399698D02*
X12232562Y-13428269D01*
X12232562Y-13428269D02*
X12223039Y-13466365D01*
X12223039Y-13466365D02*
X12213515Y-13485412D01*
X12213515Y-13485412D02*
X12194467Y-13504460D01*
X12194467Y-13504460D02*
X12165896Y-13513984D01*
X12165896Y-13513984D02*
X12118277Y-13513984D01*
X12318277Y-13513984D02*
X12318277Y-13380650D01*
X12318277Y-13418746D02*
X12327801Y-13399698D01*
X12327801Y-13399698D02*
X12337324Y-13390174D01*
X12337324Y-13390174D02*
X12356372Y-13380650D01*
X12356372Y-13380650D02*
X12375420Y-13380650D01*
X12442086Y-13513984D02*
X12442086Y-13380650D01*
X12442086Y-13313984D02*
X12432562Y-13323508D01*
X12432562Y-13323508D02*
X12442086Y-13333031D01*
X12442086Y-13333031D02*
X12451610Y-13323508D01*
X12451610Y-13323508D02*
X12442086Y-13313984D01*
X12442086Y-13313984D02*
X12442086Y-13333031D01*
X12565896Y-13513984D02*
X12546848Y-13504460D01*
X12546848Y-13504460D02*
X12537324Y-13485412D01*
X12537324Y-13485412D02*
X12537324Y-13313984D01*
X12670658Y-13513984D02*
X12651610Y-13504460D01*
X12651610Y-13504460D02*
X12642086Y-13485412D01*
X12642086Y-13485412D02*
X12642086Y-13313984D01*
X12899229Y-13513984D02*
X12899229Y-13313984D01*
X12899229Y-13313984D02*
X12965896Y-13456841D01*
X12965896Y-13456841D02*
X13032562Y-13313984D01*
X13032562Y-13313984D02*
X13032562Y-13513984D01*
X13213515Y-13513984D02*
X13213515Y-13409222D01*
X13213515Y-13409222D02*
X13203991Y-13390174D01*
X13203991Y-13390174D02*
X13184943Y-13380650D01*
X13184943Y-13380650D02*
X13146848Y-13380650D01*
X13146848Y-13380650D02*
X13127801Y-13390174D01*
X13213515Y-13504460D02*
X13194467Y-13513984D01*
X13194467Y-13513984D02*
X13146848Y-13513984D01*
X13146848Y-13513984D02*
X13127801Y-13504460D01*
X13127801Y-13504460D02*
X13118277Y-13485412D01*
X13118277Y-13485412D02*
X13118277Y-13466365D01*
X13118277Y-13466365D02*
X13127801Y-13447317D01*
X13127801Y-13447317D02*
X13146848Y-13437793D01*
X13146848Y-13437793D02*
X13194467Y-13437793D01*
X13194467Y-13437793D02*
X13213515Y-13428269D01*
X13308753Y-13380650D02*
X13308753Y-13580650D01*
X13308753Y-13390174D02*
X13327801Y-13380650D01*
X13327801Y-13380650D02*
X13365896Y-13380650D01*
X13365896Y-13380650D02*
X13384943Y-13390174D01*
X13384943Y-13390174D02*
X13394467Y-13399698D01*
X13394467Y-13399698D02*
X13403991Y-13418746D01*
X13403991Y-13418746D02*
X13403991Y-13475888D01*
X13403991Y-13475888D02*
X13394467Y-13494936D01*
X13394467Y-13494936D02*
X13384943Y-13504460D01*
X13384943Y-13504460D02*
X13365896Y-13513984D01*
X13365896Y-13513984D02*
X13327801Y-13513984D01*
X13327801Y-13513984D02*
X13308753Y-13504460D01*
X13489705Y-13494936D02*
X13499229Y-13504460D01*
X13499229Y-13504460D02*
X13489705Y-13513984D01*
X13489705Y-13513984D02*
X13480182Y-13504460D01*
X13480182Y-13504460D02*
X13489705Y-13494936D01*
X13489705Y-13494936D02*
X13489705Y-13513984D01*
X13489705Y-13390174D02*
X13499229Y-13399698D01*
X13499229Y-13399698D02*
X13489705Y-13409222D01*
X13489705Y-13409222D02*
X13480182Y-13399698D01*
X13480182Y-13399698D02*
X13489705Y-13390174D01*
X13489705Y-13390174D02*
X13489705Y-13409222D01*
D12*
X11820500Y-13824000D02*
X11857500Y-13861000D01*
X11857500Y-13824000D02*
X11820500Y-13861000D01*
D11*
X12156372Y-13733984D02*
X12175420Y-13733984D01*
X12175420Y-13733984D02*
X12194467Y-13743508D01*
X12194467Y-13743508D02*
X12203991Y-13753031D01*
X12203991Y-13753031D02*
X12213515Y-13772079D01*
X12213515Y-13772079D02*
X12223039Y-13810174D01*
X12223039Y-13810174D02*
X12223039Y-13857793D01*
X12223039Y-13857793D02*
X12213515Y-13895888D01*
X12213515Y-13895888D02*
X12203991Y-13914936D01*
X12203991Y-13914936D02*
X12194467Y-13924460D01*
X12194467Y-13924460D02*
X12175420Y-13933984D01*
X12175420Y-13933984D02*
X12156372Y-13933984D01*
X12156372Y-13933984D02*
X12137324Y-13924460D01*
X12137324Y-13924460D02*
X12127801Y-13914936D01*
X12127801Y-13914936D02*
X12118277Y-13895888D01*
X12118277Y-13895888D02*
X12108753Y-13857793D01*
X12108753Y-13857793D02*
X12108753Y-13810174D01*
X12108753Y-13810174D02*
X12118277Y-13772079D01*
X12118277Y-13772079D02*
X12127801Y-13753031D01*
X12127801Y-13753031D02*
X12137324Y-13743508D01*
X12137324Y-13743508D02*
X12156372Y-13733984D01*
X12308753Y-13914936D02*
X12318277Y-13924460D01*
X12318277Y-13924460D02*
X12308753Y-13933984D01*
X12308753Y-13933984D02*
X12299229Y-13924460D01*
X12299229Y-13924460D02*
X12308753Y-13914936D01*
X12308753Y-13914936D02*
X12308753Y-13933984D01*
X12384943Y-13733984D02*
X12508753Y-13733984D01*
X12508753Y-13733984D02*
X12442086Y-13810174D01*
X12442086Y-13810174D02*
X12470658Y-13810174D01*
X12470658Y-13810174D02*
X12489705Y-13819698D01*
X12489705Y-13819698D02*
X12499229Y-13829222D01*
X12499229Y-13829222D02*
X12508753Y-13848269D01*
X12508753Y-13848269D02*
X12508753Y-13895888D01*
X12508753Y-13895888D02*
X12499229Y-13914936D01*
X12499229Y-13914936D02*
X12489705Y-13924460D01*
X12489705Y-13924460D02*
X12470658Y-13933984D01*
X12470658Y-13933984D02*
X12413515Y-13933984D01*
X12413515Y-13933984D02*
X12394467Y-13924460D01*
X12394467Y-13924460D02*
X12384943Y-13914936D01*
X12575420Y-13733984D02*
X12708753Y-13733984D01*
X12708753Y-13733984D02*
X12623039Y-13933984D01*
X12823039Y-13733984D02*
X12842086Y-13733984D01*
X12842086Y-13733984D02*
X12861134Y-13743508D01*
X12861134Y-13743508D02*
X12870658Y-13753031D01*
X12870658Y-13753031D02*
X12880182Y-13772079D01*
X12880182Y-13772079D02*
X12889705Y-13810174D01*
X12889705Y-13810174D02*
X12889705Y-13857793D01*
X12889705Y-13857793D02*
X12880182Y-13895888D01*
X12880182Y-13895888D02*
X12870658Y-13914936D01*
X12870658Y-13914936D02*
X12861134Y-13924460D01*
X12861134Y-13924460D02*
X12842086Y-13933984D01*
X12842086Y-13933984D02*
X12823039Y-13933984D01*
X12823039Y-13933984D02*
X12803991Y-13924460D01*
X12803991Y-13924460D02*
X12794467Y-13914936D01*
X12794467Y-13914936D02*
X12784943Y-13895888D01*
X12784943Y-13895888D02*
X12775420Y-13857793D01*
X12775420Y-13857793D02*
X12775420Y-13810174D01*
X12775420Y-13810174D02*
X12784943Y-13772079D01*
X12784943Y-13772079D02*
X12794467Y-13753031D01*
X12794467Y-13753031D02*
X12803991Y-13743508D01*
X12803991Y-13743508D02*
X12823039Y-13733984D01*
X12975420Y-13933984D02*
X12975420Y-13800650D01*
X12975420Y-13819698D02*
X12984943Y-13810174D01*
X12984943Y-13810174D02*
X13003991Y-13800650D01*
X13003991Y-13800650D02*
X13032563Y-13800650D01*
X13032563Y-13800650D02*
X13051610Y-13810174D01*
X13051610Y-13810174D02*
X13061134Y-13829222D01*
X13061134Y-13829222D02*
X13061134Y-13933984D01*
X13061134Y-13829222D02*
X13070658Y-13810174D01*
X13070658Y-13810174D02*
X13089705Y-13800650D01*
X13089705Y-13800650D02*
X13118277Y-13800650D01*
X13118277Y-13800650D02*
X13137324Y-13810174D01*
X13137324Y-13810174D02*
X13146848Y-13829222D01*
X13146848Y-13829222D02*
X13146848Y-13933984D01*
X13242086Y-13933984D02*
X13242086Y-13800650D01*
X13242086Y-13819698D02*
X13251610Y-13810174D01*
X13251610Y-13810174D02*
X13270658Y-13800650D01*
X13270658Y-13800650D02*
X13299229Y-13800650D01*
X13299229Y-13800650D02*
X13318277Y-13810174D01*
X13318277Y-13810174D02*
X13327801Y-13829222D01*
X13327801Y-13829222D02*
X13327801Y-13933984D01*
X13327801Y-13829222D02*
X13337324Y-13810174D01*
X13337324Y-13810174D02*
X13356372Y-13800650D01*
X13356372Y-13800650D02*
X13384943Y-13800650D01*
X13384943Y-13800650D02*
X13403991Y-13810174D01*
X13403991Y-13810174D02*
X13413515Y-13829222D01*
X13413515Y-13829222D02*
X13413515Y-13933984D01*
X13803991Y-13724460D02*
X13632563Y-13981603D01*
X14061134Y-13733984D02*
X14080182Y-13733984D01*
X14080182Y-13733984D02*
X14099229Y-13743508D01*
X14099229Y-13743508D02*
X14108753Y-13753031D01*
X14108753Y-13753031D02*
X14118277Y-13772079D01*
X14118277Y-13772079D02*
X14127801Y-13810174D01*
X14127801Y-13810174D02*
X14127801Y-13857793D01*
X14127801Y-13857793D02*
X14118277Y-13895888D01*
X14118277Y-13895888D02*
X14108753Y-13914936D01*
X14108753Y-13914936D02*
X14099229Y-13924460D01*
X14099229Y-13924460D02*
X14080182Y-13933984D01*
X14080182Y-13933984D02*
X14061134Y-13933984D01*
X14061134Y-13933984D02*
X14042086Y-13924460D01*
X14042086Y-13924460D02*
X14032563Y-13914936D01*
X14032563Y-13914936D02*
X14023039Y-13895888D01*
X14023039Y-13895888D02*
X14013515Y-13857793D01*
X14013515Y-13857793D02*
X14013515Y-13810174D01*
X14013515Y-13810174D02*
X14023039Y-13772079D01*
X14023039Y-13772079D02*
X14032563Y-13753031D01*
X14032563Y-13753031D02*
X14042086Y-13743508D01*
X14042086Y-13743508D02*
X14061134Y-13733984D01*
X14213515Y-13914936D02*
X14223039Y-13924460D01*
X14223039Y-13924460D02*
X14213515Y-13933984D01*
X14213515Y-13933984D02*
X14203991Y-13924460D01*
X14203991Y-13924460D02*
X14213515Y-13914936D01*
X14213515Y-13914936D02*
X14213515Y-13933984D01*
X14346848Y-13733984D02*
X14365896Y-13733984D01*
X14365896Y-13733984D02*
X14384944Y-13743508D01*
X14384944Y-13743508D02*
X14394467Y-13753031D01*
X14394467Y-13753031D02*
X14403991Y-13772079D01*
X14403991Y-13772079D02*
X14413515Y-13810174D01*
X14413515Y-13810174D02*
X14413515Y-13857793D01*
X14413515Y-13857793D02*
X14403991Y-13895888D01*
X14403991Y-13895888D02*
X14394467Y-13914936D01*
X14394467Y-13914936D02*
X14384944Y-13924460D01*
X14384944Y-13924460D02*
X14365896Y-13933984D01*
X14365896Y-13933984D02*
X14346848Y-13933984D01*
X14346848Y-13933984D02*
X14327801Y-13924460D01*
X14327801Y-13924460D02*
X14318277Y-13914936D01*
X14318277Y-13914936D02*
X14308753Y-13895888D01*
X14308753Y-13895888D02*
X14299229Y-13857793D01*
X14299229Y-13857793D02*
X14299229Y-13810174D01*
X14299229Y-13810174D02*
X14308753Y-13772079D01*
X14308753Y-13772079D02*
X14318277Y-13753031D01*
X14318277Y-13753031D02*
X14327801Y-13743508D01*
X14327801Y-13743508D02*
X14346848Y-13733984D01*
X14603991Y-13933984D02*
X14489706Y-13933984D01*
X14546848Y-13933984D02*
X14546848Y-13733984D01*
X14546848Y-13733984D02*
X14527801Y-13762555D01*
X14527801Y-13762555D02*
X14508753Y-13781603D01*
X14508753Y-13781603D02*
X14489706Y-13791127D01*
X14775420Y-13800650D02*
X14775420Y-13933984D01*
X14727801Y-13724460D02*
X14680182Y-13867317D01*
X14680182Y-13867317D02*
X14803991Y-13867317D01*
X14965896Y-13733984D02*
X14927801Y-13733984D01*
X14927801Y-13733984D02*
X14908753Y-13743508D01*
X14908753Y-13743508D02*
X14899229Y-13753031D01*
X14899229Y-13753031D02*
X14880182Y-13781603D01*
X14880182Y-13781603D02*
X14870658Y-13819698D01*
X14870658Y-13819698D02*
X14870658Y-13895888D01*
X14870658Y-13895888D02*
X14880182Y-13914936D01*
X14880182Y-13914936D02*
X14889706Y-13924460D01*
X14889706Y-13924460D02*
X14908753Y-13933984D01*
X14908753Y-13933984D02*
X14946848Y-13933984D01*
X14946848Y-13933984D02*
X14965896Y-13924460D01*
X14965896Y-13924460D02*
X14975420Y-13914936D01*
X14975420Y-13914936D02*
X14984944Y-13895888D01*
X14984944Y-13895888D02*
X14984944Y-13848269D01*
X14984944Y-13848269D02*
X14975420Y-13829222D01*
X14975420Y-13829222D02*
X14965896Y-13819698D01*
X14965896Y-13819698D02*
X14946848Y-13810174D01*
X14946848Y-13810174D02*
X14908753Y-13810174D01*
X14908753Y-13810174D02*
X14889706Y-13819698D01*
X14889706Y-13819698D02*
X14880182Y-13829222D01*
X14880182Y-13829222D02*
X14870658Y-13848269D01*
X15061134Y-13733984D02*
X15061134Y-13772079D01*
X15137325Y-13733984D02*
X15137325Y-13772079D01*
X15432563Y-14010174D02*
X15423039Y-14000650D01*
X15423039Y-14000650D02*
X15403991Y-13972079D01*
X15403991Y-13972079D02*
X15394468Y-13953031D01*
X15394468Y-13953031D02*
X15384944Y-13924460D01*
X15384944Y-13924460D02*
X15375420Y-13876841D01*
X15375420Y-13876841D02*
X15375420Y-13838746D01*
X15375420Y-13838746D02*
X15384944Y-13791127D01*
X15384944Y-13791127D02*
X15394468Y-13762555D01*
X15394468Y-13762555D02*
X15403991Y-13743508D01*
X15403991Y-13743508D02*
X15423039Y-13714936D01*
X15423039Y-13714936D02*
X15432563Y-13705412D01*
X15499229Y-13753031D02*
X15508753Y-13743508D01*
X15508753Y-13743508D02*
X15527801Y-13733984D01*
X15527801Y-13733984D02*
X15575420Y-13733984D01*
X15575420Y-13733984D02*
X15594468Y-13743508D01*
X15594468Y-13743508D02*
X15603991Y-13753031D01*
X15603991Y-13753031D02*
X15613515Y-13772079D01*
X15613515Y-13772079D02*
X15613515Y-13791127D01*
X15613515Y-13791127D02*
X15603991Y-13819698D01*
X15603991Y-13819698D02*
X15489706Y-13933984D01*
X15489706Y-13933984D02*
X15613515Y-13933984D01*
X15794468Y-13733984D02*
X15699229Y-13733984D01*
X15699229Y-13733984D02*
X15689706Y-13829222D01*
X15689706Y-13829222D02*
X15699229Y-13819698D01*
X15699229Y-13819698D02*
X15718277Y-13810174D01*
X15718277Y-13810174D02*
X15765896Y-13810174D01*
X15765896Y-13810174D02*
X15784944Y-13819698D01*
X15784944Y-13819698D02*
X15794468Y-13829222D01*
X15794468Y-13829222D02*
X15803991Y-13848269D01*
X15803991Y-13848269D02*
X15803991Y-13895888D01*
X15803991Y-13895888D02*
X15794468Y-13914936D01*
X15794468Y-13914936D02*
X15784944Y-13924460D01*
X15784944Y-13924460D02*
X15765896Y-13933984D01*
X15765896Y-13933984D02*
X15718277Y-13933984D01*
X15718277Y-13933984D02*
X15699229Y-13924460D01*
X15699229Y-13924460D02*
X15689706Y-13914936D01*
X15975420Y-13800650D02*
X15975420Y-13933984D01*
X15927801Y-13724460D02*
X15880182Y-13867317D01*
X15880182Y-13867317D02*
X16003991Y-13867317D01*
X16232563Y-13933984D02*
X16232563Y-13733984D01*
X16318277Y-13933984D02*
X16318277Y-13829222D01*
X16318277Y-13829222D02*
X16308753Y-13810174D01*
X16308753Y-13810174D02*
X16289706Y-13800650D01*
X16289706Y-13800650D02*
X16261134Y-13800650D01*
X16261134Y-13800650D02*
X16242087Y-13810174D01*
X16242087Y-13810174D02*
X16232563Y-13819698D01*
X16442087Y-13933984D02*
X16423039Y-13924460D01*
X16423039Y-13924460D02*
X16413515Y-13914936D01*
X16413515Y-13914936D02*
X16403991Y-13895888D01*
X16403991Y-13895888D02*
X16403991Y-13838746D01*
X16403991Y-13838746D02*
X16413515Y-13819698D01*
X16413515Y-13819698D02*
X16423039Y-13810174D01*
X16423039Y-13810174D02*
X16442087Y-13800650D01*
X16442087Y-13800650D02*
X16470658Y-13800650D01*
X16470658Y-13800650D02*
X16489706Y-13810174D01*
X16489706Y-13810174D02*
X16499230Y-13819698D01*
X16499230Y-13819698D02*
X16508753Y-13838746D01*
X16508753Y-13838746D02*
X16508753Y-13895888D01*
X16508753Y-13895888D02*
X16499230Y-13914936D01*
X16499230Y-13914936D02*
X16489706Y-13924460D01*
X16489706Y-13924460D02*
X16470658Y-13933984D01*
X16470658Y-13933984D02*
X16442087Y-13933984D01*
X16623039Y-13933984D02*
X16603991Y-13924460D01*
X16603991Y-13924460D02*
X16594468Y-13905412D01*
X16594468Y-13905412D02*
X16594468Y-13733984D01*
X16775420Y-13924460D02*
X16756372Y-13933984D01*
X16756372Y-13933984D02*
X16718277Y-13933984D01*
X16718277Y-13933984D02*
X16699230Y-13924460D01*
X16699230Y-13924460D02*
X16689706Y-13905412D01*
X16689706Y-13905412D02*
X16689706Y-13829222D01*
X16689706Y-13829222D02*
X16699230Y-13810174D01*
X16699230Y-13810174D02*
X16718277Y-13800650D01*
X16718277Y-13800650D02*
X16756372Y-13800650D01*
X16756372Y-13800650D02*
X16775420Y-13810174D01*
X16775420Y-13810174D02*
X16784944Y-13829222D01*
X16784944Y-13829222D02*
X16784944Y-13848269D01*
X16784944Y-13848269D02*
X16689706Y-13867317D01*
X16861134Y-13924460D02*
X16880182Y-13933984D01*
X16880182Y-13933984D02*
X16918277Y-13933984D01*
X16918277Y-13933984D02*
X16937325Y-13924460D01*
X16937325Y-13924460D02*
X16946849Y-13905412D01*
X16946849Y-13905412D02*
X16946849Y-13895888D01*
X16946849Y-13895888D02*
X16937325Y-13876841D01*
X16937325Y-13876841D02*
X16918277Y-13867317D01*
X16918277Y-13867317D02*
X16889706Y-13867317D01*
X16889706Y-13867317D02*
X16870658Y-13857793D01*
X16870658Y-13857793D02*
X16861134Y-13838746D01*
X16861134Y-13838746D02*
X16861134Y-13829222D01*
X16861134Y-13829222D02*
X16870658Y-13810174D01*
X16870658Y-13810174D02*
X16889706Y-13800650D01*
X16889706Y-13800650D02*
X16918277Y-13800650D01*
X16918277Y-13800650D02*
X16937325Y-13810174D01*
X17013515Y-14010174D02*
X17023039Y-14000650D01*
X17023039Y-14000650D02*
X17042087Y-13972079D01*
X17042087Y-13972079D02*
X17051611Y-13953031D01*
X17051611Y-13953031D02*
X17061134Y-13924460D01*
X17061134Y-13924460D02*
X17070658Y-13876841D01*
X17070658Y-13876841D02*
X17070658Y-13838746D01*
X17070658Y-13838746D02*
X17061134Y-13791127D01*
X17061134Y-13791127D02*
X17051611Y-13762555D01*
X17051611Y-13762555D02*
X17042087Y-13743508D01*
X17042087Y-13743508D02*
X17023039Y-13714936D01*
X17023039Y-13714936D02*
X17013515Y-13705412D01*
D12*
X11857500Y-14106500D02*
G75*
G02*
X11797500Y-14106500I-30000J0D01*
G01*
X11797500Y-14106500D02*
G75*
G02*
X11857500Y-14106500I30000J0D01*
G01*
D11*
X12156372Y-13997984D02*
X12175420Y-13997984D01*
X12175420Y-13997984D02*
X12194467Y-14007508D01*
X12194467Y-14007508D02*
X12203991Y-14017031D01*
X12203991Y-14017031D02*
X12213515Y-14036079D01*
X12213515Y-14036079D02*
X12223039Y-14074174D01*
X12223039Y-14074174D02*
X12223039Y-14121793D01*
X12223039Y-14121793D02*
X12213515Y-14159888D01*
X12213515Y-14159888D02*
X12203991Y-14178936D01*
X12203991Y-14178936D02*
X12194467Y-14188460D01*
X12194467Y-14188460D02*
X12175420Y-14197984D01*
X12175420Y-14197984D02*
X12156372Y-14197984D01*
X12156372Y-14197984D02*
X12137324Y-14188460D01*
X12137324Y-14188460D02*
X12127801Y-14178936D01*
X12127801Y-14178936D02*
X12118277Y-14159888D01*
X12118277Y-14159888D02*
X12108753Y-14121793D01*
X12108753Y-14121793D02*
X12108753Y-14074174D01*
X12108753Y-14074174D02*
X12118277Y-14036079D01*
X12118277Y-14036079D02*
X12127801Y-14017031D01*
X12127801Y-14017031D02*
X12137324Y-14007508D01*
X12137324Y-14007508D02*
X12156372Y-13997984D01*
X12308753Y-14178936D02*
X12318277Y-14188460D01*
X12318277Y-14188460D02*
X12308753Y-14197984D01*
X12308753Y-14197984D02*
X12299229Y-14188460D01*
X12299229Y-14188460D02*
X12308753Y-14178936D01*
X12308753Y-14178936D02*
X12308753Y-14197984D01*
X12489705Y-13997984D02*
X12451610Y-13997984D01*
X12451610Y-13997984D02*
X12432562Y-14007508D01*
X12432562Y-14007508D02*
X12423039Y-14017031D01*
X12423039Y-14017031D02*
X12403991Y-14045603D01*
X12403991Y-14045603D02*
X12394467Y-14083698D01*
X12394467Y-14083698D02*
X12394467Y-14159888D01*
X12394467Y-14159888D02*
X12403991Y-14178936D01*
X12403991Y-14178936D02*
X12413515Y-14188460D01*
X12413515Y-14188460D02*
X12432562Y-14197984D01*
X12432562Y-14197984D02*
X12470658Y-14197984D01*
X12470658Y-14197984D02*
X12489705Y-14188460D01*
X12489705Y-14188460D02*
X12499229Y-14178936D01*
X12499229Y-14178936D02*
X12508753Y-14159888D01*
X12508753Y-14159888D02*
X12508753Y-14112269D01*
X12508753Y-14112269D02*
X12499229Y-14093222D01*
X12499229Y-14093222D02*
X12489705Y-14083698D01*
X12489705Y-14083698D02*
X12470658Y-14074174D01*
X12470658Y-14074174D02*
X12432562Y-14074174D01*
X12432562Y-14074174D02*
X12413515Y-14083698D01*
X12413515Y-14083698D02*
X12403991Y-14093222D01*
X12403991Y-14093222D02*
X12394467Y-14112269D01*
X12632562Y-13997984D02*
X12651610Y-13997984D01*
X12651610Y-13997984D02*
X12670658Y-14007508D01*
X12670658Y-14007508D02*
X12680182Y-14017031D01*
X12680182Y-14017031D02*
X12689705Y-14036079D01*
X12689705Y-14036079D02*
X12699229Y-14074174D01*
X12699229Y-14074174D02*
X12699229Y-14121793D01*
X12699229Y-14121793D02*
X12689705Y-14159888D01*
X12689705Y-14159888D02*
X12680182Y-14178936D01*
X12680182Y-14178936D02*
X12670658Y-14188460D01*
X12670658Y-14188460D02*
X12651610Y-14197984D01*
X12651610Y-14197984D02*
X12632562Y-14197984D01*
X12632562Y-14197984D02*
X12613515Y-14188460D01*
X12613515Y-14188460D02*
X12603991Y-14178936D01*
X12603991Y-14178936D02*
X12594467Y-14159888D01*
X12594467Y-14159888D02*
X12584943Y-14121793D01*
X12584943Y-14121793D02*
X12584943Y-14074174D01*
X12584943Y-14074174D02*
X12594467Y-14036079D01*
X12594467Y-14036079D02*
X12603991Y-14017031D01*
X12603991Y-14017031D02*
X12613515Y-14007508D01*
X12613515Y-14007508D02*
X12632562Y-13997984D01*
X12823039Y-13997984D02*
X12842086Y-13997984D01*
X12842086Y-13997984D02*
X12861134Y-14007508D01*
X12861134Y-14007508D02*
X12870658Y-14017031D01*
X12870658Y-14017031D02*
X12880182Y-14036079D01*
X12880182Y-14036079D02*
X12889705Y-14074174D01*
X12889705Y-14074174D02*
X12889705Y-14121793D01*
X12889705Y-14121793D02*
X12880182Y-14159888D01*
X12880182Y-14159888D02*
X12870658Y-14178936D01*
X12870658Y-14178936D02*
X12861134Y-14188460D01*
X12861134Y-14188460D02*
X12842086Y-14197984D01*
X12842086Y-14197984D02*
X12823039Y-14197984D01*
X12823039Y-14197984D02*
X12803991Y-14188460D01*
X12803991Y-14188460D02*
X12794467Y-14178936D01*
X12794467Y-14178936D02*
X12784943Y-14159888D01*
X12784943Y-14159888D02*
X12775420Y-14121793D01*
X12775420Y-14121793D02*
X12775420Y-14074174D01*
X12775420Y-14074174D02*
X12784943Y-14036079D01*
X12784943Y-14036079D02*
X12794467Y-14017031D01*
X12794467Y-14017031D02*
X12803991Y-14007508D01*
X12803991Y-14007508D02*
X12823039Y-13997984D01*
X12975420Y-14197984D02*
X12975420Y-14064650D01*
X12975420Y-14083698D02*
X12984943Y-14074174D01*
X12984943Y-14074174D02*
X13003991Y-14064650D01*
X13003991Y-14064650D02*
X13032563Y-14064650D01*
X13032563Y-14064650D02*
X13051610Y-14074174D01*
X13051610Y-14074174D02*
X13061134Y-14093222D01*
X13061134Y-14093222D02*
X13061134Y-14197984D01*
X13061134Y-14093222D02*
X13070658Y-14074174D01*
X13070658Y-14074174D02*
X13089705Y-14064650D01*
X13089705Y-14064650D02*
X13118277Y-14064650D01*
X13118277Y-14064650D02*
X13137324Y-14074174D01*
X13137324Y-14074174D02*
X13146848Y-14093222D01*
X13146848Y-14093222D02*
X13146848Y-14197984D01*
X13242086Y-14197984D02*
X13242086Y-14064650D01*
X13242086Y-14083698D02*
X13251610Y-14074174D01*
X13251610Y-14074174D02*
X13270658Y-14064650D01*
X13270658Y-14064650D02*
X13299229Y-14064650D01*
X13299229Y-14064650D02*
X13318277Y-14074174D01*
X13318277Y-14074174D02*
X13327801Y-14093222D01*
X13327801Y-14093222D02*
X13327801Y-14197984D01*
X13327801Y-14093222D02*
X13337324Y-14074174D01*
X13337324Y-14074174D02*
X13356372Y-14064650D01*
X13356372Y-14064650D02*
X13384943Y-14064650D01*
X13384943Y-14064650D02*
X13403991Y-14074174D01*
X13403991Y-14074174D02*
X13413515Y-14093222D01*
X13413515Y-14093222D02*
X13413515Y-14197984D01*
X13803991Y-13988460D02*
X13632563Y-14245603D01*
X14061134Y-13997984D02*
X14080182Y-13997984D01*
X14080182Y-13997984D02*
X14099229Y-14007508D01*
X14099229Y-14007508D02*
X14108753Y-14017031D01*
X14108753Y-14017031D02*
X14118277Y-14036079D01*
X14118277Y-14036079D02*
X14127801Y-14074174D01*
X14127801Y-14074174D02*
X14127801Y-14121793D01*
X14127801Y-14121793D02*
X14118277Y-14159888D01*
X14118277Y-14159888D02*
X14108753Y-14178936D01*
X14108753Y-14178936D02*
X14099229Y-14188460D01*
X14099229Y-14188460D02*
X14080182Y-14197984D01*
X14080182Y-14197984D02*
X14061134Y-14197984D01*
X14061134Y-14197984D02*
X14042086Y-14188460D01*
X14042086Y-14188460D02*
X14032563Y-14178936D01*
X14032563Y-14178936D02*
X14023039Y-14159888D01*
X14023039Y-14159888D02*
X14013515Y-14121793D01*
X14013515Y-14121793D02*
X14013515Y-14074174D01*
X14013515Y-14074174D02*
X14023039Y-14036079D01*
X14023039Y-14036079D02*
X14032563Y-14017031D01*
X14032563Y-14017031D02*
X14042086Y-14007508D01*
X14042086Y-14007508D02*
X14061134Y-13997984D01*
X14213515Y-14178936D02*
X14223039Y-14188460D01*
X14223039Y-14188460D02*
X14213515Y-14197984D01*
X14213515Y-14197984D02*
X14203991Y-14188460D01*
X14203991Y-14188460D02*
X14213515Y-14178936D01*
X14213515Y-14178936D02*
X14213515Y-14197984D01*
X14346848Y-13997984D02*
X14365896Y-13997984D01*
X14365896Y-13997984D02*
X14384944Y-14007508D01*
X14384944Y-14007508D02*
X14394467Y-14017031D01*
X14394467Y-14017031D02*
X14403991Y-14036079D01*
X14403991Y-14036079D02*
X14413515Y-14074174D01*
X14413515Y-14074174D02*
X14413515Y-14121793D01*
X14413515Y-14121793D02*
X14403991Y-14159888D01*
X14403991Y-14159888D02*
X14394467Y-14178936D01*
X14394467Y-14178936D02*
X14384944Y-14188460D01*
X14384944Y-14188460D02*
X14365896Y-14197984D01*
X14365896Y-14197984D02*
X14346848Y-14197984D01*
X14346848Y-14197984D02*
X14327801Y-14188460D01*
X14327801Y-14188460D02*
X14318277Y-14178936D01*
X14318277Y-14178936D02*
X14308753Y-14159888D01*
X14308753Y-14159888D02*
X14299229Y-14121793D01*
X14299229Y-14121793D02*
X14299229Y-14074174D01*
X14299229Y-14074174D02*
X14308753Y-14036079D01*
X14308753Y-14036079D02*
X14318277Y-14017031D01*
X14318277Y-14017031D02*
X14327801Y-14007508D01*
X14327801Y-14007508D02*
X14346848Y-13997984D01*
X14489706Y-14017031D02*
X14499229Y-14007508D01*
X14499229Y-14007508D02*
X14518277Y-13997984D01*
X14518277Y-13997984D02*
X14565896Y-13997984D01*
X14565896Y-13997984D02*
X14584944Y-14007508D01*
X14584944Y-14007508D02*
X14594467Y-14017031D01*
X14594467Y-14017031D02*
X14603991Y-14036079D01*
X14603991Y-14036079D02*
X14603991Y-14055127D01*
X14603991Y-14055127D02*
X14594467Y-14083698D01*
X14594467Y-14083698D02*
X14480182Y-14197984D01*
X14480182Y-14197984D02*
X14603991Y-14197984D01*
X14670658Y-13997984D02*
X14794467Y-13997984D01*
X14794467Y-13997984D02*
X14727801Y-14074174D01*
X14727801Y-14074174D02*
X14756372Y-14074174D01*
X14756372Y-14074174D02*
X14775420Y-14083698D01*
X14775420Y-14083698D02*
X14784944Y-14093222D01*
X14784944Y-14093222D02*
X14794467Y-14112269D01*
X14794467Y-14112269D02*
X14794467Y-14159888D01*
X14794467Y-14159888D02*
X14784944Y-14178936D01*
X14784944Y-14178936D02*
X14775420Y-14188460D01*
X14775420Y-14188460D02*
X14756372Y-14197984D01*
X14756372Y-14197984D02*
X14699229Y-14197984D01*
X14699229Y-14197984D02*
X14680182Y-14188460D01*
X14680182Y-14188460D02*
X14670658Y-14178936D01*
X14965896Y-13997984D02*
X14927801Y-13997984D01*
X14927801Y-13997984D02*
X14908753Y-14007508D01*
X14908753Y-14007508D02*
X14899229Y-14017031D01*
X14899229Y-14017031D02*
X14880182Y-14045603D01*
X14880182Y-14045603D02*
X14870658Y-14083698D01*
X14870658Y-14083698D02*
X14870658Y-14159888D01*
X14870658Y-14159888D02*
X14880182Y-14178936D01*
X14880182Y-14178936D02*
X14889706Y-14188460D01*
X14889706Y-14188460D02*
X14908753Y-14197984D01*
X14908753Y-14197984D02*
X14946848Y-14197984D01*
X14946848Y-14197984D02*
X14965896Y-14188460D01*
X14965896Y-14188460D02*
X14975420Y-14178936D01*
X14975420Y-14178936D02*
X14984944Y-14159888D01*
X14984944Y-14159888D02*
X14984944Y-14112269D01*
X14984944Y-14112269D02*
X14975420Y-14093222D01*
X14975420Y-14093222D02*
X14965896Y-14083698D01*
X14965896Y-14083698D02*
X14946848Y-14074174D01*
X14946848Y-14074174D02*
X14908753Y-14074174D01*
X14908753Y-14074174D02*
X14889706Y-14083698D01*
X14889706Y-14083698D02*
X14880182Y-14093222D01*
X14880182Y-14093222D02*
X14870658Y-14112269D01*
X15061134Y-13997984D02*
X15061134Y-14036079D01*
X15137325Y-13997984D02*
X15137325Y-14036079D01*
X15432563Y-14274174D02*
X15423039Y-14264650D01*
X15423039Y-14264650D02*
X15403991Y-14236079D01*
X15403991Y-14236079D02*
X15394468Y-14217031D01*
X15394468Y-14217031D02*
X15384944Y-14188460D01*
X15384944Y-14188460D02*
X15375420Y-14140841D01*
X15375420Y-14140841D02*
X15375420Y-14102746D01*
X15375420Y-14102746D02*
X15384944Y-14055127D01*
X15384944Y-14055127D02*
X15394468Y-14026555D01*
X15394468Y-14026555D02*
X15403991Y-14007508D01*
X15403991Y-14007508D02*
X15423039Y-13978936D01*
X15423039Y-13978936D02*
X15432563Y-13969412D01*
X15546848Y-13997984D02*
X15565896Y-13997984D01*
X15565896Y-13997984D02*
X15584944Y-14007508D01*
X15584944Y-14007508D02*
X15594468Y-14017031D01*
X15594468Y-14017031D02*
X15603991Y-14036079D01*
X15603991Y-14036079D02*
X15613515Y-14074174D01*
X15613515Y-14074174D02*
X15613515Y-14121793D01*
X15613515Y-14121793D02*
X15603991Y-14159888D01*
X15603991Y-14159888D02*
X15594468Y-14178936D01*
X15594468Y-14178936D02*
X15584944Y-14188460D01*
X15584944Y-14188460D02*
X15565896Y-14197984D01*
X15565896Y-14197984D02*
X15546848Y-14197984D01*
X15546848Y-14197984D02*
X15527801Y-14188460D01*
X15527801Y-14188460D02*
X15518277Y-14178936D01*
X15518277Y-14178936D02*
X15508753Y-14159888D01*
X15508753Y-14159888D02*
X15499229Y-14121793D01*
X15499229Y-14121793D02*
X15499229Y-14074174D01*
X15499229Y-14074174D02*
X15508753Y-14036079D01*
X15508753Y-14036079D02*
X15518277Y-14017031D01*
X15518277Y-14017031D02*
X15527801Y-14007508D01*
X15527801Y-14007508D02*
X15546848Y-13997984D01*
X15851610Y-14197984D02*
X15851610Y-13997984D01*
X15937325Y-14197984D02*
X15937325Y-14093222D01*
X15937325Y-14093222D02*
X15927801Y-14074174D01*
X15927801Y-14074174D02*
X15908753Y-14064650D01*
X15908753Y-14064650D02*
X15880182Y-14064650D01*
X15880182Y-14064650D02*
X15861134Y-14074174D01*
X15861134Y-14074174D02*
X15851610Y-14083698D01*
X16061134Y-14197984D02*
X16042087Y-14188460D01*
X16042087Y-14188460D02*
X16032563Y-14178936D01*
X16032563Y-14178936D02*
X16023039Y-14159888D01*
X16023039Y-14159888D02*
X16023039Y-14102746D01*
X16023039Y-14102746D02*
X16032563Y-14083698D01*
X16032563Y-14083698D02*
X16042087Y-14074174D01*
X16042087Y-14074174D02*
X16061134Y-14064650D01*
X16061134Y-14064650D02*
X16089706Y-14064650D01*
X16089706Y-14064650D02*
X16108753Y-14074174D01*
X16108753Y-14074174D02*
X16118277Y-14083698D01*
X16118277Y-14083698D02*
X16127801Y-14102746D01*
X16127801Y-14102746D02*
X16127801Y-14159888D01*
X16127801Y-14159888D02*
X16118277Y-14178936D01*
X16118277Y-14178936D02*
X16108753Y-14188460D01*
X16108753Y-14188460D02*
X16089706Y-14197984D01*
X16089706Y-14197984D02*
X16061134Y-14197984D01*
X16242087Y-14197984D02*
X16223039Y-14188460D01*
X16223039Y-14188460D02*
X16213515Y-14169412D01*
X16213515Y-14169412D02*
X16213515Y-13997984D01*
X16394468Y-14188460D02*
X16375420Y-14197984D01*
X16375420Y-14197984D02*
X16337325Y-14197984D01*
X16337325Y-14197984D02*
X16318277Y-14188460D01*
X16318277Y-14188460D02*
X16308753Y-14169412D01*
X16308753Y-14169412D02*
X16308753Y-14093222D01*
X16308753Y-14093222D02*
X16318277Y-14074174D01*
X16318277Y-14074174D02*
X16337325Y-14064650D01*
X16337325Y-14064650D02*
X16375420Y-14064650D01*
X16375420Y-14064650D02*
X16394468Y-14074174D01*
X16394468Y-14074174D02*
X16403991Y-14093222D01*
X16403991Y-14093222D02*
X16403991Y-14112269D01*
X16403991Y-14112269D02*
X16308753Y-14131317D01*
X16480182Y-14188460D02*
X16499230Y-14197984D01*
X16499230Y-14197984D02*
X16537325Y-14197984D01*
X16537325Y-14197984D02*
X16556372Y-14188460D01*
X16556372Y-14188460D02*
X16565896Y-14169412D01*
X16565896Y-14169412D02*
X16565896Y-14159888D01*
X16565896Y-14159888D02*
X16556372Y-14140841D01*
X16556372Y-14140841D02*
X16537325Y-14131317D01*
X16537325Y-14131317D02*
X16508753Y-14131317D01*
X16508753Y-14131317D02*
X16489706Y-14121793D01*
X16489706Y-14121793D02*
X16480182Y-14102746D01*
X16480182Y-14102746D02*
X16480182Y-14093222D01*
X16480182Y-14093222D02*
X16489706Y-14074174D01*
X16489706Y-14074174D02*
X16508753Y-14064650D01*
X16508753Y-14064650D02*
X16537325Y-14064650D01*
X16537325Y-14064650D02*
X16556372Y-14074174D01*
X16803992Y-14121793D02*
X16956373Y-14121793D01*
X16880182Y-14197984D02*
X16880182Y-14045603D01*
X17289706Y-14064650D02*
X17289706Y-14197984D01*
X17242087Y-13988460D02*
X17194468Y-14131317D01*
X17194468Y-14131317D02*
X17318277Y-14131317D01*
X17537325Y-14188460D02*
X17556373Y-14197984D01*
X17556373Y-14197984D02*
X17594468Y-14197984D01*
X17594468Y-14197984D02*
X17613516Y-14188460D01*
X17613516Y-14188460D02*
X17623039Y-14169412D01*
X17623039Y-14169412D02*
X17623039Y-14159888D01*
X17623039Y-14159888D02*
X17613516Y-14140841D01*
X17613516Y-14140841D02*
X17594468Y-14131317D01*
X17594468Y-14131317D02*
X17565896Y-14131317D01*
X17565896Y-14131317D02*
X17546849Y-14121793D01*
X17546849Y-14121793D02*
X17537325Y-14102746D01*
X17537325Y-14102746D02*
X17537325Y-14093222D01*
X17537325Y-14093222D02*
X17546849Y-14074174D01*
X17546849Y-14074174D02*
X17565896Y-14064650D01*
X17565896Y-14064650D02*
X17594468Y-14064650D01*
X17594468Y-14064650D02*
X17613516Y-14074174D01*
X17737325Y-14197984D02*
X17718277Y-14188460D01*
X17718277Y-14188460D02*
X17708754Y-14169412D01*
X17708754Y-14169412D02*
X17708754Y-13997984D01*
X17842087Y-14197984D02*
X17823039Y-14188460D01*
X17823039Y-14188460D02*
X17813516Y-14178936D01*
X17813516Y-14178936D02*
X17803992Y-14159888D01*
X17803992Y-14159888D02*
X17803992Y-14102746D01*
X17803992Y-14102746D02*
X17813516Y-14083698D01*
X17813516Y-14083698D02*
X17823039Y-14074174D01*
X17823039Y-14074174D02*
X17842087Y-14064650D01*
X17842087Y-14064650D02*
X17870658Y-14064650D01*
X17870658Y-14064650D02*
X17889706Y-14074174D01*
X17889706Y-14074174D02*
X17899230Y-14083698D01*
X17899230Y-14083698D02*
X17908754Y-14102746D01*
X17908754Y-14102746D02*
X17908754Y-14159888D01*
X17908754Y-14159888D02*
X17899230Y-14178936D01*
X17899230Y-14178936D02*
X17889706Y-14188460D01*
X17889706Y-14188460D02*
X17870658Y-14197984D01*
X17870658Y-14197984D02*
X17842087Y-14197984D01*
X17965897Y-14064650D02*
X18042087Y-14064650D01*
X17994468Y-13997984D02*
X17994468Y-14169412D01*
X17994468Y-14169412D02*
X18003992Y-14188460D01*
X18003992Y-14188460D02*
X18023039Y-14197984D01*
X18023039Y-14197984D02*
X18042087Y-14197984D01*
X18099230Y-14188460D02*
X18118277Y-14197984D01*
X18118277Y-14197984D02*
X18156373Y-14197984D01*
X18156373Y-14197984D02*
X18175420Y-14188460D01*
X18175420Y-14188460D02*
X18184944Y-14169412D01*
X18184944Y-14169412D02*
X18184944Y-14159888D01*
X18184944Y-14159888D02*
X18175420Y-14140841D01*
X18175420Y-14140841D02*
X18156373Y-14131317D01*
X18156373Y-14131317D02*
X18127801Y-14131317D01*
X18127801Y-14131317D02*
X18108754Y-14121793D01*
X18108754Y-14121793D02*
X18099230Y-14102746D01*
X18099230Y-14102746D02*
X18099230Y-14093222D01*
X18099230Y-14093222D02*
X18108754Y-14074174D01*
X18108754Y-14074174D02*
X18127801Y-14064650D01*
X18127801Y-14064650D02*
X18156373Y-14064650D01*
X18156373Y-14064650D02*
X18175420Y-14074174D01*
X18251611Y-14274174D02*
X18261135Y-14264650D01*
X18261135Y-14264650D02*
X18280182Y-14236079D01*
X18280182Y-14236079D02*
X18289706Y-14217031D01*
X18289706Y-14217031D02*
X18299230Y-14188460D01*
X18299230Y-14188460D02*
X18308754Y-14140841D01*
X18308754Y-14140841D02*
X18308754Y-14102746D01*
X18308754Y-14102746D02*
X18299230Y-14055127D01*
X18299230Y-14055127D02*
X18289706Y-14026555D01*
X18289706Y-14026555D02*
X18280182Y-14007508D01*
X18280182Y-14007508D02*
X18261135Y-13978936D01*
X18261135Y-13978936D02*
X18251611Y-13969412D01*
D12*
X11807500Y-14320500D02*
X11807500Y-14420500D01*
X11757500Y-14370500D02*
X11857500Y-14370500D01*
D11*
X12223039Y-14461984D02*
X12108753Y-14461984D01*
X12165896Y-14461984D02*
X12165896Y-14261984D01*
X12165896Y-14261984D02*
X12146848Y-14290555D01*
X12146848Y-14290555D02*
X12127801Y-14309603D01*
X12127801Y-14309603D02*
X12108753Y-14319127D01*
X12308753Y-14442936D02*
X12318277Y-14452460D01*
X12318277Y-14452460D02*
X12308753Y-14461984D01*
X12308753Y-14461984D02*
X12299229Y-14452460D01*
X12299229Y-14452460D02*
X12308753Y-14442936D01*
X12308753Y-14442936D02*
X12308753Y-14461984D01*
X12442086Y-14261984D02*
X12461134Y-14261984D01*
X12461134Y-14261984D02*
X12480182Y-14271508D01*
X12480182Y-14271508D02*
X12489705Y-14281031D01*
X12489705Y-14281031D02*
X12499229Y-14300079D01*
X12499229Y-14300079D02*
X12508753Y-14338174D01*
X12508753Y-14338174D02*
X12508753Y-14385793D01*
X12508753Y-14385793D02*
X12499229Y-14423888D01*
X12499229Y-14423888D02*
X12489705Y-14442936D01*
X12489705Y-14442936D02*
X12480182Y-14452460D01*
X12480182Y-14452460D02*
X12461134Y-14461984D01*
X12461134Y-14461984D02*
X12442086Y-14461984D01*
X12442086Y-14461984D02*
X12423039Y-14452460D01*
X12423039Y-14452460D02*
X12413515Y-14442936D01*
X12413515Y-14442936D02*
X12403991Y-14423888D01*
X12403991Y-14423888D02*
X12394467Y-14385793D01*
X12394467Y-14385793D02*
X12394467Y-14338174D01*
X12394467Y-14338174D02*
X12403991Y-14300079D01*
X12403991Y-14300079D02*
X12413515Y-14281031D01*
X12413515Y-14281031D02*
X12423039Y-14271508D01*
X12423039Y-14271508D02*
X12442086Y-14261984D01*
X12632562Y-14261984D02*
X12651610Y-14261984D01*
X12651610Y-14261984D02*
X12670658Y-14271508D01*
X12670658Y-14271508D02*
X12680182Y-14281031D01*
X12680182Y-14281031D02*
X12689705Y-14300079D01*
X12689705Y-14300079D02*
X12699229Y-14338174D01*
X12699229Y-14338174D02*
X12699229Y-14385793D01*
X12699229Y-14385793D02*
X12689705Y-14423888D01*
X12689705Y-14423888D02*
X12680182Y-14442936D01*
X12680182Y-14442936D02*
X12670658Y-14452460D01*
X12670658Y-14452460D02*
X12651610Y-14461984D01*
X12651610Y-14461984D02*
X12632562Y-14461984D01*
X12632562Y-14461984D02*
X12613515Y-14452460D01*
X12613515Y-14452460D02*
X12603991Y-14442936D01*
X12603991Y-14442936D02*
X12594467Y-14423888D01*
X12594467Y-14423888D02*
X12584943Y-14385793D01*
X12584943Y-14385793D02*
X12584943Y-14338174D01*
X12584943Y-14338174D02*
X12594467Y-14300079D01*
X12594467Y-14300079D02*
X12603991Y-14281031D01*
X12603991Y-14281031D02*
X12613515Y-14271508D01*
X12613515Y-14271508D02*
X12632562Y-14261984D01*
X12823039Y-14261984D02*
X12842086Y-14261984D01*
X12842086Y-14261984D02*
X12861134Y-14271508D01*
X12861134Y-14271508D02*
X12870658Y-14281031D01*
X12870658Y-14281031D02*
X12880182Y-14300079D01*
X12880182Y-14300079D02*
X12889705Y-14338174D01*
X12889705Y-14338174D02*
X12889705Y-14385793D01*
X12889705Y-14385793D02*
X12880182Y-14423888D01*
X12880182Y-14423888D02*
X12870658Y-14442936D01*
X12870658Y-14442936D02*
X12861134Y-14452460D01*
X12861134Y-14452460D02*
X12842086Y-14461984D01*
X12842086Y-14461984D02*
X12823039Y-14461984D01*
X12823039Y-14461984D02*
X12803991Y-14452460D01*
X12803991Y-14452460D02*
X12794467Y-14442936D01*
X12794467Y-14442936D02*
X12784943Y-14423888D01*
X12784943Y-14423888D02*
X12775420Y-14385793D01*
X12775420Y-14385793D02*
X12775420Y-14338174D01*
X12775420Y-14338174D02*
X12784943Y-14300079D01*
X12784943Y-14300079D02*
X12794467Y-14281031D01*
X12794467Y-14281031D02*
X12803991Y-14271508D01*
X12803991Y-14271508D02*
X12823039Y-14261984D01*
X12975420Y-14461984D02*
X12975420Y-14328650D01*
X12975420Y-14347698D02*
X12984943Y-14338174D01*
X12984943Y-14338174D02*
X13003991Y-14328650D01*
X13003991Y-14328650D02*
X13032563Y-14328650D01*
X13032563Y-14328650D02*
X13051610Y-14338174D01*
X13051610Y-14338174D02*
X13061134Y-14357222D01*
X13061134Y-14357222D02*
X13061134Y-14461984D01*
X13061134Y-14357222D02*
X13070658Y-14338174D01*
X13070658Y-14338174D02*
X13089705Y-14328650D01*
X13089705Y-14328650D02*
X13118277Y-14328650D01*
X13118277Y-14328650D02*
X13137324Y-14338174D01*
X13137324Y-14338174D02*
X13146848Y-14357222D01*
X13146848Y-14357222D02*
X13146848Y-14461984D01*
X13242086Y-14461984D02*
X13242086Y-14328650D01*
X13242086Y-14347698D02*
X13251610Y-14338174D01*
X13251610Y-14338174D02*
X13270658Y-14328650D01*
X13270658Y-14328650D02*
X13299229Y-14328650D01*
X13299229Y-14328650D02*
X13318277Y-14338174D01*
X13318277Y-14338174D02*
X13327801Y-14357222D01*
X13327801Y-14357222D02*
X13327801Y-14461984D01*
X13327801Y-14357222D02*
X13337324Y-14338174D01*
X13337324Y-14338174D02*
X13356372Y-14328650D01*
X13356372Y-14328650D02*
X13384943Y-14328650D01*
X13384943Y-14328650D02*
X13403991Y-14338174D01*
X13403991Y-14338174D02*
X13413515Y-14357222D01*
X13413515Y-14357222D02*
X13413515Y-14461984D01*
X13803991Y-14252460D02*
X13632563Y-14509603D01*
X14061134Y-14261984D02*
X14080182Y-14261984D01*
X14080182Y-14261984D02*
X14099229Y-14271508D01*
X14099229Y-14271508D02*
X14108753Y-14281031D01*
X14108753Y-14281031D02*
X14118277Y-14300079D01*
X14118277Y-14300079D02*
X14127801Y-14338174D01*
X14127801Y-14338174D02*
X14127801Y-14385793D01*
X14127801Y-14385793D02*
X14118277Y-14423888D01*
X14118277Y-14423888D02*
X14108753Y-14442936D01*
X14108753Y-14442936D02*
X14099229Y-14452460D01*
X14099229Y-14452460D02*
X14080182Y-14461984D01*
X14080182Y-14461984D02*
X14061134Y-14461984D01*
X14061134Y-14461984D02*
X14042086Y-14452460D01*
X14042086Y-14452460D02*
X14032563Y-14442936D01*
X14032563Y-14442936D02*
X14023039Y-14423888D01*
X14023039Y-14423888D02*
X14013515Y-14385793D01*
X14013515Y-14385793D02*
X14013515Y-14338174D01*
X14013515Y-14338174D02*
X14023039Y-14300079D01*
X14023039Y-14300079D02*
X14032563Y-14281031D01*
X14032563Y-14281031D02*
X14042086Y-14271508D01*
X14042086Y-14271508D02*
X14061134Y-14261984D01*
X14213515Y-14442936D02*
X14223039Y-14452460D01*
X14223039Y-14452460D02*
X14213515Y-14461984D01*
X14213515Y-14461984D02*
X14203991Y-14452460D01*
X14203991Y-14452460D02*
X14213515Y-14442936D01*
X14213515Y-14442936D02*
X14213515Y-14461984D01*
X14346848Y-14261984D02*
X14365896Y-14261984D01*
X14365896Y-14261984D02*
X14384944Y-14271508D01*
X14384944Y-14271508D02*
X14394467Y-14281031D01*
X14394467Y-14281031D02*
X14403991Y-14300079D01*
X14403991Y-14300079D02*
X14413515Y-14338174D01*
X14413515Y-14338174D02*
X14413515Y-14385793D01*
X14413515Y-14385793D02*
X14403991Y-14423888D01*
X14403991Y-14423888D02*
X14394467Y-14442936D01*
X14394467Y-14442936D02*
X14384944Y-14452460D01*
X14384944Y-14452460D02*
X14365896Y-14461984D01*
X14365896Y-14461984D02*
X14346848Y-14461984D01*
X14346848Y-14461984D02*
X14327801Y-14452460D01*
X14327801Y-14452460D02*
X14318277Y-14442936D01*
X14318277Y-14442936D02*
X14308753Y-14423888D01*
X14308753Y-14423888D02*
X14299229Y-14385793D01*
X14299229Y-14385793D02*
X14299229Y-14338174D01*
X14299229Y-14338174D02*
X14308753Y-14300079D01*
X14308753Y-14300079D02*
X14318277Y-14281031D01*
X14318277Y-14281031D02*
X14327801Y-14271508D01*
X14327801Y-14271508D02*
X14346848Y-14261984D01*
X14480182Y-14261984D02*
X14603991Y-14261984D01*
X14603991Y-14261984D02*
X14537325Y-14338174D01*
X14537325Y-14338174D02*
X14565896Y-14338174D01*
X14565896Y-14338174D02*
X14584944Y-14347698D01*
X14584944Y-14347698D02*
X14594467Y-14357222D01*
X14594467Y-14357222D02*
X14603991Y-14376269D01*
X14603991Y-14376269D02*
X14603991Y-14423888D01*
X14603991Y-14423888D02*
X14594467Y-14442936D01*
X14594467Y-14442936D02*
X14584944Y-14452460D01*
X14584944Y-14452460D02*
X14565896Y-14461984D01*
X14565896Y-14461984D02*
X14508753Y-14461984D01*
X14508753Y-14461984D02*
X14489706Y-14452460D01*
X14489706Y-14452460D02*
X14480182Y-14442936D01*
X14699229Y-14461984D02*
X14737325Y-14461984D01*
X14737325Y-14461984D02*
X14756372Y-14452460D01*
X14756372Y-14452460D02*
X14765896Y-14442936D01*
X14765896Y-14442936D02*
X14784944Y-14414365D01*
X14784944Y-14414365D02*
X14794467Y-14376269D01*
X14794467Y-14376269D02*
X14794467Y-14300079D01*
X14794467Y-14300079D02*
X14784944Y-14281031D01*
X14784944Y-14281031D02*
X14775420Y-14271508D01*
X14775420Y-14271508D02*
X14756372Y-14261984D01*
X14756372Y-14261984D02*
X14718277Y-14261984D01*
X14718277Y-14261984D02*
X14699229Y-14271508D01*
X14699229Y-14271508D02*
X14689706Y-14281031D01*
X14689706Y-14281031D02*
X14680182Y-14300079D01*
X14680182Y-14300079D02*
X14680182Y-14347698D01*
X14680182Y-14347698D02*
X14689706Y-14366746D01*
X14689706Y-14366746D02*
X14699229Y-14376269D01*
X14699229Y-14376269D02*
X14718277Y-14385793D01*
X14718277Y-14385793D02*
X14756372Y-14385793D01*
X14756372Y-14385793D02*
X14775420Y-14376269D01*
X14775420Y-14376269D02*
X14784944Y-14366746D01*
X14784944Y-14366746D02*
X14794467Y-14347698D01*
X14965896Y-14328650D02*
X14965896Y-14461984D01*
X14918277Y-14252460D02*
X14870658Y-14395317D01*
X14870658Y-14395317D02*
X14994467Y-14395317D01*
X15061134Y-14261984D02*
X15061134Y-14300079D01*
X15137325Y-14261984D02*
X15137325Y-14300079D01*
X15432563Y-14538174D02*
X15423039Y-14528650D01*
X15423039Y-14528650D02*
X15403991Y-14500079D01*
X15403991Y-14500079D02*
X15394468Y-14481031D01*
X15394468Y-14481031D02*
X15384944Y-14452460D01*
X15384944Y-14452460D02*
X15375420Y-14404841D01*
X15375420Y-14404841D02*
X15375420Y-14366746D01*
X15375420Y-14366746D02*
X15384944Y-14319127D01*
X15384944Y-14319127D02*
X15394468Y-14290555D01*
X15394468Y-14290555D02*
X15403991Y-14271508D01*
X15403991Y-14271508D02*
X15423039Y-14242936D01*
X15423039Y-14242936D02*
X15432563Y-14233412D01*
X15499229Y-14281031D02*
X15508753Y-14271508D01*
X15508753Y-14271508D02*
X15527801Y-14261984D01*
X15527801Y-14261984D02*
X15575420Y-14261984D01*
X15575420Y-14261984D02*
X15594468Y-14271508D01*
X15594468Y-14271508D02*
X15603991Y-14281031D01*
X15603991Y-14281031D02*
X15613515Y-14300079D01*
X15613515Y-14300079D02*
X15613515Y-14319127D01*
X15613515Y-14319127D02*
X15603991Y-14347698D01*
X15603991Y-14347698D02*
X15489706Y-14461984D01*
X15489706Y-14461984D02*
X15613515Y-14461984D01*
X15727801Y-14347698D02*
X15708753Y-14338174D01*
X15708753Y-14338174D02*
X15699229Y-14328650D01*
X15699229Y-14328650D02*
X15689706Y-14309603D01*
X15689706Y-14309603D02*
X15689706Y-14300079D01*
X15689706Y-14300079D02*
X15699229Y-14281031D01*
X15699229Y-14281031D02*
X15708753Y-14271508D01*
X15708753Y-14271508D02*
X15727801Y-14261984D01*
X15727801Y-14261984D02*
X15765896Y-14261984D01*
X15765896Y-14261984D02*
X15784944Y-14271508D01*
X15784944Y-14271508D02*
X15794468Y-14281031D01*
X15794468Y-14281031D02*
X15803991Y-14300079D01*
X15803991Y-14300079D02*
X15803991Y-14309603D01*
X15803991Y-14309603D02*
X15794468Y-14328650D01*
X15794468Y-14328650D02*
X15784944Y-14338174D01*
X15784944Y-14338174D02*
X15765896Y-14347698D01*
X15765896Y-14347698D02*
X15727801Y-14347698D01*
X15727801Y-14347698D02*
X15708753Y-14357222D01*
X15708753Y-14357222D02*
X15699229Y-14366746D01*
X15699229Y-14366746D02*
X15689706Y-14385793D01*
X15689706Y-14385793D02*
X15689706Y-14423888D01*
X15689706Y-14423888D02*
X15699229Y-14442936D01*
X15699229Y-14442936D02*
X15708753Y-14452460D01*
X15708753Y-14452460D02*
X15727801Y-14461984D01*
X15727801Y-14461984D02*
X15765896Y-14461984D01*
X15765896Y-14461984D02*
X15784944Y-14452460D01*
X15784944Y-14452460D02*
X15794468Y-14442936D01*
X15794468Y-14442936D02*
X15803991Y-14423888D01*
X15803991Y-14423888D02*
X15803991Y-14385793D01*
X15803991Y-14385793D02*
X15794468Y-14366746D01*
X15794468Y-14366746D02*
X15784944Y-14357222D01*
X15784944Y-14357222D02*
X15765896Y-14347698D01*
X16042087Y-14461984D02*
X16042087Y-14261984D01*
X16127801Y-14461984D02*
X16127801Y-14357222D01*
X16127801Y-14357222D02*
X16118277Y-14338174D01*
X16118277Y-14338174D02*
X16099230Y-14328650D01*
X16099230Y-14328650D02*
X16070658Y-14328650D01*
X16070658Y-14328650D02*
X16051610Y-14338174D01*
X16051610Y-14338174D02*
X16042087Y-14347698D01*
X16251610Y-14461984D02*
X16232563Y-14452460D01*
X16232563Y-14452460D02*
X16223039Y-14442936D01*
X16223039Y-14442936D02*
X16213515Y-14423888D01*
X16213515Y-14423888D02*
X16213515Y-14366746D01*
X16213515Y-14366746D02*
X16223039Y-14347698D01*
X16223039Y-14347698D02*
X16232563Y-14338174D01*
X16232563Y-14338174D02*
X16251610Y-14328650D01*
X16251610Y-14328650D02*
X16280182Y-14328650D01*
X16280182Y-14328650D02*
X16299230Y-14338174D01*
X16299230Y-14338174D02*
X16308753Y-14347698D01*
X16308753Y-14347698D02*
X16318277Y-14366746D01*
X16318277Y-14366746D02*
X16318277Y-14423888D01*
X16318277Y-14423888D02*
X16308753Y-14442936D01*
X16308753Y-14442936D02*
X16299230Y-14452460D01*
X16299230Y-14452460D02*
X16280182Y-14461984D01*
X16280182Y-14461984D02*
X16251610Y-14461984D01*
X16432563Y-14461984D02*
X16413515Y-14452460D01*
X16413515Y-14452460D02*
X16403991Y-14433412D01*
X16403991Y-14433412D02*
X16403991Y-14261984D01*
X16584944Y-14452460D02*
X16565896Y-14461984D01*
X16565896Y-14461984D02*
X16527801Y-14461984D01*
X16527801Y-14461984D02*
X16508753Y-14452460D01*
X16508753Y-14452460D02*
X16499230Y-14433412D01*
X16499230Y-14433412D02*
X16499230Y-14357222D01*
X16499230Y-14357222D02*
X16508753Y-14338174D01*
X16508753Y-14338174D02*
X16527801Y-14328650D01*
X16527801Y-14328650D02*
X16565896Y-14328650D01*
X16565896Y-14328650D02*
X16584944Y-14338174D01*
X16584944Y-14338174D02*
X16594468Y-14357222D01*
X16594468Y-14357222D02*
X16594468Y-14376269D01*
X16594468Y-14376269D02*
X16499230Y-14395317D01*
X16670658Y-14452460D02*
X16689706Y-14461984D01*
X16689706Y-14461984D02*
X16727801Y-14461984D01*
X16727801Y-14461984D02*
X16746849Y-14452460D01*
X16746849Y-14452460D02*
X16756372Y-14433412D01*
X16756372Y-14433412D02*
X16756372Y-14423888D01*
X16756372Y-14423888D02*
X16746849Y-14404841D01*
X16746849Y-14404841D02*
X16727801Y-14395317D01*
X16727801Y-14395317D02*
X16699230Y-14395317D01*
X16699230Y-14395317D02*
X16680182Y-14385793D01*
X16680182Y-14385793D02*
X16670658Y-14366746D01*
X16670658Y-14366746D02*
X16670658Y-14357222D01*
X16670658Y-14357222D02*
X16680182Y-14338174D01*
X16680182Y-14338174D02*
X16699230Y-14328650D01*
X16699230Y-14328650D02*
X16727801Y-14328650D01*
X16727801Y-14328650D02*
X16746849Y-14338174D01*
X16823039Y-14538174D02*
X16832563Y-14528650D01*
X16832563Y-14528650D02*
X16851611Y-14500079D01*
X16851611Y-14500079D02*
X16861134Y-14481031D01*
X16861134Y-14481031D02*
X16870658Y-14452460D01*
X16870658Y-14452460D02*
X16880182Y-14404841D01*
X16880182Y-14404841D02*
X16880182Y-14366746D01*
X16880182Y-14366746D02*
X16870658Y-14319127D01*
X16870658Y-14319127D02*
X16861134Y-14290555D01*
X16861134Y-14290555D02*
X16851611Y-14271508D01*
X16851611Y-14271508D02*
X16832563Y-14242936D01*
X16832563Y-14242936D02*
X16823039Y-14233412D01*
D12*
X11847981Y-14657481D02*
X11847981Y-14611519D01*
X11802019Y-14611519D01*
X11802019Y-14657481D01*
X11847981Y-14657481D01*
D11*
X12156372Y-14525984D02*
X12175420Y-14525984D01*
X12175420Y-14525984D02*
X12194467Y-14535508D01*
X12194467Y-14535508D02*
X12203991Y-14545031D01*
X12203991Y-14545031D02*
X12213515Y-14564079D01*
X12213515Y-14564079D02*
X12223039Y-14602174D01*
X12223039Y-14602174D02*
X12223039Y-14649793D01*
X12223039Y-14649793D02*
X12213515Y-14687888D01*
X12213515Y-14687888D02*
X12203991Y-14706936D01*
X12203991Y-14706936D02*
X12194467Y-14716460D01*
X12194467Y-14716460D02*
X12175420Y-14725984D01*
X12175420Y-14725984D02*
X12156372Y-14725984D01*
X12156372Y-14725984D02*
X12137324Y-14716460D01*
X12137324Y-14716460D02*
X12127801Y-14706936D01*
X12127801Y-14706936D02*
X12118277Y-14687888D01*
X12118277Y-14687888D02*
X12108753Y-14649793D01*
X12108753Y-14649793D02*
X12108753Y-14602174D01*
X12108753Y-14602174D02*
X12118277Y-14564079D01*
X12118277Y-14564079D02*
X12127801Y-14545031D01*
X12127801Y-14545031D02*
X12137324Y-14535508D01*
X12137324Y-14535508D02*
X12156372Y-14525984D01*
X12308753Y-14706936D02*
X12318277Y-14716460D01*
X12318277Y-14716460D02*
X12308753Y-14725984D01*
X12308753Y-14725984D02*
X12299229Y-14716460D01*
X12299229Y-14716460D02*
X12308753Y-14706936D01*
X12308753Y-14706936D02*
X12308753Y-14725984D01*
X12489705Y-14525984D02*
X12451610Y-14525984D01*
X12451610Y-14525984D02*
X12432562Y-14535508D01*
X12432562Y-14535508D02*
X12423039Y-14545031D01*
X12423039Y-14545031D02*
X12403991Y-14573603D01*
X12403991Y-14573603D02*
X12394467Y-14611698D01*
X12394467Y-14611698D02*
X12394467Y-14687888D01*
X12394467Y-14687888D02*
X12403991Y-14706936D01*
X12403991Y-14706936D02*
X12413515Y-14716460D01*
X12413515Y-14716460D02*
X12432562Y-14725984D01*
X12432562Y-14725984D02*
X12470658Y-14725984D01*
X12470658Y-14725984D02*
X12489705Y-14716460D01*
X12489705Y-14716460D02*
X12499229Y-14706936D01*
X12499229Y-14706936D02*
X12508753Y-14687888D01*
X12508753Y-14687888D02*
X12508753Y-14640269D01*
X12508753Y-14640269D02*
X12499229Y-14621222D01*
X12499229Y-14621222D02*
X12489705Y-14611698D01*
X12489705Y-14611698D02*
X12470658Y-14602174D01*
X12470658Y-14602174D02*
X12432562Y-14602174D01*
X12432562Y-14602174D02*
X12413515Y-14611698D01*
X12413515Y-14611698D02*
X12403991Y-14621222D01*
X12403991Y-14621222D02*
X12394467Y-14640269D01*
X12689705Y-14525984D02*
X12594467Y-14525984D01*
X12594467Y-14525984D02*
X12584943Y-14621222D01*
X12584943Y-14621222D02*
X12594467Y-14611698D01*
X12594467Y-14611698D02*
X12613515Y-14602174D01*
X12613515Y-14602174D02*
X12661134Y-14602174D01*
X12661134Y-14602174D02*
X12680182Y-14611698D01*
X12680182Y-14611698D02*
X12689705Y-14621222D01*
X12689705Y-14621222D02*
X12699229Y-14640269D01*
X12699229Y-14640269D02*
X12699229Y-14687888D01*
X12699229Y-14687888D02*
X12689705Y-14706936D01*
X12689705Y-14706936D02*
X12680182Y-14716460D01*
X12680182Y-14716460D02*
X12661134Y-14725984D01*
X12661134Y-14725984D02*
X12613515Y-14725984D01*
X12613515Y-14725984D02*
X12594467Y-14716460D01*
X12594467Y-14716460D02*
X12584943Y-14706936D01*
X12823039Y-14525984D02*
X12842086Y-14525984D01*
X12842086Y-14525984D02*
X12861134Y-14535508D01*
X12861134Y-14535508D02*
X12870658Y-14545031D01*
X12870658Y-14545031D02*
X12880182Y-14564079D01*
X12880182Y-14564079D02*
X12889705Y-14602174D01*
X12889705Y-14602174D02*
X12889705Y-14649793D01*
X12889705Y-14649793D02*
X12880182Y-14687888D01*
X12880182Y-14687888D02*
X12870658Y-14706936D01*
X12870658Y-14706936D02*
X12861134Y-14716460D01*
X12861134Y-14716460D02*
X12842086Y-14725984D01*
X12842086Y-14725984D02*
X12823039Y-14725984D01*
X12823039Y-14725984D02*
X12803991Y-14716460D01*
X12803991Y-14716460D02*
X12794467Y-14706936D01*
X12794467Y-14706936D02*
X12784943Y-14687888D01*
X12784943Y-14687888D02*
X12775420Y-14649793D01*
X12775420Y-14649793D02*
X12775420Y-14602174D01*
X12775420Y-14602174D02*
X12784943Y-14564079D01*
X12784943Y-14564079D02*
X12794467Y-14545031D01*
X12794467Y-14545031D02*
X12803991Y-14535508D01*
X12803991Y-14535508D02*
X12823039Y-14525984D01*
X12975420Y-14725984D02*
X12975420Y-14592650D01*
X12975420Y-14611698D02*
X12984943Y-14602174D01*
X12984943Y-14602174D02*
X13003991Y-14592650D01*
X13003991Y-14592650D02*
X13032563Y-14592650D01*
X13032563Y-14592650D02*
X13051610Y-14602174D01*
X13051610Y-14602174D02*
X13061134Y-14621222D01*
X13061134Y-14621222D02*
X13061134Y-14725984D01*
X13061134Y-14621222D02*
X13070658Y-14602174D01*
X13070658Y-14602174D02*
X13089705Y-14592650D01*
X13089705Y-14592650D02*
X13118277Y-14592650D01*
X13118277Y-14592650D02*
X13137324Y-14602174D01*
X13137324Y-14602174D02*
X13146848Y-14621222D01*
X13146848Y-14621222D02*
X13146848Y-14725984D01*
X13242086Y-14725984D02*
X13242086Y-14592650D01*
X13242086Y-14611698D02*
X13251610Y-14602174D01*
X13251610Y-14602174D02*
X13270658Y-14592650D01*
X13270658Y-14592650D02*
X13299229Y-14592650D01*
X13299229Y-14592650D02*
X13318277Y-14602174D01*
X13318277Y-14602174D02*
X13327801Y-14621222D01*
X13327801Y-14621222D02*
X13327801Y-14725984D01*
X13327801Y-14621222D02*
X13337324Y-14602174D01*
X13337324Y-14602174D02*
X13356372Y-14592650D01*
X13356372Y-14592650D02*
X13384943Y-14592650D01*
X13384943Y-14592650D02*
X13403991Y-14602174D01*
X13403991Y-14602174D02*
X13413515Y-14621222D01*
X13413515Y-14621222D02*
X13413515Y-14725984D01*
X13803991Y-14516460D02*
X13632563Y-14773603D01*
X14061134Y-14525984D02*
X14080182Y-14525984D01*
X14080182Y-14525984D02*
X14099229Y-14535508D01*
X14099229Y-14535508D02*
X14108753Y-14545031D01*
X14108753Y-14545031D02*
X14118277Y-14564079D01*
X14118277Y-14564079D02*
X14127801Y-14602174D01*
X14127801Y-14602174D02*
X14127801Y-14649793D01*
X14127801Y-14649793D02*
X14118277Y-14687888D01*
X14118277Y-14687888D02*
X14108753Y-14706936D01*
X14108753Y-14706936D02*
X14099229Y-14716460D01*
X14099229Y-14716460D02*
X14080182Y-14725984D01*
X14080182Y-14725984D02*
X14061134Y-14725984D01*
X14061134Y-14725984D02*
X14042086Y-14716460D01*
X14042086Y-14716460D02*
X14032563Y-14706936D01*
X14032563Y-14706936D02*
X14023039Y-14687888D01*
X14023039Y-14687888D02*
X14013515Y-14649793D01*
X14013515Y-14649793D02*
X14013515Y-14602174D01*
X14013515Y-14602174D02*
X14023039Y-14564079D01*
X14023039Y-14564079D02*
X14032563Y-14545031D01*
X14032563Y-14545031D02*
X14042086Y-14535508D01*
X14042086Y-14535508D02*
X14061134Y-14525984D01*
X14213515Y-14706936D02*
X14223039Y-14716460D01*
X14223039Y-14716460D02*
X14213515Y-14725984D01*
X14213515Y-14725984D02*
X14203991Y-14716460D01*
X14203991Y-14716460D02*
X14213515Y-14706936D01*
X14213515Y-14706936D02*
X14213515Y-14725984D01*
X14346848Y-14525984D02*
X14365896Y-14525984D01*
X14365896Y-14525984D02*
X14384944Y-14535508D01*
X14384944Y-14535508D02*
X14394467Y-14545031D01*
X14394467Y-14545031D02*
X14403991Y-14564079D01*
X14403991Y-14564079D02*
X14413515Y-14602174D01*
X14413515Y-14602174D02*
X14413515Y-14649793D01*
X14413515Y-14649793D02*
X14403991Y-14687888D01*
X14403991Y-14687888D02*
X14394467Y-14706936D01*
X14394467Y-14706936D02*
X14384944Y-14716460D01*
X14384944Y-14716460D02*
X14365896Y-14725984D01*
X14365896Y-14725984D02*
X14346848Y-14725984D01*
X14346848Y-14725984D02*
X14327801Y-14716460D01*
X14327801Y-14716460D02*
X14318277Y-14706936D01*
X14318277Y-14706936D02*
X14308753Y-14687888D01*
X14308753Y-14687888D02*
X14299229Y-14649793D01*
X14299229Y-14649793D02*
X14299229Y-14602174D01*
X14299229Y-14602174D02*
X14308753Y-14564079D01*
X14308753Y-14564079D02*
X14318277Y-14545031D01*
X14318277Y-14545031D02*
X14327801Y-14535508D01*
X14327801Y-14535508D02*
X14346848Y-14525984D01*
X14489706Y-14545031D02*
X14499229Y-14535508D01*
X14499229Y-14535508D02*
X14518277Y-14525984D01*
X14518277Y-14525984D02*
X14565896Y-14525984D01*
X14565896Y-14525984D02*
X14584944Y-14535508D01*
X14584944Y-14535508D02*
X14594467Y-14545031D01*
X14594467Y-14545031D02*
X14603991Y-14564079D01*
X14603991Y-14564079D02*
X14603991Y-14583127D01*
X14603991Y-14583127D02*
X14594467Y-14611698D01*
X14594467Y-14611698D02*
X14480182Y-14725984D01*
X14480182Y-14725984D02*
X14603991Y-14725984D01*
X14784944Y-14525984D02*
X14689706Y-14525984D01*
X14689706Y-14525984D02*
X14680182Y-14621222D01*
X14680182Y-14621222D02*
X14689706Y-14611698D01*
X14689706Y-14611698D02*
X14708753Y-14602174D01*
X14708753Y-14602174D02*
X14756372Y-14602174D01*
X14756372Y-14602174D02*
X14775420Y-14611698D01*
X14775420Y-14611698D02*
X14784944Y-14621222D01*
X14784944Y-14621222D02*
X14794467Y-14640269D01*
X14794467Y-14640269D02*
X14794467Y-14687888D01*
X14794467Y-14687888D02*
X14784944Y-14706936D01*
X14784944Y-14706936D02*
X14775420Y-14716460D01*
X14775420Y-14716460D02*
X14756372Y-14725984D01*
X14756372Y-14725984D02*
X14708753Y-14725984D01*
X14708753Y-14725984D02*
X14689706Y-14716460D01*
X14689706Y-14716460D02*
X14680182Y-14706936D01*
X14965896Y-14525984D02*
X14927801Y-14525984D01*
X14927801Y-14525984D02*
X14908753Y-14535508D01*
X14908753Y-14535508D02*
X14899229Y-14545031D01*
X14899229Y-14545031D02*
X14880182Y-14573603D01*
X14880182Y-14573603D02*
X14870658Y-14611698D01*
X14870658Y-14611698D02*
X14870658Y-14687888D01*
X14870658Y-14687888D02*
X14880182Y-14706936D01*
X14880182Y-14706936D02*
X14889706Y-14716460D01*
X14889706Y-14716460D02*
X14908753Y-14725984D01*
X14908753Y-14725984D02*
X14946848Y-14725984D01*
X14946848Y-14725984D02*
X14965896Y-14716460D01*
X14965896Y-14716460D02*
X14975420Y-14706936D01*
X14975420Y-14706936D02*
X14984944Y-14687888D01*
X14984944Y-14687888D02*
X14984944Y-14640269D01*
X14984944Y-14640269D02*
X14975420Y-14621222D01*
X14975420Y-14621222D02*
X14965896Y-14611698D01*
X14965896Y-14611698D02*
X14946848Y-14602174D01*
X14946848Y-14602174D02*
X14908753Y-14602174D01*
X14908753Y-14602174D02*
X14889706Y-14611698D01*
X14889706Y-14611698D02*
X14880182Y-14621222D01*
X14880182Y-14621222D02*
X14870658Y-14640269D01*
X15061134Y-14525984D02*
X15061134Y-14564079D01*
X15137325Y-14525984D02*
X15137325Y-14564079D01*
X15432563Y-14802174D02*
X15423039Y-14792650D01*
X15423039Y-14792650D02*
X15403991Y-14764079D01*
X15403991Y-14764079D02*
X15394468Y-14745031D01*
X15394468Y-14745031D02*
X15384944Y-14716460D01*
X15384944Y-14716460D02*
X15375420Y-14668841D01*
X15375420Y-14668841D02*
X15375420Y-14630746D01*
X15375420Y-14630746D02*
X15384944Y-14583127D01*
X15384944Y-14583127D02*
X15394468Y-14554555D01*
X15394468Y-14554555D02*
X15403991Y-14535508D01*
X15403991Y-14535508D02*
X15423039Y-14506936D01*
X15423039Y-14506936D02*
X15432563Y-14497412D01*
X15499229Y-14545031D02*
X15508753Y-14535508D01*
X15508753Y-14535508D02*
X15527801Y-14525984D01*
X15527801Y-14525984D02*
X15575420Y-14525984D01*
X15575420Y-14525984D02*
X15594468Y-14535508D01*
X15594468Y-14535508D02*
X15603991Y-14545031D01*
X15603991Y-14545031D02*
X15613515Y-14564079D01*
X15613515Y-14564079D02*
X15613515Y-14583127D01*
X15613515Y-14583127D02*
X15603991Y-14611698D01*
X15603991Y-14611698D02*
X15489706Y-14725984D01*
X15489706Y-14725984D02*
X15613515Y-14725984D01*
X15851610Y-14725984D02*
X15851610Y-14525984D01*
X15937325Y-14725984D02*
X15937325Y-14621222D01*
X15937325Y-14621222D02*
X15927801Y-14602174D01*
X15927801Y-14602174D02*
X15908753Y-14592650D01*
X15908753Y-14592650D02*
X15880182Y-14592650D01*
X15880182Y-14592650D02*
X15861134Y-14602174D01*
X15861134Y-14602174D02*
X15851610Y-14611698D01*
X16061134Y-14725984D02*
X16042087Y-14716460D01*
X16042087Y-14716460D02*
X16032563Y-14706936D01*
X16032563Y-14706936D02*
X16023039Y-14687888D01*
X16023039Y-14687888D02*
X16023039Y-14630746D01*
X16023039Y-14630746D02*
X16032563Y-14611698D01*
X16032563Y-14611698D02*
X16042087Y-14602174D01*
X16042087Y-14602174D02*
X16061134Y-14592650D01*
X16061134Y-14592650D02*
X16089706Y-14592650D01*
X16089706Y-14592650D02*
X16108753Y-14602174D01*
X16108753Y-14602174D02*
X16118277Y-14611698D01*
X16118277Y-14611698D02*
X16127801Y-14630746D01*
X16127801Y-14630746D02*
X16127801Y-14687888D01*
X16127801Y-14687888D02*
X16118277Y-14706936D01*
X16118277Y-14706936D02*
X16108753Y-14716460D01*
X16108753Y-14716460D02*
X16089706Y-14725984D01*
X16089706Y-14725984D02*
X16061134Y-14725984D01*
X16242087Y-14725984D02*
X16223039Y-14716460D01*
X16223039Y-14716460D02*
X16213515Y-14697412D01*
X16213515Y-14697412D02*
X16213515Y-14525984D01*
X16394468Y-14716460D02*
X16375420Y-14725984D01*
X16375420Y-14725984D02*
X16337325Y-14725984D01*
X16337325Y-14725984D02*
X16318277Y-14716460D01*
X16318277Y-14716460D02*
X16308753Y-14697412D01*
X16308753Y-14697412D02*
X16308753Y-14621222D01*
X16308753Y-14621222D02*
X16318277Y-14602174D01*
X16318277Y-14602174D02*
X16337325Y-14592650D01*
X16337325Y-14592650D02*
X16375420Y-14592650D01*
X16375420Y-14592650D02*
X16394468Y-14602174D01*
X16394468Y-14602174D02*
X16403991Y-14621222D01*
X16403991Y-14621222D02*
X16403991Y-14640269D01*
X16403991Y-14640269D02*
X16308753Y-14659317D01*
X16480182Y-14716460D02*
X16499230Y-14725984D01*
X16499230Y-14725984D02*
X16537325Y-14725984D01*
X16537325Y-14725984D02*
X16556372Y-14716460D01*
X16556372Y-14716460D02*
X16565896Y-14697412D01*
X16565896Y-14697412D02*
X16565896Y-14687888D01*
X16565896Y-14687888D02*
X16556372Y-14668841D01*
X16556372Y-14668841D02*
X16537325Y-14659317D01*
X16537325Y-14659317D02*
X16508753Y-14659317D01*
X16508753Y-14659317D02*
X16489706Y-14649793D01*
X16489706Y-14649793D02*
X16480182Y-14630746D01*
X16480182Y-14630746D02*
X16480182Y-14621222D01*
X16480182Y-14621222D02*
X16489706Y-14602174D01*
X16489706Y-14602174D02*
X16508753Y-14592650D01*
X16508753Y-14592650D02*
X16537325Y-14592650D01*
X16537325Y-14592650D02*
X16556372Y-14602174D01*
X16632563Y-14802174D02*
X16642087Y-14792650D01*
X16642087Y-14792650D02*
X16661134Y-14764079D01*
X16661134Y-14764079D02*
X16670658Y-14745031D01*
X16670658Y-14745031D02*
X16680182Y-14716460D01*
X16680182Y-14716460D02*
X16689706Y-14668841D01*
X16689706Y-14668841D02*
X16689706Y-14630746D01*
X16689706Y-14630746D02*
X16680182Y-14583127D01*
X16680182Y-14583127D02*
X16670658Y-14554555D01*
X16670658Y-14554555D02*
X16661134Y-14535508D01*
X16661134Y-14535508D02*
X16642087Y-14506936D01*
X16642087Y-14506936D02*
X16632563Y-14497412D01*
X16994468Y-14802174D02*
X16984944Y-14792650D01*
X16984944Y-14792650D02*
X16965896Y-14764079D01*
X16965896Y-14764079D02*
X16956373Y-14745031D01*
X16956373Y-14745031D02*
X16946849Y-14716460D01*
X16946849Y-14716460D02*
X16937325Y-14668841D01*
X16937325Y-14668841D02*
X16937325Y-14630746D01*
X16937325Y-14630746D02*
X16946849Y-14583127D01*
X16946849Y-14583127D02*
X16956373Y-14554555D01*
X16956373Y-14554555D02*
X16965896Y-14535508D01*
X16965896Y-14535508D02*
X16984944Y-14506936D01*
X16984944Y-14506936D02*
X16994468Y-14497412D01*
X17070658Y-14592650D02*
X17070658Y-14725984D01*
X17070658Y-14611698D02*
X17080182Y-14602174D01*
X17080182Y-14602174D02*
X17099230Y-14592650D01*
X17099230Y-14592650D02*
X17127801Y-14592650D01*
X17127801Y-14592650D02*
X17146849Y-14602174D01*
X17146849Y-14602174D02*
X17156373Y-14621222D01*
X17156373Y-14621222D02*
X17156373Y-14725984D01*
X17280182Y-14725984D02*
X17261134Y-14716460D01*
X17261134Y-14716460D02*
X17251611Y-14706936D01*
X17251611Y-14706936D02*
X17242087Y-14687888D01*
X17242087Y-14687888D02*
X17242087Y-14630746D01*
X17242087Y-14630746D02*
X17251611Y-14611698D01*
X17251611Y-14611698D02*
X17261134Y-14602174D01*
X17261134Y-14602174D02*
X17280182Y-14592650D01*
X17280182Y-14592650D02*
X17308754Y-14592650D01*
X17308754Y-14592650D02*
X17327801Y-14602174D01*
X17327801Y-14602174D02*
X17337325Y-14611698D01*
X17337325Y-14611698D02*
X17346849Y-14630746D01*
X17346849Y-14630746D02*
X17346849Y-14687888D01*
X17346849Y-14687888D02*
X17337325Y-14706936D01*
X17337325Y-14706936D02*
X17327801Y-14716460D01*
X17327801Y-14716460D02*
X17308754Y-14725984D01*
X17308754Y-14725984D02*
X17280182Y-14725984D01*
X17403992Y-14592650D02*
X17480182Y-14592650D01*
X17432563Y-14525984D02*
X17432563Y-14697412D01*
X17432563Y-14697412D02*
X17442087Y-14716460D01*
X17442087Y-14716460D02*
X17461134Y-14725984D01*
X17461134Y-14725984D02*
X17480182Y-14725984D01*
X17699230Y-14592650D02*
X17699230Y-14792650D01*
X17699230Y-14602174D02*
X17718277Y-14592650D01*
X17718277Y-14592650D02*
X17756373Y-14592650D01*
X17756373Y-14592650D02*
X17775420Y-14602174D01*
X17775420Y-14602174D02*
X17784944Y-14611698D01*
X17784944Y-14611698D02*
X17794468Y-14630746D01*
X17794468Y-14630746D02*
X17794468Y-14687888D01*
X17794468Y-14687888D02*
X17784944Y-14706936D01*
X17784944Y-14706936D02*
X17775420Y-14716460D01*
X17775420Y-14716460D02*
X17756373Y-14725984D01*
X17756373Y-14725984D02*
X17718277Y-14725984D01*
X17718277Y-14725984D02*
X17699230Y-14716460D01*
X17908754Y-14725984D02*
X17889706Y-14716460D01*
X17889706Y-14716460D02*
X17880182Y-14697412D01*
X17880182Y-14697412D02*
X17880182Y-14525984D01*
X18070658Y-14725984D02*
X18070658Y-14621222D01*
X18070658Y-14621222D02*
X18061135Y-14602174D01*
X18061135Y-14602174D02*
X18042087Y-14592650D01*
X18042087Y-14592650D02*
X18003992Y-14592650D01*
X18003992Y-14592650D02*
X17984944Y-14602174D01*
X18070658Y-14716460D02*
X18051611Y-14725984D01*
X18051611Y-14725984D02*
X18003992Y-14725984D01*
X18003992Y-14725984D02*
X17984944Y-14716460D01*
X17984944Y-14716460D02*
X17975420Y-14697412D01*
X17975420Y-14697412D02*
X17975420Y-14678365D01*
X17975420Y-14678365D02*
X17984944Y-14659317D01*
X17984944Y-14659317D02*
X18003992Y-14649793D01*
X18003992Y-14649793D02*
X18051611Y-14649793D01*
X18051611Y-14649793D02*
X18070658Y-14640269D01*
X18137325Y-14592650D02*
X18213515Y-14592650D01*
X18165896Y-14525984D02*
X18165896Y-14697412D01*
X18165896Y-14697412D02*
X18175420Y-14716460D01*
X18175420Y-14716460D02*
X18194468Y-14725984D01*
X18194468Y-14725984D02*
X18213515Y-14725984D01*
X18356373Y-14716460D02*
X18337325Y-14725984D01*
X18337325Y-14725984D02*
X18299230Y-14725984D01*
X18299230Y-14725984D02*
X18280182Y-14716460D01*
X18280182Y-14716460D02*
X18270658Y-14697412D01*
X18270658Y-14697412D02*
X18270658Y-14621222D01*
X18270658Y-14621222D02*
X18280182Y-14602174D01*
X18280182Y-14602174D02*
X18299230Y-14592650D01*
X18299230Y-14592650D02*
X18337325Y-14592650D01*
X18337325Y-14592650D02*
X18356373Y-14602174D01*
X18356373Y-14602174D02*
X18365896Y-14621222D01*
X18365896Y-14621222D02*
X18365896Y-14640269D01*
X18365896Y-14640269D02*
X18270658Y-14659317D01*
X18537325Y-14725984D02*
X18537325Y-14525984D01*
X18537325Y-14716460D02*
X18518277Y-14725984D01*
X18518277Y-14725984D02*
X18480182Y-14725984D01*
X18480182Y-14725984D02*
X18461135Y-14716460D01*
X18461135Y-14716460D02*
X18451611Y-14706936D01*
X18451611Y-14706936D02*
X18442087Y-14687888D01*
X18442087Y-14687888D02*
X18442087Y-14630746D01*
X18442087Y-14630746D02*
X18451611Y-14611698D01*
X18451611Y-14611698D02*
X18461135Y-14602174D01*
X18461135Y-14602174D02*
X18480182Y-14592650D01*
X18480182Y-14592650D02*
X18518277Y-14592650D01*
X18518277Y-14592650D02*
X18537325Y-14602174D01*
X18613516Y-14802174D02*
X18623039Y-14792650D01*
X18623039Y-14792650D02*
X18642087Y-14764079D01*
X18642087Y-14764079D02*
X18651611Y-14745031D01*
X18651611Y-14745031D02*
X18661135Y-14716460D01*
X18661135Y-14716460D02*
X18670658Y-14668841D01*
X18670658Y-14668841D02*
X18670658Y-14630746D01*
X18670658Y-14630746D02*
X18661135Y-14583127D01*
X18661135Y-14583127D02*
X18651611Y-14554555D01*
X18651611Y-14554555D02*
X18642087Y-14535508D01*
X18642087Y-14535508D02*
X18623039Y-14506936D01*
X18623039Y-14506936D02*
X18613516Y-14497412D01*
X11757500Y-14998500D02*
X11857500Y-14898500D01*
X11757500Y-14798500D01*
X11657500Y-14898500D01*
X11757500Y-14998500D01*
X12099229Y-14789984D02*
X12223039Y-14789984D01*
X12223039Y-14789984D02*
X12156372Y-14866174D01*
X12156372Y-14866174D02*
X12184943Y-14866174D01*
X12184943Y-14866174D02*
X12203991Y-14875698D01*
X12203991Y-14875698D02*
X12213515Y-14885222D01*
X12213515Y-14885222D02*
X12223039Y-14904269D01*
X12223039Y-14904269D02*
X12223039Y-14951888D01*
X12223039Y-14951888D02*
X12213515Y-14970936D01*
X12213515Y-14970936D02*
X12203991Y-14980460D01*
X12203991Y-14980460D02*
X12184943Y-14989984D01*
X12184943Y-14989984D02*
X12127801Y-14989984D01*
X12127801Y-14989984D02*
X12108753Y-14980460D01*
X12108753Y-14980460D02*
X12099229Y-14970936D01*
X12308753Y-14970936D02*
X12318277Y-14980460D01*
X12318277Y-14980460D02*
X12308753Y-14989984D01*
X12308753Y-14989984D02*
X12299229Y-14980460D01*
X12299229Y-14980460D02*
X12308753Y-14970936D01*
X12308753Y-14970936D02*
X12308753Y-14989984D01*
X12394467Y-14809031D02*
X12403991Y-14799508D01*
X12403991Y-14799508D02*
X12423039Y-14789984D01*
X12423039Y-14789984D02*
X12470658Y-14789984D01*
X12470658Y-14789984D02*
X12489705Y-14799508D01*
X12489705Y-14799508D02*
X12499229Y-14809031D01*
X12499229Y-14809031D02*
X12508753Y-14828079D01*
X12508753Y-14828079D02*
X12508753Y-14847127D01*
X12508753Y-14847127D02*
X12499229Y-14875698D01*
X12499229Y-14875698D02*
X12384943Y-14989984D01*
X12384943Y-14989984D02*
X12508753Y-14989984D01*
X12632562Y-14789984D02*
X12651610Y-14789984D01*
X12651610Y-14789984D02*
X12670658Y-14799508D01*
X12670658Y-14799508D02*
X12680182Y-14809031D01*
X12680182Y-14809031D02*
X12689705Y-14828079D01*
X12689705Y-14828079D02*
X12699229Y-14866174D01*
X12699229Y-14866174D02*
X12699229Y-14913793D01*
X12699229Y-14913793D02*
X12689705Y-14951888D01*
X12689705Y-14951888D02*
X12680182Y-14970936D01*
X12680182Y-14970936D02*
X12670658Y-14980460D01*
X12670658Y-14980460D02*
X12651610Y-14989984D01*
X12651610Y-14989984D02*
X12632562Y-14989984D01*
X12632562Y-14989984D02*
X12613515Y-14980460D01*
X12613515Y-14980460D02*
X12603991Y-14970936D01*
X12603991Y-14970936D02*
X12594467Y-14951888D01*
X12594467Y-14951888D02*
X12584943Y-14913793D01*
X12584943Y-14913793D02*
X12584943Y-14866174D01*
X12584943Y-14866174D02*
X12594467Y-14828079D01*
X12594467Y-14828079D02*
X12603991Y-14809031D01*
X12603991Y-14809031D02*
X12613515Y-14799508D01*
X12613515Y-14799508D02*
X12632562Y-14789984D01*
X12823039Y-14789984D02*
X12842086Y-14789984D01*
X12842086Y-14789984D02*
X12861134Y-14799508D01*
X12861134Y-14799508D02*
X12870658Y-14809031D01*
X12870658Y-14809031D02*
X12880182Y-14828079D01*
X12880182Y-14828079D02*
X12889705Y-14866174D01*
X12889705Y-14866174D02*
X12889705Y-14913793D01*
X12889705Y-14913793D02*
X12880182Y-14951888D01*
X12880182Y-14951888D02*
X12870658Y-14970936D01*
X12870658Y-14970936D02*
X12861134Y-14980460D01*
X12861134Y-14980460D02*
X12842086Y-14989984D01*
X12842086Y-14989984D02*
X12823039Y-14989984D01*
X12823039Y-14989984D02*
X12803991Y-14980460D01*
X12803991Y-14980460D02*
X12794467Y-14970936D01*
X12794467Y-14970936D02*
X12784943Y-14951888D01*
X12784943Y-14951888D02*
X12775420Y-14913793D01*
X12775420Y-14913793D02*
X12775420Y-14866174D01*
X12775420Y-14866174D02*
X12784943Y-14828079D01*
X12784943Y-14828079D02*
X12794467Y-14809031D01*
X12794467Y-14809031D02*
X12803991Y-14799508D01*
X12803991Y-14799508D02*
X12823039Y-14789984D01*
X12975420Y-14989984D02*
X12975420Y-14856650D01*
X12975420Y-14875698D02*
X12984943Y-14866174D01*
X12984943Y-14866174D02*
X13003991Y-14856650D01*
X13003991Y-14856650D02*
X13032563Y-14856650D01*
X13032563Y-14856650D02*
X13051610Y-14866174D01*
X13051610Y-14866174D02*
X13061134Y-14885222D01*
X13061134Y-14885222D02*
X13061134Y-14989984D01*
X13061134Y-14885222D02*
X13070658Y-14866174D01*
X13070658Y-14866174D02*
X13089705Y-14856650D01*
X13089705Y-14856650D02*
X13118277Y-14856650D01*
X13118277Y-14856650D02*
X13137324Y-14866174D01*
X13137324Y-14866174D02*
X13146848Y-14885222D01*
X13146848Y-14885222D02*
X13146848Y-14989984D01*
X13242086Y-14989984D02*
X13242086Y-14856650D01*
X13242086Y-14875698D02*
X13251610Y-14866174D01*
X13251610Y-14866174D02*
X13270658Y-14856650D01*
X13270658Y-14856650D02*
X13299229Y-14856650D01*
X13299229Y-14856650D02*
X13318277Y-14866174D01*
X13318277Y-14866174D02*
X13327801Y-14885222D01*
X13327801Y-14885222D02*
X13327801Y-14989984D01*
X13327801Y-14885222D02*
X13337324Y-14866174D01*
X13337324Y-14866174D02*
X13356372Y-14856650D01*
X13356372Y-14856650D02*
X13384943Y-14856650D01*
X13384943Y-14856650D02*
X13403991Y-14866174D01*
X13403991Y-14866174D02*
X13413515Y-14885222D01*
X13413515Y-14885222D02*
X13413515Y-14989984D01*
X13803991Y-14780460D02*
X13632563Y-15037603D01*
X14061134Y-14789984D02*
X14080182Y-14789984D01*
X14080182Y-14789984D02*
X14099229Y-14799508D01*
X14099229Y-14799508D02*
X14108753Y-14809031D01*
X14108753Y-14809031D02*
X14118277Y-14828079D01*
X14118277Y-14828079D02*
X14127801Y-14866174D01*
X14127801Y-14866174D02*
X14127801Y-14913793D01*
X14127801Y-14913793D02*
X14118277Y-14951888D01*
X14118277Y-14951888D02*
X14108753Y-14970936D01*
X14108753Y-14970936D02*
X14099229Y-14980460D01*
X14099229Y-14980460D02*
X14080182Y-14989984D01*
X14080182Y-14989984D02*
X14061134Y-14989984D01*
X14061134Y-14989984D02*
X14042086Y-14980460D01*
X14042086Y-14980460D02*
X14032563Y-14970936D01*
X14032563Y-14970936D02*
X14023039Y-14951888D01*
X14023039Y-14951888D02*
X14013515Y-14913793D01*
X14013515Y-14913793D02*
X14013515Y-14866174D01*
X14013515Y-14866174D02*
X14023039Y-14828079D01*
X14023039Y-14828079D02*
X14032563Y-14809031D01*
X14032563Y-14809031D02*
X14042086Y-14799508D01*
X14042086Y-14799508D02*
X14061134Y-14789984D01*
X14213515Y-14970936D02*
X14223039Y-14980460D01*
X14223039Y-14980460D02*
X14213515Y-14989984D01*
X14213515Y-14989984D02*
X14203991Y-14980460D01*
X14203991Y-14980460D02*
X14213515Y-14970936D01*
X14213515Y-14970936D02*
X14213515Y-14989984D01*
X14413515Y-14989984D02*
X14299229Y-14989984D01*
X14356372Y-14989984D02*
X14356372Y-14789984D01*
X14356372Y-14789984D02*
X14337325Y-14818555D01*
X14337325Y-14818555D02*
X14318277Y-14837603D01*
X14318277Y-14837603D02*
X14299229Y-14847127D01*
X14489706Y-14809031D02*
X14499229Y-14799508D01*
X14499229Y-14799508D02*
X14518277Y-14789984D01*
X14518277Y-14789984D02*
X14565896Y-14789984D01*
X14565896Y-14789984D02*
X14584944Y-14799508D01*
X14584944Y-14799508D02*
X14594467Y-14809031D01*
X14594467Y-14809031D02*
X14603991Y-14828079D01*
X14603991Y-14828079D02*
X14603991Y-14847127D01*
X14603991Y-14847127D02*
X14594467Y-14875698D01*
X14594467Y-14875698D02*
X14480182Y-14989984D01*
X14480182Y-14989984D02*
X14603991Y-14989984D01*
X14775420Y-14789984D02*
X14737325Y-14789984D01*
X14737325Y-14789984D02*
X14718277Y-14799508D01*
X14718277Y-14799508D02*
X14708753Y-14809031D01*
X14708753Y-14809031D02*
X14689706Y-14837603D01*
X14689706Y-14837603D02*
X14680182Y-14875698D01*
X14680182Y-14875698D02*
X14680182Y-14951888D01*
X14680182Y-14951888D02*
X14689706Y-14970936D01*
X14689706Y-14970936D02*
X14699229Y-14980460D01*
X14699229Y-14980460D02*
X14718277Y-14989984D01*
X14718277Y-14989984D02*
X14756372Y-14989984D01*
X14756372Y-14989984D02*
X14775420Y-14980460D01*
X14775420Y-14980460D02*
X14784944Y-14970936D01*
X14784944Y-14970936D02*
X14794467Y-14951888D01*
X14794467Y-14951888D02*
X14794467Y-14904269D01*
X14794467Y-14904269D02*
X14784944Y-14885222D01*
X14784944Y-14885222D02*
X14775420Y-14875698D01*
X14775420Y-14875698D02*
X14756372Y-14866174D01*
X14756372Y-14866174D02*
X14718277Y-14866174D01*
X14718277Y-14866174D02*
X14699229Y-14875698D01*
X14699229Y-14875698D02*
X14689706Y-14885222D01*
X14689706Y-14885222D02*
X14680182Y-14904269D01*
X14918277Y-14789984D02*
X14937325Y-14789984D01*
X14937325Y-14789984D02*
X14956372Y-14799508D01*
X14956372Y-14799508D02*
X14965896Y-14809031D01*
X14965896Y-14809031D02*
X14975420Y-14828079D01*
X14975420Y-14828079D02*
X14984944Y-14866174D01*
X14984944Y-14866174D02*
X14984944Y-14913793D01*
X14984944Y-14913793D02*
X14975420Y-14951888D01*
X14975420Y-14951888D02*
X14965896Y-14970936D01*
X14965896Y-14970936D02*
X14956372Y-14980460D01*
X14956372Y-14980460D02*
X14937325Y-14989984D01*
X14937325Y-14989984D02*
X14918277Y-14989984D01*
X14918277Y-14989984D02*
X14899229Y-14980460D01*
X14899229Y-14980460D02*
X14889706Y-14970936D01*
X14889706Y-14970936D02*
X14880182Y-14951888D01*
X14880182Y-14951888D02*
X14870658Y-14913793D01*
X14870658Y-14913793D02*
X14870658Y-14866174D01*
X14870658Y-14866174D02*
X14880182Y-14828079D01*
X14880182Y-14828079D02*
X14889706Y-14809031D01*
X14889706Y-14809031D02*
X14899229Y-14799508D01*
X14899229Y-14799508D02*
X14918277Y-14789984D01*
X15061134Y-14789984D02*
X15061134Y-14828079D01*
X15137325Y-14789984D02*
X15137325Y-14828079D01*
X15432563Y-15066174D02*
X15423039Y-15056650D01*
X15423039Y-15056650D02*
X15403991Y-15028079D01*
X15403991Y-15028079D02*
X15394468Y-15009031D01*
X15394468Y-15009031D02*
X15384944Y-14980460D01*
X15384944Y-14980460D02*
X15375420Y-14932841D01*
X15375420Y-14932841D02*
X15375420Y-14894746D01*
X15375420Y-14894746D02*
X15384944Y-14847127D01*
X15384944Y-14847127D02*
X15394468Y-14818555D01*
X15394468Y-14818555D02*
X15403991Y-14799508D01*
X15403991Y-14799508D02*
X15423039Y-14770936D01*
X15423039Y-14770936D02*
X15432563Y-14761412D01*
X15594468Y-14856650D02*
X15594468Y-14989984D01*
X15546848Y-14780460D02*
X15499229Y-14923317D01*
X15499229Y-14923317D02*
X15623039Y-14923317D01*
X15851610Y-14989984D02*
X15851610Y-14789984D01*
X15937325Y-14989984D02*
X15937325Y-14885222D01*
X15937325Y-14885222D02*
X15927801Y-14866174D01*
X15927801Y-14866174D02*
X15908753Y-14856650D01*
X15908753Y-14856650D02*
X15880182Y-14856650D01*
X15880182Y-14856650D02*
X15861134Y-14866174D01*
X15861134Y-14866174D02*
X15851610Y-14875698D01*
X16061134Y-14989984D02*
X16042087Y-14980460D01*
X16042087Y-14980460D02*
X16032563Y-14970936D01*
X16032563Y-14970936D02*
X16023039Y-14951888D01*
X16023039Y-14951888D02*
X16023039Y-14894746D01*
X16023039Y-14894746D02*
X16032563Y-14875698D01*
X16032563Y-14875698D02*
X16042087Y-14866174D01*
X16042087Y-14866174D02*
X16061134Y-14856650D01*
X16061134Y-14856650D02*
X16089706Y-14856650D01*
X16089706Y-14856650D02*
X16108753Y-14866174D01*
X16108753Y-14866174D02*
X16118277Y-14875698D01*
X16118277Y-14875698D02*
X16127801Y-14894746D01*
X16127801Y-14894746D02*
X16127801Y-14951888D01*
X16127801Y-14951888D02*
X16118277Y-14970936D01*
X16118277Y-14970936D02*
X16108753Y-14980460D01*
X16108753Y-14980460D02*
X16089706Y-14989984D01*
X16089706Y-14989984D02*
X16061134Y-14989984D01*
X16242087Y-14989984D02*
X16223039Y-14980460D01*
X16223039Y-14980460D02*
X16213515Y-14961412D01*
X16213515Y-14961412D02*
X16213515Y-14789984D01*
X16394468Y-14980460D02*
X16375420Y-14989984D01*
X16375420Y-14989984D02*
X16337325Y-14989984D01*
X16337325Y-14989984D02*
X16318277Y-14980460D01*
X16318277Y-14980460D02*
X16308753Y-14961412D01*
X16308753Y-14961412D02*
X16308753Y-14885222D01*
X16308753Y-14885222D02*
X16318277Y-14866174D01*
X16318277Y-14866174D02*
X16337325Y-14856650D01*
X16337325Y-14856650D02*
X16375420Y-14856650D01*
X16375420Y-14856650D02*
X16394468Y-14866174D01*
X16394468Y-14866174D02*
X16403991Y-14885222D01*
X16403991Y-14885222D02*
X16403991Y-14904269D01*
X16403991Y-14904269D02*
X16308753Y-14923317D01*
X16480182Y-14980460D02*
X16499230Y-14989984D01*
X16499230Y-14989984D02*
X16537325Y-14989984D01*
X16537325Y-14989984D02*
X16556372Y-14980460D01*
X16556372Y-14980460D02*
X16565896Y-14961412D01*
X16565896Y-14961412D02*
X16565896Y-14951888D01*
X16565896Y-14951888D02*
X16556372Y-14932841D01*
X16556372Y-14932841D02*
X16537325Y-14923317D01*
X16537325Y-14923317D02*
X16508753Y-14923317D01*
X16508753Y-14923317D02*
X16489706Y-14913793D01*
X16489706Y-14913793D02*
X16480182Y-14894746D01*
X16480182Y-14894746D02*
X16480182Y-14885222D01*
X16480182Y-14885222D02*
X16489706Y-14866174D01*
X16489706Y-14866174D02*
X16508753Y-14856650D01*
X16508753Y-14856650D02*
X16537325Y-14856650D01*
X16537325Y-14856650D02*
X16556372Y-14866174D01*
X16632563Y-15066174D02*
X16642087Y-15056650D01*
X16642087Y-15056650D02*
X16661134Y-15028079D01*
X16661134Y-15028079D02*
X16670658Y-15009031D01*
X16670658Y-15009031D02*
X16680182Y-14980460D01*
X16680182Y-14980460D02*
X16689706Y-14932841D01*
X16689706Y-14932841D02*
X16689706Y-14894746D01*
X16689706Y-14894746D02*
X16680182Y-14847127D01*
X16680182Y-14847127D02*
X16670658Y-14818555D01*
X16670658Y-14818555D02*
X16661134Y-14799508D01*
X16661134Y-14799508D02*
X16642087Y-14770936D01*
X16642087Y-14770936D02*
X16632563Y-14761412D01*
X16994468Y-15066174D02*
X16984944Y-15056650D01*
X16984944Y-15056650D02*
X16965896Y-15028079D01*
X16965896Y-15028079D02*
X16956373Y-15009031D01*
X16956373Y-15009031D02*
X16946849Y-14980460D01*
X16946849Y-14980460D02*
X16937325Y-14932841D01*
X16937325Y-14932841D02*
X16937325Y-14894746D01*
X16937325Y-14894746D02*
X16946849Y-14847127D01*
X16946849Y-14847127D02*
X16956373Y-14818555D01*
X16956373Y-14818555D02*
X16965896Y-14799508D01*
X16965896Y-14799508D02*
X16984944Y-14770936D01*
X16984944Y-14770936D02*
X16994468Y-14761412D01*
X17070658Y-14856650D02*
X17070658Y-14989984D01*
X17070658Y-14875698D02*
X17080182Y-14866174D01*
X17080182Y-14866174D02*
X17099230Y-14856650D01*
X17099230Y-14856650D02*
X17127801Y-14856650D01*
X17127801Y-14856650D02*
X17146849Y-14866174D01*
X17146849Y-14866174D02*
X17156373Y-14885222D01*
X17156373Y-14885222D02*
X17156373Y-14989984D01*
X17280182Y-14989984D02*
X17261134Y-14980460D01*
X17261134Y-14980460D02*
X17251611Y-14970936D01*
X17251611Y-14970936D02*
X17242087Y-14951888D01*
X17242087Y-14951888D02*
X17242087Y-14894746D01*
X17242087Y-14894746D02*
X17251611Y-14875698D01*
X17251611Y-14875698D02*
X17261134Y-14866174D01*
X17261134Y-14866174D02*
X17280182Y-14856650D01*
X17280182Y-14856650D02*
X17308754Y-14856650D01*
X17308754Y-14856650D02*
X17327801Y-14866174D01*
X17327801Y-14866174D02*
X17337325Y-14875698D01*
X17337325Y-14875698D02*
X17346849Y-14894746D01*
X17346849Y-14894746D02*
X17346849Y-14951888D01*
X17346849Y-14951888D02*
X17337325Y-14970936D01*
X17337325Y-14970936D02*
X17327801Y-14980460D01*
X17327801Y-14980460D02*
X17308754Y-14989984D01*
X17308754Y-14989984D02*
X17280182Y-14989984D01*
X17403992Y-14856650D02*
X17480182Y-14856650D01*
X17432563Y-14789984D02*
X17432563Y-14961412D01*
X17432563Y-14961412D02*
X17442087Y-14980460D01*
X17442087Y-14980460D02*
X17461134Y-14989984D01*
X17461134Y-14989984D02*
X17480182Y-14989984D01*
X17699230Y-14856650D02*
X17699230Y-15056650D01*
X17699230Y-14866174D02*
X17718277Y-14856650D01*
X17718277Y-14856650D02*
X17756373Y-14856650D01*
X17756373Y-14856650D02*
X17775420Y-14866174D01*
X17775420Y-14866174D02*
X17784944Y-14875698D01*
X17784944Y-14875698D02*
X17794468Y-14894746D01*
X17794468Y-14894746D02*
X17794468Y-14951888D01*
X17794468Y-14951888D02*
X17784944Y-14970936D01*
X17784944Y-14970936D02*
X17775420Y-14980460D01*
X17775420Y-14980460D02*
X17756373Y-14989984D01*
X17756373Y-14989984D02*
X17718277Y-14989984D01*
X17718277Y-14989984D02*
X17699230Y-14980460D01*
X17908754Y-14989984D02*
X17889706Y-14980460D01*
X17889706Y-14980460D02*
X17880182Y-14961412D01*
X17880182Y-14961412D02*
X17880182Y-14789984D01*
X18070658Y-14989984D02*
X18070658Y-14885222D01*
X18070658Y-14885222D02*
X18061135Y-14866174D01*
X18061135Y-14866174D02*
X18042087Y-14856650D01*
X18042087Y-14856650D02*
X18003992Y-14856650D01*
X18003992Y-14856650D02*
X17984944Y-14866174D01*
X18070658Y-14980460D02*
X18051611Y-14989984D01*
X18051611Y-14989984D02*
X18003992Y-14989984D01*
X18003992Y-14989984D02*
X17984944Y-14980460D01*
X17984944Y-14980460D02*
X17975420Y-14961412D01*
X17975420Y-14961412D02*
X17975420Y-14942365D01*
X17975420Y-14942365D02*
X17984944Y-14923317D01*
X17984944Y-14923317D02*
X18003992Y-14913793D01*
X18003992Y-14913793D02*
X18051611Y-14913793D01*
X18051611Y-14913793D02*
X18070658Y-14904269D01*
X18137325Y-14856650D02*
X18213515Y-14856650D01*
X18165896Y-14789984D02*
X18165896Y-14961412D01*
X18165896Y-14961412D02*
X18175420Y-14980460D01*
X18175420Y-14980460D02*
X18194468Y-14989984D01*
X18194468Y-14989984D02*
X18213515Y-14989984D01*
X18356373Y-14980460D02*
X18337325Y-14989984D01*
X18337325Y-14989984D02*
X18299230Y-14989984D01*
X18299230Y-14989984D02*
X18280182Y-14980460D01*
X18280182Y-14980460D02*
X18270658Y-14961412D01*
X18270658Y-14961412D02*
X18270658Y-14885222D01*
X18270658Y-14885222D02*
X18280182Y-14866174D01*
X18280182Y-14866174D02*
X18299230Y-14856650D01*
X18299230Y-14856650D02*
X18337325Y-14856650D01*
X18337325Y-14856650D02*
X18356373Y-14866174D01*
X18356373Y-14866174D02*
X18365896Y-14885222D01*
X18365896Y-14885222D02*
X18365896Y-14904269D01*
X18365896Y-14904269D02*
X18270658Y-14923317D01*
X18537325Y-14989984D02*
X18537325Y-14789984D01*
X18537325Y-14980460D02*
X18518277Y-14989984D01*
X18518277Y-14989984D02*
X18480182Y-14989984D01*
X18480182Y-14989984D02*
X18461135Y-14980460D01*
X18461135Y-14980460D02*
X18451611Y-14970936D01*
X18451611Y-14970936D02*
X18442087Y-14951888D01*
X18442087Y-14951888D02*
X18442087Y-14894746D01*
X18442087Y-14894746D02*
X18451611Y-14875698D01*
X18451611Y-14875698D02*
X18461135Y-14866174D01*
X18461135Y-14866174D02*
X18480182Y-14856650D01*
X18480182Y-14856650D02*
X18518277Y-14856650D01*
X18518277Y-14856650D02*
X18537325Y-14866174D01*
X18613516Y-15066174D02*
X18623039Y-15056650D01*
X18623039Y-15056650D02*
X18642087Y-15028079D01*
X18642087Y-15028079D02*
X18651611Y-15009031D01*
X18651611Y-15009031D02*
X18661135Y-14980460D01*
X18661135Y-14980460D02*
X18670658Y-14932841D01*
X18670658Y-14932841D02*
X18670658Y-14894746D01*
X18670658Y-14894746D02*
X18661135Y-14847127D01*
X18661135Y-14847127D02*
X18651611Y-14818555D01*
X18651611Y-14818555D02*
X18642087Y-14799508D01*
X18642087Y-14799508D02*
X18623039Y-14770936D01*
X18623039Y-14770936D02*
X18613516Y-14761412D01*
M02*
