G04 #@! TF.GenerationSoftware,KiCad,Pcbnew,9.0.7*
G04 #@! TF.CreationDate,2026-01-23T20:35:06+05:30*
G04 #@! TF.ProjectId,Udayate,55646179-6174-4652-9e6b-696361645f70,1.2.1*
G04 #@! TF.SameCoordinates,Original*
G04 #@! TF.FileFunction,Legend,Bot*
G04 #@! TF.FilePolarity,Positive*
%FSLAX46Y46*%
G04 Gerber Fmt 4.6, Leading zero omitted, Abs format (unit mm)*
G04 Created by KiCad (PCBNEW 9.0.7) date 2026-01-23 20:35:06*
%MOMM*%
%LPD*%
G01*
G04 APERTURE LIST*
%ADD10C,0.600000*%
%ADD11C,0.200000*%
%ADD12R,1.700000X1.700000*%
%ADD13C,1.700000*%
%ADD14C,3.200000*%
%ADD15C,0.650000*%
%ADD16O,2.304000X1.254000*%
%ADD17O,2.054000X1.154000*%
%ADD18O,2.104000X1.204000*%
G04 APERTURE END LIST*
D10*
G36*
X141933364Y-100928372D02*
G01*
X142030074Y-101083107D01*
X142041922Y-101177891D01*
X141198935Y-101013405D01*
X141239245Y-100905913D01*
X141340977Y-100851657D01*
X141770344Y-100851657D01*
X141933364Y-100928372D01*
G37*
G36*
X146469078Y-101785514D02*
G01*
X146565788Y-101940251D01*
X146584126Y-102086953D01*
X146542709Y-102197399D01*
X146440978Y-102251657D01*
X145868754Y-102251657D01*
X145775315Y-102207686D01*
X145712955Y-101708800D01*
X146306059Y-101708800D01*
X146469078Y-101785514D01*
G37*
G36*
X151469078Y-101785514D02*
G01*
X151565788Y-101940251D01*
X151584126Y-102086953D01*
X151542709Y-102197399D01*
X151440978Y-102251657D01*
X150868754Y-102251657D01*
X150775315Y-102207686D01*
X150712955Y-101708800D01*
X151306059Y-101708800D01*
X151469078Y-101785514D01*
G37*
G36*
X153974045Y-100947515D02*
G01*
X154070150Y-101032942D01*
X154190789Y-101225964D01*
X154280556Y-101944095D01*
X154218536Y-102109482D01*
X154165643Y-102169930D01*
X154012407Y-102251657D01*
X153583040Y-102251657D01*
X153489601Y-102207686D01*
X153321403Y-100862096D01*
X153340978Y-100851657D01*
X153770345Y-100851657D01*
X153974045Y-100947515D01*
G37*
G36*
X158220732Y-104184657D02*
G01*
X140257651Y-104184657D01*
X140257651Y-100978264D01*
X140590984Y-100978264D01*
X140591492Y-100986884D01*
X140591150Y-100990404D01*
X140592001Y-100995525D01*
X140593294Y-101017438D01*
X140629008Y-101303152D01*
X140632311Y-101320345D01*
X140632671Y-101325542D01*
X140634120Y-101329760D01*
X140636412Y-101341689D01*
X140648061Y-101370342D01*
X140658115Y-101399609D01*
X140662768Y-101406519D01*
X140665907Y-101414238D01*
X140684583Y-101438910D01*
X140701863Y-101464567D01*
X140708146Y-101470036D01*
X140713175Y-101476680D01*
X140737593Y-101495672D01*
X140760931Y-101515989D01*
X140768417Y-101519647D01*
X140774994Y-101524762D01*
X140803503Y-101536790D01*
X140831296Y-101550370D01*
X140843041Y-101553471D01*
X140847150Y-101555205D01*
X140852307Y-101555918D01*
X140869238Y-101560389D01*
X142120247Y-101804489D01*
X142155555Y-102086952D01*
X142114137Y-102197399D01*
X142012406Y-102251657D01*
X141583039Y-102251657D01*
X141340145Y-102137354D01*
X141303621Y-102123004D01*
X141226544Y-102109133D01*
X141148503Y-102115685D01*
X141074816Y-102142212D01*
X141010506Y-102186907D01*
X140959956Y-102246723D01*
X140926610Y-102317585D01*
X140912739Y-102394662D01*
X140919291Y-102472703D01*
X140945818Y-102546390D01*
X140990513Y-102610700D01*
X141050329Y-102661250D01*
X141084667Y-102680246D01*
X141388238Y-102823103D01*
X141397722Y-102826829D01*
X141401172Y-102828821D01*
X141406264Y-102830185D01*
X141424762Y-102837453D01*
X141451032Y-102842180D01*
X141476819Y-102849090D01*
X141496648Y-102850389D01*
X141501839Y-102851324D01*
X141505810Y-102850990D01*
X141515977Y-102851657D01*
X142087406Y-102851657D01*
X142111581Y-102850072D01*
X142116538Y-102850239D01*
X142119488Y-102849553D01*
X142126564Y-102849090D01*
X142159561Y-102840248D01*
X142192823Y-102832525D01*
X142199281Y-102829605D01*
X142202211Y-102828821D01*
X142206510Y-102826338D01*
X142228582Y-102816363D01*
X142496439Y-102673506D01*
X142509443Y-102665435D01*
X142513990Y-102663369D01*
X142517724Y-102660296D01*
X142529782Y-102652814D01*
X142551502Y-102632508D01*
X142574469Y-102613614D01*
X142580019Y-102605848D01*
X142586991Y-102599331D01*
X142602718Y-102574090D01*
X142620009Y-102549900D01*
X142625849Y-102536968D01*
X142628408Y-102532863D01*
X142629862Y-102528084D01*
X142636162Y-102514137D01*
X142743305Y-102228422D01*
X142749650Y-102207412D01*
X142751670Y-102202626D01*
X142752154Y-102199120D01*
X142754651Y-102190856D01*
X142757860Y-102157866D01*
X142762399Y-102125049D01*
X142761890Y-102116433D01*
X142762234Y-102112908D01*
X142761380Y-102107777D01*
X142760089Y-102085875D01*
X142617232Y-100943018D01*
X142615556Y-100934296D01*
X142615430Y-100930685D01*
X142613903Y-100925695D01*
X142609828Y-100904480D01*
X142600088Y-100880524D01*
X142592525Y-100855794D01*
X142582297Y-100836763D01*
X142580333Y-100831932D01*
X142578152Y-100829051D01*
X142573948Y-100821228D01*
X142395376Y-100535514D01*
X142378805Y-100512499D01*
X142825687Y-100512499D01*
X142825687Y-100590815D01*
X142845956Y-100666462D01*
X142885114Y-100734285D01*
X142940492Y-100789663D01*
X143008315Y-100828821D01*
X143083962Y-100849090D01*
X143123120Y-100851657D01*
X143572572Y-100851657D01*
X143726984Y-102086952D01*
X143685566Y-102197399D01*
X143583835Y-102251657D01*
X143373120Y-102251657D01*
X143333962Y-102254224D01*
X143258315Y-102274493D01*
X143190492Y-102313651D01*
X143135114Y-102369029D01*
X143095956Y-102436852D01*
X143075687Y-102512499D01*
X143075687Y-102590815D01*
X143095956Y-102666462D01*
X143135114Y-102734285D01*
X143190492Y-102789663D01*
X143258315Y-102828821D01*
X143333962Y-102849090D01*
X143373120Y-102851657D01*
X143658835Y-102851657D01*
X143683010Y-102850072D01*
X143687967Y-102850239D01*
X143690917Y-102849553D01*
X143697993Y-102849090D01*
X143730990Y-102840248D01*
X143764252Y-102832525D01*
X143770710Y-102829605D01*
X143773640Y-102828821D01*
X143777939Y-102826338D01*
X143800011Y-102816363D01*
X144067868Y-102673506D01*
X144080872Y-102665435D01*
X144085419Y-102663369D01*
X144089153Y-102660296D01*
X144101211Y-102652814D01*
X144122931Y-102632508D01*
X144145898Y-102613614D01*
X144151448Y-102605848D01*
X144158420Y-102599331D01*
X144174147Y-102574090D01*
X144191438Y-102549900D01*
X144197278Y-102536968D01*
X144199837Y-102532863D01*
X144201291Y-102528084D01*
X144207591Y-102514137D01*
X144314734Y-102228422D01*
X144321082Y-102207401D01*
X144323098Y-102202625D01*
X144323581Y-102199127D01*
X144326080Y-102190856D01*
X144329290Y-102157852D01*
X144333828Y-102125048D01*
X144333320Y-102116433D01*
X144333663Y-102112908D01*
X144332809Y-102107777D01*
X144331518Y-102085874D01*
X144193067Y-100978264D01*
X145019556Y-100978264D01*
X145020064Y-100986884D01*
X145019722Y-100990404D01*
X145020573Y-100995525D01*
X145021866Y-101017438D01*
X145218295Y-102588867D01*
X145225699Y-102627404D01*
X145255194Y-102699953D01*
X145302462Y-102762396D01*
X145364281Y-102810477D01*
X145436438Y-102840920D01*
X145514014Y-102851650D01*
X145591726Y-102841936D01*
X145657311Y-102815271D01*
X145673953Y-102823103D01*
X145683437Y-102826829D01*
X145686887Y-102828821D01*
X145691979Y-102830185D01*
X145710477Y-102837453D01*
X145736747Y-102842180D01*
X145762534Y-102849090D01*
X145782363Y-102850389D01*
X145787554Y-102851324D01*
X145791525Y-102850990D01*
X145801692Y-102851657D01*
X146515978Y-102851657D01*
X146540153Y-102850072D01*
X146545110Y-102850239D01*
X146548060Y-102849553D01*
X146555136Y-102849090D01*
X146588133Y-102840248D01*
X146621395Y-102832525D01*
X146627853Y-102829605D01*
X146630783Y-102828821D01*
X146635082Y-102826338D01*
X146657154Y-102816363D01*
X146925011Y-102673506D01*
X146938015Y-102665435D01*
X146942562Y-102663369D01*
X146946296Y-102660296D01*
X146958354Y-102652814D01*
X146980074Y-102632508D01*
X147003041Y-102613614D01*
X147008591Y-102605848D01*
X147015563Y-102599331D01*
X147031290Y-102574090D01*
X147048581Y-102549900D01*
X147054421Y-102536968D01*
X147056980Y-102532863D01*
X147058434Y-102528084D01*
X147064734Y-102514137D01*
X147171877Y-102228422D01*
X147178223Y-102207409D01*
X147180242Y-102202625D01*
X147180726Y-102199121D01*
X147183223Y-102190856D01*
X147186432Y-102157862D01*
X147190971Y-102125048D01*
X147190463Y-102116433D01*
X147190806Y-102112908D01*
X147189952Y-102107777D01*
X147188661Y-102085874D01*
X147152946Y-101800160D01*
X147151270Y-101791438D01*
X147151144Y-101787829D01*
X147149618Y-101782841D01*
X147145542Y-101761623D01*
X147135801Y-101737663D01*
X147128239Y-101712938D01*
X147118013Y-101693910D01*
X147116047Y-101689074D01*
X147113864Y-101686191D01*
X147109662Y-101678371D01*
X146931092Y-101392657D01*
X146908161Y-101360812D01*
X146902784Y-101355799D01*
X146898586Y-101349758D01*
X146874217Y-101329164D01*
X146850880Y-101307406D01*
X146844383Y-101303952D01*
X146838769Y-101299208D01*
X146804431Y-101280211D01*
X146500860Y-101137354D01*
X146491375Y-101133627D01*
X146487926Y-101131636D01*
X146482833Y-101130271D01*
X146464336Y-101123004D01*
X146438065Y-101118276D01*
X146412279Y-101111367D01*
X146392449Y-101110067D01*
X146387259Y-101109133D01*
X146383287Y-101109466D01*
X146373121Y-101108800D01*
X145725895Y-101108800D01*
X145632458Y-101064829D01*
X145626399Y-101016360D01*
X145667817Y-100905913D01*
X145769549Y-100851657D01*
X146198916Y-100851657D01*
X146441810Y-100965960D01*
X146478334Y-100980310D01*
X146555411Y-100994181D01*
X146633452Y-100987629D01*
X146707139Y-100961102D01*
X146771449Y-100916407D01*
X146821999Y-100856591D01*
X146855345Y-100785729D01*
X146869216Y-100708652D01*
X146862664Y-100630611D01*
X146840346Y-100568616D01*
X147395029Y-100568616D01*
X147409624Y-100645560D01*
X147424318Y-100681947D01*
X148388604Y-102681947D01*
X148391135Y-102686422D01*
X148393216Y-102691107D01*
X148768216Y-103405392D01*
X148788690Y-103438869D01*
X148798778Y-103449802D01*
X148806963Y-103462230D01*
X148834525Y-103490164D01*
X148995239Y-103633022D01*
X149026211Y-103657119D01*
X149029587Y-103658812D01*
X149032472Y-103661250D01*
X149066810Y-103680246D01*
X149370381Y-103823103D01*
X149406905Y-103837453D01*
X149483982Y-103851324D01*
X149562023Y-103844772D01*
X149635710Y-103818245D01*
X149700020Y-103773550D01*
X149750570Y-103713734D01*
X149783916Y-103642872D01*
X149797787Y-103565795D01*
X149791235Y-103487754D01*
X149764708Y-103414067D01*
X149720014Y-103349758D01*
X149660197Y-103299208D01*
X149625859Y-103280211D01*
X149361482Y-103155798D01*
X149274027Y-103078059D01*
X148976271Y-102510907D01*
X149332063Y-100978264D01*
X150019556Y-100978264D01*
X150020064Y-100986884D01*
X150019722Y-100990404D01*
X150020573Y-100995525D01*
X150021866Y-101017438D01*
X150218295Y-102588867D01*
X150225699Y-102627404D01*
X150255194Y-102699953D01*
X150302462Y-102762396D01*
X150364281Y-102810477D01*
X150436438Y-102840920D01*
X150514014Y-102851650D01*
X150591726Y-102841936D01*
X150657311Y-102815271D01*
X150673953Y-102823103D01*
X150683437Y-102826829D01*
X150686887Y-102828821D01*
X150691979Y-102830185D01*
X150710477Y-102837453D01*
X150736747Y-102842180D01*
X150762534Y-102849090D01*
X150782363Y-102850389D01*
X150787554Y-102851324D01*
X150791525Y-102850990D01*
X150801692Y-102851657D01*
X151515978Y-102851657D01*
X151540153Y-102850072D01*
X151545110Y-102850239D01*
X151548060Y-102849553D01*
X151555136Y-102849090D01*
X151588133Y-102840248D01*
X151621395Y-102832525D01*
X151627853Y-102829605D01*
X151630783Y-102828821D01*
X151635082Y-102826338D01*
X151657154Y-102816363D01*
X151925011Y-102673506D01*
X151938015Y-102665435D01*
X151942562Y-102663369D01*
X151946296Y-102660296D01*
X151958354Y-102652814D01*
X151980074Y-102632508D01*
X152003041Y-102613614D01*
X152008591Y-102605848D01*
X152015563Y-102599331D01*
X152031290Y-102574090D01*
X152048581Y-102549900D01*
X152054421Y-102536968D01*
X152056980Y-102532863D01*
X152058434Y-102528084D01*
X152064734Y-102514137D01*
X152171877Y-102228422D01*
X152178223Y-102207409D01*
X152180242Y-102202625D01*
X152180726Y-102199121D01*
X152183223Y-102190856D01*
X152186432Y-102157862D01*
X152190971Y-102125048D01*
X152190463Y-102116433D01*
X152190806Y-102112908D01*
X152189952Y-102107777D01*
X152188661Y-102085874D01*
X152152946Y-101800160D01*
X152151270Y-101791438D01*
X152151144Y-101787829D01*
X152149618Y-101782841D01*
X152145542Y-101761623D01*
X152135801Y-101737663D01*
X152128239Y-101712938D01*
X152118013Y-101693910D01*
X152116047Y-101689074D01*
X152113864Y-101686191D01*
X152109662Y-101678371D01*
X151931092Y-101392657D01*
X151908161Y-101360812D01*
X151902784Y-101355799D01*
X151898586Y-101349758D01*
X151874217Y-101329164D01*
X151850880Y-101307406D01*
X151844383Y-101303952D01*
X151838769Y-101299208D01*
X151804431Y-101280211D01*
X151500860Y-101137354D01*
X151491375Y-101133627D01*
X151487926Y-101131636D01*
X151482833Y-101130271D01*
X151464336Y-101123004D01*
X151438065Y-101118276D01*
X151412279Y-101111367D01*
X151392449Y-101110067D01*
X151387259Y-101109133D01*
X151383287Y-101109466D01*
X151373121Y-101108800D01*
X150725895Y-101108800D01*
X150632458Y-101064829D01*
X150626399Y-101016360D01*
X150667817Y-100905913D01*
X150769549Y-100851657D01*
X151198916Y-100851657D01*
X151441810Y-100965960D01*
X151478334Y-100980310D01*
X151555411Y-100994181D01*
X151633452Y-100987629D01*
X151707139Y-100961102D01*
X151771449Y-100916407D01*
X151821999Y-100856591D01*
X151855345Y-100785729D01*
X151869216Y-100708652D01*
X151862664Y-100630611D01*
X151836137Y-100556924D01*
X151791443Y-100492615D01*
X151731626Y-100442065D01*
X151697288Y-100423068D01*
X151393717Y-100280211D01*
X151384232Y-100276484D01*
X151380783Y-100274493D01*
X151375690Y-100273128D01*
X151357193Y-100265861D01*
X151330922Y-100261133D01*
X151305136Y-100254224D01*
X151285306Y-100252924D01*
X151280116Y-100251990D01*
X151276144Y-100252323D01*
X151265978Y-100251657D01*
X150694549Y-100251657D01*
X150670373Y-100253241D01*
X150665417Y-100253075D01*
X150662466Y-100253760D01*
X150655391Y-100254224D01*
X150622393Y-100263065D01*
X150589132Y-100270789D01*
X150582672Y-100273708D01*
X150579744Y-100274493D01*
X150575445Y-100276974D01*
X150553372Y-100286951D01*
X150285516Y-100429808D01*
X150272515Y-100437875D01*
X150267965Y-100439944D01*
X150264227Y-100443018D01*
X150252172Y-100450500D01*
X150230447Y-100470809D01*
X150207486Y-100489700D01*
X150201937Y-100497462D01*
X150194963Y-100503983D01*
X150179234Y-100529225D01*
X150161946Y-100553413D01*
X150156104Y-100566346D01*
X150153547Y-100570451D01*
X150152093Y-100575228D01*
X150145793Y-100589177D01*
X150038650Y-100874891D01*
X150032305Y-100895898D01*
X150030285Y-100900688D01*
X150029799Y-100904196D01*
X150027305Y-100912457D01*
X150024097Y-100945424D01*
X150019556Y-100978264D01*
X149332063Y-100978264D01*
X149415349Y-100619496D01*
X149421703Y-100580772D01*
X149419065Y-100502501D01*
X149396259Y-100427580D01*
X149354838Y-100361114D01*
X149297626Y-100307633D01*
X149228522Y-100270783D01*
X149152235Y-100253074D01*
X149073964Y-100255712D01*
X148999043Y-100278518D01*
X148932577Y-100319939D01*
X148879096Y-100377151D01*
X148842246Y-100446255D01*
X148830891Y-100483818D01*
X148559191Y-101654219D01*
X147964780Y-100421367D01*
X147945461Y-100387210D01*
X147894350Y-100327872D01*
X147829622Y-100283786D01*
X147755689Y-100257953D01*
X147677590Y-100252137D01*
X147600646Y-100266732D01*
X147530102Y-100300745D01*
X147470764Y-100351856D01*
X147426678Y-100416584D01*
X147400845Y-100490517D01*
X147395029Y-100568616D01*
X146840346Y-100568616D01*
X146836137Y-100556924D01*
X146791443Y-100492615D01*
X146731626Y-100442065D01*
X146697288Y-100423068D01*
X146393717Y-100280211D01*
X146384232Y-100276484D01*
X146380783Y-100274493D01*
X146375690Y-100273128D01*
X146357193Y-100265861D01*
X146330922Y-100261133D01*
X146305136Y-100254224D01*
X146285306Y-100252924D01*
X146280116Y-100251990D01*
X146276144Y-100252323D01*
X146265978Y-100251657D01*
X145694549Y-100251657D01*
X145670373Y-100253241D01*
X145665417Y-100253075D01*
X145662466Y-100253760D01*
X145655391Y-100254224D01*
X145622393Y-100263065D01*
X145589132Y-100270789D01*
X145582672Y-100273708D01*
X145579744Y-100274493D01*
X145575445Y-100276974D01*
X145553372Y-100286951D01*
X145285516Y-100429808D01*
X145272515Y-100437875D01*
X145267965Y-100439944D01*
X145264227Y-100443018D01*
X145252172Y-100450500D01*
X145230447Y-100470809D01*
X145207486Y-100489700D01*
X145201937Y-100497462D01*
X145194963Y-100503983D01*
X145179234Y-100529225D01*
X145161946Y-100553413D01*
X145156104Y-100566346D01*
X145153547Y-100570451D01*
X145152093Y-100575228D01*
X145145793Y-100589177D01*
X145038650Y-100874891D01*
X145032305Y-100895898D01*
X145030285Y-100900688D01*
X145029799Y-100904196D01*
X145027305Y-100912457D01*
X145024097Y-100945424D01*
X145019556Y-100978264D01*
X144193067Y-100978264D01*
X144177241Y-100851657D01*
X144265977Y-100851657D01*
X144305135Y-100849090D01*
X144380782Y-100828821D01*
X144448605Y-100789663D01*
X144503983Y-100734285D01*
X144543141Y-100666462D01*
X144563410Y-100590815D01*
X144563410Y-100512499D01*
X144543141Y-100436852D01*
X144503983Y-100369029D01*
X144448605Y-100313651D01*
X144380782Y-100274493D01*
X144305135Y-100254224D01*
X144265977Y-100251657D01*
X144102240Y-100251657D01*
X144014495Y-99549693D01*
X152555271Y-99549693D01*
X152557581Y-99588867D01*
X152932581Y-102588868D01*
X152939985Y-102627405D01*
X152969480Y-102699954D01*
X153016748Y-102762396D01*
X153078567Y-102810478D01*
X153150724Y-102840921D01*
X153228300Y-102851650D01*
X153306012Y-102841937D01*
X153371597Y-102815271D01*
X153388239Y-102823103D01*
X153397723Y-102826829D01*
X153401173Y-102828821D01*
X153406265Y-102830185D01*
X153424763Y-102837453D01*
X153451033Y-102842180D01*
X153476820Y-102849090D01*
X153496649Y-102850389D01*
X153501840Y-102851324D01*
X153505811Y-102850990D01*
X153515978Y-102851657D01*
X154087407Y-102851657D01*
X154111582Y-102850072D01*
X154116539Y-102850239D01*
X154119489Y-102849553D01*
X154126565Y-102849090D01*
X154159562Y-102840248D01*
X154192824Y-102832525D01*
X154199282Y-102829605D01*
X154202212Y-102828821D01*
X154206511Y-102826338D01*
X154228583Y-102816363D01*
X154496440Y-102673506D01*
X154529783Y-102652814D01*
X154540794Y-102642519D01*
X154553320Y-102634130D01*
X154581038Y-102606351D01*
X154706038Y-102463492D01*
X154729892Y-102432333D01*
X154736415Y-102419067D01*
X154745010Y-102407043D01*
X154761163Y-102371279D01*
X154868306Y-102085565D01*
X154874654Y-102064544D01*
X154876670Y-102059768D01*
X154877153Y-102056270D01*
X154879652Y-102047999D01*
X154882862Y-102014994D01*
X154887400Y-101982191D01*
X154886892Y-101973577D01*
X154887235Y-101970052D01*
X154886381Y-101964922D01*
X154885090Y-101943017D01*
X154777947Y-101085875D01*
X154776271Y-101077153D01*
X154776145Y-101073542D01*
X154774618Y-101068552D01*
X154770543Y-101047337D01*
X154760803Y-101023381D01*
X154753240Y-100998651D01*
X154743012Y-100979620D01*
X154741048Y-100974789D01*
X154738867Y-100971908D01*
X154734663Y-100964085D01*
X154556091Y-100678371D01*
X154533161Y-100646525D01*
X154530535Y-100644077D01*
X154528563Y-100641082D01*
X154501001Y-100613148D01*
X154340287Y-100470291D01*
X154309315Y-100446195D01*
X154305938Y-100444501D01*
X154303055Y-100442065D01*
X154268717Y-100423068D01*
X153965146Y-100280211D01*
X153955661Y-100276484D01*
X153952212Y-100274493D01*
X153947119Y-100273128D01*
X153928622Y-100265861D01*
X153902351Y-100261133D01*
X153876565Y-100254224D01*
X153856735Y-100252924D01*
X153851545Y-100251990D01*
X153847573Y-100252323D01*
X153837407Y-100251657D01*
X153265978Y-100251657D01*
X153245267Y-100253014D01*
X153157353Y-99549693D01*
X155269556Y-99549693D01*
X155271866Y-99588867D01*
X155575438Y-102017439D01*
X155577113Y-102026160D01*
X155577240Y-102029770D01*
X155578765Y-102034757D01*
X155582842Y-102055976D01*
X155592582Y-102079935D01*
X155600145Y-102104661D01*
X155610372Y-102123692D01*
X155612337Y-102128525D01*
X155614516Y-102131404D01*
X155618721Y-102139228D01*
X155797292Y-102424941D01*
X155820223Y-102456787D01*
X155822846Y-102459232D01*
X155824820Y-102462230D01*
X155852382Y-102490164D01*
X156013096Y-102633022D01*
X156044068Y-102657119D01*
X156047444Y-102658812D01*
X156050329Y-102661250D01*
X156084667Y-102680246D01*
X156388239Y-102823103D01*
X156397724Y-102826830D01*
X156401173Y-102828821D01*
X156406261Y-102830184D01*
X156424763Y-102837454D01*
X156451040Y-102842182D01*
X156476820Y-102849090D01*
X156496650Y-102850389D01*
X156501841Y-102851324D01*
X156505812Y-102850990D01*
X156515978Y-102851657D01*
X157087406Y-102851657D01*
X157111580Y-102850072D01*
X157116537Y-102850239D01*
X157119487Y-102849553D01*
X157126564Y-102849090D01*
X157159564Y-102840247D01*
X157192823Y-102832525D01*
X157199281Y-102829605D01*
X157202211Y-102828821D01*
X157206510Y-102826338D01*
X157228582Y-102816363D01*
X157496440Y-102673506D01*
X157529783Y-102652814D01*
X157540794Y-102642519D01*
X157553320Y-102634130D01*
X157581038Y-102606351D01*
X157706038Y-102463492D01*
X157729892Y-102432333D01*
X157736416Y-102419064D01*
X157745010Y-102407042D01*
X157761163Y-102371278D01*
X157868305Y-102085565D01*
X157874648Y-102064560D01*
X157876670Y-102059769D01*
X157877155Y-102056259D01*
X157879650Y-102047999D01*
X157882856Y-102015033D01*
X157887399Y-101982192D01*
X157886890Y-101973570D01*
X157887233Y-101970051D01*
X157886381Y-101964929D01*
X157885089Y-101943018D01*
X157581518Y-99514447D01*
X157574114Y-99475909D01*
X157544619Y-99403361D01*
X157497351Y-99340918D01*
X157435532Y-99292837D01*
X157363376Y-99262393D01*
X157285799Y-99251664D01*
X157208087Y-99261378D01*
X157135539Y-99290873D01*
X157073096Y-99338141D01*
X157025015Y-99399960D01*
X156994571Y-99472116D01*
X156983842Y-99549693D01*
X156986152Y-99588867D01*
X157280555Y-101944097D01*
X157218536Y-102109481D01*
X157165643Y-102169931D01*
X157012407Y-102251657D01*
X156583040Y-102251657D01*
X156379338Y-102155798D01*
X156283234Y-102070371D01*
X156162595Y-101877346D01*
X155867232Y-99514447D01*
X155859828Y-99475909D01*
X155830333Y-99403361D01*
X155783065Y-99340918D01*
X155721246Y-99292837D01*
X155649089Y-99262393D01*
X155571513Y-99251664D01*
X155493801Y-99261378D01*
X155421253Y-99290873D01*
X155358810Y-99338141D01*
X155310729Y-99399960D01*
X155280285Y-99472117D01*
X155269556Y-99549693D01*
X153157353Y-99549693D01*
X153152947Y-99514447D01*
X153145543Y-99475909D01*
X153116048Y-99403361D01*
X153068780Y-99340918D01*
X153006961Y-99292837D01*
X152934804Y-99262393D01*
X152857228Y-99251664D01*
X152779516Y-99261378D01*
X152706968Y-99290873D01*
X152644525Y-99338141D01*
X152596444Y-99399960D01*
X152566000Y-99472117D01*
X152555271Y-99549693D01*
X144014495Y-99549693D01*
X144010089Y-99514447D01*
X144002685Y-99475909D01*
X143973190Y-99403361D01*
X143925922Y-99340918D01*
X143864103Y-99292837D01*
X143791946Y-99262393D01*
X143714370Y-99251664D01*
X143636658Y-99261378D01*
X143564110Y-99290873D01*
X143501667Y-99338141D01*
X143453586Y-99399960D01*
X143423142Y-99472117D01*
X143412413Y-99549693D01*
X143414723Y-99588867D01*
X143497572Y-100251657D01*
X143123120Y-100251657D01*
X143083962Y-100254224D01*
X143008315Y-100274493D01*
X142940492Y-100313651D01*
X142885114Y-100369029D01*
X142845956Y-100436852D01*
X142825687Y-100512499D01*
X142378805Y-100512499D01*
X142372446Y-100503668D01*
X142367067Y-100498653D01*
X142362871Y-100492615D01*
X142338507Y-100472025D01*
X142315165Y-100450263D01*
X142308668Y-100446809D01*
X142303054Y-100442065D01*
X142268716Y-100423068D01*
X141965145Y-100280211D01*
X141955660Y-100276484D01*
X141952211Y-100274493D01*
X141947118Y-100273128D01*
X141928621Y-100265861D01*
X141902350Y-100261133D01*
X141876564Y-100254224D01*
X141856734Y-100252924D01*
X141851544Y-100251990D01*
X141847572Y-100252323D01*
X141837406Y-100251657D01*
X141265977Y-100251657D01*
X141241801Y-100253241D01*
X141236845Y-100253075D01*
X141233894Y-100253760D01*
X141226819Y-100254224D01*
X141193821Y-100263065D01*
X141160560Y-100270789D01*
X141154100Y-100273708D01*
X141151172Y-100274493D01*
X141146873Y-100276974D01*
X141124800Y-100286951D01*
X140856944Y-100429808D01*
X140843943Y-100437875D01*
X140839393Y-100439944D01*
X140835655Y-100443018D01*
X140823600Y-100450500D01*
X140801875Y-100470809D01*
X140778914Y-100489700D01*
X140773365Y-100497462D01*
X140766391Y-100503983D01*
X140750662Y-100529225D01*
X140733374Y-100553413D01*
X140727532Y-100566346D01*
X140724975Y-100570451D01*
X140723521Y-100575228D01*
X140717221Y-100589177D01*
X140610078Y-100874891D01*
X140603732Y-100895903D01*
X140601714Y-100900687D01*
X140601229Y-100904190D01*
X140598733Y-100912457D01*
X140595524Y-100945433D01*
X140590984Y-100978264D01*
X140257651Y-100978264D01*
X140257651Y-98918331D01*
X158220732Y-98918331D01*
X158220732Y-104184657D01*
G37*
D11*
G36*
X149777788Y-105827837D02*
G01*
X149821930Y-105898464D01*
X149830641Y-105968153D01*
X149451522Y-105894179D01*
X149449276Y-105876213D01*
X149470225Y-105820351D01*
X149521993Y-105792742D01*
X149703210Y-105792742D01*
X149777788Y-105827837D01*
G37*
G36*
X150955143Y-105821314D02*
G01*
X150633633Y-105821314D01*
X150545494Y-105779837D01*
X150502745Y-105741838D01*
X150450627Y-105658450D01*
X150434990Y-105533356D01*
X150462807Y-105459180D01*
X150488770Y-105429507D01*
X150557707Y-105392742D01*
X150901572Y-105392742D01*
X150955143Y-105821314D01*
G37*
G36*
X151372924Y-106726075D02*
G01*
X142222723Y-106726075D01*
X142222723Y-106473233D01*
X142356056Y-106473233D01*
X142356056Y-106512251D01*
X142370988Y-106548299D01*
X142398578Y-106575889D01*
X142434626Y-106590821D01*
X142454135Y-106592742D01*
X143139849Y-106592742D01*
X143159358Y-106590821D01*
X143195406Y-106575889D01*
X143222996Y-106548299D01*
X143237928Y-106512251D01*
X143237928Y-106473233D01*
X143222996Y-106437185D01*
X143208469Y-106422658D01*
X143490690Y-106422658D01*
X143491965Y-106441794D01*
X143493086Y-106460836D01*
X143493258Y-106461191D01*
X143493285Y-106461590D01*
X143501759Y-106478725D01*
X143510108Y-106495945D01*
X143510468Y-106496334D01*
X143510582Y-106496565D01*
X143511099Y-106497017D01*
X143523413Y-106510342D01*
X143587699Y-106567484D01*
X143603557Y-106579009D01*
X143603933Y-106579139D01*
X143604231Y-106579400D01*
X143607006Y-106580338D01*
X143609320Y-106582138D01*
X143625025Y-106586456D01*
X143640420Y-106591797D01*
X143640815Y-106591773D01*
X143641192Y-106591901D01*
X143644116Y-106591706D01*
X143646942Y-106592483D01*
X143663109Y-106590461D01*
X143679371Y-106589505D01*
X143679726Y-106589332D01*
X143680124Y-106589306D01*
X143682752Y-106588006D01*
X143685659Y-106587643D01*
X143699810Y-106579595D01*
X143714480Y-106572483D01*
X143714743Y-106572186D01*
X143715100Y-106572010D01*
X143718098Y-106569195D01*
X143719576Y-106568355D01*
X143721152Y-106566327D01*
X143729392Y-106558593D01*
X143779392Y-106501451D01*
X143789934Y-106486705D01*
X143790402Y-106486179D01*
X143790488Y-106485930D01*
X143790793Y-106485504D01*
X143796894Y-106467463D01*
X143803190Y-106449316D01*
X143803166Y-106448918D01*
X143803294Y-106448542D01*
X143802022Y-106429467D01*
X143800899Y-106410365D01*
X143800725Y-106410006D01*
X143800699Y-106409611D01*
X143792238Y-106392502D01*
X143783877Y-106375256D01*
X143783517Y-106374867D01*
X143783403Y-106374635D01*
X143782881Y-106374178D01*
X143770572Y-106360859D01*
X143706285Y-106303716D01*
X143690428Y-106292191D01*
X143690053Y-106292061D01*
X143689753Y-106291798D01*
X143686975Y-106290858D01*
X143684664Y-106289061D01*
X143668957Y-106284742D01*
X143653565Y-106279402D01*
X143653167Y-106279425D01*
X143652791Y-106279298D01*
X143649867Y-106279492D01*
X143647042Y-106278716D01*
X143630875Y-106280736D01*
X143614614Y-106281693D01*
X143614256Y-106281866D01*
X143613859Y-106281893D01*
X143611233Y-106283191D01*
X143608325Y-106283555D01*
X143594160Y-106291610D01*
X143579505Y-106298716D01*
X143579241Y-106299012D01*
X143578884Y-106299189D01*
X143575888Y-106302001D01*
X143574408Y-106302843D01*
X143572829Y-106304872D01*
X143564591Y-106312606D01*
X143514591Y-106369750D01*
X143504044Y-106384501D01*
X143503582Y-106385022D01*
X143503496Y-106385268D01*
X143503190Y-106385697D01*
X143497062Y-106403814D01*
X143490794Y-106421885D01*
X143490817Y-106422281D01*
X143490690Y-106422658D01*
X143208469Y-106422658D01*
X143195406Y-106409595D01*
X143159358Y-106394663D01*
X143139849Y-106392742D01*
X142885270Y-106392742D01*
X142786325Y-105601184D01*
X142844841Y-105653198D01*
X142850273Y-105657146D01*
X142851864Y-105658894D01*
X142856415Y-105661609D01*
X142860699Y-105664723D01*
X142862929Y-105665496D01*
X142868698Y-105668939D01*
X142990126Y-105726082D01*
X143008596Y-105732651D01*
X143047571Y-105734489D01*
X143084283Y-105721273D01*
X143113143Y-105695014D01*
X143129757Y-105659710D01*
X143131595Y-105620735D01*
X143118379Y-105584023D01*
X143092120Y-105555163D01*
X143075286Y-105545118D01*
X143009418Y-105514121D01*
X143947251Y-105514121D01*
X143947764Y-105533718D01*
X143962050Y-105648003D01*
X143963893Y-105656150D01*
X143963989Y-105658730D01*
X143965412Y-105662863D01*
X143966376Y-105667123D01*
X143967650Y-105669364D01*
X143970371Y-105677265D01*
X144048942Y-105848693D01*
X144058817Y-105865628D01*
X144059627Y-105866380D01*
X144060108Y-105867372D01*
X144073413Y-105881769D01*
X144648258Y-106392742D01*
X144168421Y-106392742D01*
X144148912Y-106394663D01*
X144112864Y-106409595D01*
X144085274Y-106437185D01*
X144070342Y-106473233D01*
X144070342Y-106512251D01*
X144085274Y-106548299D01*
X144112864Y-106575889D01*
X144148912Y-106590821D01*
X144168421Y-106592742D01*
X144911278Y-106592742D01*
X144930787Y-106590821D01*
X144933539Y-106589680D01*
X144936513Y-106589506D01*
X144951474Y-106582251D01*
X144966835Y-106575889D01*
X144968941Y-106573782D01*
X144971622Y-106572483D01*
X144982670Y-106560053D01*
X144994425Y-106548299D01*
X144995564Y-106545547D01*
X144997544Y-106543321D01*
X145002993Y-106527613D01*
X145009357Y-106512251D01*
X145009357Y-106509271D01*
X145010333Y-106506458D01*
X145009357Y-106489864D01*
X145009357Y-106473233D01*
X145008216Y-106470480D01*
X145008042Y-106467507D01*
X145000787Y-106452545D01*
X144994425Y-106437185D01*
X144992318Y-106435078D01*
X144991019Y-106432398D01*
X144982018Y-106422658D01*
X145204976Y-106422658D01*
X145206251Y-106441794D01*
X145207372Y-106460836D01*
X145207544Y-106461191D01*
X145207571Y-106461590D01*
X145216045Y-106478725D01*
X145224394Y-106495945D01*
X145224754Y-106496334D01*
X145224868Y-106496565D01*
X145225385Y-106497017D01*
X145237699Y-106510342D01*
X145301985Y-106567484D01*
X145317843Y-106579009D01*
X145318219Y-106579139D01*
X145318517Y-106579400D01*
X145321292Y-106580338D01*
X145323606Y-106582138D01*
X145339311Y-106586456D01*
X145354706Y-106591797D01*
X145355101Y-106591773D01*
X145355478Y-106591901D01*
X145358402Y-106591706D01*
X145361228Y-106592483D01*
X145377395Y-106590461D01*
X145393657Y-106589505D01*
X145394012Y-106589332D01*
X145394410Y-106589306D01*
X145397038Y-106588006D01*
X145399945Y-106587643D01*
X145414096Y-106579595D01*
X145428766Y-106572483D01*
X145429029Y-106572186D01*
X145429386Y-106572010D01*
X145432384Y-106569195D01*
X145433862Y-106568355D01*
X145435438Y-106566327D01*
X145443678Y-106558593D01*
X145493678Y-106501451D01*
X145504220Y-106486705D01*
X145504688Y-106486179D01*
X145504774Y-106485930D01*
X145505079Y-106485504D01*
X145509229Y-106473233D01*
X145784628Y-106473233D01*
X145784628Y-106512251D01*
X145799560Y-106548299D01*
X145827150Y-106575889D01*
X145863198Y-106590821D01*
X145882707Y-106592742D01*
X146568421Y-106592742D01*
X146587930Y-106590821D01*
X146623978Y-106575889D01*
X146651568Y-106548299D01*
X146666500Y-106512251D01*
X146666500Y-106473233D01*
X146651568Y-106437185D01*
X146637041Y-106422658D01*
X147833548Y-106422658D01*
X147834823Y-106441794D01*
X147835944Y-106460836D01*
X147836116Y-106461191D01*
X147836143Y-106461590D01*
X147844617Y-106478725D01*
X147852966Y-106495945D01*
X147853326Y-106496334D01*
X147853440Y-106496565D01*
X147853957Y-106497017D01*
X147866271Y-106510342D01*
X147930557Y-106567484D01*
X147946415Y-106579009D01*
X147946791Y-106579139D01*
X147947089Y-106579400D01*
X147949864Y-106580338D01*
X147952178Y-106582138D01*
X147967883Y-106586456D01*
X147983278Y-106591797D01*
X147983673Y-106591773D01*
X147984050Y-106591901D01*
X147986974Y-106591706D01*
X147989800Y-106592483D01*
X148005967Y-106590461D01*
X148022229Y-106589505D01*
X148022584Y-106589332D01*
X148022982Y-106589306D01*
X148025610Y-106588006D01*
X148028517Y-106587643D01*
X148042668Y-106579595D01*
X148057338Y-106572483D01*
X148057601Y-106572186D01*
X148057958Y-106572010D01*
X148060956Y-106569195D01*
X148062434Y-106568355D01*
X148064010Y-106566327D01*
X148072250Y-106558593D01*
X148122250Y-106501451D01*
X148132792Y-106486705D01*
X148133260Y-106486179D01*
X148133346Y-106485930D01*
X148133651Y-106485504D01*
X148139752Y-106467463D01*
X148146048Y-106449316D01*
X148146024Y-106448918D01*
X148146152Y-106448542D01*
X148144880Y-106429467D01*
X148143757Y-106410365D01*
X148143583Y-106410006D01*
X148143557Y-106409611D01*
X148135096Y-106392502D01*
X148126735Y-106375256D01*
X148126375Y-106374867D01*
X148126261Y-106374635D01*
X148125739Y-106374178D01*
X148113430Y-106360859D01*
X148049143Y-106303716D01*
X148033286Y-106292191D01*
X148032911Y-106292061D01*
X148032611Y-106291798D01*
X148029833Y-106290858D01*
X148027522Y-106289061D01*
X148011815Y-106284742D01*
X147996423Y-106279402D01*
X147996025Y-106279425D01*
X147995649Y-106279298D01*
X147992725Y-106279492D01*
X147989900Y-106278716D01*
X147973733Y-106280736D01*
X147957472Y-106281693D01*
X147957114Y-106281866D01*
X147956717Y-106281893D01*
X147954091Y-106283191D01*
X147951183Y-106283555D01*
X147937018Y-106291610D01*
X147922363Y-106298716D01*
X147922099Y-106299012D01*
X147921742Y-106299189D01*
X147918746Y-106302001D01*
X147917266Y-106302843D01*
X147915687Y-106304872D01*
X147907449Y-106312606D01*
X147857449Y-106369750D01*
X147846902Y-106384501D01*
X147846440Y-106385022D01*
X147846354Y-106385268D01*
X147846048Y-106385697D01*
X147839920Y-106403814D01*
X147833652Y-106421885D01*
X147833675Y-106422281D01*
X147833548Y-106422658D01*
X146637041Y-106422658D01*
X146623978Y-106409595D01*
X146587930Y-106394663D01*
X146568421Y-106392742D01*
X146313842Y-106392742D01*
X146239010Y-105794086D01*
X147754977Y-105794086D01*
X147756248Y-105813164D01*
X147757372Y-105832263D01*
X147757545Y-105832620D01*
X147757572Y-105833018D01*
X147766046Y-105850153D01*
X147774395Y-105867372D01*
X147774753Y-105867760D01*
X147774869Y-105867993D01*
X147775391Y-105868449D01*
X147787700Y-105881769D01*
X147851986Y-105938912D01*
X147867843Y-105950437D01*
X147868218Y-105950567D01*
X147868519Y-105950830D01*
X147871295Y-105951768D01*
X147873607Y-105953567D01*
X147889313Y-105957885D01*
X147904706Y-105963226D01*
X147905103Y-105963202D01*
X147905480Y-105963330D01*
X147908403Y-105963135D01*
X147911229Y-105963912D01*
X147927389Y-105961891D01*
X147943657Y-105960935D01*
X147944014Y-105960761D01*
X147944412Y-105960735D01*
X147947040Y-105959435D01*
X147949946Y-105959072D01*
X147964098Y-105951023D01*
X147978766Y-105943912D01*
X147979030Y-105943614D01*
X147979387Y-105943438D01*
X147982382Y-105940625D01*
X147983863Y-105939784D01*
X147985441Y-105937754D01*
X147993680Y-105930021D01*
X148043680Y-105872878D01*
X148054222Y-105858131D01*
X148054689Y-105857607D01*
X148054775Y-105857358D01*
X148055081Y-105856931D01*
X148061188Y-105838872D01*
X148067477Y-105820744D01*
X148067453Y-105820345D01*
X148067581Y-105819969D01*
X148066309Y-105800886D01*
X148065186Y-105781793D01*
X148065012Y-105781435D01*
X148064986Y-105781038D01*
X148056501Y-105763879D01*
X148048164Y-105746684D01*
X148047806Y-105746296D01*
X148047690Y-105746062D01*
X148047163Y-105745601D01*
X148034859Y-105732287D01*
X147974695Y-105678809D01*
X148255111Y-105678809D01*
X148257317Y-105717765D01*
X148264059Y-105736172D01*
X148649774Y-106536172D01*
X148659977Y-106552911D01*
X148664047Y-106556545D01*
X148666931Y-106561172D01*
X148678482Y-106569433D01*
X148689083Y-106578897D01*
X148694232Y-106580696D01*
X148698669Y-106583869D01*
X148712508Y-106587081D01*
X148725918Y-106591767D01*
X148731363Y-106591458D01*
X148736676Y-106592692D01*
X148750682Y-106590365D01*
X148764874Y-106589562D01*
X148769791Y-106587190D01*
X148775167Y-106586298D01*
X148787214Y-106578790D01*
X148800020Y-106572616D01*
X148803654Y-106568545D01*
X148808281Y-106565662D01*
X148816542Y-106554110D01*
X148826006Y-106543510D01*
X148827805Y-106538360D01*
X148830978Y-106533924D01*
X148837261Y-106515355D01*
X148990098Y-105856978D01*
X149247252Y-105856978D01*
X149247765Y-105876575D01*
X149262051Y-105990860D01*
X149266377Y-106009980D01*
X149268270Y-106013309D01*
X149269031Y-106017062D01*
X149277854Y-106030163D01*
X149285665Y-106043898D01*
X149288688Y-106046249D01*
X149290827Y-106049425D01*
X149303991Y-106058152D01*
X149316464Y-106067853D01*
X149320156Y-106068868D01*
X149323348Y-106070984D01*
X149342128Y-106076606D01*
X149856749Y-106177019D01*
X149873280Y-106309270D01*
X149852331Y-106365133D01*
X149800564Y-106392742D01*
X149619346Y-106392742D01*
X149518143Y-106345118D01*
X149499673Y-106338549D01*
X149460698Y-106336711D01*
X149423986Y-106349928D01*
X149395127Y-106376187D01*
X149378513Y-106411491D01*
X149376675Y-106450466D01*
X149389892Y-106487178D01*
X149416151Y-106516037D01*
X149432985Y-106526082D01*
X149554414Y-106583224D01*
X149572884Y-106589793D01*
X149575274Y-106589905D01*
X149577484Y-106590821D01*
X149596993Y-106592742D01*
X149825564Y-106592742D01*
X149845073Y-106590821D01*
X149849614Y-106588939D01*
X149854504Y-106588463D01*
X149872622Y-106580978D01*
X149979765Y-106523836D01*
X149988673Y-106517895D01*
X149991053Y-106516814D01*
X149992305Y-106515473D01*
X149996075Y-106512960D01*
X150006489Y-106500293D01*
X150017691Y-106488305D01*
X150019691Y-106484236D01*
X150020855Y-106482821D01*
X150021615Y-106480321D01*
X150026340Y-106470712D01*
X150069197Y-106356427D01*
X150074248Y-106337485D01*
X150074092Y-106332915D01*
X150075305Y-106328507D01*
X150074792Y-106308910D01*
X150017650Y-105851768D01*
X150013324Y-105832648D01*
X150012281Y-105830814D01*
X150011933Y-105828733D01*
X150003222Y-105811171D01*
X149931793Y-105696885D01*
X149919824Y-105681360D01*
X149912480Y-105676123D01*
X149906407Y-105669448D01*
X149889573Y-105659403D01*
X149768144Y-105602260D01*
X149749674Y-105595691D01*
X149747282Y-105595578D01*
X149745073Y-105594663D01*
X149725564Y-105592742D01*
X149496993Y-105592742D01*
X149477484Y-105594663D01*
X149472943Y-105596543D01*
X149468052Y-105597021D01*
X149449934Y-105604507D01*
X149342791Y-105661650D01*
X149333882Y-105667589D01*
X149331504Y-105668671D01*
X149330252Y-105670010D01*
X149326481Y-105672525D01*
X149316058Y-105685202D01*
X149304866Y-105697181D01*
X149302867Y-105701246D01*
X149301701Y-105702665D01*
X149300939Y-105705167D01*
X149296217Y-105714773D01*
X149253360Y-105829059D01*
X149248309Y-105848000D01*
X149248464Y-105852569D01*
X149247252Y-105856978D01*
X148990098Y-105856978D01*
X149022975Y-105715355D01*
X149025515Y-105695917D01*
X149019121Y-105657426D01*
X148998485Y-105624312D01*
X148966747Y-105601615D01*
X148928740Y-105592792D01*
X148890249Y-105599186D01*
X148857135Y-105619822D01*
X148834438Y-105651560D01*
X148828155Y-105670129D01*
X148706636Y-106193595D01*
X148444213Y-105649312D01*
X148434010Y-105632573D01*
X148404904Y-105606587D01*
X148368069Y-105593717D01*
X148329113Y-105595923D01*
X148293967Y-105612868D01*
X148267981Y-105641974D01*
X148255111Y-105678809D01*
X147974695Y-105678809D01*
X147970572Y-105675144D01*
X147954715Y-105663619D01*
X147954340Y-105663489D01*
X147954040Y-105663226D01*
X147951262Y-105662286D01*
X147948951Y-105660489D01*
X147933244Y-105656170D01*
X147917852Y-105650830D01*
X147917454Y-105650853D01*
X147917078Y-105650726D01*
X147914154Y-105650920D01*
X147911329Y-105650144D01*
X147895162Y-105652164D01*
X147878901Y-105653121D01*
X147878543Y-105653294D01*
X147878146Y-105653321D01*
X147875520Y-105654619D01*
X147872612Y-105654983D01*
X147858447Y-105663038D01*
X147843792Y-105670144D01*
X147843528Y-105670440D01*
X147843171Y-105670617D01*
X147840175Y-105673429D01*
X147838695Y-105674271D01*
X147837116Y-105676300D01*
X147828878Y-105684034D01*
X147778878Y-105741178D01*
X147768331Y-105755929D01*
X147767870Y-105756449D01*
X147767784Y-105756694D01*
X147767477Y-105757125D01*
X147761344Y-105775259D01*
X147755081Y-105793312D01*
X147755104Y-105793709D01*
X147754977Y-105794086D01*
X146239010Y-105794086D01*
X146214897Y-105601184D01*
X146273413Y-105653198D01*
X146278845Y-105657146D01*
X146280436Y-105658894D01*
X146284987Y-105661609D01*
X146289271Y-105664723D01*
X146291501Y-105665496D01*
X146297270Y-105668939D01*
X146418698Y-105726082D01*
X146437168Y-105732651D01*
X146476143Y-105734489D01*
X146512855Y-105721273D01*
X146541715Y-105695014D01*
X146558329Y-105659710D01*
X146560167Y-105620735D01*
X146546951Y-105584023D01*
X146520692Y-105555163D01*
X146503858Y-105545118D01*
X146437990Y-105514121D01*
X150232966Y-105514121D01*
X150233479Y-105533718D01*
X150254908Y-105705146D01*
X150259234Y-105724266D01*
X150260276Y-105726099D01*
X150260625Y-105728180D01*
X150269336Y-105745741D01*
X150340764Y-105860027D01*
X150344800Y-105865262D01*
X150345823Y-105867372D01*
X150349460Y-105871308D01*
X150352733Y-105875553D01*
X150354640Y-105876913D01*
X150359128Y-105881769D01*
X150423414Y-105938912D01*
X150428844Y-105942859D01*
X150430436Y-105944608D01*
X150434989Y-105947324D01*
X150439271Y-105950437D01*
X150441501Y-105951210D01*
X150447270Y-105954653D01*
X150568700Y-106011796D01*
X150587170Y-106018365D01*
X150589560Y-106018477D01*
X150591770Y-106019393D01*
X150609931Y-106021181D01*
X150367445Y-106442895D01*
X150359386Y-106460765D01*
X150354362Y-106499458D01*
X150364527Y-106537129D01*
X150388334Y-106568043D01*
X150422159Y-106587492D01*
X150460852Y-106592516D01*
X150498523Y-106582351D01*
X150529437Y-106558544D01*
X150540827Y-106542589D01*
X150840560Y-106021314D01*
X150980143Y-106021314D01*
X151040622Y-106505146D01*
X151044948Y-106524266D01*
X151064236Y-106558183D01*
X151095035Y-106582138D01*
X151132657Y-106592484D01*
X151171374Y-106587644D01*
X151205291Y-106568356D01*
X151229246Y-106537557D01*
X151239591Y-106499935D01*
X151239078Y-106480339D01*
X151089078Y-105280339D01*
X151087929Y-105275260D01*
X151087929Y-105273233D01*
X151086918Y-105270792D01*
X151084752Y-105261218D01*
X151078125Y-105249564D01*
X151072997Y-105237185D01*
X151068563Y-105232751D01*
X151065464Y-105227301D01*
X151054884Y-105219072D01*
X151045407Y-105209595D01*
X151039614Y-105207195D01*
X151034665Y-105203346D01*
X151021743Y-105199792D01*
X151009359Y-105194663D01*
X150999588Y-105193700D01*
X150997043Y-105193001D01*
X150995032Y-105193252D01*
X150989850Y-105192742D01*
X150532707Y-105192742D01*
X150513198Y-105194663D01*
X150508657Y-105196543D01*
X150503766Y-105197021D01*
X150485648Y-105204507D01*
X150378505Y-105261650D01*
X150366370Y-105269741D01*
X150364599Y-105270617D01*
X150363477Y-105271670D01*
X150362195Y-105272525D01*
X150360938Y-105274052D01*
X150350306Y-105284034D01*
X150300306Y-105341178D01*
X150291974Y-105352831D01*
X150290580Y-105354324D01*
X150289858Y-105355790D01*
X150288905Y-105357125D01*
X150288248Y-105359066D01*
X150281931Y-105371916D01*
X150239074Y-105486202D01*
X150234023Y-105505143D01*
X150234178Y-105509712D01*
X150232966Y-105514121D01*
X146437990Y-105514121D01*
X146395493Y-105494122D01*
X146284254Y-105395243D01*
X146153969Y-105230672D01*
X146151842Y-105228468D01*
X146151178Y-105227301D01*
X146149318Y-105225854D01*
X146140353Y-105216568D01*
X146129858Y-105210719D01*
X146120379Y-105203346D01*
X146112977Y-105201310D01*
X146106271Y-105197573D01*
X146094339Y-105196185D01*
X146082757Y-105193001D01*
X146075137Y-105193953D01*
X146067514Y-105193067D01*
X146055963Y-105196349D01*
X146044040Y-105197840D01*
X146037365Y-105201635D01*
X146029982Y-105203734D01*
X146020562Y-105211191D01*
X146010123Y-105217128D01*
X146005410Y-105223186D01*
X145999390Y-105227953D01*
X145993541Y-105238447D01*
X145986168Y-105247927D01*
X145984132Y-105255328D01*
X145980395Y-105262035D01*
X145979007Y-105273966D01*
X145975823Y-105285549D01*
X145976160Y-105298453D01*
X145975889Y-105300792D01*
X145976255Y-105302082D01*
X145976336Y-105305145D01*
X146112286Y-106392742D01*
X145882707Y-106392742D01*
X145863198Y-106394663D01*
X145827150Y-106409595D01*
X145799560Y-106437185D01*
X145784628Y-106473233D01*
X145509229Y-106473233D01*
X145511180Y-106467463D01*
X145517476Y-106449316D01*
X145517452Y-106448918D01*
X145517580Y-106448542D01*
X145516308Y-106429467D01*
X145515185Y-106410365D01*
X145515011Y-106410006D01*
X145514985Y-106409611D01*
X145506524Y-106392502D01*
X145498163Y-106375256D01*
X145497803Y-106374867D01*
X145497689Y-106374635D01*
X145497167Y-106374178D01*
X145484858Y-106360859D01*
X145420571Y-106303716D01*
X145404714Y-106292191D01*
X145404339Y-106292061D01*
X145404039Y-106291798D01*
X145401261Y-106290858D01*
X145398950Y-106289061D01*
X145383243Y-106284742D01*
X145367851Y-106279402D01*
X145367453Y-106279425D01*
X145367077Y-106279298D01*
X145364153Y-106279492D01*
X145361328Y-106278716D01*
X145345161Y-106280736D01*
X145328900Y-106281693D01*
X145328542Y-106281866D01*
X145328145Y-106281893D01*
X145325519Y-106283191D01*
X145322611Y-106283555D01*
X145308446Y-106291610D01*
X145293791Y-106298716D01*
X145293527Y-106299012D01*
X145293170Y-106299189D01*
X145290174Y-106302001D01*
X145288694Y-106302843D01*
X145287115Y-106304872D01*
X145278877Y-106312606D01*
X145228877Y-106369750D01*
X145218330Y-106384501D01*
X145217868Y-106385022D01*
X145217782Y-106385268D01*
X145217476Y-106385697D01*
X145211348Y-106403814D01*
X145205080Y-106421885D01*
X145205103Y-106422281D01*
X145204976Y-106422658D01*
X144982018Y-106422658D01*
X144977714Y-106418001D01*
X144221996Y-105746253D01*
X144158597Y-105607925D01*
X144149275Y-105533356D01*
X144177092Y-105459180D01*
X144203055Y-105429507D01*
X144271992Y-105392742D01*
X144510352Y-105392742D01*
X144598490Y-105434218D01*
X144651985Y-105481769D01*
X144667842Y-105493294D01*
X144704705Y-105506083D01*
X144743656Y-105503792D01*
X144778765Y-105486769D01*
X144804688Y-105457607D01*
X144817476Y-105420744D01*
X144815185Y-105381793D01*
X144798163Y-105346684D01*
X144784858Y-105332287D01*
X144720571Y-105275144D01*
X144715140Y-105271196D01*
X144713549Y-105269448D01*
X144708995Y-105266731D01*
X144704714Y-105263619D01*
X144702483Y-105262845D01*
X144696715Y-105259403D01*
X144575286Y-105202260D01*
X144556816Y-105195691D01*
X144554424Y-105195578D01*
X144552215Y-105194663D01*
X144532706Y-105192742D01*
X144246992Y-105192742D01*
X144227483Y-105194663D01*
X144222942Y-105196543D01*
X144218051Y-105197021D01*
X144199933Y-105204507D01*
X144092790Y-105261650D01*
X144080655Y-105269741D01*
X144078884Y-105270617D01*
X144077762Y-105271670D01*
X144076480Y-105272525D01*
X144075223Y-105274052D01*
X144064591Y-105284034D01*
X144014591Y-105341178D01*
X144006259Y-105352831D01*
X144004865Y-105354324D01*
X144004143Y-105355790D01*
X144003190Y-105357125D01*
X144002533Y-105359066D01*
X143996216Y-105371916D01*
X143953359Y-105486202D01*
X143948308Y-105505143D01*
X143948463Y-105509712D01*
X143947251Y-105514121D01*
X143009418Y-105514121D01*
X142966921Y-105494122D01*
X142855682Y-105395243D01*
X142725397Y-105230672D01*
X142723270Y-105228468D01*
X142722606Y-105227301D01*
X142720746Y-105225854D01*
X142711781Y-105216568D01*
X142701286Y-105210719D01*
X142691807Y-105203346D01*
X142684405Y-105201310D01*
X142677699Y-105197573D01*
X142665767Y-105196185D01*
X142654185Y-105193001D01*
X142646565Y-105193953D01*
X142638942Y-105193067D01*
X142627391Y-105196349D01*
X142615468Y-105197840D01*
X142608793Y-105201635D01*
X142601410Y-105203734D01*
X142591990Y-105211191D01*
X142581551Y-105217128D01*
X142576838Y-105223186D01*
X142570818Y-105227953D01*
X142564969Y-105238447D01*
X142557596Y-105247927D01*
X142555560Y-105255328D01*
X142551823Y-105262035D01*
X142550435Y-105273966D01*
X142547251Y-105285549D01*
X142547588Y-105298453D01*
X142547317Y-105300792D01*
X142547683Y-105302082D01*
X142547764Y-105305145D01*
X142683714Y-106392742D01*
X142454135Y-106392742D01*
X142434626Y-106394663D01*
X142398578Y-106409595D01*
X142370988Y-106437185D01*
X142356056Y-106473233D01*
X142222723Y-106473233D01*
X142222723Y-105059409D01*
X151372924Y-105059409D01*
X151372924Y-106726075D01*
G37*
%LPC*%
D12*
X138240000Y-129600000D03*
D13*
X138240000Y-127060000D03*
X138240000Y-124520000D03*
D12*
X120760000Y-121800000D03*
D13*
X123300000Y-121800000D03*
X125840000Y-121800000D03*
D12*
X158920000Y-74500000D03*
D13*
X161460000Y-74500000D03*
X164000000Y-74500000D03*
X166540000Y-74500000D03*
D12*
X134700000Y-129600000D03*
D13*
X134700000Y-127060000D03*
X134700000Y-124520000D03*
D14*
X122100000Y-128500000D03*
X122100000Y-75500000D03*
D12*
X120760000Y-118260000D03*
D13*
X123300000Y-118260000D03*
X125840000Y-118260000D03*
D12*
X131160000Y-129590000D03*
D13*
X131160000Y-127050000D03*
X131160000Y-124510000D03*
D14*
X175200000Y-75500000D03*
X175200000Y-128500000D03*
D12*
X120760000Y-111180000D03*
D13*
X123300000Y-111180000D03*
X125840000Y-111180000D03*
D15*
X172120000Y-98590000D03*
X172120000Y-92810000D03*
D16*
X171620000Y-100020000D03*
X171620000Y-91380000D03*
D17*
X175800000Y-100020000D03*
D18*
X175800000Y-91380000D03*
D12*
X120760000Y-114720000D03*
D13*
X123300000Y-114720000D03*
X125840000Y-114720000D03*
D12*
X141780000Y-129590000D03*
D13*
X141780000Y-127050000D03*
X141780000Y-124510000D03*
%LPD*%
M02*
