M48
; DRILL file {KiCad 9.0.4} date 2025-09-13T12:43:26+0530
; FORMAT={-:-/ absolute / inch / decimal}
; #@! TF.CreationDate,2025-09-13T12:43:26+05:30
; #@! TF.GenerationSoftware,Kicad,Pcbnew,9.0.4
; #@! TF.FileFunction,MixedPlating,1,4
FMAT,2
INCH
; #@! TA.AperFunction,Plated,PTH,ViaDrill
T1C0.0146
; #@! TA.AperFunction,Plated,PTH,ComponentDrill
T2C0.0236
; #@! TA.AperFunction,Plated,PTH,ComponentDrill
T3C0.0394
; #@! TA.AperFunction,NonPlated,NPTH,ComponentDrill
T4C0.0256
; #@! TA.AperFunction,NonPlated,NPTH,ComponentDrill
T5C0.1260
%
G90
G05
T1
X4.7244Y-4.0354
X4.7598Y-3.4528
X4.8425Y-3.5246
X4.8583Y-3.7165
X4.8583Y-3.7953
X4.8583Y-3.874
X4.8583Y-3.9528
X4.9134Y-4.0
X4.9213Y-3.6772
X4.9508Y-3.128
X4.9843Y-2.8976
X4.9882Y-4.0197
X4.9921Y-5.1142
X5.0Y-3.6772
X5.0118Y-4.9213
X5.0236Y-2.9764
X5.0433Y-3.1142
X5.063Y-2.8976
X5.0669Y-4.0197
X5.0709Y-4.7244
X5.0748Y-4.5866
X5.0787Y-3.6772
X5.0827Y-4.4449
X5.1024Y-2.9764
X5.122Y-3.1535
X5.1299Y-3.6024
X5.1417Y-2.8976
X5.1417Y-3.2835
X5.1417Y-3.3465
X5.1457Y-4.0197
X5.1575Y-3.6772
X5.1772Y-3.4646
X5.1811Y-2.9764
X5.185Y-4.2441
X5.2008Y-3.1142
X5.2087Y-4.7205
X5.2126Y-4.6024
X5.2165Y-3.5433
X5.2165Y-3.9882
X5.2205Y-2.8976
X5.2205Y-3.7913
X5.2205Y-4.1693
X5.2244Y-3.9055
X5.2362Y-4.3346
X5.2402Y-3.626
X5.2441Y-3.6969
X5.248Y-3.2835
X5.252Y-4.8031
X5.2559Y-3.4646
X5.2598Y-2.9764
X5.2677Y-3.9213
X5.2677Y-3.9764
X5.2756Y-3.8543
X5.2795Y-3.1535
X5.2874Y-3.3622
X5.2874Y-4.0945
X5.2953Y-3.5433
X5.2992Y-4.3937
X5.3031Y-3.7441
X5.311Y-3.0551
X5.3228Y-4.6102
X5.3268Y-3.2835
X5.3346Y-2.8898
X5.3465Y-4.7047
X5.3543Y-3.8543
X5.3543Y-4.4567
X5.3661Y-3.3622
X5.3661Y-3.6339
X5.3677Y-2.9409
X5.3701Y-3.6811
X5.3819Y-3.752
X5.3858Y-4.7874
X5.4134Y-2.8898
X5.4134Y-2.937
X5.4213Y-3.3661
X5.4331Y-3.8543
X5.4449Y-3.7638
X5.4528Y-3.5
X5.4921Y-2.9724
X5.4921Y-3.1142
X5.4961Y-4.6693
X5.5236Y-4.7835
X5.5315Y-2.8937
X5.563Y-3.4016
X5.5709Y-2.9724
X5.5763Y-4.2468
X5.5866Y-3.8346
X5.5945Y-3.9094
X5.6024Y-3.0551
X5.6024Y-3.2126
X5.6063Y-3.0039
X5.6102Y-2.8937
X5.622Y-3.4016
X5.626Y-3.7756
X5.6299Y-4.6654
X5.6314Y-4.2468
X5.6339Y-4.0236
X5.6535Y-3.7205
X5.6575Y-3.8701
X5.6693Y-3.9843
X5.7008Y-3.811
X5.7047Y-2.8898
X5.7047Y-3.9449
X5.7087Y-3.2756
X5.7087Y-3.7205
X5.7323Y-3.878
X5.7402Y-3.752
X5.7402Y-4.7126
X5.7402Y-4.7638
X5.7402Y-4.811
X5.7545Y-2.9424
X5.7559Y-3.2756
X5.7638Y-3.9764
X5.7756Y-4.4803
X5.7795Y-3.7283
X5.7835Y-2.8898
X5.7874Y-4.0315
X5.7992Y-4.7126
X5.8136Y-2.9424
X5.8228Y-3.8346
X5.8268Y-3.878
X5.8307Y-3.7717
X5.8661Y-3.8425
X5.878Y-4.2362
X5.8819Y-2.8898
X5.8819Y-3.3002
X5.8819Y-3.3465
X5.8819Y-4.7126
X5.8976Y-3.1102
X5.9173Y-4.4882
X5.9213Y-2.9685
X5.937Y-4.7126
X5.937Y-4.7677
X5.937Y-4.8228
X5.9409Y-3.5118
X5.9409Y-4.2362
X5.9567Y-4.311
X5.9606Y-2.8898
X5.9606Y-4.3858
X5.9921Y-3.5157
X6.0Y-2.9685
X6.0Y-4.0591
X6.0039Y-3.2795
X6.0354Y-4.5236
X6.0394Y-2.8898
X6.0472Y-3.2835
X6.0551Y-3.1457
X6.0787Y-2.9685
X6.0866Y-4.9291
X6.0945Y-5.0197
X6.1181Y-2.8898
X6.122Y-4.4646
X6.1378Y-3.3976
X6.1378Y-3.4449
X6.1378Y-4.9016
X6.1378Y-4.9547
X6.1378Y-5.0039
X6.1378Y-5.0472
X6.1575Y-2.9685
X6.1654Y-4.2953
X6.1811Y-4.3661
X6.2047Y-4.4646
X6.2126Y-3.6772
X6.2126Y-3.7362
X6.2126Y-4.2205
X6.2165Y-3.0591
X6.2165Y-3.2165
X6.2362Y-4.4331
X6.2559Y-3.1378
X6.2756Y-4.4646
X6.2953Y-3.0591
X6.2953Y-3.2165
X6.3031Y-3.8622
X6.3268Y-4.3346
X6.3346Y-3.1378
X6.3346Y-3.4016
X6.3346Y-3.5591
X6.3346Y-3.7165
X6.3386Y-4.2323
X6.3425Y-3.874
X6.3425Y-3.9173
X6.3583Y-4.122
X6.374Y-3.0591
X6.374Y-3.2165
X6.374Y-3.4803
X6.374Y-3.6378
X6.385Y-4.9606
X6.3884Y-5.0427
X6.3886Y-4.9094
X6.3941Y-4.9937
X6.4134Y-3.1378
X6.4252Y-4.563
X6.4291Y-5.0433
X6.4409Y-4.3346
X6.4449Y-4.4488
X6.4606Y-5.0669
X6.4803Y-3.7717
X6.4843Y-3.3583
X6.4843Y-3.5157
X6.4921Y-4.6811
X6.4921Y-4.7283
X6.5Y-5.0669
X6.5079Y-4.2165
X6.5236Y-3.437
X6.5433Y-4.4331
X6.5453Y-4.6516
X6.5512Y-3.8386
X6.5512Y-3.878
X6.5512Y-3.9252
X6.5512Y-3.9685
X6.5512Y-5.1417
X6.5551Y-3.5709
X6.5551Y-3.6142
X6.5551Y-3.6622
X6.5551Y-3.7047
X6.5591Y-3.7717
X6.563Y-3.3583
X6.563Y-3.5157
X6.5866Y-4.2559
X6.5906Y-4.8583
X6.6024Y-3.437
X6.6063Y-3.0236
X6.6102Y-5.1417
X6.6417Y-3.3583
X6.6417Y-3.5157
X6.6457Y-3.1024
X6.6496Y-4.8583
X6.6575Y-3.2441
X6.6654Y-4.2165
X6.6732Y-4.4173
X6.6732Y-4.5748
X6.6772Y-3.2126
X6.6811Y-3.437
X6.6811Y-4.3228
X6.685Y-3.0236
X6.6956Y-4.0354
X6.7087Y-3.3031
X6.7126Y-4.4961
X6.7126Y-4.6535
X6.7244Y-3.1024
X6.7402Y-4.7835
X6.7402Y-4.8465
X6.7441Y-4.2559
X6.7468Y-3.3319
X6.748Y-4.3071
X6.7507Y-3.391
X6.752Y-4.4173
X6.752Y-4.5748
X6.7913Y-4.4961
X6.7913Y-4.6535
X6.937Y-3.6535
X6.937Y-3.811
X6.9764Y-3.7323
X6.9764Y-3.8898
T3
X4.7543Y-4.3772
X4.7543Y-4.5165
X4.7543Y-4.6559
X4.7543Y-4.7953
X4.8543Y-4.3772
X4.8543Y-4.5165
X4.8543Y-4.6559
X4.8543Y-4.7953
X4.9543Y-4.3772
X4.9543Y-4.5165
X4.9543Y-4.6559
X4.9543Y-4.7953
X5.1638Y-4.902
X5.1638Y-5.002
X5.1638Y-5.102
X5.3031Y-4.9024
X5.3031Y-5.0024
X5.3031Y-5.1024
X5.4425Y-4.9024
X5.4425Y-5.0024
X5.4425Y-5.1024
X5.5819Y-4.902
X5.5819Y-5.002
X5.5819Y-5.102
X6.2567Y-2.9331
X6.3567Y-2.9331
X6.4567Y-2.9331
X6.5567Y-2.9331
T4
X6.7764Y-3.6539
X6.7764Y-3.8815
T5
X4.8071Y-2.9724
X4.8071Y-5.0591
X6.8976Y-2.9724
X6.8976Y-5.0591
T2
X6.735Y-3.5976G85X6.7783Y-3.5976
G05
X6.735Y-3.9378G85X6.7783Y-3.9378
G05
X6.9055Y-3.5976G85X6.937Y-3.5976
G05
X6.9055Y-3.9378G85X6.937Y-3.9378
G05
M30
