G04 #@! TF.GenerationSoftware,KiCad,Pcbnew,9.0.4*
G04 #@! TF.CreationDate,2025-09-12T00:15:02+05:30*
G04 #@! TF.ProjectId,Udayate,55646179-6174-4652-9e6b-696361645f70,1*
G04 #@! TF.SameCoordinates,Original*
G04 #@! TF.FileFunction,Legend,Bot*
G04 #@! TF.FilePolarity,Positive*
%FSLAX46Y46*%
G04 Gerber Fmt 4.6, Leading zero omitted, Abs format (unit mm)*
G04 Created by KiCad (PCBNEW 9.0.4) date 2025-09-12 00:15:02*
%MOMM*%
%LPD*%
G01*
G04 APERTURE LIST*
%ADD10C,0.600000*%
%ADD11C,0.200000*%
%ADD12C,0.010000*%
%ADD13R,1.700000X1.700000*%
%ADD14C,1.700000*%
%ADD15C,3.200000*%
%ADD16C,0.650000*%
%ADD17O,2.304000X1.254000*%
%ADD18O,2.054000X1.154000*%
%ADD19O,2.104000X1.204000*%
G04 APERTURE END LIST*
D10*
G36*
X141933364Y-100928372D02*
G01*
X142030074Y-101083107D01*
X142041922Y-101177891D01*
X141198935Y-101013405D01*
X141239245Y-100905913D01*
X141340977Y-100851657D01*
X141770344Y-100851657D01*
X141933364Y-100928372D01*
G37*
G36*
X146469078Y-101785514D02*
G01*
X146565788Y-101940251D01*
X146584126Y-102086953D01*
X146542709Y-102197399D01*
X146440978Y-102251657D01*
X145868754Y-102251657D01*
X145775315Y-102207686D01*
X145712955Y-101708800D01*
X146306059Y-101708800D01*
X146469078Y-101785514D01*
G37*
G36*
X151469078Y-101785514D02*
G01*
X151565788Y-101940251D01*
X151584126Y-102086953D01*
X151542709Y-102197399D01*
X151440978Y-102251657D01*
X150868754Y-102251657D01*
X150775315Y-102207686D01*
X150712955Y-101708800D01*
X151306059Y-101708800D01*
X151469078Y-101785514D01*
G37*
G36*
X153974045Y-100947515D02*
G01*
X154070150Y-101032942D01*
X154190789Y-101225964D01*
X154280556Y-101944095D01*
X154218536Y-102109482D01*
X154165643Y-102169930D01*
X154012407Y-102251657D01*
X153583040Y-102251657D01*
X153489601Y-102207686D01*
X153321403Y-100862096D01*
X153340978Y-100851657D01*
X153770345Y-100851657D01*
X153974045Y-100947515D01*
G37*
G36*
X158220732Y-104184657D02*
G01*
X140257651Y-104184657D01*
X140257651Y-100978264D01*
X140590984Y-100978264D01*
X140591492Y-100986884D01*
X140591150Y-100990404D01*
X140592001Y-100995525D01*
X140593294Y-101017438D01*
X140629008Y-101303152D01*
X140632311Y-101320345D01*
X140632671Y-101325542D01*
X140634120Y-101329760D01*
X140636412Y-101341689D01*
X140648061Y-101370342D01*
X140658115Y-101399609D01*
X140662768Y-101406519D01*
X140665907Y-101414238D01*
X140684583Y-101438910D01*
X140701863Y-101464567D01*
X140708146Y-101470036D01*
X140713175Y-101476680D01*
X140737593Y-101495672D01*
X140760931Y-101515989D01*
X140768417Y-101519647D01*
X140774994Y-101524762D01*
X140803503Y-101536790D01*
X140831296Y-101550370D01*
X140843041Y-101553471D01*
X140847150Y-101555205D01*
X140852307Y-101555918D01*
X140869238Y-101560389D01*
X142120247Y-101804489D01*
X142155555Y-102086952D01*
X142114137Y-102197399D01*
X142012406Y-102251657D01*
X141583039Y-102251657D01*
X141340145Y-102137354D01*
X141303621Y-102123004D01*
X141226544Y-102109133D01*
X141148503Y-102115685D01*
X141074816Y-102142212D01*
X141010506Y-102186907D01*
X140959956Y-102246723D01*
X140926610Y-102317585D01*
X140912739Y-102394662D01*
X140919291Y-102472703D01*
X140945818Y-102546390D01*
X140990513Y-102610700D01*
X141050329Y-102661250D01*
X141084667Y-102680246D01*
X141388238Y-102823103D01*
X141397722Y-102826829D01*
X141401172Y-102828821D01*
X141406264Y-102830185D01*
X141424762Y-102837453D01*
X141451032Y-102842180D01*
X141476819Y-102849090D01*
X141496648Y-102850389D01*
X141501839Y-102851324D01*
X141505810Y-102850990D01*
X141515977Y-102851657D01*
X142087406Y-102851657D01*
X142111581Y-102850072D01*
X142116538Y-102850239D01*
X142119488Y-102849553D01*
X142126564Y-102849090D01*
X142159561Y-102840248D01*
X142192823Y-102832525D01*
X142199281Y-102829605D01*
X142202211Y-102828821D01*
X142206510Y-102826338D01*
X142228582Y-102816363D01*
X142496439Y-102673506D01*
X142509443Y-102665435D01*
X142513990Y-102663369D01*
X142517724Y-102660296D01*
X142529782Y-102652814D01*
X142551502Y-102632508D01*
X142574469Y-102613614D01*
X142580019Y-102605848D01*
X142586991Y-102599331D01*
X142602718Y-102574090D01*
X142620009Y-102549900D01*
X142625849Y-102536968D01*
X142628408Y-102532863D01*
X142629862Y-102528084D01*
X142636162Y-102514137D01*
X142743305Y-102228422D01*
X142749650Y-102207412D01*
X142751670Y-102202626D01*
X142752154Y-102199120D01*
X142754651Y-102190856D01*
X142757860Y-102157866D01*
X142762399Y-102125049D01*
X142761890Y-102116433D01*
X142762234Y-102112908D01*
X142761380Y-102107777D01*
X142760089Y-102085875D01*
X142617232Y-100943018D01*
X142615556Y-100934296D01*
X142615430Y-100930685D01*
X142613903Y-100925695D01*
X142609828Y-100904480D01*
X142600088Y-100880524D01*
X142592525Y-100855794D01*
X142582297Y-100836763D01*
X142580333Y-100831932D01*
X142578152Y-100829051D01*
X142573948Y-100821228D01*
X142395376Y-100535514D01*
X142378805Y-100512499D01*
X142825687Y-100512499D01*
X142825687Y-100590815D01*
X142845956Y-100666462D01*
X142885114Y-100734285D01*
X142940492Y-100789663D01*
X143008315Y-100828821D01*
X143083962Y-100849090D01*
X143123120Y-100851657D01*
X143572572Y-100851657D01*
X143726984Y-102086952D01*
X143685566Y-102197399D01*
X143583835Y-102251657D01*
X143373120Y-102251657D01*
X143333962Y-102254224D01*
X143258315Y-102274493D01*
X143190492Y-102313651D01*
X143135114Y-102369029D01*
X143095956Y-102436852D01*
X143075687Y-102512499D01*
X143075687Y-102590815D01*
X143095956Y-102666462D01*
X143135114Y-102734285D01*
X143190492Y-102789663D01*
X143258315Y-102828821D01*
X143333962Y-102849090D01*
X143373120Y-102851657D01*
X143658835Y-102851657D01*
X143683010Y-102850072D01*
X143687967Y-102850239D01*
X143690917Y-102849553D01*
X143697993Y-102849090D01*
X143730990Y-102840248D01*
X143764252Y-102832525D01*
X143770710Y-102829605D01*
X143773640Y-102828821D01*
X143777939Y-102826338D01*
X143800011Y-102816363D01*
X144067868Y-102673506D01*
X144080872Y-102665435D01*
X144085419Y-102663369D01*
X144089153Y-102660296D01*
X144101211Y-102652814D01*
X144122931Y-102632508D01*
X144145898Y-102613614D01*
X144151448Y-102605848D01*
X144158420Y-102599331D01*
X144174147Y-102574090D01*
X144191438Y-102549900D01*
X144197278Y-102536968D01*
X144199837Y-102532863D01*
X144201291Y-102528084D01*
X144207591Y-102514137D01*
X144314734Y-102228422D01*
X144321082Y-102207401D01*
X144323098Y-102202625D01*
X144323581Y-102199127D01*
X144326080Y-102190856D01*
X144329290Y-102157852D01*
X144333828Y-102125048D01*
X144333320Y-102116433D01*
X144333663Y-102112908D01*
X144332809Y-102107777D01*
X144331518Y-102085874D01*
X144193067Y-100978264D01*
X145019556Y-100978264D01*
X145020064Y-100986884D01*
X145019722Y-100990404D01*
X145020573Y-100995525D01*
X145021866Y-101017438D01*
X145218295Y-102588867D01*
X145225699Y-102627404D01*
X145255194Y-102699953D01*
X145302462Y-102762396D01*
X145364281Y-102810477D01*
X145436438Y-102840920D01*
X145514014Y-102851650D01*
X145591726Y-102841936D01*
X145657311Y-102815271D01*
X145673953Y-102823103D01*
X145683437Y-102826829D01*
X145686887Y-102828821D01*
X145691979Y-102830185D01*
X145710477Y-102837453D01*
X145736747Y-102842180D01*
X145762534Y-102849090D01*
X145782363Y-102850389D01*
X145787554Y-102851324D01*
X145791525Y-102850990D01*
X145801692Y-102851657D01*
X146515978Y-102851657D01*
X146540153Y-102850072D01*
X146545110Y-102850239D01*
X146548060Y-102849553D01*
X146555136Y-102849090D01*
X146588133Y-102840248D01*
X146621395Y-102832525D01*
X146627853Y-102829605D01*
X146630783Y-102828821D01*
X146635082Y-102826338D01*
X146657154Y-102816363D01*
X146925011Y-102673506D01*
X146938015Y-102665435D01*
X146942562Y-102663369D01*
X146946296Y-102660296D01*
X146958354Y-102652814D01*
X146980074Y-102632508D01*
X147003041Y-102613614D01*
X147008591Y-102605848D01*
X147015563Y-102599331D01*
X147031290Y-102574090D01*
X147048581Y-102549900D01*
X147054421Y-102536968D01*
X147056980Y-102532863D01*
X147058434Y-102528084D01*
X147064734Y-102514137D01*
X147171877Y-102228422D01*
X147178223Y-102207409D01*
X147180242Y-102202625D01*
X147180726Y-102199121D01*
X147183223Y-102190856D01*
X147186432Y-102157862D01*
X147190971Y-102125048D01*
X147190463Y-102116433D01*
X147190806Y-102112908D01*
X147189952Y-102107777D01*
X147188661Y-102085874D01*
X147152946Y-101800160D01*
X147151270Y-101791438D01*
X147151144Y-101787829D01*
X147149618Y-101782841D01*
X147145542Y-101761623D01*
X147135801Y-101737663D01*
X147128239Y-101712938D01*
X147118013Y-101693910D01*
X147116047Y-101689074D01*
X147113864Y-101686191D01*
X147109662Y-101678371D01*
X146931092Y-101392657D01*
X146908161Y-101360812D01*
X146902784Y-101355799D01*
X146898586Y-101349758D01*
X146874217Y-101329164D01*
X146850880Y-101307406D01*
X146844383Y-101303952D01*
X146838769Y-101299208D01*
X146804431Y-101280211D01*
X146500860Y-101137354D01*
X146491375Y-101133627D01*
X146487926Y-101131636D01*
X146482833Y-101130271D01*
X146464336Y-101123004D01*
X146438065Y-101118276D01*
X146412279Y-101111367D01*
X146392449Y-101110067D01*
X146387259Y-101109133D01*
X146383287Y-101109466D01*
X146373121Y-101108800D01*
X145725895Y-101108800D01*
X145632458Y-101064829D01*
X145626399Y-101016360D01*
X145667817Y-100905913D01*
X145769549Y-100851657D01*
X146198916Y-100851657D01*
X146441810Y-100965960D01*
X146478334Y-100980310D01*
X146555411Y-100994181D01*
X146633452Y-100987629D01*
X146707139Y-100961102D01*
X146771449Y-100916407D01*
X146821999Y-100856591D01*
X146855345Y-100785729D01*
X146869216Y-100708652D01*
X146862664Y-100630611D01*
X146840346Y-100568616D01*
X147395029Y-100568616D01*
X147409624Y-100645560D01*
X147424318Y-100681947D01*
X148388604Y-102681947D01*
X148391135Y-102686422D01*
X148393216Y-102691107D01*
X148768216Y-103405392D01*
X148788690Y-103438869D01*
X148798778Y-103449802D01*
X148806963Y-103462230D01*
X148834525Y-103490164D01*
X148995239Y-103633022D01*
X149026211Y-103657119D01*
X149029587Y-103658812D01*
X149032472Y-103661250D01*
X149066810Y-103680246D01*
X149370381Y-103823103D01*
X149406905Y-103837453D01*
X149483982Y-103851324D01*
X149562023Y-103844772D01*
X149635710Y-103818245D01*
X149700020Y-103773550D01*
X149750570Y-103713734D01*
X149783916Y-103642872D01*
X149797787Y-103565795D01*
X149791235Y-103487754D01*
X149764708Y-103414067D01*
X149720014Y-103349758D01*
X149660197Y-103299208D01*
X149625859Y-103280211D01*
X149361482Y-103155798D01*
X149274027Y-103078059D01*
X148976271Y-102510907D01*
X149332063Y-100978264D01*
X150019556Y-100978264D01*
X150020064Y-100986884D01*
X150019722Y-100990404D01*
X150020573Y-100995525D01*
X150021866Y-101017438D01*
X150218295Y-102588867D01*
X150225699Y-102627404D01*
X150255194Y-102699953D01*
X150302462Y-102762396D01*
X150364281Y-102810477D01*
X150436438Y-102840920D01*
X150514014Y-102851650D01*
X150591726Y-102841936D01*
X150657311Y-102815271D01*
X150673953Y-102823103D01*
X150683437Y-102826829D01*
X150686887Y-102828821D01*
X150691979Y-102830185D01*
X150710477Y-102837453D01*
X150736747Y-102842180D01*
X150762534Y-102849090D01*
X150782363Y-102850389D01*
X150787554Y-102851324D01*
X150791525Y-102850990D01*
X150801692Y-102851657D01*
X151515978Y-102851657D01*
X151540153Y-102850072D01*
X151545110Y-102850239D01*
X151548060Y-102849553D01*
X151555136Y-102849090D01*
X151588133Y-102840248D01*
X151621395Y-102832525D01*
X151627853Y-102829605D01*
X151630783Y-102828821D01*
X151635082Y-102826338D01*
X151657154Y-102816363D01*
X151925011Y-102673506D01*
X151938015Y-102665435D01*
X151942562Y-102663369D01*
X151946296Y-102660296D01*
X151958354Y-102652814D01*
X151980074Y-102632508D01*
X152003041Y-102613614D01*
X152008591Y-102605848D01*
X152015563Y-102599331D01*
X152031290Y-102574090D01*
X152048581Y-102549900D01*
X152054421Y-102536968D01*
X152056980Y-102532863D01*
X152058434Y-102528084D01*
X152064734Y-102514137D01*
X152171877Y-102228422D01*
X152178223Y-102207409D01*
X152180242Y-102202625D01*
X152180726Y-102199121D01*
X152183223Y-102190856D01*
X152186432Y-102157862D01*
X152190971Y-102125048D01*
X152190463Y-102116433D01*
X152190806Y-102112908D01*
X152189952Y-102107777D01*
X152188661Y-102085874D01*
X152152946Y-101800160D01*
X152151270Y-101791438D01*
X152151144Y-101787829D01*
X152149618Y-101782841D01*
X152145542Y-101761623D01*
X152135801Y-101737663D01*
X152128239Y-101712938D01*
X152118013Y-101693910D01*
X152116047Y-101689074D01*
X152113864Y-101686191D01*
X152109662Y-101678371D01*
X151931092Y-101392657D01*
X151908161Y-101360812D01*
X151902784Y-101355799D01*
X151898586Y-101349758D01*
X151874217Y-101329164D01*
X151850880Y-101307406D01*
X151844383Y-101303952D01*
X151838769Y-101299208D01*
X151804431Y-101280211D01*
X151500860Y-101137354D01*
X151491375Y-101133627D01*
X151487926Y-101131636D01*
X151482833Y-101130271D01*
X151464336Y-101123004D01*
X151438065Y-101118276D01*
X151412279Y-101111367D01*
X151392449Y-101110067D01*
X151387259Y-101109133D01*
X151383287Y-101109466D01*
X151373121Y-101108800D01*
X150725895Y-101108800D01*
X150632458Y-101064829D01*
X150626399Y-101016360D01*
X150667817Y-100905913D01*
X150769549Y-100851657D01*
X151198916Y-100851657D01*
X151441810Y-100965960D01*
X151478334Y-100980310D01*
X151555411Y-100994181D01*
X151633452Y-100987629D01*
X151707139Y-100961102D01*
X151771449Y-100916407D01*
X151821999Y-100856591D01*
X151855345Y-100785729D01*
X151869216Y-100708652D01*
X151862664Y-100630611D01*
X151836137Y-100556924D01*
X151791443Y-100492615D01*
X151731626Y-100442065D01*
X151697288Y-100423068D01*
X151393717Y-100280211D01*
X151384232Y-100276484D01*
X151380783Y-100274493D01*
X151375690Y-100273128D01*
X151357193Y-100265861D01*
X151330922Y-100261133D01*
X151305136Y-100254224D01*
X151285306Y-100252924D01*
X151280116Y-100251990D01*
X151276144Y-100252323D01*
X151265978Y-100251657D01*
X150694549Y-100251657D01*
X150670373Y-100253241D01*
X150665417Y-100253075D01*
X150662466Y-100253760D01*
X150655391Y-100254224D01*
X150622393Y-100263065D01*
X150589132Y-100270789D01*
X150582672Y-100273708D01*
X150579744Y-100274493D01*
X150575445Y-100276974D01*
X150553372Y-100286951D01*
X150285516Y-100429808D01*
X150272515Y-100437875D01*
X150267965Y-100439944D01*
X150264227Y-100443018D01*
X150252172Y-100450500D01*
X150230447Y-100470809D01*
X150207486Y-100489700D01*
X150201937Y-100497462D01*
X150194963Y-100503983D01*
X150179234Y-100529225D01*
X150161946Y-100553413D01*
X150156104Y-100566346D01*
X150153547Y-100570451D01*
X150152093Y-100575228D01*
X150145793Y-100589177D01*
X150038650Y-100874891D01*
X150032305Y-100895898D01*
X150030285Y-100900688D01*
X150029799Y-100904196D01*
X150027305Y-100912457D01*
X150024097Y-100945424D01*
X150019556Y-100978264D01*
X149332063Y-100978264D01*
X149415349Y-100619496D01*
X149421703Y-100580772D01*
X149419065Y-100502501D01*
X149396259Y-100427580D01*
X149354838Y-100361114D01*
X149297626Y-100307633D01*
X149228522Y-100270783D01*
X149152235Y-100253074D01*
X149073964Y-100255712D01*
X148999043Y-100278518D01*
X148932577Y-100319939D01*
X148879096Y-100377151D01*
X148842246Y-100446255D01*
X148830891Y-100483818D01*
X148559191Y-101654219D01*
X147964780Y-100421367D01*
X147945461Y-100387210D01*
X147894350Y-100327872D01*
X147829622Y-100283786D01*
X147755689Y-100257953D01*
X147677590Y-100252137D01*
X147600646Y-100266732D01*
X147530102Y-100300745D01*
X147470764Y-100351856D01*
X147426678Y-100416584D01*
X147400845Y-100490517D01*
X147395029Y-100568616D01*
X146840346Y-100568616D01*
X146836137Y-100556924D01*
X146791443Y-100492615D01*
X146731626Y-100442065D01*
X146697288Y-100423068D01*
X146393717Y-100280211D01*
X146384232Y-100276484D01*
X146380783Y-100274493D01*
X146375690Y-100273128D01*
X146357193Y-100265861D01*
X146330922Y-100261133D01*
X146305136Y-100254224D01*
X146285306Y-100252924D01*
X146280116Y-100251990D01*
X146276144Y-100252323D01*
X146265978Y-100251657D01*
X145694549Y-100251657D01*
X145670373Y-100253241D01*
X145665417Y-100253075D01*
X145662466Y-100253760D01*
X145655391Y-100254224D01*
X145622393Y-100263065D01*
X145589132Y-100270789D01*
X145582672Y-100273708D01*
X145579744Y-100274493D01*
X145575445Y-100276974D01*
X145553372Y-100286951D01*
X145285516Y-100429808D01*
X145272515Y-100437875D01*
X145267965Y-100439944D01*
X145264227Y-100443018D01*
X145252172Y-100450500D01*
X145230447Y-100470809D01*
X145207486Y-100489700D01*
X145201937Y-100497462D01*
X145194963Y-100503983D01*
X145179234Y-100529225D01*
X145161946Y-100553413D01*
X145156104Y-100566346D01*
X145153547Y-100570451D01*
X145152093Y-100575228D01*
X145145793Y-100589177D01*
X145038650Y-100874891D01*
X145032305Y-100895898D01*
X145030285Y-100900688D01*
X145029799Y-100904196D01*
X145027305Y-100912457D01*
X145024097Y-100945424D01*
X145019556Y-100978264D01*
X144193067Y-100978264D01*
X144177241Y-100851657D01*
X144265977Y-100851657D01*
X144305135Y-100849090D01*
X144380782Y-100828821D01*
X144448605Y-100789663D01*
X144503983Y-100734285D01*
X144543141Y-100666462D01*
X144563410Y-100590815D01*
X144563410Y-100512499D01*
X144543141Y-100436852D01*
X144503983Y-100369029D01*
X144448605Y-100313651D01*
X144380782Y-100274493D01*
X144305135Y-100254224D01*
X144265977Y-100251657D01*
X144102240Y-100251657D01*
X144014495Y-99549693D01*
X152555271Y-99549693D01*
X152557581Y-99588867D01*
X152932581Y-102588868D01*
X152939985Y-102627405D01*
X152969480Y-102699954D01*
X153016748Y-102762396D01*
X153078567Y-102810478D01*
X153150724Y-102840921D01*
X153228300Y-102851650D01*
X153306012Y-102841937D01*
X153371597Y-102815271D01*
X153388239Y-102823103D01*
X153397723Y-102826829D01*
X153401173Y-102828821D01*
X153406265Y-102830185D01*
X153424763Y-102837453D01*
X153451033Y-102842180D01*
X153476820Y-102849090D01*
X153496649Y-102850389D01*
X153501840Y-102851324D01*
X153505811Y-102850990D01*
X153515978Y-102851657D01*
X154087407Y-102851657D01*
X154111582Y-102850072D01*
X154116539Y-102850239D01*
X154119489Y-102849553D01*
X154126565Y-102849090D01*
X154159562Y-102840248D01*
X154192824Y-102832525D01*
X154199282Y-102829605D01*
X154202212Y-102828821D01*
X154206511Y-102826338D01*
X154228583Y-102816363D01*
X154496440Y-102673506D01*
X154529783Y-102652814D01*
X154540794Y-102642519D01*
X154553320Y-102634130D01*
X154581038Y-102606351D01*
X154706038Y-102463492D01*
X154729892Y-102432333D01*
X154736415Y-102419067D01*
X154745010Y-102407043D01*
X154761163Y-102371279D01*
X154868306Y-102085565D01*
X154874654Y-102064544D01*
X154876670Y-102059768D01*
X154877153Y-102056270D01*
X154879652Y-102047999D01*
X154882862Y-102014994D01*
X154887400Y-101982191D01*
X154886892Y-101973577D01*
X154887235Y-101970052D01*
X154886381Y-101964922D01*
X154885090Y-101943017D01*
X154777947Y-101085875D01*
X154776271Y-101077153D01*
X154776145Y-101073542D01*
X154774618Y-101068552D01*
X154770543Y-101047337D01*
X154760803Y-101023381D01*
X154753240Y-100998651D01*
X154743012Y-100979620D01*
X154741048Y-100974789D01*
X154738867Y-100971908D01*
X154734663Y-100964085D01*
X154556091Y-100678371D01*
X154533161Y-100646525D01*
X154530535Y-100644077D01*
X154528563Y-100641082D01*
X154501001Y-100613148D01*
X154340287Y-100470291D01*
X154309315Y-100446195D01*
X154305938Y-100444501D01*
X154303055Y-100442065D01*
X154268717Y-100423068D01*
X153965146Y-100280211D01*
X153955661Y-100276484D01*
X153952212Y-100274493D01*
X153947119Y-100273128D01*
X153928622Y-100265861D01*
X153902351Y-100261133D01*
X153876565Y-100254224D01*
X153856735Y-100252924D01*
X153851545Y-100251990D01*
X153847573Y-100252323D01*
X153837407Y-100251657D01*
X153265978Y-100251657D01*
X153245267Y-100253014D01*
X153157353Y-99549693D01*
X155269556Y-99549693D01*
X155271866Y-99588867D01*
X155575438Y-102017439D01*
X155577113Y-102026160D01*
X155577240Y-102029770D01*
X155578765Y-102034757D01*
X155582842Y-102055976D01*
X155592582Y-102079935D01*
X155600145Y-102104661D01*
X155610372Y-102123692D01*
X155612337Y-102128525D01*
X155614516Y-102131404D01*
X155618721Y-102139228D01*
X155797292Y-102424941D01*
X155820223Y-102456787D01*
X155822846Y-102459232D01*
X155824820Y-102462230D01*
X155852382Y-102490164D01*
X156013096Y-102633022D01*
X156044068Y-102657119D01*
X156047444Y-102658812D01*
X156050329Y-102661250D01*
X156084667Y-102680246D01*
X156388239Y-102823103D01*
X156397724Y-102826830D01*
X156401173Y-102828821D01*
X156406261Y-102830184D01*
X156424763Y-102837454D01*
X156451040Y-102842182D01*
X156476820Y-102849090D01*
X156496650Y-102850389D01*
X156501841Y-102851324D01*
X156505812Y-102850990D01*
X156515978Y-102851657D01*
X157087406Y-102851657D01*
X157111580Y-102850072D01*
X157116537Y-102850239D01*
X157119487Y-102849553D01*
X157126564Y-102849090D01*
X157159564Y-102840247D01*
X157192823Y-102832525D01*
X157199281Y-102829605D01*
X157202211Y-102828821D01*
X157206510Y-102826338D01*
X157228582Y-102816363D01*
X157496440Y-102673506D01*
X157529783Y-102652814D01*
X157540794Y-102642519D01*
X157553320Y-102634130D01*
X157581038Y-102606351D01*
X157706038Y-102463492D01*
X157729892Y-102432333D01*
X157736416Y-102419064D01*
X157745010Y-102407042D01*
X157761163Y-102371278D01*
X157868305Y-102085565D01*
X157874648Y-102064560D01*
X157876670Y-102059769D01*
X157877155Y-102056259D01*
X157879650Y-102047999D01*
X157882856Y-102015033D01*
X157887399Y-101982192D01*
X157886890Y-101973570D01*
X157887233Y-101970051D01*
X157886381Y-101964929D01*
X157885089Y-101943018D01*
X157581518Y-99514447D01*
X157574114Y-99475909D01*
X157544619Y-99403361D01*
X157497351Y-99340918D01*
X157435532Y-99292837D01*
X157363376Y-99262393D01*
X157285799Y-99251664D01*
X157208087Y-99261378D01*
X157135539Y-99290873D01*
X157073096Y-99338141D01*
X157025015Y-99399960D01*
X156994571Y-99472116D01*
X156983842Y-99549693D01*
X156986152Y-99588867D01*
X157280555Y-101944097D01*
X157218536Y-102109481D01*
X157165643Y-102169931D01*
X157012407Y-102251657D01*
X156583040Y-102251657D01*
X156379338Y-102155798D01*
X156283234Y-102070371D01*
X156162595Y-101877346D01*
X155867232Y-99514447D01*
X155859828Y-99475909D01*
X155830333Y-99403361D01*
X155783065Y-99340918D01*
X155721246Y-99292837D01*
X155649089Y-99262393D01*
X155571513Y-99251664D01*
X155493801Y-99261378D01*
X155421253Y-99290873D01*
X155358810Y-99338141D01*
X155310729Y-99399960D01*
X155280285Y-99472117D01*
X155269556Y-99549693D01*
X153157353Y-99549693D01*
X153152947Y-99514447D01*
X153145543Y-99475909D01*
X153116048Y-99403361D01*
X153068780Y-99340918D01*
X153006961Y-99292837D01*
X152934804Y-99262393D01*
X152857228Y-99251664D01*
X152779516Y-99261378D01*
X152706968Y-99290873D01*
X152644525Y-99338141D01*
X152596444Y-99399960D01*
X152566000Y-99472117D01*
X152555271Y-99549693D01*
X144014495Y-99549693D01*
X144010089Y-99514447D01*
X144002685Y-99475909D01*
X143973190Y-99403361D01*
X143925922Y-99340918D01*
X143864103Y-99292837D01*
X143791946Y-99262393D01*
X143714370Y-99251664D01*
X143636658Y-99261378D01*
X143564110Y-99290873D01*
X143501667Y-99338141D01*
X143453586Y-99399960D01*
X143423142Y-99472117D01*
X143412413Y-99549693D01*
X143414723Y-99588867D01*
X143497572Y-100251657D01*
X143123120Y-100251657D01*
X143083962Y-100254224D01*
X143008315Y-100274493D01*
X142940492Y-100313651D01*
X142885114Y-100369029D01*
X142845956Y-100436852D01*
X142825687Y-100512499D01*
X142378805Y-100512499D01*
X142372446Y-100503668D01*
X142367067Y-100498653D01*
X142362871Y-100492615D01*
X142338507Y-100472025D01*
X142315165Y-100450263D01*
X142308668Y-100446809D01*
X142303054Y-100442065D01*
X142268716Y-100423068D01*
X141965145Y-100280211D01*
X141955660Y-100276484D01*
X141952211Y-100274493D01*
X141947118Y-100273128D01*
X141928621Y-100265861D01*
X141902350Y-100261133D01*
X141876564Y-100254224D01*
X141856734Y-100252924D01*
X141851544Y-100251990D01*
X141847572Y-100252323D01*
X141837406Y-100251657D01*
X141265977Y-100251657D01*
X141241801Y-100253241D01*
X141236845Y-100253075D01*
X141233894Y-100253760D01*
X141226819Y-100254224D01*
X141193821Y-100263065D01*
X141160560Y-100270789D01*
X141154100Y-100273708D01*
X141151172Y-100274493D01*
X141146873Y-100276974D01*
X141124800Y-100286951D01*
X140856944Y-100429808D01*
X140843943Y-100437875D01*
X140839393Y-100439944D01*
X140835655Y-100443018D01*
X140823600Y-100450500D01*
X140801875Y-100470809D01*
X140778914Y-100489700D01*
X140773365Y-100497462D01*
X140766391Y-100503983D01*
X140750662Y-100529225D01*
X140733374Y-100553413D01*
X140727532Y-100566346D01*
X140724975Y-100570451D01*
X140723521Y-100575228D01*
X140717221Y-100589177D01*
X140610078Y-100874891D01*
X140603732Y-100895903D01*
X140601714Y-100900687D01*
X140601229Y-100904190D01*
X140598733Y-100912457D01*
X140595524Y-100945433D01*
X140590984Y-100978264D01*
X140257651Y-100978264D01*
X140257651Y-98918331D01*
X158220732Y-98918331D01*
X158220732Y-104184657D01*
G37*
D11*
G36*
X149777788Y-105827837D02*
G01*
X149821930Y-105898464D01*
X149830641Y-105968153D01*
X149451522Y-105894179D01*
X149449276Y-105876213D01*
X149470225Y-105820351D01*
X149521993Y-105792742D01*
X149703210Y-105792742D01*
X149777788Y-105827837D01*
G37*
G36*
X150955143Y-105821314D02*
G01*
X150633633Y-105821314D01*
X150545494Y-105779837D01*
X150502745Y-105741838D01*
X150450627Y-105658450D01*
X150434990Y-105533356D01*
X150462807Y-105459180D01*
X150488770Y-105429507D01*
X150557707Y-105392742D01*
X150901572Y-105392742D01*
X150955143Y-105821314D01*
G37*
G36*
X151372924Y-106726075D02*
G01*
X145651295Y-106726075D01*
X145651295Y-106473233D01*
X145784628Y-106473233D01*
X145784628Y-106512251D01*
X145799560Y-106548299D01*
X145827150Y-106575889D01*
X145863198Y-106590821D01*
X145882707Y-106592742D01*
X146568421Y-106592742D01*
X146587930Y-106590821D01*
X146623978Y-106575889D01*
X146651568Y-106548299D01*
X146666500Y-106512251D01*
X146666500Y-106473233D01*
X146651568Y-106437185D01*
X146637041Y-106422658D01*
X147833548Y-106422658D01*
X147834823Y-106441794D01*
X147835944Y-106460836D01*
X147836116Y-106461191D01*
X147836143Y-106461590D01*
X147844617Y-106478725D01*
X147852966Y-106495945D01*
X147853326Y-106496334D01*
X147853440Y-106496565D01*
X147853957Y-106497017D01*
X147866271Y-106510342D01*
X147930557Y-106567484D01*
X147946415Y-106579009D01*
X147946791Y-106579139D01*
X147947089Y-106579400D01*
X147949864Y-106580338D01*
X147952178Y-106582138D01*
X147967883Y-106586456D01*
X147983278Y-106591797D01*
X147983673Y-106591773D01*
X147984050Y-106591901D01*
X147986974Y-106591706D01*
X147989800Y-106592483D01*
X148005967Y-106590461D01*
X148022229Y-106589505D01*
X148022584Y-106589332D01*
X148022982Y-106589306D01*
X148025610Y-106588006D01*
X148028517Y-106587643D01*
X148042668Y-106579595D01*
X148057338Y-106572483D01*
X148057601Y-106572186D01*
X148057958Y-106572010D01*
X148060956Y-106569195D01*
X148062434Y-106568355D01*
X148064010Y-106566327D01*
X148072250Y-106558593D01*
X148122250Y-106501451D01*
X148132792Y-106486705D01*
X148133260Y-106486179D01*
X148133346Y-106485930D01*
X148133651Y-106485504D01*
X148139752Y-106467463D01*
X148146048Y-106449316D01*
X148146024Y-106448918D01*
X148146152Y-106448542D01*
X148144880Y-106429467D01*
X148143757Y-106410365D01*
X148143583Y-106410006D01*
X148143557Y-106409611D01*
X148135096Y-106392502D01*
X148126735Y-106375256D01*
X148126375Y-106374867D01*
X148126261Y-106374635D01*
X148125739Y-106374178D01*
X148113430Y-106360859D01*
X148049143Y-106303716D01*
X148033286Y-106292191D01*
X148032911Y-106292061D01*
X148032611Y-106291798D01*
X148029833Y-106290858D01*
X148027522Y-106289061D01*
X148011815Y-106284742D01*
X147996423Y-106279402D01*
X147996025Y-106279425D01*
X147995649Y-106279298D01*
X147992725Y-106279492D01*
X147989900Y-106278716D01*
X147973733Y-106280736D01*
X147957472Y-106281693D01*
X147957114Y-106281866D01*
X147956717Y-106281893D01*
X147954091Y-106283191D01*
X147951183Y-106283555D01*
X147937018Y-106291610D01*
X147922363Y-106298716D01*
X147922099Y-106299012D01*
X147921742Y-106299189D01*
X147918746Y-106302001D01*
X147917266Y-106302843D01*
X147915687Y-106304872D01*
X147907449Y-106312606D01*
X147857449Y-106369750D01*
X147846902Y-106384501D01*
X147846440Y-106385022D01*
X147846354Y-106385268D01*
X147846048Y-106385697D01*
X147839920Y-106403814D01*
X147833652Y-106421885D01*
X147833675Y-106422281D01*
X147833548Y-106422658D01*
X146637041Y-106422658D01*
X146623978Y-106409595D01*
X146587930Y-106394663D01*
X146568421Y-106392742D01*
X146313842Y-106392742D01*
X146239010Y-105794086D01*
X147754977Y-105794086D01*
X147756248Y-105813164D01*
X147757372Y-105832263D01*
X147757545Y-105832620D01*
X147757572Y-105833018D01*
X147766046Y-105850153D01*
X147774395Y-105867372D01*
X147774753Y-105867760D01*
X147774869Y-105867993D01*
X147775391Y-105868449D01*
X147787700Y-105881769D01*
X147851986Y-105938912D01*
X147867843Y-105950437D01*
X147868218Y-105950567D01*
X147868519Y-105950830D01*
X147871295Y-105951768D01*
X147873607Y-105953567D01*
X147889313Y-105957885D01*
X147904706Y-105963226D01*
X147905103Y-105963202D01*
X147905480Y-105963330D01*
X147908403Y-105963135D01*
X147911229Y-105963912D01*
X147927389Y-105961891D01*
X147943657Y-105960935D01*
X147944014Y-105960761D01*
X147944412Y-105960735D01*
X147947040Y-105959435D01*
X147949946Y-105959072D01*
X147964098Y-105951023D01*
X147978766Y-105943912D01*
X147979030Y-105943614D01*
X147979387Y-105943438D01*
X147982382Y-105940625D01*
X147983863Y-105939784D01*
X147985441Y-105937754D01*
X147993680Y-105930021D01*
X148043680Y-105872878D01*
X148054222Y-105858131D01*
X148054689Y-105857607D01*
X148054775Y-105857358D01*
X148055081Y-105856931D01*
X148061188Y-105838872D01*
X148067477Y-105820744D01*
X148067453Y-105820345D01*
X148067581Y-105819969D01*
X148066309Y-105800886D01*
X148065186Y-105781793D01*
X148065012Y-105781435D01*
X148064986Y-105781038D01*
X148056501Y-105763879D01*
X148048164Y-105746684D01*
X148047806Y-105746296D01*
X148047690Y-105746062D01*
X148047163Y-105745601D01*
X148034859Y-105732287D01*
X147974695Y-105678809D01*
X148255111Y-105678809D01*
X148257317Y-105717765D01*
X148264059Y-105736172D01*
X148649774Y-106536172D01*
X148659977Y-106552911D01*
X148664047Y-106556545D01*
X148666931Y-106561172D01*
X148678482Y-106569433D01*
X148689083Y-106578897D01*
X148694232Y-106580696D01*
X148698669Y-106583869D01*
X148712508Y-106587081D01*
X148725918Y-106591767D01*
X148731363Y-106591458D01*
X148736676Y-106592692D01*
X148750682Y-106590365D01*
X148764874Y-106589562D01*
X148769791Y-106587190D01*
X148775167Y-106586298D01*
X148787214Y-106578790D01*
X148800020Y-106572616D01*
X148803654Y-106568545D01*
X148808281Y-106565662D01*
X148816542Y-106554110D01*
X148826006Y-106543510D01*
X148827805Y-106538360D01*
X148830978Y-106533924D01*
X148837261Y-106515355D01*
X148990098Y-105856978D01*
X149247252Y-105856978D01*
X149247765Y-105876575D01*
X149262051Y-105990860D01*
X149266377Y-106009980D01*
X149268270Y-106013309D01*
X149269031Y-106017062D01*
X149277854Y-106030163D01*
X149285665Y-106043898D01*
X149288688Y-106046249D01*
X149290827Y-106049425D01*
X149303991Y-106058152D01*
X149316464Y-106067853D01*
X149320156Y-106068868D01*
X149323348Y-106070984D01*
X149342128Y-106076606D01*
X149856749Y-106177019D01*
X149873280Y-106309270D01*
X149852331Y-106365133D01*
X149800564Y-106392742D01*
X149619346Y-106392742D01*
X149518143Y-106345118D01*
X149499673Y-106338549D01*
X149460698Y-106336711D01*
X149423986Y-106349928D01*
X149395127Y-106376187D01*
X149378513Y-106411491D01*
X149376675Y-106450466D01*
X149389892Y-106487178D01*
X149416151Y-106516037D01*
X149432985Y-106526082D01*
X149554414Y-106583224D01*
X149572884Y-106589793D01*
X149575274Y-106589905D01*
X149577484Y-106590821D01*
X149596993Y-106592742D01*
X149825564Y-106592742D01*
X149845073Y-106590821D01*
X149849614Y-106588939D01*
X149854504Y-106588463D01*
X149872622Y-106580978D01*
X149979765Y-106523836D01*
X149988673Y-106517895D01*
X149991053Y-106516814D01*
X149992305Y-106515473D01*
X149996075Y-106512960D01*
X150006489Y-106500293D01*
X150017691Y-106488305D01*
X150019691Y-106484236D01*
X150020855Y-106482821D01*
X150021615Y-106480321D01*
X150026340Y-106470712D01*
X150069197Y-106356427D01*
X150074248Y-106337485D01*
X150074092Y-106332915D01*
X150075305Y-106328507D01*
X150074792Y-106308910D01*
X150017650Y-105851768D01*
X150013324Y-105832648D01*
X150012281Y-105830814D01*
X150011933Y-105828733D01*
X150003222Y-105811171D01*
X149931793Y-105696885D01*
X149919824Y-105681360D01*
X149912480Y-105676123D01*
X149906407Y-105669448D01*
X149889573Y-105659403D01*
X149768144Y-105602260D01*
X149749674Y-105595691D01*
X149747282Y-105595578D01*
X149745073Y-105594663D01*
X149725564Y-105592742D01*
X149496993Y-105592742D01*
X149477484Y-105594663D01*
X149472943Y-105596543D01*
X149468052Y-105597021D01*
X149449934Y-105604507D01*
X149342791Y-105661650D01*
X149333882Y-105667589D01*
X149331504Y-105668671D01*
X149330252Y-105670010D01*
X149326481Y-105672525D01*
X149316058Y-105685202D01*
X149304866Y-105697181D01*
X149302867Y-105701246D01*
X149301701Y-105702665D01*
X149300939Y-105705167D01*
X149296217Y-105714773D01*
X149253360Y-105829059D01*
X149248309Y-105848000D01*
X149248464Y-105852569D01*
X149247252Y-105856978D01*
X148990098Y-105856978D01*
X149022975Y-105715355D01*
X149025515Y-105695917D01*
X149019121Y-105657426D01*
X148998485Y-105624312D01*
X148966747Y-105601615D01*
X148928740Y-105592792D01*
X148890249Y-105599186D01*
X148857135Y-105619822D01*
X148834438Y-105651560D01*
X148828155Y-105670129D01*
X148706636Y-106193595D01*
X148444213Y-105649312D01*
X148434010Y-105632573D01*
X148404904Y-105606587D01*
X148368069Y-105593717D01*
X148329113Y-105595923D01*
X148293967Y-105612868D01*
X148267981Y-105641974D01*
X148255111Y-105678809D01*
X147974695Y-105678809D01*
X147970572Y-105675144D01*
X147954715Y-105663619D01*
X147954340Y-105663489D01*
X147954040Y-105663226D01*
X147951262Y-105662286D01*
X147948951Y-105660489D01*
X147933244Y-105656170D01*
X147917852Y-105650830D01*
X147917454Y-105650853D01*
X147917078Y-105650726D01*
X147914154Y-105650920D01*
X147911329Y-105650144D01*
X147895162Y-105652164D01*
X147878901Y-105653121D01*
X147878543Y-105653294D01*
X147878146Y-105653321D01*
X147875520Y-105654619D01*
X147872612Y-105654983D01*
X147858447Y-105663038D01*
X147843792Y-105670144D01*
X147843528Y-105670440D01*
X147843171Y-105670617D01*
X147840175Y-105673429D01*
X147838695Y-105674271D01*
X147837116Y-105676300D01*
X147828878Y-105684034D01*
X147778878Y-105741178D01*
X147768331Y-105755929D01*
X147767870Y-105756449D01*
X147767784Y-105756694D01*
X147767477Y-105757125D01*
X147761344Y-105775259D01*
X147755081Y-105793312D01*
X147755104Y-105793709D01*
X147754977Y-105794086D01*
X146239010Y-105794086D01*
X146214897Y-105601184D01*
X146273413Y-105653198D01*
X146278845Y-105657146D01*
X146280436Y-105658894D01*
X146284987Y-105661609D01*
X146289271Y-105664723D01*
X146291501Y-105665496D01*
X146297270Y-105668939D01*
X146418698Y-105726082D01*
X146437168Y-105732651D01*
X146476143Y-105734489D01*
X146512855Y-105721273D01*
X146541715Y-105695014D01*
X146558329Y-105659710D01*
X146560167Y-105620735D01*
X146546951Y-105584023D01*
X146520692Y-105555163D01*
X146503858Y-105545118D01*
X146437990Y-105514121D01*
X150232966Y-105514121D01*
X150233479Y-105533718D01*
X150254908Y-105705146D01*
X150259234Y-105724266D01*
X150260276Y-105726099D01*
X150260625Y-105728180D01*
X150269336Y-105745741D01*
X150340764Y-105860027D01*
X150344800Y-105865262D01*
X150345823Y-105867372D01*
X150349460Y-105871308D01*
X150352733Y-105875553D01*
X150354640Y-105876913D01*
X150359128Y-105881769D01*
X150423414Y-105938912D01*
X150428844Y-105942859D01*
X150430436Y-105944608D01*
X150434989Y-105947324D01*
X150439271Y-105950437D01*
X150441501Y-105951210D01*
X150447270Y-105954653D01*
X150568700Y-106011796D01*
X150587170Y-106018365D01*
X150589560Y-106018477D01*
X150591770Y-106019393D01*
X150609931Y-106021181D01*
X150367445Y-106442895D01*
X150359386Y-106460765D01*
X150354362Y-106499458D01*
X150364527Y-106537129D01*
X150388334Y-106568043D01*
X150422159Y-106587492D01*
X150460852Y-106592516D01*
X150498523Y-106582351D01*
X150529437Y-106558544D01*
X150540827Y-106542589D01*
X150840560Y-106021314D01*
X150980143Y-106021314D01*
X151040622Y-106505146D01*
X151044948Y-106524266D01*
X151064236Y-106558183D01*
X151095035Y-106582138D01*
X151132657Y-106592484D01*
X151171374Y-106587644D01*
X151205291Y-106568356D01*
X151229246Y-106537557D01*
X151239591Y-106499935D01*
X151239078Y-106480339D01*
X151089078Y-105280339D01*
X151087929Y-105275260D01*
X151087929Y-105273233D01*
X151086918Y-105270792D01*
X151084752Y-105261218D01*
X151078125Y-105249564D01*
X151072997Y-105237185D01*
X151068563Y-105232751D01*
X151065464Y-105227301D01*
X151054884Y-105219072D01*
X151045407Y-105209595D01*
X151039614Y-105207195D01*
X151034665Y-105203346D01*
X151021743Y-105199792D01*
X151009359Y-105194663D01*
X150999588Y-105193700D01*
X150997043Y-105193001D01*
X150995032Y-105193252D01*
X150989850Y-105192742D01*
X150532707Y-105192742D01*
X150513198Y-105194663D01*
X150508657Y-105196543D01*
X150503766Y-105197021D01*
X150485648Y-105204507D01*
X150378505Y-105261650D01*
X150366370Y-105269741D01*
X150364599Y-105270617D01*
X150363477Y-105271670D01*
X150362195Y-105272525D01*
X150360938Y-105274052D01*
X150350306Y-105284034D01*
X150300306Y-105341178D01*
X150291974Y-105352831D01*
X150290580Y-105354324D01*
X150289858Y-105355790D01*
X150288905Y-105357125D01*
X150288248Y-105359066D01*
X150281931Y-105371916D01*
X150239074Y-105486202D01*
X150234023Y-105505143D01*
X150234178Y-105509712D01*
X150232966Y-105514121D01*
X146437990Y-105514121D01*
X146395493Y-105494122D01*
X146284254Y-105395243D01*
X146153969Y-105230672D01*
X146151842Y-105228468D01*
X146151178Y-105227301D01*
X146149318Y-105225854D01*
X146140353Y-105216568D01*
X146129858Y-105210719D01*
X146120379Y-105203346D01*
X146112977Y-105201310D01*
X146106271Y-105197573D01*
X146094339Y-105196185D01*
X146082757Y-105193001D01*
X146075137Y-105193953D01*
X146067514Y-105193067D01*
X146055963Y-105196349D01*
X146044040Y-105197840D01*
X146037365Y-105201635D01*
X146029982Y-105203734D01*
X146020562Y-105211191D01*
X146010123Y-105217128D01*
X146005410Y-105223186D01*
X145999390Y-105227953D01*
X145993541Y-105238447D01*
X145986168Y-105247927D01*
X145984132Y-105255328D01*
X145980395Y-105262035D01*
X145979007Y-105273966D01*
X145975823Y-105285549D01*
X145976160Y-105298453D01*
X145975889Y-105300792D01*
X145976255Y-105302082D01*
X145976336Y-105305145D01*
X146112286Y-106392742D01*
X145882707Y-106392742D01*
X145863198Y-106394663D01*
X145827150Y-106409595D01*
X145799560Y-106437185D01*
X145784628Y-106473233D01*
X145651295Y-106473233D01*
X145651295Y-105059409D01*
X151372924Y-105059409D01*
X151372924Y-106726075D01*
G37*
D12*
X143586725Y-96224619D02*
X143707261Y-96269393D01*
X143757388Y-96303034D01*
X143808152Y-96351236D01*
X143844362Y-96412551D01*
X143868393Y-96496024D01*
X143882618Y-96610697D01*
X143889412Y-96765613D01*
X143891149Y-96969814D01*
X143890809Y-97075341D01*
X143889101Y-97219541D01*
X143886201Y-97334620D01*
X143882384Y-97410822D01*
X143877925Y-97438391D01*
X143848909Y-97429272D01*
X143790339Y-97404509D01*
X143788581Y-97403707D01*
X143758167Y-97387785D01*
X143737712Y-97365938D01*
X143725240Y-97327672D01*
X143718777Y-97262495D01*
X143716348Y-97159913D01*
X143715977Y-97009433D01*
X143715229Y-96913974D01*
X143707256Y-96734571D01*
X143688998Y-96603163D01*
X143658526Y-96512859D01*
X143613912Y-96456767D01*
X143553226Y-96427994D01*
X143544807Y-96425989D01*
X143431139Y-96424423D01*
X143342492Y-96475348D01*
X143281265Y-96577445D01*
X143270346Y-96606961D01*
X143245458Y-96672283D01*
X143232854Y-96702300D01*
X143206969Y-96698164D01*
X143150439Y-96675717D01*
X143097715Y-96638647D01*
X143073678Y-96568587D01*
X143080847Y-96518406D01*
X143124897Y-96416618D01*
X143196123Y-96321235D01*
X143279415Y-96255269D01*
X143314310Y-96240018D01*
X143446443Y-96214521D01*
X143586725Y-96224619D01*
G36*
X143586725Y-96224619D02*
G01*
X143707261Y-96269393D01*
X143757388Y-96303034D01*
X143808152Y-96351236D01*
X143844362Y-96412551D01*
X143868393Y-96496024D01*
X143882618Y-96610697D01*
X143889412Y-96765613D01*
X143891149Y-96969814D01*
X143890809Y-97075341D01*
X143889101Y-97219541D01*
X143886201Y-97334620D01*
X143882384Y-97410822D01*
X143877925Y-97438391D01*
X143848909Y-97429272D01*
X143790339Y-97404509D01*
X143788581Y-97403707D01*
X143758167Y-97387785D01*
X143737712Y-97365938D01*
X143725240Y-97327672D01*
X143718777Y-97262495D01*
X143716348Y-97159913D01*
X143715977Y-97009433D01*
X143715229Y-96913974D01*
X143707256Y-96734571D01*
X143688998Y-96603163D01*
X143658526Y-96512859D01*
X143613912Y-96456767D01*
X143553226Y-96427994D01*
X143544807Y-96425989D01*
X143431139Y-96424423D01*
X143342492Y-96475348D01*
X143281265Y-96577445D01*
X143270346Y-96606961D01*
X143245458Y-96672283D01*
X143232854Y-96702300D01*
X143206969Y-96698164D01*
X143150439Y-96675717D01*
X143097715Y-96638647D01*
X143073678Y-96568587D01*
X143080847Y-96518406D01*
X143124897Y-96416618D01*
X143196123Y-96321235D01*
X143279415Y-96255269D01*
X143314310Y-96240018D01*
X143446443Y-96214521D01*
X143586725Y-96224619D01*
G37*
X151528487Y-96157689D02*
X151664848Y-96221770D01*
X151776598Y-96332584D01*
X151799761Y-96367273D01*
X151818973Y-96406590D01*
X151832598Y-96456145D01*
X151841877Y-96525568D01*
X151848050Y-96624490D01*
X151852357Y-96762539D01*
X151856038Y-96949346D01*
X151865180Y-97467542D01*
X151788383Y-97438344D01*
X151718068Y-97411520D01*
X151665424Y-97385706D01*
X151631060Y-97352431D01*
X151611093Y-97301510D01*
X151601639Y-97222761D01*
X151598814Y-97105999D01*
X151598736Y-96941042D01*
X151598336Y-96809558D01*
X151595951Y-96683394D01*
X151590259Y-96597223D01*
X151579961Y-96540672D01*
X151563755Y-96503370D01*
X151540345Y-96474943D01*
X151482793Y-96434827D01*
X151386112Y-96419706D01*
X151290465Y-96457917D01*
X151284152Y-96462810D01*
X151264477Y-96485413D01*
X151249963Y-96521664D01*
X151239394Y-96580511D01*
X151231555Y-96670901D01*
X151225227Y-96801779D01*
X151219195Y-96982095D01*
X151204598Y-97464907D01*
X151080517Y-97409283D01*
X150956437Y-97353659D01*
X150956437Y-96912851D01*
X150956951Y-96793098D01*
X150961380Y-96626506D01*
X150972594Y-96502468D01*
X150993272Y-96410987D01*
X151026093Y-96342066D01*
X151073736Y-96285707D01*
X151138877Y-96231914D01*
X151232571Y-96177719D01*
X151380175Y-96142339D01*
X151528487Y-96157689D01*
G36*
X151528487Y-96157689D02*
G01*
X151664848Y-96221770D01*
X151776598Y-96332584D01*
X151799761Y-96367273D01*
X151818973Y-96406590D01*
X151832598Y-96456145D01*
X151841877Y-96525568D01*
X151848050Y-96624490D01*
X151852357Y-96762539D01*
X151856038Y-96949346D01*
X151865180Y-97467542D01*
X151788383Y-97438344D01*
X151718068Y-97411520D01*
X151665424Y-97385706D01*
X151631060Y-97352431D01*
X151611093Y-97301510D01*
X151601639Y-97222761D01*
X151598814Y-97105999D01*
X151598736Y-96941042D01*
X151598336Y-96809558D01*
X151595951Y-96683394D01*
X151590259Y-96597223D01*
X151579961Y-96540672D01*
X151563755Y-96503370D01*
X151540345Y-96474943D01*
X151482793Y-96434827D01*
X151386112Y-96419706D01*
X151290465Y-96457917D01*
X151284152Y-96462810D01*
X151264477Y-96485413D01*
X151249963Y-96521664D01*
X151239394Y-96580511D01*
X151231555Y-96670901D01*
X151225227Y-96801779D01*
X151219195Y-96982095D01*
X151204598Y-97464907D01*
X151080517Y-97409283D01*
X150956437Y-97353659D01*
X150956437Y-96912851D01*
X150956951Y-96793098D01*
X150961380Y-96626506D01*
X150972594Y-96502468D01*
X150993272Y-96410987D01*
X151026093Y-96342066D01*
X151073736Y-96285707D01*
X151138877Y-96231914D01*
X151232571Y-96177719D01*
X151380175Y-96142339D01*
X151528487Y-96157689D01*
G37*
X147860872Y-96255536D02*
X147870090Y-96260638D01*
X147945381Y-96319080D01*
X148012698Y-96394215D01*
X148024439Y-96411196D01*
X148046883Y-96450825D01*
X148062918Y-96497858D01*
X148073945Y-96562492D01*
X148081365Y-96654923D01*
X148086579Y-96785349D01*
X148090989Y-96963965D01*
X148091614Y-96994162D01*
X148093620Y-97189941D01*
X148090792Y-97328603D01*
X148083088Y-97411103D01*
X148070466Y-97438391D01*
X148032267Y-97430220D01*
X147967374Y-97405463D01*
X147952094Y-97398223D01*
X147928227Y-97381835D01*
X147911769Y-97354893D01*
X147901005Y-97307833D01*
X147894219Y-97231088D01*
X147889693Y-97115095D01*
X147885713Y-96950287D01*
X147884622Y-96902112D01*
X147880407Y-96749960D01*
X147874936Y-96643476D01*
X147866554Y-96572565D01*
X147853606Y-96527129D01*
X147834439Y-96497072D01*
X147807398Y-96472296D01*
X147727337Y-96428861D01*
X147628846Y-96420498D01*
X147540719Y-96453734D01*
X147477314Y-96522548D01*
X147452988Y-96620920D01*
X147452311Y-96647658D01*
X147439024Y-96696065D01*
X147399796Y-96703450D01*
X147322983Y-96674624D01*
X147305192Y-96665378D01*
X147257109Y-96611006D01*
X147256157Y-96530161D01*
X147301968Y-96418352D01*
X147343990Y-96357419D01*
X147451435Y-96270859D01*
X147584057Y-96221920D01*
X147725867Y-96215260D01*
X147860872Y-96255536D01*
G36*
X147860872Y-96255536D02*
G01*
X147870090Y-96260638D01*
X147945381Y-96319080D01*
X148012698Y-96394215D01*
X148024439Y-96411196D01*
X148046883Y-96450825D01*
X148062918Y-96497858D01*
X148073945Y-96562492D01*
X148081365Y-96654923D01*
X148086579Y-96785349D01*
X148090989Y-96963965D01*
X148091614Y-96994162D01*
X148093620Y-97189941D01*
X148090792Y-97328603D01*
X148083088Y-97411103D01*
X148070466Y-97438391D01*
X148032267Y-97430220D01*
X147967374Y-97405463D01*
X147952094Y-97398223D01*
X147928227Y-97381835D01*
X147911769Y-97354893D01*
X147901005Y-97307833D01*
X147894219Y-97231088D01*
X147889693Y-97115095D01*
X147885713Y-96950287D01*
X147884622Y-96902112D01*
X147880407Y-96749960D01*
X147874936Y-96643476D01*
X147866554Y-96572565D01*
X147853606Y-96527129D01*
X147834439Y-96497072D01*
X147807398Y-96472296D01*
X147727337Y-96428861D01*
X147628846Y-96420498D01*
X147540719Y-96453734D01*
X147477314Y-96522548D01*
X147452988Y-96620920D01*
X147452311Y-96647658D01*
X147439024Y-96696065D01*
X147399796Y-96703450D01*
X147322983Y-96674624D01*
X147305192Y-96665378D01*
X147257109Y-96611006D01*
X147256157Y-96530161D01*
X147301968Y-96418352D01*
X147343990Y-96357419D01*
X147451435Y-96270859D01*
X147584057Y-96221920D01*
X147725867Y-96215260D01*
X147860872Y-96255536D01*
G37*
X145942410Y-96220970D02*
X146006442Y-96246066D01*
X146080805Y-96279947D01*
X146080805Y-97258727D01*
X145988415Y-97351117D01*
X145967310Y-97371835D01*
X145908847Y-97417885D01*
X145849886Y-97432801D01*
X145762150Y-97425934D01*
X145726429Y-97421494D01*
X145634301Y-97412102D01*
X145569885Y-97408361D01*
X145550778Y-97408933D01*
X145472390Y-97415126D01*
X145377620Y-97425934D01*
X145347298Y-97429647D01*
X145270911Y-97431107D01*
X145215022Y-97408047D01*
X145151355Y-97351117D01*
X145058965Y-97258727D01*
X145058965Y-96735455D01*
X145059685Y-96580821D01*
X145061929Y-96433391D01*
X145065421Y-96316653D01*
X145069876Y-96239840D01*
X145075013Y-96212184D01*
X145076090Y-96212258D01*
X145113407Y-96226019D01*
X145176457Y-96256344D01*
X145261854Y-96300505D01*
X145269893Y-96759965D01*
X145277931Y-97219425D01*
X145453103Y-97219425D01*
X145461092Y-96715805D01*
X145463624Y-96578904D01*
X145467249Y-96432579D01*
X145471177Y-96316411D01*
X145475080Y-96239809D01*
X145478632Y-96212184D01*
X145479653Y-96212281D01*
X145515051Y-96222443D01*
X145580126Y-96244235D01*
X145672069Y-96276287D01*
X145672516Y-96718661D01*
X145672964Y-96795507D01*
X145676069Y-96944834D01*
X145681622Y-97069544D01*
X145689033Y-97158379D01*
X145697714Y-97200083D01*
X145728771Y-97222389D01*
X145792152Y-97229278D01*
X145861839Y-97219425D01*
X145869827Y-96715805D01*
X145872686Y-96587828D01*
X145878614Y-96436348D01*
X145886365Y-96317530D01*
X145895343Y-96239950D01*
X145904948Y-96212184D01*
X145942410Y-96220970D01*
G36*
X145942410Y-96220970D02*
G01*
X146006442Y-96246066D01*
X146080805Y-96279947D01*
X146080805Y-97258727D01*
X145988415Y-97351117D01*
X145967310Y-97371835D01*
X145908847Y-97417885D01*
X145849886Y-97432801D01*
X145762150Y-97425934D01*
X145726429Y-97421494D01*
X145634301Y-97412102D01*
X145569885Y-97408361D01*
X145550778Y-97408933D01*
X145472390Y-97415126D01*
X145377620Y-97425934D01*
X145347298Y-97429647D01*
X145270911Y-97431107D01*
X145215022Y-97408047D01*
X145151355Y-97351117D01*
X145058965Y-97258727D01*
X145058965Y-96735455D01*
X145059685Y-96580821D01*
X145061929Y-96433391D01*
X145065421Y-96316653D01*
X145069876Y-96239840D01*
X145075013Y-96212184D01*
X145076090Y-96212258D01*
X145113407Y-96226019D01*
X145176457Y-96256344D01*
X145261854Y-96300505D01*
X145269893Y-96759965D01*
X145277931Y-97219425D01*
X145453103Y-97219425D01*
X145461092Y-96715805D01*
X145463624Y-96578904D01*
X145467249Y-96432579D01*
X145471177Y-96316411D01*
X145475080Y-96239809D01*
X145478632Y-96212184D01*
X145479653Y-96212281D01*
X145515051Y-96222443D01*
X145580126Y-96244235D01*
X145672069Y-96276287D01*
X145672516Y-96718661D01*
X145672964Y-96795507D01*
X145676069Y-96944834D01*
X145681622Y-97069544D01*
X145689033Y-97158379D01*
X145697714Y-97200083D01*
X145728771Y-97222389D01*
X145792152Y-97229278D01*
X145861839Y-97219425D01*
X145869827Y-96715805D01*
X145872686Y-96587828D01*
X145878614Y-96436348D01*
X145886365Y-96317530D01*
X145895343Y-96239950D01*
X145904948Y-96212184D01*
X145942410Y-96220970D01*
G37*
X150014885Y-95818997D02*
X150109770Y-95859020D01*
X150109770Y-96648706D01*
X150109769Y-96657920D01*
X150109377Y-96865083D01*
X150108329Y-97051432D01*
X150106722Y-97209453D01*
X150104655Y-97331630D01*
X150102225Y-97410448D01*
X150099529Y-97438391D01*
X150098475Y-97438297D01*
X150062647Y-97428144D01*
X149997345Y-97406339D01*
X149905402Y-97374288D01*
X149905402Y-96962991D01*
X149904818Y-96801385D01*
X149902104Y-96684177D01*
X149895858Y-96604415D01*
X149884680Y-96551531D01*
X149867168Y-96514957D01*
X149841922Y-96484123D01*
X149824710Y-96467725D01*
X149731636Y-96422307D01*
X149629051Y-96426328D01*
X149535043Y-96480032D01*
X149521358Y-96493359D01*
X149499439Y-96521032D01*
X149484440Y-96557614D01*
X149475053Y-96613000D01*
X149469968Y-96697088D01*
X149467877Y-96819773D01*
X149467471Y-96990951D01*
X149467276Y-97077769D01*
X149466010Y-97220565D01*
X149463761Y-97334923D01*
X149460758Y-97410860D01*
X149457230Y-97438391D01*
X149456176Y-97438297D01*
X149420348Y-97428144D01*
X149355046Y-97406339D01*
X149263103Y-97374288D01*
X149263149Y-96961109D01*
X149263218Y-96924326D01*
X149267081Y-96732580D01*
X149278950Y-96587586D01*
X149301725Y-96479510D01*
X149338307Y-96398519D01*
X149391595Y-96334778D01*
X149464490Y-96278455D01*
X149535586Y-96243199D01*
X149649255Y-96215946D01*
X149761060Y-96214398D01*
X149847011Y-96240910D01*
X149853473Y-96244571D01*
X149873401Y-96244179D01*
X149887019Y-96213506D01*
X149896846Y-96143188D01*
X149905402Y-96023857D01*
X149920000Y-95778973D01*
X150014885Y-95818997D01*
G36*
X150014885Y-95818997D02*
G01*
X150109770Y-95859020D01*
X150109770Y-96648706D01*
X150109769Y-96657920D01*
X150109377Y-96865083D01*
X150108329Y-97051432D01*
X150106722Y-97209453D01*
X150104655Y-97331630D01*
X150102225Y-97410448D01*
X150099529Y-97438391D01*
X150098475Y-97438297D01*
X150062647Y-97428144D01*
X149997345Y-97406339D01*
X149905402Y-97374288D01*
X149905402Y-96962991D01*
X149904818Y-96801385D01*
X149902104Y-96684177D01*
X149895858Y-96604415D01*
X149884680Y-96551531D01*
X149867168Y-96514957D01*
X149841922Y-96484123D01*
X149824710Y-96467725D01*
X149731636Y-96422307D01*
X149629051Y-96426328D01*
X149535043Y-96480032D01*
X149521358Y-96493359D01*
X149499439Y-96521032D01*
X149484440Y-96557614D01*
X149475053Y-96613000D01*
X149469968Y-96697088D01*
X149467877Y-96819773D01*
X149467471Y-96990951D01*
X149467276Y-97077769D01*
X149466010Y-97220565D01*
X149463761Y-97334923D01*
X149460758Y-97410860D01*
X149457230Y-97438391D01*
X149456176Y-97438297D01*
X149420348Y-97428144D01*
X149355046Y-97406339D01*
X149263103Y-97374288D01*
X149263149Y-96961109D01*
X149263218Y-96924326D01*
X149267081Y-96732580D01*
X149278950Y-96587586D01*
X149301725Y-96479510D01*
X149338307Y-96398519D01*
X149391595Y-96334778D01*
X149464490Y-96278455D01*
X149535586Y-96243199D01*
X149649255Y-96215946D01*
X149761060Y-96214398D01*
X149847011Y-96240910D01*
X149853473Y-96244571D01*
X149873401Y-96244179D01*
X149887019Y-96213506D01*
X149896846Y-96143188D01*
X149905402Y-96023857D01*
X149920000Y-95778973D01*
X150014885Y-95818997D01*
G37*
X155218965Y-96796092D02*
X155218938Y-96827744D01*
X155217355Y-96968918D01*
X155211916Y-97067285D01*
X155200643Y-97135990D01*
X155181561Y-97188181D01*
X155152694Y-97237004D01*
X155145592Y-97247135D01*
X155070444Y-97327012D01*
X154984820Y-97387253D01*
X154940852Y-97406802D01*
X154782861Y-97439408D01*
X154626613Y-97418317D01*
X154482618Y-97346249D01*
X154361385Y-97225922D01*
X154351150Y-97209803D01*
X154317847Y-97116205D01*
X154295405Y-96985879D01*
X154284516Y-96835371D01*
X154285740Y-96696147D01*
X154580384Y-96696147D01*
X154582706Y-96889020D01*
X154583639Y-96901433D01*
X154597242Y-97007857D01*
X154621465Y-97075346D01*
X154662365Y-97121584D01*
X154730941Y-97164895D01*
X154798764Y-97167172D01*
X154868621Y-97117241D01*
X154880771Y-97104102D01*
X154904575Y-97064785D01*
X154918628Y-97007674D01*
X154925313Y-96919256D01*
X154927011Y-96786019D01*
X154924101Y-96661222D01*
X154909582Y-96542326D01*
X154879610Y-96467184D01*
X154830589Y-96427893D01*
X154758924Y-96416552D01*
X154731632Y-96418807D01*
X154655176Y-96460160D01*
X154604650Y-96552900D01*
X154580384Y-96696147D01*
X154285740Y-96696147D01*
X154285871Y-96681227D01*
X154300161Y-96539992D01*
X154328075Y-96428213D01*
X154363949Y-96353766D01*
X154464939Y-96237968D01*
X154601779Y-96166015D01*
X154769283Y-96141281D01*
X154814019Y-96142619D01*
X154945758Y-96170008D01*
X155053968Y-96239007D01*
X155153276Y-96357864D01*
X155159184Y-96366681D01*
X155185921Y-96414108D01*
X155203312Y-96467714D01*
X155213312Y-96540549D01*
X155217878Y-96645659D01*
X155218893Y-96786019D01*
X155218965Y-96796092D01*
G36*
X155218965Y-96796092D02*
G01*
X155218938Y-96827744D01*
X155217355Y-96968918D01*
X155211916Y-97067285D01*
X155200643Y-97135990D01*
X155181561Y-97188181D01*
X155152694Y-97237004D01*
X155145592Y-97247135D01*
X155070444Y-97327012D01*
X154984820Y-97387253D01*
X154940852Y-97406802D01*
X154782861Y-97439408D01*
X154626613Y-97418317D01*
X154482618Y-97346249D01*
X154361385Y-97225922D01*
X154351150Y-97209803D01*
X154317847Y-97116205D01*
X154295405Y-96985879D01*
X154284516Y-96835371D01*
X154285740Y-96696147D01*
X154580384Y-96696147D01*
X154582706Y-96889020D01*
X154583639Y-96901433D01*
X154597242Y-97007857D01*
X154621465Y-97075346D01*
X154662365Y-97121584D01*
X154730941Y-97164895D01*
X154798764Y-97167172D01*
X154868621Y-97117241D01*
X154880771Y-97104102D01*
X154904575Y-97064785D01*
X154918628Y-97007674D01*
X154925313Y-96919256D01*
X154927011Y-96786019D01*
X154924101Y-96661222D01*
X154909582Y-96542326D01*
X154879610Y-96467184D01*
X154830589Y-96427893D01*
X154758924Y-96416552D01*
X154731632Y-96418807D01*
X154655176Y-96460160D01*
X154604650Y-96552900D01*
X154580384Y-96696147D01*
X154285740Y-96696147D01*
X154285871Y-96681227D01*
X154300161Y-96539992D01*
X154328075Y-96428213D01*
X154363949Y-96353766D01*
X154464939Y-96237968D01*
X154601779Y-96166015D01*
X154769283Y-96141281D01*
X154814019Y-96142619D01*
X154945758Y-96170008D01*
X155053968Y-96239007D01*
X155153276Y-96357864D01*
X155159184Y-96366681D01*
X155185921Y-96414108D01*
X155203312Y-96467714D01*
X155213312Y-96540549D01*
X155217878Y-96645659D01*
X155218893Y-96786019D01*
X155218965Y-96796092D01*
G37*
X142898313Y-96831136D02*
X142897744Y-96908946D01*
X142890612Y-97062254D01*
X142871948Y-97174441D01*
X142837537Y-97257554D01*
X142783162Y-97323641D01*
X142704610Y-97384747D01*
X142654630Y-97412535D01*
X142574513Y-97431251D01*
X142461970Y-97429774D01*
X142399050Y-97423845D01*
X142323153Y-97405742D01*
X142262487Y-97366391D01*
X142191912Y-97293066D01*
X142182482Y-97282356D01*
X142119034Y-97199938D01*
X142088762Y-97128156D01*
X142081034Y-97043034D01*
X142081034Y-96917946D01*
X142168447Y-96950940D01*
X142232175Y-96989509D01*
X142287567Y-97080008D01*
X142299131Y-97108983D01*
X142363788Y-97191041D01*
X142451804Y-97232347D01*
X142547637Y-97228633D01*
X142635747Y-97175632D01*
X142666028Y-97142582D01*
X142693489Y-97092720D01*
X142684899Y-97047416D01*
X142635463Y-97000790D01*
X142540389Y-96946958D01*
X142394885Y-96880039D01*
X142095632Y-96749056D01*
X142087691Y-96619298D01*
X142090676Y-96536649D01*
X142285652Y-96536649D01*
X142300453Y-96587815D01*
X142367797Y-96642442D01*
X142490027Y-96704597D01*
X142510253Y-96713601D01*
X142606970Y-96755493D01*
X142679334Y-96784958D01*
X142712961Y-96796092D01*
X142718056Y-96787896D01*
X142720101Y-96737853D01*
X142712812Y-96657414D01*
X142694452Y-96578753D01*
X142637188Y-96479651D01*
X142554524Y-96423808D01*
X142455784Y-96416250D01*
X142350289Y-96462000D01*
X142321053Y-96484876D01*
X142285652Y-96536649D01*
X142090676Y-96536649D01*
X142091196Y-96522255D01*
X142135336Y-96399617D01*
X142191050Y-96332034D01*
X142306561Y-96256540D01*
X142443588Y-96218403D01*
X142585237Y-96221422D01*
X142714617Y-96269393D01*
X142743099Y-96287813D01*
X142808428Y-96344811D01*
X142853106Y-96416916D01*
X142880641Y-96514853D01*
X142894541Y-96649351D01*
X142896378Y-96737853D01*
X142898313Y-96831136D01*
G36*
X142898313Y-96831136D02*
G01*
X142897744Y-96908946D01*
X142890612Y-97062254D01*
X142871948Y-97174441D01*
X142837537Y-97257554D01*
X142783162Y-97323641D01*
X142704610Y-97384747D01*
X142654630Y-97412535D01*
X142574513Y-97431251D01*
X142461970Y-97429774D01*
X142399050Y-97423845D01*
X142323153Y-97405742D01*
X142262487Y-97366391D01*
X142191912Y-97293066D01*
X142182482Y-97282356D01*
X142119034Y-97199938D01*
X142088762Y-97128156D01*
X142081034Y-97043034D01*
X142081034Y-96917946D01*
X142168447Y-96950940D01*
X142232175Y-96989509D01*
X142287567Y-97080008D01*
X142299131Y-97108983D01*
X142363788Y-97191041D01*
X142451804Y-97232347D01*
X142547637Y-97228633D01*
X142635747Y-97175632D01*
X142666028Y-97142582D01*
X142693489Y-97092720D01*
X142684899Y-97047416D01*
X142635463Y-97000790D01*
X142540389Y-96946958D01*
X142394885Y-96880039D01*
X142095632Y-96749056D01*
X142087691Y-96619298D01*
X142090676Y-96536649D01*
X142285652Y-96536649D01*
X142300453Y-96587815D01*
X142367797Y-96642442D01*
X142490027Y-96704597D01*
X142510253Y-96713601D01*
X142606970Y-96755493D01*
X142679334Y-96784958D01*
X142712961Y-96796092D01*
X142718056Y-96787896D01*
X142720101Y-96737853D01*
X142712812Y-96657414D01*
X142694452Y-96578753D01*
X142637188Y-96479651D01*
X142554524Y-96423808D01*
X142455784Y-96416250D01*
X142350289Y-96462000D01*
X142321053Y-96484876D01*
X142285652Y-96536649D01*
X142090676Y-96536649D01*
X142091196Y-96522255D01*
X142135336Y-96399617D01*
X142191050Y-96332034D01*
X142306561Y-96256540D01*
X142443588Y-96218403D01*
X142585237Y-96221422D01*
X142714617Y-96269393D01*
X142743099Y-96287813D01*
X142808428Y-96344811D01*
X142853106Y-96416916D01*
X142880641Y-96514853D01*
X142894541Y-96649351D01*
X142896378Y-96737853D01*
X142898313Y-96831136D01*
G37*
X147102553Y-96825287D02*
X147100219Y-96939135D01*
X147083739Y-97094320D01*
X147047883Y-97210612D01*
X146988455Y-97299411D01*
X146901257Y-97372119D01*
X146818195Y-97414150D01*
X146678709Y-97437538D01*
X146539412Y-97411965D01*
X146413510Y-97340694D01*
X146314210Y-97226991D01*
X146302219Y-97206024D01*
X146286384Y-97169291D01*
X146274638Y-97122415D01*
X146266378Y-97057355D01*
X146260998Y-96966070D01*
X146257892Y-96840519D01*
X146257797Y-96829379D01*
X146460345Y-96829379D01*
X146461035Y-96935644D01*
X146465400Y-97031762D01*
X146476192Y-97093811D01*
X146496126Y-97135502D01*
X146527916Y-97170543D01*
X146535364Y-97177279D01*
X146631060Y-97226992D01*
X146732312Y-97221905D01*
X146826614Y-97162362D01*
X146854694Y-97131514D01*
X146878196Y-97090618D01*
X146891322Y-97034080D01*
X146897030Y-96947657D01*
X146898276Y-96817106D01*
X146897661Y-96717487D01*
X146893407Y-96620251D01*
X146882682Y-96557502D01*
X146862707Y-96515382D01*
X146830704Y-96480032D01*
X146811905Y-96464114D01*
X146714492Y-96421235D01*
X146612437Y-96427985D01*
X146523825Y-96484123D01*
X146504749Y-96506382D01*
X146481486Y-96548293D01*
X146468036Y-96606822D01*
X146461841Y-96695880D01*
X146460345Y-96829379D01*
X146257797Y-96829379D01*
X146256457Y-96672661D01*
X146256086Y-96454455D01*
X146255977Y-95777072D01*
X146350862Y-95816819D01*
X146375949Y-95827699D01*
X146415881Y-95852268D01*
X146438739Y-95889475D01*
X146451301Y-95954541D01*
X146460345Y-96062687D01*
X146468605Y-96159788D01*
X146479523Y-96223535D01*
X146495165Y-96247323D01*
X146518736Y-96240943D01*
X146578801Y-96218525D01*
X146686145Y-96212967D01*
X146801624Y-96233728D01*
X146901257Y-96278455D01*
X146956072Y-96319856D01*
X147026452Y-96400632D01*
X147071528Y-96504195D01*
X147095496Y-96641947D01*
X147102239Y-96817106D01*
X147102553Y-96825287D01*
G36*
X147102553Y-96825287D02*
G01*
X147100219Y-96939135D01*
X147083739Y-97094320D01*
X147047883Y-97210612D01*
X146988455Y-97299411D01*
X146901257Y-97372119D01*
X146818195Y-97414150D01*
X146678709Y-97437538D01*
X146539412Y-97411965D01*
X146413510Y-97340694D01*
X146314210Y-97226991D01*
X146302219Y-97206024D01*
X146286384Y-97169291D01*
X146274638Y-97122415D01*
X146266378Y-97057355D01*
X146260998Y-96966070D01*
X146257892Y-96840519D01*
X146257797Y-96829379D01*
X146460345Y-96829379D01*
X146461035Y-96935644D01*
X146465400Y-97031762D01*
X146476192Y-97093811D01*
X146496126Y-97135502D01*
X146527916Y-97170543D01*
X146535364Y-97177279D01*
X146631060Y-97226992D01*
X146732312Y-97221905D01*
X146826614Y-97162362D01*
X146854694Y-97131514D01*
X146878196Y-97090618D01*
X146891322Y-97034080D01*
X146897030Y-96947657D01*
X146898276Y-96817106D01*
X146897661Y-96717487D01*
X146893407Y-96620251D01*
X146882682Y-96557502D01*
X146862707Y-96515382D01*
X146830704Y-96480032D01*
X146811905Y-96464114D01*
X146714492Y-96421235D01*
X146612437Y-96427985D01*
X146523825Y-96484123D01*
X146504749Y-96506382D01*
X146481486Y-96548293D01*
X146468036Y-96606822D01*
X146461841Y-96695880D01*
X146460345Y-96829379D01*
X146257797Y-96829379D01*
X146256457Y-96672661D01*
X146256086Y-96454455D01*
X146255977Y-95777072D01*
X146350862Y-95816819D01*
X146375949Y-95827699D01*
X146415881Y-95852268D01*
X146438739Y-95889475D01*
X146451301Y-95954541D01*
X146460345Y-96062687D01*
X146468605Y-96159788D01*
X146479523Y-96223535D01*
X146495165Y-96247323D01*
X146518736Y-96240943D01*
X146578801Y-96218525D01*
X146686145Y-96212967D01*
X146801624Y-96233728D01*
X146901257Y-96278455D01*
X146956072Y-96319856D01*
X147026452Y-96400632D01*
X147071528Y-96504195D01*
X147095496Y-96641947D01*
X147102239Y-96817106D01*
X147102553Y-96825287D01*
G37*
X152999452Y-96713329D02*
X152990168Y-96934639D01*
X152984926Y-96981526D01*
X152945868Y-97148409D01*
X152875290Y-97275326D01*
X152767955Y-97372602D01*
X152761888Y-97376616D01*
X152625440Y-97433706D01*
X152482973Y-97438786D01*
X152345696Y-97395311D01*
X152224819Y-97306734D01*
X152131552Y-97176509D01*
X152129986Y-97173369D01*
X152098993Y-97092501D01*
X152076292Y-97000593D01*
X152064250Y-96914311D01*
X152065237Y-96850321D01*
X152081623Y-96825287D01*
X152096179Y-96826809D01*
X152165792Y-96854496D01*
X152244697Y-96905409D01*
X152311820Y-96964343D01*
X152346087Y-97016094D01*
X152381707Y-97086291D01*
X152454711Y-97150138D01*
X152539485Y-97175632D01*
X152570558Y-97168261D01*
X152631891Y-97131154D01*
X152685315Y-97079644D01*
X152708161Y-97032913D01*
X152708154Y-97032740D01*
X152682233Y-97011280D01*
X152613127Y-96972565D01*
X152511249Y-96922037D01*
X152387011Y-96865134D01*
X152386328Y-96864833D01*
X152251355Y-96804738D01*
X152160884Y-96761440D01*
X152106039Y-96728179D01*
X152077944Y-96698194D01*
X152067724Y-96664726D01*
X152066503Y-96621015D01*
X152074996Y-96538244D01*
X152363219Y-96538244D01*
X152392970Y-96564265D01*
X152467101Y-96603256D01*
X152469274Y-96604359D01*
X152556733Y-96646009D01*
X152634974Y-96679235D01*
X152684611Y-96693291D01*
X152704521Y-96674503D01*
X152708161Y-96610124D01*
X152693035Y-96530001D01*
X152640597Y-96457189D01*
X152564677Y-96419439D01*
X152480040Y-96423251D01*
X152401447Y-96475121D01*
X152370555Y-96510965D01*
X152363219Y-96538244D01*
X152074996Y-96538244D01*
X152077251Y-96516265D01*
X152130389Y-96373949D01*
X152219342Y-96262111D01*
X152334448Y-96184676D01*
X152466045Y-96145568D01*
X152604472Y-96148711D01*
X152740065Y-96198030D01*
X152863164Y-96297447D01*
X152931366Y-96395829D01*
X152980356Y-96536261D01*
X152988322Y-96610124D01*
X152999452Y-96713329D01*
G36*
X152999452Y-96713329D02*
G01*
X152990168Y-96934639D01*
X152984926Y-96981526D01*
X152945868Y-97148409D01*
X152875290Y-97275326D01*
X152767955Y-97372602D01*
X152761888Y-97376616D01*
X152625440Y-97433706D01*
X152482973Y-97438786D01*
X152345696Y-97395311D01*
X152224819Y-97306734D01*
X152131552Y-97176509D01*
X152129986Y-97173369D01*
X152098993Y-97092501D01*
X152076292Y-97000593D01*
X152064250Y-96914311D01*
X152065237Y-96850321D01*
X152081623Y-96825287D01*
X152096179Y-96826809D01*
X152165792Y-96854496D01*
X152244697Y-96905409D01*
X152311820Y-96964343D01*
X152346087Y-97016094D01*
X152381707Y-97086291D01*
X152454711Y-97150138D01*
X152539485Y-97175632D01*
X152570558Y-97168261D01*
X152631891Y-97131154D01*
X152685315Y-97079644D01*
X152708161Y-97032913D01*
X152708154Y-97032740D01*
X152682233Y-97011280D01*
X152613127Y-96972565D01*
X152511249Y-96922037D01*
X152387011Y-96865134D01*
X152386328Y-96864833D01*
X152251355Y-96804738D01*
X152160884Y-96761440D01*
X152106039Y-96728179D01*
X152077944Y-96698194D01*
X152067724Y-96664726D01*
X152066503Y-96621015D01*
X152074996Y-96538244D01*
X152363219Y-96538244D01*
X152392970Y-96564265D01*
X152467101Y-96603256D01*
X152469274Y-96604359D01*
X152556733Y-96646009D01*
X152634974Y-96679235D01*
X152684611Y-96693291D01*
X152704521Y-96674503D01*
X152708161Y-96610124D01*
X152693035Y-96530001D01*
X152640597Y-96457189D01*
X152564677Y-96419439D01*
X152480040Y-96423251D01*
X152401447Y-96475121D01*
X152370555Y-96510965D01*
X152363219Y-96538244D01*
X152074996Y-96538244D01*
X152077251Y-96516265D01*
X152130389Y-96373949D01*
X152219342Y-96262111D01*
X152334448Y-96184676D01*
X152466045Y-96145568D01*
X152604472Y-96148711D01*
X152740065Y-96198030D01*
X152863164Y-96297447D01*
X152931366Y-96395829D01*
X152980356Y-96536261D01*
X152988322Y-96610124D01*
X152999452Y-96713329D01*
G37*
X148829995Y-96243674D02*
X148930355Y-96302191D01*
X148974505Y-96347784D01*
X149059347Y-96484072D01*
X149087931Y-96632658D01*
X149087931Y-96734882D01*
X148993963Y-96695372D01*
X148928977Y-96655504D01*
X148877763Y-96572734D01*
X148872504Y-96555669D01*
X148815903Y-96468724D01*
X148730594Y-96421758D01*
X148632641Y-96419741D01*
X148538106Y-96467644D01*
X148523993Y-96479998D01*
X148476797Y-96533683D01*
X148469003Y-96580488D01*
X148504706Y-96626446D01*
X148588003Y-96677588D01*
X148722988Y-96739948D01*
X148732118Y-96743897D01*
X148881969Y-96813772D01*
X148984316Y-96875672D01*
X149047320Y-96937476D01*
X149079138Y-97007062D01*
X149087931Y-97092308D01*
X149076409Y-97186816D01*
X149018228Y-97307785D01*
X148915875Y-97394688D01*
X148841843Y-97420778D01*
X148737367Y-97435055D01*
X148635917Y-97432006D01*
X148563472Y-97410467D01*
X148555777Y-97405104D01*
X148535341Y-97367632D01*
X148549522Y-97301591D01*
X148574161Y-97249753D01*
X148613670Y-97228172D01*
X148688602Y-97229246D01*
X148792630Y-97223055D01*
X148860605Y-97180311D01*
X148883563Y-97101189D01*
X148883542Y-97098916D01*
X148869629Y-97052986D01*
X148822303Y-97010845D01*
X148730287Y-96962272D01*
X148605151Y-96903790D01*
X148522268Y-96871975D01*
X148474420Y-96874025D01*
X148452063Y-96916051D01*
X148445649Y-97004162D01*
X148445632Y-97144469D01*
X148444917Y-97231081D01*
X148441635Y-97338041D01*
X148436300Y-97411250D01*
X148429585Y-97438391D01*
X148427790Y-97438206D01*
X148388982Y-97423498D01*
X148324709Y-97392456D01*
X148235880Y-97346521D01*
X148246436Y-96932628D01*
X148247171Y-96905179D01*
X148255555Y-96712517D01*
X148270366Y-96567309D01*
X148294629Y-96459887D01*
X148331364Y-96380584D01*
X148383597Y-96319730D01*
X148454348Y-96267658D01*
X148455657Y-96266842D01*
X148570056Y-96224360D01*
X148702365Y-96217184D01*
X148829995Y-96243674D01*
G36*
X148829995Y-96243674D02*
G01*
X148930355Y-96302191D01*
X148974505Y-96347784D01*
X149059347Y-96484072D01*
X149087931Y-96632658D01*
X149087931Y-96734882D01*
X148993963Y-96695372D01*
X148928977Y-96655504D01*
X148877763Y-96572734D01*
X148872504Y-96555669D01*
X148815903Y-96468724D01*
X148730594Y-96421758D01*
X148632641Y-96419741D01*
X148538106Y-96467644D01*
X148523993Y-96479998D01*
X148476797Y-96533683D01*
X148469003Y-96580488D01*
X148504706Y-96626446D01*
X148588003Y-96677588D01*
X148722988Y-96739948D01*
X148732118Y-96743897D01*
X148881969Y-96813772D01*
X148984316Y-96875672D01*
X149047320Y-96937476D01*
X149079138Y-97007062D01*
X149087931Y-97092308D01*
X149076409Y-97186816D01*
X149018228Y-97307785D01*
X148915875Y-97394688D01*
X148841843Y-97420778D01*
X148737367Y-97435055D01*
X148635917Y-97432006D01*
X148563472Y-97410467D01*
X148555777Y-97405104D01*
X148535341Y-97367632D01*
X148549522Y-97301591D01*
X148574161Y-97249753D01*
X148613670Y-97228172D01*
X148688602Y-97229246D01*
X148792630Y-97223055D01*
X148860605Y-97180311D01*
X148883563Y-97101189D01*
X148883542Y-97098916D01*
X148869629Y-97052986D01*
X148822303Y-97010845D01*
X148730287Y-96962272D01*
X148605151Y-96903790D01*
X148522268Y-96871975D01*
X148474420Y-96874025D01*
X148452063Y-96916051D01*
X148445649Y-97004162D01*
X148445632Y-97144469D01*
X148444917Y-97231081D01*
X148441635Y-97338041D01*
X148436300Y-97411250D01*
X148429585Y-97438391D01*
X148427790Y-97438206D01*
X148388982Y-97423498D01*
X148324709Y-97392456D01*
X148235880Y-97346521D01*
X148246436Y-96932628D01*
X148247171Y-96905179D01*
X148255555Y-96712517D01*
X148270366Y-96567309D01*
X148294629Y-96459887D01*
X148331364Y-96380584D01*
X148383597Y-96319730D01*
X148454348Y-96267658D01*
X148455657Y-96266842D01*
X148570056Y-96224360D01*
X148702365Y-96217184D01*
X148829995Y-96243674D01*
G37*
X144561628Y-96214810D02*
X144624194Y-96230702D01*
X144682446Y-96270322D01*
X144757418Y-96344076D01*
X144805633Y-96396163D01*
X144855858Y-96463786D01*
X144878510Y-96527168D01*
X144883793Y-96607584D01*
X144883793Y-96739201D01*
X144794035Y-96692785D01*
X144722904Y-96636225D01*
X144674183Y-96560040D01*
X144665814Y-96539326D01*
X144602056Y-96459041D01*
X144513470Y-96418784D01*
X144416873Y-96422702D01*
X144329080Y-96474943D01*
X144291936Y-96517370D01*
X144270300Y-96571647D01*
X144293461Y-96619954D01*
X144365479Y-96668545D01*
X144490410Y-96723677D01*
X144509368Y-96731292D01*
X144623105Y-96781125D01*
X144720706Y-96830265D01*
X144782803Y-96869080D01*
X144844999Y-96938411D01*
X144886346Y-97049051D01*
X144881957Y-97167782D01*
X144833037Y-97280148D01*
X144740797Y-97371690D01*
X144666110Y-97410658D01*
X144521832Y-97437944D01*
X144441656Y-97434263D01*
X144367435Y-97414360D01*
X144338960Y-97372598D01*
X144349608Y-97303820D01*
X144352705Y-97294726D01*
X144377268Y-97246498D01*
X144418165Y-97228245D01*
X144496079Y-97229466D01*
X144551091Y-97231126D01*
X144615459Y-97216881D01*
X144659561Y-97174292D01*
X144684680Y-97121857D01*
X144687481Y-97066929D01*
X144687352Y-97066608D01*
X144654785Y-97036928D01*
X144585083Y-96993735D01*
X144494898Y-96945461D01*
X144400883Y-96900539D01*
X144319689Y-96867402D01*
X144267968Y-96854483D01*
X144260274Y-96867134D01*
X144250588Y-96926668D01*
X144243954Y-97023887D01*
X144241494Y-97146437D01*
X144240922Y-97231263D01*
X144238225Y-97338094D01*
X144233821Y-97411257D01*
X144228270Y-97438391D01*
X144199254Y-97429272D01*
X144140684Y-97404509D01*
X144066322Y-97370627D01*
X144066322Y-96935933D01*
X144066797Y-96824508D01*
X144071293Y-96655301D01*
X144082747Y-96529769D01*
X144103828Y-96438363D01*
X144137206Y-96371532D01*
X144185550Y-96319726D01*
X144251531Y-96273393D01*
X144335594Y-96235156D01*
X144490807Y-96212184D01*
X144561628Y-96214810D01*
G36*
X144561628Y-96214810D02*
G01*
X144624194Y-96230702D01*
X144682446Y-96270322D01*
X144757418Y-96344076D01*
X144805633Y-96396163D01*
X144855858Y-96463786D01*
X144878510Y-96527168D01*
X144883793Y-96607584D01*
X144883793Y-96739201D01*
X144794035Y-96692785D01*
X144722904Y-96636225D01*
X144674183Y-96560040D01*
X144665814Y-96539326D01*
X144602056Y-96459041D01*
X144513470Y-96418784D01*
X144416873Y-96422702D01*
X144329080Y-96474943D01*
X144291936Y-96517370D01*
X144270300Y-96571647D01*
X144293461Y-96619954D01*
X144365479Y-96668545D01*
X144490410Y-96723677D01*
X144509368Y-96731292D01*
X144623105Y-96781125D01*
X144720706Y-96830265D01*
X144782803Y-96869080D01*
X144844999Y-96938411D01*
X144886346Y-97049051D01*
X144881957Y-97167782D01*
X144833037Y-97280148D01*
X144740797Y-97371690D01*
X144666110Y-97410658D01*
X144521832Y-97437944D01*
X144441656Y-97434263D01*
X144367435Y-97414360D01*
X144338960Y-97372598D01*
X144349608Y-97303820D01*
X144352705Y-97294726D01*
X144377268Y-97246498D01*
X144418165Y-97228245D01*
X144496079Y-97229466D01*
X144551091Y-97231126D01*
X144615459Y-97216881D01*
X144659561Y-97174292D01*
X144684680Y-97121857D01*
X144687481Y-97066929D01*
X144687352Y-97066608D01*
X144654785Y-97036928D01*
X144585083Y-96993735D01*
X144494898Y-96945461D01*
X144400883Y-96900539D01*
X144319689Y-96867402D01*
X144267968Y-96854483D01*
X144260274Y-96867134D01*
X144250588Y-96926668D01*
X144243954Y-97023887D01*
X144241494Y-97146437D01*
X144240922Y-97231263D01*
X144238225Y-97338094D01*
X144233821Y-97411257D01*
X144228270Y-97438391D01*
X144199254Y-97429272D01*
X144140684Y-97404509D01*
X144066322Y-97370627D01*
X144066322Y-96935933D01*
X144066797Y-96824508D01*
X144071293Y-96655301D01*
X144082747Y-96529769D01*
X144103828Y-96438363D01*
X144137206Y-96371532D01*
X144185550Y-96319726D01*
X144251531Y-96273393D01*
X144335594Y-96235156D01*
X144490807Y-96212184D01*
X144561628Y-96214810D01*
G37*
X154100778Y-96929502D02*
X154103668Y-97153736D01*
X154104471Y-97218785D01*
X154107040Y-97436260D01*
X154107556Y-97602672D01*
X154104437Y-97723846D01*
X154096100Y-97805607D01*
X154080962Y-97853781D01*
X154057441Y-97874194D01*
X154023956Y-97872672D01*
X153978923Y-97855039D01*
X153920761Y-97827121D01*
X153908332Y-97821164D01*
X153856578Y-97792006D01*
X153829550Y-97757314D01*
X153819207Y-97699470D01*
X153817509Y-97600857D01*
X153817433Y-97423793D01*
X153635038Y-97423793D01*
X153522840Y-97418880D01*
X153434620Y-97398953D01*
X153361358Y-97358678D01*
X153355896Y-97354741D01*
X153281558Y-97288243D01*
X153229823Y-97207908D01*
X153197196Y-97102758D01*
X153180182Y-96961815D01*
X153176030Y-96802588D01*
X153467241Y-96802588D01*
X153467291Y-96829276D01*
X153470064Y-96949738D01*
X153478967Y-97028484D01*
X153496617Y-97079618D01*
X153525632Y-97117241D01*
X153527440Y-97119038D01*
X153598753Y-97167720D01*
X153667865Y-97162921D01*
X153745925Y-97103971D01*
X153765019Y-97083823D01*
X153793142Y-97042515D01*
X153809000Y-96988787D01*
X153816009Y-96907326D01*
X153817586Y-96782821D01*
X153816220Y-96707445D01*
X153801402Y-96570362D01*
X153767579Y-96480548D01*
X153711389Y-96431460D01*
X153629472Y-96416552D01*
X153594956Y-96419729D01*
X153535235Y-96451254D01*
X153495752Y-96521505D01*
X153473942Y-96636583D01*
X153467241Y-96802588D01*
X153176030Y-96802588D01*
X153175287Y-96774101D01*
X153176371Y-96637122D01*
X153181307Y-96533364D01*
X153192272Y-96461412D01*
X153211438Y-96407500D01*
X153240977Y-96357864D01*
X153268092Y-96319931D01*
X153366550Y-96217522D01*
X153478100Y-96161903D01*
X153618246Y-96144297D01*
X153778635Y-96161847D01*
X153917288Y-96224797D01*
X154026951Y-96335824D01*
X154035218Y-96347578D01*
X154054499Y-96378813D01*
X154069269Y-96414507D01*
X154080254Y-96462364D01*
X154088174Y-96530087D01*
X154093753Y-96625382D01*
X154097713Y-96755952D01*
X154098188Y-96782821D01*
X154100778Y-96929502D01*
G36*
X154100778Y-96929502D02*
G01*
X154103668Y-97153736D01*
X154104471Y-97218785D01*
X154107040Y-97436260D01*
X154107556Y-97602672D01*
X154104437Y-97723846D01*
X154096100Y-97805607D01*
X154080962Y-97853781D01*
X154057441Y-97874194D01*
X154023956Y-97872672D01*
X153978923Y-97855039D01*
X153920761Y-97827121D01*
X153908332Y-97821164D01*
X153856578Y-97792006D01*
X153829550Y-97757314D01*
X153819207Y-97699470D01*
X153817509Y-97600857D01*
X153817433Y-97423793D01*
X153635038Y-97423793D01*
X153522840Y-97418880D01*
X153434620Y-97398953D01*
X153361358Y-97358678D01*
X153355896Y-97354741D01*
X153281558Y-97288243D01*
X153229823Y-97207908D01*
X153197196Y-97102758D01*
X153180182Y-96961815D01*
X153176030Y-96802588D01*
X153467241Y-96802588D01*
X153467291Y-96829276D01*
X153470064Y-96949738D01*
X153478967Y-97028484D01*
X153496617Y-97079618D01*
X153525632Y-97117241D01*
X153527440Y-97119038D01*
X153598753Y-97167720D01*
X153667865Y-97162921D01*
X153745925Y-97103971D01*
X153765019Y-97083823D01*
X153793142Y-97042515D01*
X153809000Y-96988787D01*
X153816009Y-96907326D01*
X153817586Y-96782821D01*
X153816220Y-96707445D01*
X153801402Y-96570362D01*
X153767579Y-96480548D01*
X153711389Y-96431460D01*
X153629472Y-96416552D01*
X153594956Y-96419729D01*
X153535235Y-96451254D01*
X153495752Y-96521505D01*
X153473942Y-96636583D01*
X153467241Y-96802588D01*
X153176030Y-96802588D01*
X153175287Y-96774101D01*
X153176371Y-96637122D01*
X153181307Y-96533364D01*
X153192272Y-96461412D01*
X153211438Y-96407500D01*
X153240977Y-96357864D01*
X153268092Y-96319931D01*
X153366550Y-96217522D01*
X153478100Y-96161903D01*
X153618246Y-96144297D01*
X153778635Y-96161847D01*
X153917288Y-96224797D01*
X154026951Y-96335824D01*
X154035218Y-96347578D01*
X154054499Y-96378813D01*
X154069269Y-96414507D01*
X154080254Y-96462364D01*
X154088174Y-96530087D01*
X154093753Y-96625382D01*
X154097713Y-96755952D01*
X154098188Y-96782821D01*
X154100778Y-96929502D01*
G37*
X148879175Y-86753045D02*
X149031895Y-86754039D01*
X149141792Y-86756593D01*
X149216235Y-86761445D01*
X149262594Y-86769331D01*
X149288239Y-86780988D01*
X149300539Y-86797153D01*
X149306865Y-86818563D01*
X149307047Y-86819332D01*
X149317441Y-86869663D01*
X149336339Y-86966888D01*
X149361802Y-87100810D01*
X149391890Y-87261235D01*
X149424664Y-87437967D01*
X149427337Y-87452428D01*
X149460010Y-87623959D01*
X149490413Y-87774625D01*
X149516568Y-87895267D01*
X149536496Y-87976729D01*
X149548220Y-88009852D01*
X149548282Y-88009905D01*
X149585229Y-88028229D01*
X149661057Y-88058677D01*
X149759425Y-88094685D01*
X149764965Y-88096640D01*
X149890724Y-88144170D01*
X150037011Y-88203783D01*
X150173293Y-88263056D01*
X150397390Y-88364765D01*
X150893618Y-88025897D01*
X150928570Y-88002063D01*
X151078280Y-87900755D01*
X151211867Y-87811575D01*
X151321343Y-87739773D01*
X151398718Y-87690603D01*
X151436004Y-87669317D01*
X151461552Y-87674196D01*
X151519555Y-87712002D01*
X151609195Y-87786870D01*
X151732957Y-87900903D01*
X151893328Y-88056205D01*
X151907679Y-88070341D01*
X152034933Y-88196999D01*
X152147969Y-88311745D01*
X152239867Y-88407391D01*
X152303707Y-88476746D01*
X152332570Y-88512620D01*
X152332664Y-88512794D01*
X152336331Y-88540106D01*
X152322808Y-88584408D01*
X152288684Y-88651761D01*
X152230548Y-88748226D01*
X152144988Y-88879863D01*
X152028594Y-89052734D01*
X152008759Y-89081912D01*
X151908445Y-89229726D01*
X151819923Y-89360577D01*
X151748465Y-89466643D01*
X151699343Y-89540102D01*
X151677831Y-89573130D01*
X151676208Y-89580126D01*
X151686387Y-89632326D01*
X151716879Y-89717561D01*
X151762712Y-89821291D01*
X151825000Y-89956951D01*
X151894548Y-90117921D01*
X151953609Y-90263621D01*
X151968252Y-90301333D01*
X152006600Y-90397622D01*
X152034770Y-90464704D01*
X152047497Y-90489885D01*
X152061545Y-90491767D01*
X152124681Y-90502651D01*
X152228019Y-90521449D01*
X152360809Y-90546115D01*
X152512297Y-90574604D01*
X152671732Y-90604873D01*
X152828361Y-90634875D01*
X152971433Y-90662566D01*
X153090195Y-90685900D01*
X153173896Y-90702833D01*
X153211782Y-90711320D01*
X153218063Y-90713713D01*
X153233373Y-90726619D01*
X153244763Y-90754096D01*
X153252803Y-90803446D01*
X153258064Y-90881973D01*
X153261116Y-90996980D01*
X153262529Y-91155770D01*
X153262873Y-91365645D01*
X153262873Y-92003906D01*
X153109598Y-92034160D01*
X153091057Y-92037785D01*
X152992596Y-92056569D01*
X152856448Y-92082093D01*
X152698087Y-92111468D01*
X152532988Y-92141806D01*
X152467973Y-92154009D01*
X152322697Y-92183697D01*
X152201626Y-92211770D01*
X152115886Y-92235536D01*
X152076601Y-92252301D01*
X152058799Y-92279694D01*
X152026389Y-92352174D01*
X151993234Y-92445977D01*
X151981564Y-92481103D01*
X151938604Y-92596409D01*
X151883192Y-92732876D01*
X151824353Y-92867954D01*
X151792884Y-92938509D01*
X151748051Y-93043895D01*
X151717240Y-93122818D01*
X151705785Y-93162053D01*
X151706422Y-93165014D01*
X151728150Y-93206639D01*
X151777146Y-93286969D01*
X151848438Y-93398220D01*
X151937054Y-93532605D01*
X152038023Y-93682340D01*
X152370261Y-94169931D01*
X151933771Y-94607149D01*
X151891555Y-94649221D01*
X151762470Y-94775153D01*
X151647107Y-94883754D01*
X151552224Y-94968903D01*
X151484582Y-95024482D01*
X151450938Y-95044368D01*
X151414402Y-95029238D01*
X151337890Y-94985801D01*
X151230196Y-94919270D01*
X151099767Y-94834867D01*
X150955052Y-94737816D01*
X150812910Y-94641964D01*
X150684678Y-94557557D01*
X150580054Y-94490850D01*
X150507171Y-94447024D01*
X150474158Y-94431264D01*
X150472223Y-94431408D01*
X150428369Y-94446945D01*
X150350598Y-94483121D01*
X150254392Y-94532785D01*
X150253381Y-94533329D01*
X150125605Y-94597326D01*
X150038051Y-94628591D01*
X149983726Y-94628677D01*
X149955641Y-94599138D01*
X149943752Y-94570061D01*
X149911668Y-94492188D01*
X149862247Y-94372475D01*
X149798118Y-94217286D01*
X149721911Y-94032984D01*
X149636255Y-93825933D01*
X149543781Y-93602496D01*
X149459962Y-93399226D01*
X149374678Y-93190649D01*
X149299222Y-93004263D01*
X149236126Y-92846407D01*
X149187923Y-92723419D01*
X149157144Y-92641639D01*
X149146322Y-92607406D01*
X149166991Y-92576015D01*
X149224409Y-92523602D01*
X149305688Y-92462704D01*
X149500820Y-92303387D01*
X149675445Y-92099807D01*
X149803235Y-91875808D01*
X149883402Y-91638003D01*
X149915160Y-91393007D01*
X149897722Y-91147433D01*
X149830301Y-90907895D01*
X149712111Y-90681007D01*
X149542364Y-90473383D01*
X149453856Y-90392527D01*
X149241804Y-90249559D01*
X149014905Y-90156352D01*
X148779791Y-90110687D01*
X148543094Y-90110344D01*
X148311446Y-90153105D01*
X148091478Y-90236750D01*
X147889822Y-90359061D01*
X147713111Y-90517817D01*
X147567977Y-90710801D01*
X147461050Y-90935793D01*
X147398964Y-91190575D01*
X147387569Y-91313377D01*
X147403246Y-91579434D01*
X147473846Y-91831856D01*
X147597282Y-92066182D01*
X147771466Y-92277952D01*
X147994311Y-92462704D01*
X148072561Y-92521123D01*
X148131244Y-92574110D01*
X148153678Y-92607356D01*
X148144732Y-92636339D01*
X148115703Y-92713996D01*
X148069026Y-92833451D01*
X148007231Y-92988362D01*
X147932850Y-93172392D01*
X147848412Y-93379200D01*
X147756449Y-93602446D01*
X147672771Y-93804742D01*
X147586366Y-94013686D01*
X147509138Y-94200498D01*
X147443716Y-94358814D01*
X147392731Y-94482269D01*
X147358812Y-94564498D01*
X147344590Y-94599138D01*
X147344425Y-94599548D01*
X147315972Y-94628798D01*
X147261382Y-94628463D01*
X147173609Y-94596980D01*
X147045608Y-94532785D01*
X147035532Y-94527380D01*
X146940481Y-94478750D01*
X146865424Y-94444328D01*
X146825842Y-94431264D01*
X146793400Y-94446702D01*
X146720895Y-94490258D01*
X146616565Y-94556751D01*
X146488539Y-94640998D01*
X146344948Y-94737816D01*
X146203468Y-94832734D01*
X146072611Y-94917490D01*
X145964292Y-94984496D01*
X145886960Y-95028529D01*
X145849062Y-95044368D01*
X145842607Y-95042357D01*
X145797609Y-95010658D01*
X145720727Y-94945181D01*
X145618721Y-94852048D01*
X145498351Y-94737381D01*
X145366379Y-94607300D01*
X144930039Y-94170232D01*
X145609733Y-93170440D01*
X145506402Y-92946886D01*
X145506096Y-92946225D01*
X145444046Y-92803714D01*
X145380640Y-92645018D01*
X145329558Y-92504368D01*
X145321827Y-92481683D01*
X145282852Y-92376370D01*
X145247707Y-92294534D01*
X145223195Y-92252301D01*
X145213212Y-92246337D01*
X145153286Y-92226329D01*
X145051532Y-92200442D01*
X144919068Y-92171370D01*
X144767011Y-92141806D01*
X144721466Y-92133467D01*
X144556685Y-92103107D01*
X144402930Y-92074509D01*
X144275678Y-92050564D01*
X144190402Y-92034160D01*
X144037126Y-92003906D01*
X144037126Y-91365645D01*
X144037160Y-91287165D01*
X144037808Y-91095703D01*
X144039720Y-90952812D01*
X144043469Y-90851189D01*
X144049622Y-90783531D01*
X144058751Y-90742536D01*
X144071427Y-90720900D01*
X144088218Y-90711320D01*
X144104474Y-90707439D01*
X144170748Y-90693710D01*
X144276479Y-90672745D01*
X144410915Y-90646588D01*
X144563302Y-90617283D01*
X144722890Y-90586877D01*
X144878925Y-90557413D01*
X145020657Y-90530937D01*
X145137331Y-90509494D01*
X145218197Y-90495128D01*
X145252503Y-90489885D01*
X145254822Y-90486720D01*
X145273474Y-90445642D01*
X145305753Y-90367044D01*
X145346391Y-90263621D01*
X145402788Y-90124273D01*
X145472214Y-89963226D01*
X145537288Y-89821291D01*
X145552202Y-89789432D01*
X145594047Y-89689669D01*
X145619118Y-89612721D01*
X145622426Y-89573130D01*
X145620720Y-89570325D01*
X145593631Y-89529005D01*
X145539927Y-89448740D01*
X145464877Y-89337350D01*
X145373746Y-89202655D01*
X145271800Y-89052476D01*
X145156930Y-88881851D01*
X145070761Y-88749311D01*
X145012131Y-88652112D01*
X144977650Y-88584234D01*
X144963926Y-88539656D01*
X144967568Y-88512361D01*
X144968794Y-88510313D01*
X145001747Y-88470536D01*
X145068927Y-88398052D01*
X145163419Y-88300046D01*
X145278306Y-88183702D01*
X145406672Y-88056205D01*
X145539831Y-87926821D01*
X145670269Y-87805209D01*
X145766119Y-87723156D01*
X145829866Y-87678560D01*
X145863996Y-87669317D01*
X145868456Y-87671393D01*
X145915421Y-87699385D01*
X146000685Y-87754084D01*
X146116259Y-87830237D01*
X146254154Y-87922592D01*
X146406381Y-88025897D01*
X146902610Y-88364765D01*
X147126707Y-88263056D01*
X147133219Y-88260109D01*
X147270804Y-88200504D01*
X147416767Y-88141222D01*
X147540575Y-88094685D01*
X147541122Y-88094493D01*
X147639414Y-88058497D01*
X147715081Y-88028095D01*
X147751780Y-88009852D01*
X147752374Y-88009190D01*
X147764833Y-87971831D01*
X147785336Y-87886871D01*
X147811907Y-87763469D01*
X147842567Y-87610782D01*
X147875336Y-87437967D01*
X147876478Y-87431774D01*
X147909193Y-87255431D01*
X147939155Y-87095743D01*
X147964425Y-86962905D01*
X147983065Y-86867113D01*
X147993135Y-86818563D01*
X147993779Y-86815873D01*
X148000408Y-86795088D01*
X148013841Y-86779466D01*
X148041446Y-86768270D01*
X148090593Y-86760762D01*
X148168653Y-86756205D01*
X148282994Y-86753863D01*
X148440986Y-86752998D01*
X148650000Y-86752874D01*
X148676262Y-86752874D01*
X148879175Y-86753045D01*
G36*
X148879175Y-86753045D02*
G01*
X149031895Y-86754039D01*
X149141792Y-86756593D01*
X149216235Y-86761445D01*
X149262594Y-86769331D01*
X149288239Y-86780988D01*
X149300539Y-86797153D01*
X149306865Y-86818563D01*
X149307047Y-86819332D01*
X149317441Y-86869663D01*
X149336339Y-86966888D01*
X149361802Y-87100810D01*
X149391890Y-87261235D01*
X149424664Y-87437967D01*
X149427337Y-87452428D01*
X149460010Y-87623959D01*
X149490413Y-87774625D01*
X149516568Y-87895267D01*
X149536496Y-87976729D01*
X149548220Y-88009852D01*
X149548282Y-88009905D01*
X149585229Y-88028229D01*
X149661057Y-88058677D01*
X149759425Y-88094685D01*
X149764965Y-88096640D01*
X149890724Y-88144170D01*
X150037011Y-88203783D01*
X150173293Y-88263056D01*
X150397390Y-88364765D01*
X150893618Y-88025897D01*
X150928570Y-88002063D01*
X151078280Y-87900755D01*
X151211867Y-87811575D01*
X151321343Y-87739773D01*
X151398718Y-87690603D01*
X151436004Y-87669317D01*
X151461552Y-87674196D01*
X151519555Y-87712002D01*
X151609195Y-87786870D01*
X151732957Y-87900903D01*
X151893328Y-88056205D01*
X151907679Y-88070341D01*
X152034933Y-88196999D01*
X152147969Y-88311745D01*
X152239867Y-88407391D01*
X152303707Y-88476746D01*
X152332570Y-88512620D01*
X152332664Y-88512794D01*
X152336331Y-88540106D01*
X152322808Y-88584408D01*
X152288684Y-88651761D01*
X152230548Y-88748226D01*
X152144988Y-88879863D01*
X152028594Y-89052734D01*
X152008759Y-89081912D01*
X151908445Y-89229726D01*
X151819923Y-89360577D01*
X151748465Y-89466643D01*
X151699343Y-89540102D01*
X151677831Y-89573130D01*
X151676208Y-89580126D01*
X151686387Y-89632326D01*
X151716879Y-89717561D01*
X151762712Y-89821291D01*
X151825000Y-89956951D01*
X151894548Y-90117921D01*
X151953609Y-90263621D01*
X151968252Y-90301333D01*
X152006600Y-90397622D01*
X152034770Y-90464704D01*
X152047497Y-90489885D01*
X152061545Y-90491767D01*
X152124681Y-90502651D01*
X152228019Y-90521449D01*
X152360809Y-90546115D01*
X152512297Y-90574604D01*
X152671732Y-90604873D01*
X152828361Y-90634875D01*
X152971433Y-90662566D01*
X153090195Y-90685900D01*
X153173896Y-90702833D01*
X153211782Y-90711320D01*
X153218063Y-90713713D01*
X153233373Y-90726619D01*
X153244763Y-90754096D01*
X153252803Y-90803446D01*
X153258064Y-90881973D01*
X153261116Y-90996980D01*
X153262529Y-91155770D01*
X153262873Y-91365645D01*
X153262873Y-92003906D01*
X153109598Y-92034160D01*
X153091057Y-92037785D01*
X152992596Y-92056569D01*
X152856448Y-92082093D01*
X152698087Y-92111468D01*
X152532988Y-92141806D01*
X152467973Y-92154009D01*
X152322697Y-92183697D01*
X152201626Y-92211770D01*
X152115886Y-92235536D01*
X152076601Y-92252301D01*
X152058799Y-92279694D01*
X152026389Y-92352174D01*
X151993234Y-92445977D01*
X151981564Y-92481103D01*
X151938604Y-92596409D01*
X151883192Y-92732876D01*
X151824353Y-92867954D01*
X151792884Y-92938509D01*
X151748051Y-93043895D01*
X151717240Y-93122818D01*
X151705785Y-93162053D01*
X151706422Y-93165014D01*
X151728150Y-93206639D01*
X151777146Y-93286969D01*
X151848438Y-93398220D01*
X151937054Y-93532605D01*
X152038023Y-93682340D01*
X152370261Y-94169931D01*
X151933771Y-94607149D01*
X151891555Y-94649221D01*
X151762470Y-94775153D01*
X151647107Y-94883754D01*
X151552224Y-94968903D01*
X151484582Y-95024482D01*
X151450938Y-95044368D01*
X151414402Y-95029238D01*
X151337890Y-94985801D01*
X151230196Y-94919270D01*
X151099767Y-94834867D01*
X150955052Y-94737816D01*
X150812910Y-94641964D01*
X150684678Y-94557557D01*
X150580054Y-94490850D01*
X150507171Y-94447024D01*
X150474158Y-94431264D01*
X150472223Y-94431408D01*
X150428369Y-94446945D01*
X150350598Y-94483121D01*
X150254392Y-94532785D01*
X150253381Y-94533329D01*
X150125605Y-94597326D01*
X150038051Y-94628591D01*
X149983726Y-94628677D01*
X149955641Y-94599138D01*
X149943752Y-94570061D01*
X149911668Y-94492188D01*
X149862247Y-94372475D01*
X149798118Y-94217286D01*
X149721911Y-94032984D01*
X149636255Y-93825933D01*
X149543781Y-93602496D01*
X149459962Y-93399226D01*
X149374678Y-93190649D01*
X149299222Y-93004263D01*
X149236126Y-92846407D01*
X149187923Y-92723419D01*
X149157144Y-92641639D01*
X149146322Y-92607406D01*
X149166991Y-92576015D01*
X149224409Y-92523602D01*
X149305688Y-92462704D01*
X149500820Y-92303387D01*
X149675445Y-92099807D01*
X149803235Y-91875808D01*
X149883402Y-91638003D01*
X149915160Y-91393007D01*
X149897722Y-91147433D01*
X149830301Y-90907895D01*
X149712111Y-90681007D01*
X149542364Y-90473383D01*
X149453856Y-90392527D01*
X149241804Y-90249559D01*
X149014905Y-90156352D01*
X148779791Y-90110687D01*
X148543094Y-90110344D01*
X148311446Y-90153105D01*
X148091478Y-90236750D01*
X147889822Y-90359061D01*
X147713111Y-90517817D01*
X147567977Y-90710801D01*
X147461050Y-90935793D01*
X147398964Y-91190575D01*
X147387569Y-91313377D01*
X147403246Y-91579434D01*
X147473846Y-91831856D01*
X147597282Y-92066182D01*
X147771466Y-92277952D01*
X147994311Y-92462704D01*
X148072561Y-92521123D01*
X148131244Y-92574110D01*
X148153678Y-92607356D01*
X148144732Y-92636339D01*
X148115703Y-92713996D01*
X148069026Y-92833451D01*
X148007231Y-92988362D01*
X147932850Y-93172392D01*
X147848412Y-93379200D01*
X147756449Y-93602446D01*
X147672771Y-93804742D01*
X147586366Y-94013686D01*
X147509138Y-94200498D01*
X147443716Y-94358814D01*
X147392731Y-94482269D01*
X147358812Y-94564498D01*
X147344590Y-94599138D01*
X147344425Y-94599548D01*
X147315972Y-94628798D01*
X147261382Y-94628463D01*
X147173609Y-94596980D01*
X147045608Y-94532785D01*
X147035532Y-94527380D01*
X146940481Y-94478750D01*
X146865424Y-94444328D01*
X146825842Y-94431264D01*
X146793400Y-94446702D01*
X146720895Y-94490258D01*
X146616565Y-94556751D01*
X146488539Y-94640998D01*
X146344948Y-94737816D01*
X146203468Y-94832734D01*
X146072611Y-94917490D01*
X145964292Y-94984496D01*
X145886960Y-95028529D01*
X145849062Y-95044368D01*
X145842607Y-95042357D01*
X145797609Y-95010658D01*
X145720727Y-94945181D01*
X145618721Y-94852048D01*
X145498351Y-94737381D01*
X145366379Y-94607300D01*
X144930039Y-94170232D01*
X145609733Y-93170440D01*
X145506402Y-92946886D01*
X145506096Y-92946225D01*
X145444046Y-92803714D01*
X145380640Y-92645018D01*
X145329558Y-92504368D01*
X145321827Y-92481683D01*
X145282852Y-92376370D01*
X145247707Y-92294534D01*
X145223195Y-92252301D01*
X145213212Y-92246337D01*
X145153286Y-92226329D01*
X145051532Y-92200442D01*
X144919068Y-92171370D01*
X144767011Y-92141806D01*
X144721466Y-92133467D01*
X144556685Y-92103107D01*
X144402930Y-92074509D01*
X144275678Y-92050564D01*
X144190402Y-92034160D01*
X144037126Y-92003906D01*
X144037126Y-91365645D01*
X144037160Y-91287165D01*
X144037808Y-91095703D01*
X144039720Y-90952812D01*
X144043469Y-90851189D01*
X144049622Y-90783531D01*
X144058751Y-90742536D01*
X144071427Y-90720900D01*
X144088218Y-90711320D01*
X144104474Y-90707439D01*
X144170748Y-90693710D01*
X144276479Y-90672745D01*
X144410915Y-90646588D01*
X144563302Y-90617283D01*
X144722890Y-90586877D01*
X144878925Y-90557413D01*
X145020657Y-90530937D01*
X145137331Y-90509494D01*
X145218197Y-90495128D01*
X145252503Y-90489885D01*
X145254822Y-90486720D01*
X145273474Y-90445642D01*
X145305753Y-90367044D01*
X145346391Y-90263621D01*
X145402788Y-90124273D01*
X145472214Y-89963226D01*
X145537288Y-89821291D01*
X145552202Y-89789432D01*
X145594047Y-89689669D01*
X145619118Y-89612721D01*
X145622426Y-89573130D01*
X145620720Y-89570325D01*
X145593631Y-89529005D01*
X145539927Y-89448740D01*
X145464877Y-89337350D01*
X145373746Y-89202655D01*
X145271800Y-89052476D01*
X145156930Y-88881851D01*
X145070761Y-88749311D01*
X145012131Y-88652112D01*
X144977650Y-88584234D01*
X144963926Y-88539656D01*
X144967568Y-88512361D01*
X144968794Y-88510313D01*
X145001747Y-88470536D01*
X145068927Y-88398052D01*
X145163419Y-88300046D01*
X145278306Y-88183702D01*
X145406672Y-88056205D01*
X145539831Y-87926821D01*
X145670269Y-87805209D01*
X145766119Y-87723156D01*
X145829866Y-87678560D01*
X145863996Y-87669317D01*
X145868456Y-87671393D01*
X145915421Y-87699385D01*
X146000685Y-87754084D01*
X146116259Y-87830237D01*
X146254154Y-87922592D01*
X146406381Y-88025897D01*
X146902610Y-88364765D01*
X147126707Y-88263056D01*
X147133219Y-88260109D01*
X147270804Y-88200504D01*
X147416767Y-88141222D01*
X147540575Y-88094685D01*
X147541122Y-88094493D01*
X147639414Y-88058497D01*
X147715081Y-88028095D01*
X147751780Y-88009852D01*
X147752374Y-88009190D01*
X147764833Y-87971831D01*
X147785336Y-87886871D01*
X147811907Y-87763469D01*
X147842567Y-87610782D01*
X147875336Y-87437967D01*
X147876478Y-87431774D01*
X147909193Y-87255431D01*
X147939155Y-87095743D01*
X147964425Y-86962905D01*
X147983065Y-86867113D01*
X147993135Y-86818563D01*
X147993779Y-86815873D01*
X148000408Y-86795088D01*
X148013841Y-86779466D01*
X148041446Y-86768270D01*
X148090593Y-86760762D01*
X148168653Y-86756205D01*
X148282994Y-86753863D01*
X148440986Y-86752998D01*
X148650000Y-86752874D01*
X148676262Y-86752874D01*
X148879175Y-86753045D01*
G37*
%LPC*%
D13*
X138240000Y-129600000D03*
D14*
X138240000Y-127060000D03*
X138240000Y-124520000D03*
D13*
X120760000Y-121800000D03*
D14*
X123300000Y-121800000D03*
X125840000Y-121800000D03*
D13*
X158920000Y-74500000D03*
D14*
X161460000Y-74500000D03*
X164000000Y-74500000D03*
X166540000Y-74500000D03*
D13*
X134700000Y-129600000D03*
D14*
X134700000Y-127060000D03*
X134700000Y-124520000D03*
D15*
X122100000Y-128500000D03*
X122100000Y-75500000D03*
D13*
X120760000Y-118260000D03*
D14*
X123300000Y-118260000D03*
X125840000Y-118260000D03*
D13*
X131160000Y-129590000D03*
D14*
X131160000Y-127050000D03*
X131160000Y-124510000D03*
D15*
X175200000Y-75500000D03*
X175200000Y-128500000D03*
D13*
X120760000Y-111180000D03*
D14*
X123300000Y-111180000D03*
X125840000Y-111180000D03*
D16*
X172120000Y-98590000D03*
X172120000Y-92810000D03*
D17*
X171620000Y-100020000D03*
X171620000Y-91380000D03*
D18*
X175800000Y-100020000D03*
D19*
X175800000Y-91380000D03*
D13*
X120760000Y-114720000D03*
D14*
X123300000Y-114720000D03*
X125840000Y-114720000D03*
D13*
X141780000Y-129590000D03*
D14*
X141780000Y-127050000D03*
X141780000Y-124510000D03*
%LPD*%
M02*
