G04 #@! TF.GenerationSoftware,KiCad,Pcbnew,9.0.4*
G04 #@! TF.CreationDate,2025-09-13T12:43:22+05:30*
G04 #@! TF.ProjectId,Udayate,55646179-6174-4652-9e6b-696361645f70,1*
G04 #@! TF.SameCoordinates,Original*
G04 #@! TF.FileFunction,Copper,L3,Inr*
G04 #@! TF.FilePolarity,Positive*
%FSLAX46Y46*%
G04 Gerber Fmt 4.6, Leading zero omitted, Abs format (unit mm)*
G04 Created by KiCad (PCBNEW 9.0.4) date 2025-09-13 12:43:22*
%MOMM*%
%LPD*%
G01*
G04 APERTURE LIST*
G04 #@! TA.AperFunction,ComponentPad*
%ADD10R,1.700000X1.700000*%
G04 #@! TD*
G04 #@! TA.AperFunction,ComponentPad*
%ADD11C,1.700000*%
G04 #@! TD*
G04 #@! TA.AperFunction,ComponentPad*
%ADD12O,2.100000X1.050000*%
G04 #@! TD*
G04 #@! TA.AperFunction,ComponentPad*
%ADD13O,1.850000X0.950000*%
G04 #@! TD*
G04 #@! TA.AperFunction,ComponentPad*
%ADD14O,1.900000X1.000000*%
G04 #@! TD*
G04 #@! TA.AperFunction,ViaPad*
%ADD15C,0.730000*%
G04 #@! TD*
G04 #@! TA.AperFunction,ViaPad*
%ADD16C,0.700000*%
G04 #@! TD*
G04 #@! TA.AperFunction,ViaPad*
%ADD17C,0.710000*%
G04 #@! TD*
G04 APERTURE END LIST*
D10*
X138240000Y-129600000D03*
D11*
X138240000Y-127060000D03*
X138240000Y-124520000D03*
D10*
X120760000Y-121800000D03*
D11*
X123300000Y-121800000D03*
X125840000Y-121800000D03*
D10*
X158920000Y-74500000D03*
D11*
X161460000Y-74500000D03*
X164000000Y-74500000D03*
X166540000Y-74500000D03*
D10*
X134700000Y-129600000D03*
D11*
X134700000Y-127060000D03*
X134700000Y-124520000D03*
D10*
X120760000Y-118260000D03*
D11*
X123300000Y-118260000D03*
X125840000Y-118260000D03*
D10*
X131160000Y-129590000D03*
D11*
X131160000Y-127050000D03*
X131160000Y-124510000D03*
D10*
X120760000Y-111180000D03*
D11*
X123300000Y-111180000D03*
X125840000Y-111180000D03*
D12*
X171620000Y-100020000D03*
X171620000Y-91380000D03*
D13*
X175800000Y-100020000D03*
D14*
X175800000Y-91380000D03*
D10*
X120760000Y-114720000D03*
D11*
X123300000Y-114720000D03*
X125840000Y-114720000D03*
D10*
X141780000Y-129590000D03*
D11*
X141780000Y-127050000D03*
X141780000Y-124510000D03*
D15*
X123400000Y-96400000D03*
D16*
X136300000Y-92300000D03*
D15*
X160900000Y-90400000D03*
D16*
X151300000Y-109500000D03*
X141637500Y-107868750D03*
D15*
X159900000Y-81700000D03*
X155400000Y-73400000D03*
X176200000Y-96800000D03*
X132500000Y-90000000D03*
X132600000Y-73600000D03*
X143000000Y-118500000D03*
X167800000Y-76800000D03*
X133200000Y-93900000D03*
X156600000Y-109100000D03*
X132500000Y-101300000D03*
D16*
X171368750Y-84631250D03*
D15*
X132600000Y-96300000D03*
X157900000Y-77700000D03*
D16*
X145800000Y-122200000D03*
D15*
X172500000Y-114200000D03*
D16*
X164900000Y-118900000D03*
D15*
X137500000Y-73400000D03*
X154400000Y-75400000D03*
D16*
X126700000Y-102100000D03*
D15*
X135800000Y-119500000D03*
X146400000Y-101000000D03*
X149400000Y-83825000D03*
X153400000Y-73400000D03*
X161900000Y-92400000D03*
X167300000Y-108100000D03*
X170800000Y-78800000D03*
X144800000Y-96800000D03*
X158900000Y-79700000D03*
X140500000Y-73500000D03*
X162265000Y-128085000D03*
X145800000Y-95300000D03*
X136700000Y-95300000D03*
X128600000Y-73600000D03*
X133000000Y-110100000D03*
X150300000Y-114000000D03*
D16*
X146165000Y-74737500D03*
D15*
X171200000Y-121500000D03*
X131500000Y-88000000D03*
X160900000Y-94400000D03*
D16*
X120000000Y-102500000D03*
X162410000Y-126840000D03*
D15*
X172500000Y-118200000D03*
X132300000Y-119900000D03*
X139600000Y-118600000D03*
X141500000Y-75500000D03*
X134000000Y-97900000D03*
X147900000Y-97400000D03*
X133400000Y-122000000D03*
X132400000Y-116900000D03*
X145600000Y-98500000D03*
X142400000Y-76300000D03*
X171300000Y-108100000D03*
X168800000Y-78800000D03*
D16*
X154800000Y-127500000D03*
X142800000Y-86400000D03*
X157800000Y-94900000D03*
D15*
X133300000Y-83400000D03*
X135500000Y-73400000D03*
X145000000Y-83200000D03*
X161500000Y-104700000D03*
X163700000Y-113000000D03*
X136800000Y-121600000D03*
X128900000Y-116500000D03*
X156400000Y-75400000D03*
X128800000Y-120000000D03*
D16*
X145800000Y-121000000D03*
X155900000Y-127100000D03*
X166500000Y-91800000D03*
X166600000Y-95800000D03*
D15*
X146900000Y-73400000D03*
X165700000Y-87300000D03*
X155500000Y-113400000D03*
X138300000Y-95600000D03*
X136000000Y-97900000D03*
D16*
X150900000Y-89200000D03*
D15*
X159900000Y-77700000D03*
X131000000Y-93400000D03*
X168700000Y-89300000D03*
X168700000Y-85300000D03*
X169800000Y-76800000D03*
X136300000Y-85400000D03*
D16*
X166500000Y-90700000D03*
D15*
X150400000Y-75400000D03*
D16*
X162180000Y-126000000D03*
D15*
X142100000Y-99300000D03*
X135300000Y-83400000D03*
X162900000Y-79700000D03*
X160900000Y-79700000D03*
X126600000Y-73600000D03*
D16*
X130700000Y-102100000D03*
X149300000Y-107600000D03*
X136339000Y-74700000D03*
D15*
X130100000Y-80100000D03*
D16*
X170067500Y-102500000D03*
D15*
X157900000Y-81700000D03*
X169500000Y-112200000D03*
X157800000Y-107200000D03*
X166200000Y-112600000D03*
X143700000Y-98300000D03*
X160900000Y-86400000D03*
D16*
X151400000Y-111400000D03*
X123000000Y-89525000D03*
D15*
X134100000Y-80100000D03*
X131600000Y-75600000D03*
X132100000Y-79100000D03*
X161900000Y-81700000D03*
X127600000Y-75600000D03*
X165300000Y-107100000D03*
X130600000Y-73600000D03*
X169500000Y-116200000D03*
D16*
X130600000Y-85000000D03*
D15*
X133500000Y-88000000D03*
D16*
X163300000Y-128100000D03*
D15*
X129000000Y-93400000D03*
X123400000Y-100400000D03*
X164700000Y-85300000D03*
X169100000Y-82400000D03*
X176200000Y-92800000D03*
X166700000Y-89300000D03*
X177200000Y-94800000D03*
D16*
X130600000Y-83400000D03*
D15*
X149400000Y-73400000D03*
X157000000Y-110900000D03*
X132700000Y-99200000D03*
D16*
X155900000Y-87500000D03*
D15*
X126800000Y-129900000D03*
X171500000Y-112200000D03*
X125000000Y-93400000D03*
X129100000Y-112900000D03*
X134300000Y-85400000D03*
D16*
X124800000Y-101600000D03*
X133800000Y-99600000D03*
D15*
X161900000Y-88400000D03*
X170500000Y-114200000D03*
X134700000Y-95100000D03*
X152400000Y-75400000D03*
X134600000Y-111600000D03*
D16*
X152500000Y-83300000D03*
X165100000Y-128700000D03*
D15*
X161100000Y-98400000D03*
X140300000Y-121500000D03*
X127000000Y-93400000D03*
X148100000Y-95800000D03*
D16*
X130300000Y-91500000D03*
D15*
X142500000Y-73500000D03*
X144900000Y-73400000D03*
X138000000Y-97900000D03*
X177200000Y-98800000D03*
X170500000Y-118200000D03*
X164700000Y-89300000D03*
X127300000Y-125000000D03*
X169700000Y-87300000D03*
X162270000Y-124700000D03*
X161900000Y-77700000D03*
X123400000Y-94400000D03*
D16*
X166400000Y-99700000D03*
X164100000Y-128700000D03*
D15*
X151400000Y-73400000D03*
X129600000Y-75600000D03*
X133600000Y-75600000D03*
X128100000Y-79100000D03*
X139500000Y-75500000D03*
X169700000Y-109800000D03*
X163600000Y-110100000D03*
X134500000Y-90000000D03*
D16*
X145800000Y-119700000D03*
D15*
X135200000Y-117100000D03*
D16*
X155900000Y-128200000D03*
D15*
X158400000Y-112600000D03*
X161000000Y-107500000D03*
D16*
X166400000Y-100800000D03*
D15*
X171500000Y-116200000D03*
X123400000Y-98400000D03*
X142900000Y-95900000D03*
D16*
X147300000Y-119700000D03*
D15*
X160700000Y-110100000D03*
X166700000Y-85300000D03*
D16*
X128700000Y-102100000D03*
D15*
X169300000Y-107100000D03*
X136000000Y-113200000D03*
X167700000Y-87300000D03*
D17*
X142300000Y-77600000D03*
X153800000Y-79900000D03*
D16*
X152200000Y-89300000D03*
D17*
X134900000Y-77600000D03*
X163200000Y-115900000D03*
D16*
X157800000Y-93400000D03*
X143037500Y-107868750D03*
X155900000Y-125850000D03*
X133800000Y-101000000D03*
X154600000Y-125200000D03*
X136400000Y-93500000D03*
X155900000Y-124500000D03*
X155900000Y-86300000D03*
X164900000Y-120100000D03*
X125750000Y-79450000D03*
X150900000Y-107600000D03*
D15*
X142300000Y-81600000D03*
X141300000Y-86400000D03*
D16*
X137500000Y-74600000D03*
X149400000Y-85000000D03*
D17*
X120900000Y-87700000D03*
D16*
X147665000Y-74737500D03*
D17*
X153300000Y-114900000D03*
D16*
X141900000Y-97400000D03*
X133100000Y-92100000D03*
X143600000Y-94500000D03*
D17*
X138500000Y-88900000D03*
D16*
X166400000Y-98500000D03*
X166500000Y-94100000D03*
X166400000Y-97500000D03*
X168900000Y-123400000D03*
X167400000Y-123400000D03*
X164600000Y-95800000D03*
X166500000Y-93020000D03*
X166400000Y-130600000D03*
X150800000Y-121100000D03*
D17*
X171200000Y-123100000D03*
D16*
X171400000Y-109400000D03*
X150800000Y-119700000D03*
X150800000Y-122500000D03*
X149400000Y-119700000D03*
X167900000Y-130600000D03*
X171468750Y-86131250D03*
D17*
X152400000Y-103100000D03*
X166250000Y-118150000D03*
X170400000Y-83900000D03*
X161100000Y-99500000D03*
D16*
X146700000Y-113800000D03*
D17*
X147000000Y-102400000D03*
X144900000Y-100200000D03*
X134300000Y-104000000D03*
X131700000Y-107800000D03*
X143100000Y-102200000D03*
X144000000Y-101200000D03*
X132600000Y-105900000D03*
X160100000Y-98100000D03*
X169600000Y-81600000D03*
X149800000Y-79000000D03*
X145000000Y-94500000D03*
X139500000Y-79100000D03*
D15*
X137700000Y-85500000D03*
D17*
X149000000Y-97600000D03*
X159400000Y-113400000D03*
X157600000Y-113400000D03*
X148000000Y-98500000D03*
X153600000Y-83400000D03*
X146800000Y-94700000D03*
X146200000Y-83200000D03*
G04 #@! TA.AperFunction,Conductor*
G36*
X175203243Y-72350669D02*
G01*
X175522725Y-72367413D01*
X175535633Y-72368770D01*
X175848399Y-72418307D01*
X175861083Y-72421002D01*
X176166978Y-72502967D01*
X176179317Y-72506977D01*
X176474953Y-72620461D01*
X176486796Y-72625733D01*
X176728685Y-72748981D01*
X176768964Y-72769505D01*
X176780204Y-72775995D01*
X177045776Y-72948459D01*
X177056277Y-72956088D01*
X177302380Y-73155378D01*
X177312025Y-73164063D01*
X177535936Y-73387974D01*
X177544621Y-73397619D01*
X177743911Y-73643722D01*
X177751540Y-73654223D01*
X177924004Y-73919795D01*
X177930494Y-73931035D01*
X178009971Y-74087017D01*
X178063968Y-74192993D01*
X178074261Y-74213193D01*
X178079540Y-74225051D01*
X178193022Y-74520683D01*
X178197033Y-74533026D01*
X178278995Y-74838910D01*
X178281693Y-74851606D01*
X178331229Y-75164366D01*
X178332586Y-75177274D01*
X178349330Y-75496756D01*
X178349500Y-75503246D01*
X178349500Y-128496753D01*
X178349330Y-128503243D01*
X178332586Y-128822725D01*
X178331229Y-128835633D01*
X178281693Y-129148393D01*
X178278995Y-129161089D01*
X178197033Y-129466973D01*
X178193022Y-129479316D01*
X178079540Y-129774948D01*
X178074261Y-129786806D01*
X177930494Y-130068964D01*
X177924004Y-130080204D01*
X177751540Y-130345776D01*
X177743911Y-130356277D01*
X177544621Y-130602380D01*
X177535936Y-130612025D01*
X177312025Y-130835936D01*
X177302380Y-130844621D01*
X177056277Y-131043911D01*
X177045776Y-131051540D01*
X176780204Y-131224004D01*
X176768964Y-131230494D01*
X176486806Y-131374261D01*
X176474948Y-131379540D01*
X176179316Y-131493022D01*
X176166973Y-131497033D01*
X175861089Y-131578995D01*
X175848393Y-131581693D01*
X175535633Y-131631229D01*
X175522725Y-131632586D01*
X175203244Y-131649330D01*
X175196754Y-131649500D01*
X122103246Y-131649500D01*
X122096756Y-131649330D01*
X121777274Y-131632586D01*
X121764366Y-131631229D01*
X121451606Y-131581693D01*
X121438910Y-131578995D01*
X121133026Y-131497033D01*
X121120683Y-131493022D01*
X120825051Y-131379540D01*
X120813193Y-131374261D01*
X120531035Y-131230494D01*
X120519795Y-131224004D01*
X120254223Y-131051540D01*
X120243722Y-131043911D01*
X119997619Y-130844621D01*
X119987974Y-130835936D01*
X119764063Y-130612025D01*
X119755378Y-130602380D01*
X119556088Y-130356277D01*
X119548459Y-130345776D01*
X119375995Y-130080204D01*
X119369505Y-130068964D01*
X119348981Y-130028685D01*
X119225733Y-129786796D01*
X119220459Y-129774948D01*
X119196737Y-129713151D01*
X119106977Y-129479316D01*
X119102966Y-129466973D01*
X119070767Y-129346807D01*
X119021002Y-129161083D01*
X119018306Y-129148393D01*
X119016038Y-129134075D01*
X118968770Y-128835633D01*
X118967413Y-128822725D01*
X118950670Y-128503243D01*
X118950500Y-128496753D01*
X118950500Y-128374785D01*
X120189500Y-128374785D01*
X120189500Y-128625214D01*
X120189501Y-128625231D01*
X120222188Y-128873516D01*
X120287010Y-129115432D01*
X120382845Y-129346798D01*
X120382849Y-129346807D01*
X120405766Y-129386501D01*
X120508069Y-129563694D01*
X120508071Y-129563697D01*
X120508072Y-129563698D01*
X120660526Y-129762381D01*
X120660532Y-129762388D01*
X120837611Y-129939467D01*
X120837618Y-129939473D01*
X120916628Y-130000099D01*
X121036306Y-130091931D01*
X121253195Y-130217152D01*
X121484572Y-130312991D01*
X121726480Y-130377811D01*
X121974779Y-130410500D01*
X121974786Y-130410500D01*
X122225214Y-130410500D01*
X122225221Y-130410500D01*
X122473520Y-130377811D01*
X122715428Y-130312991D01*
X122946805Y-130217152D01*
X123163694Y-130091931D01*
X123362383Y-129939472D01*
X123539472Y-129762383D01*
X123691931Y-129563694D01*
X123817152Y-129346805D01*
X123912991Y-129115428D01*
X123977811Y-128873520D01*
X124000372Y-128702155D01*
X124001688Y-128692155D01*
X129810000Y-128692155D01*
X129810000Y-129340000D01*
X130726988Y-129340000D01*
X130694075Y-129397007D01*
X130660000Y-129524174D01*
X130660000Y-129655826D01*
X130694075Y-129782993D01*
X130726988Y-129840000D01*
X129810000Y-129840000D01*
X129810000Y-130487844D01*
X129816401Y-130547372D01*
X129816403Y-130547379D01*
X129866645Y-130682086D01*
X129866649Y-130682093D01*
X129952809Y-130797187D01*
X129952812Y-130797190D01*
X130067906Y-130883350D01*
X130067913Y-130883354D01*
X130202620Y-130933596D01*
X130202627Y-130933598D01*
X130262155Y-130939999D01*
X130262172Y-130940000D01*
X130910000Y-130940000D01*
X130910000Y-130023012D01*
X130967007Y-130055925D01*
X131094174Y-130090000D01*
X131225826Y-130090000D01*
X131352993Y-130055925D01*
X131410000Y-130023012D01*
X131410000Y-130940000D01*
X132057828Y-130940000D01*
X132057844Y-130939999D01*
X132117372Y-130933598D01*
X132117379Y-130933596D01*
X132252086Y-130883354D01*
X132252093Y-130883350D01*
X132367187Y-130797190D01*
X132367190Y-130797187D01*
X132453350Y-130682093D01*
X132453354Y-130682086D01*
X132503596Y-130547379D01*
X132503598Y-130547372D01*
X132509999Y-130487844D01*
X132510000Y-130487827D01*
X132510000Y-129840000D01*
X131593012Y-129840000D01*
X131625925Y-129782993D01*
X131660000Y-129655826D01*
X131660000Y-129524174D01*
X131625925Y-129397007D01*
X131593012Y-129340000D01*
X132510000Y-129340000D01*
X132510000Y-128702155D01*
X133350000Y-128702155D01*
X133350000Y-129350000D01*
X134266988Y-129350000D01*
X134234075Y-129407007D01*
X134200000Y-129534174D01*
X134200000Y-129665826D01*
X134234075Y-129792993D01*
X134266988Y-129850000D01*
X133350000Y-129850000D01*
X133350000Y-130497844D01*
X133356401Y-130557372D01*
X133356403Y-130557379D01*
X133406645Y-130692086D01*
X133406649Y-130692093D01*
X133492809Y-130807187D01*
X133492812Y-130807190D01*
X133607906Y-130893350D01*
X133607913Y-130893354D01*
X133742620Y-130943596D01*
X133742627Y-130943598D01*
X133802155Y-130949999D01*
X133802172Y-130950000D01*
X134450000Y-130950000D01*
X134450000Y-130033012D01*
X134507007Y-130065925D01*
X134634174Y-130100000D01*
X134765826Y-130100000D01*
X134892993Y-130065925D01*
X134950000Y-130033012D01*
X134950000Y-130950000D01*
X135597828Y-130950000D01*
X135597844Y-130949999D01*
X135657372Y-130943598D01*
X135657379Y-130943596D01*
X135792086Y-130893354D01*
X135792093Y-130893350D01*
X135907187Y-130807190D01*
X135907190Y-130807187D01*
X135993350Y-130692093D01*
X135993354Y-130692086D01*
X136043596Y-130557379D01*
X136043598Y-130557372D01*
X136049999Y-130497844D01*
X136050000Y-130497827D01*
X136050000Y-129850000D01*
X135133012Y-129850000D01*
X135165925Y-129792993D01*
X135200000Y-129665826D01*
X135200000Y-129534174D01*
X135165925Y-129407007D01*
X135133012Y-129350000D01*
X136050000Y-129350000D01*
X136050000Y-128702172D01*
X136049999Y-128702155D01*
X136890000Y-128702155D01*
X136890000Y-129350000D01*
X137806988Y-129350000D01*
X137774075Y-129407007D01*
X137740000Y-129534174D01*
X137740000Y-129665826D01*
X137774075Y-129792993D01*
X137806988Y-129850000D01*
X136890000Y-129850000D01*
X136890000Y-130497844D01*
X136896401Y-130557372D01*
X136896403Y-130557379D01*
X136946645Y-130692086D01*
X136946649Y-130692093D01*
X137032809Y-130807187D01*
X137032812Y-130807190D01*
X137147906Y-130893350D01*
X137147913Y-130893354D01*
X137282620Y-130943596D01*
X137282627Y-130943598D01*
X137342155Y-130949999D01*
X137342172Y-130950000D01*
X137990000Y-130950000D01*
X137990000Y-130033012D01*
X138047007Y-130065925D01*
X138174174Y-130100000D01*
X138305826Y-130100000D01*
X138432993Y-130065925D01*
X138490000Y-130033012D01*
X138490000Y-130950000D01*
X139137828Y-130950000D01*
X139137844Y-130949999D01*
X139197372Y-130943598D01*
X139197379Y-130943596D01*
X139332086Y-130893354D01*
X139332093Y-130893350D01*
X139447187Y-130807190D01*
X139447190Y-130807187D01*
X139533350Y-130692093D01*
X139533354Y-130692086D01*
X139583596Y-130557379D01*
X139583598Y-130557372D01*
X139589999Y-130497844D01*
X139590000Y-130497827D01*
X139590000Y-129850000D01*
X138673012Y-129850000D01*
X138705925Y-129792993D01*
X138740000Y-129665826D01*
X138740000Y-129534174D01*
X138705925Y-129407007D01*
X138673012Y-129350000D01*
X139590000Y-129350000D01*
X139590000Y-128702172D01*
X139589999Y-128702161D01*
X139589993Y-128702102D01*
X139589993Y-128702100D01*
X139588924Y-128692155D01*
X140430000Y-128692155D01*
X140430000Y-129340000D01*
X141346988Y-129340000D01*
X141314075Y-129397007D01*
X141280000Y-129524174D01*
X141280000Y-129655826D01*
X141314075Y-129782993D01*
X141346988Y-129840000D01*
X140430000Y-129840000D01*
X140430000Y-130487844D01*
X140436401Y-130547372D01*
X140436403Y-130547379D01*
X140486645Y-130682086D01*
X140486649Y-130682093D01*
X140572809Y-130797187D01*
X140572812Y-130797190D01*
X140687906Y-130883350D01*
X140687913Y-130883354D01*
X140822620Y-130933596D01*
X140822627Y-130933598D01*
X140882155Y-130939999D01*
X140882172Y-130940000D01*
X141530000Y-130940000D01*
X141530000Y-130023012D01*
X141587007Y-130055925D01*
X141714174Y-130090000D01*
X141845826Y-130090000D01*
X141972993Y-130055925D01*
X142030000Y-130023012D01*
X142030000Y-130940000D01*
X142677828Y-130940000D01*
X142677844Y-130939999D01*
X142737372Y-130933598D01*
X142737379Y-130933596D01*
X142872086Y-130883354D01*
X142872093Y-130883350D01*
X142987187Y-130797190D01*
X142987190Y-130797187D01*
X143073350Y-130682093D01*
X143073354Y-130682086D01*
X143123596Y-130547379D01*
X143123598Y-130547373D01*
X143125732Y-130527525D01*
X165849500Y-130527525D01*
X165849500Y-130672475D01*
X165885597Y-130807190D01*
X165887017Y-130812488D01*
X165959488Y-130938011D01*
X165959490Y-130938013D01*
X165959491Y-130938015D01*
X166061985Y-131040509D01*
X166061986Y-131040510D01*
X166061988Y-131040511D01*
X166187511Y-131112982D01*
X166187512Y-131112982D01*
X166187515Y-131112984D01*
X166327525Y-131150500D01*
X166327528Y-131150500D01*
X166472472Y-131150500D01*
X166472475Y-131150500D01*
X166612485Y-131112984D01*
X166738015Y-131040509D01*
X166840509Y-130938015D01*
X166912984Y-130812485D01*
X166950500Y-130672475D01*
X166950500Y-130527525D01*
X167349500Y-130527525D01*
X167349500Y-130672475D01*
X167385597Y-130807190D01*
X167387017Y-130812488D01*
X167459488Y-130938011D01*
X167459490Y-130938013D01*
X167459491Y-130938015D01*
X167561985Y-131040509D01*
X167561986Y-131040510D01*
X167561988Y-131040511D01*
X167687511Y-131112982D01*
X167687512Y-131112982D01*
X167687515Y-131112984D01*
X167827525Y-131150500D01*
X167827528Y-131150500D01*
X167972472Y-131150500D01*
X167972475Y-131150500D01*
X168112485Y-131112984D01*
X168238015Y-131040509D01*
X168340509Y-130938015D01*
X168412984Y-130812485D01*
X168450500Y-130672475D01*
X168450500Y-130527525D01*
X168412984Y-130387515D01*
X168407381Y-130377811D01*
X168340511Y-130261988D01*
X168340506Y-130261982D01*
X168238017Y-130159493D01*
X168238011Y-130159488D01*
X168112488Y-130087017D01*
X168112489Y-130087017D01*
X168101006Y-130083940D01*
X167972475Y-130049500D01*
X167827525Y-130049500D01*
X167698993Y-130083940D01*
X167687511Y-130087017D01*
X167561988Y-130159488D01*
X167561982Y-130159493D01*
X167459493Y-130261982D01*
X167459488Y-130261988D01*
X167387017Y-130387511D01*
X167387016Y-130387515D01*
X167349500Y-130527525D01*
X166950500Y-130527525D01*
X166912984Y-130387515D01*
X166907381Y-130377811D01*
X166840511Y-130261988D01*
X166840506Y-130261982D01*
X166738017Y-130159493D01*
X166738011Y-130159488D01*
X166612488Y-130087017D01*
X166612489Y-130087017D01*
X166601006Y-130083940D01*
X166472475Y-130049500D01*
X166327525Y-130049500D01*
X166198993Y-130083940D01*
X166187511Y-130087017D01*
X166061988Y-130159488D01*
X166061982Y-130159493D01*
X165959493Y-130261982D01*
X165959488Y-130261988D01*
X165887017Y-130387511D01*
X165887016Y-130387515D01*
X165849500Y-130527525D01*
X143125732Y-130527525D01*
X143128031Y-130506145D01*
X143128031Y-130506143D01*
X143129999Y-130487828D01*
X143130000Y-130487827D01*
X143130000Y-129840000D01*
X142213012Y-129840000D01*
X142245925Y-129782993D01*
X142280000Y-129655826D01*
X142280000Y-129524174D01*
X142245925Y-129397007D01*
X142213012Y-129340000D01*
X143130000Y-129340000D01*
X143130000Y-128692172D01*
X143129999Y-128692155D01*
X143123598Y-128632627D01*
X143123596Y-128632620D01*
X143073354Y-128497913D01*
X143073352Y-128497911D01*
X143033767Y-128445031D01*
X143033766Y-128445030D01*
X142987187Y-128382809D01*
X142976468Y-128374785D01*
X173289500Y-128374785D01*
X173289500Y-128625214D01*
X173289501Y-128625231D01*
X173322188Y-128873516D01*
X173387010Y-129115432D01*
X173482845Y-129346798D01*
X173482849Y-129346807D01*
X173505766Y-129386501D01*
X173608069Y-129563694D01*
X173608071Y-129563697D01*
X173608072Y-129563698D01*
X173760526Y-129762381D01*
X173760532Y-129762388D01*
X173937611Y-129939467D01*
X173937618Y-129939473D01*
X174016628Y-130000099D01*
X174136306Y-130091931D01*
X174353195Y-130217152D01*
X174584572Y-130312991D01*
X174826480Y-130377811D01*
X175074779Y-130410500D01*
X175074786Y-130410500D01*
X175325214Y-130410500D01*
X175325221Y-130410500D01*
X175573520Y-130377811D01*
X175815428Y-130312991D01*
X176046805Y-130217152D01*
X176263694Y-130091931D01*
X176462383Y-129939472D01*
X176639472Y-129762383D01*
X176791931Y-129563694D01*
X176917152Y-129346805D01*
X177012991Y-129115428D01*
X177077811Y-128873520D01*
X177110500Y-128625221D01*
X177110500Y-128374779D01*
X177077811Y-128126480D01*
X177012991Y-127884572D01*
X176917152Y-127653195D01*
X176791931Y-127436306D01*
X176639472Y-127237617D01*
X176639467Y-127237611D01*
X176462388Y-127060532D01*
X176462381Y-127060526D01*
X176263698Y-126908072D01*
X176263697Y-126908071D01*
X176263694Y-126908069D01*
X176046805Y-126782848D01*
X176046798Y-126782845D01*
X175815432Y-126687010D01*
X175573516Y-126622188D01*
X175325231Y-126589501D01*
X175325226Y-126589500D01*
X175325221Y-126589500D01*
X175074779Y-126589500D01*
X175074773Y-126589500D01*
X175074768Y-126589501D01*
X174826483Y-126622188D01*
X174584567Y-126687010D01*
X174353201Y-126782845D01*
X174353192Y-126782849D01*
X174136301Y-126908072D01*
X173937618Y-127060526D01*
X173937611Y-127060532D01*
X173760532Y-127237611D01*
X173760526Y-127237618D01*
X173608072Y-127436301D01*
X173482849Y-127653192D01*
X173482845Y-127653201D01*
X173387010Y-127884567D01*
X173322188Y-128126483D01*
X173289501Y-128374768D01*
X173289500Y-128374785D01*
X142976468Y-128374785D01*
X142872093Y-128296649D01*
X142872086Y-128296645D01*
X142737379Y-128246403D01*
X142737372Y-128246401D01*
X142677844Y-128240000D01*
X142275565Y-128240000D01*
X142208526Y-128220315D01*
X142162771Y-128167511D01*
X142152827Y-128098353D01*
X142181852Y-128034797D01*
X142228112Y-128001439D01*
X142233608Y-127999162D01*
X142277598Y-127980941D01*
X142449655Y-127865977D01*
X142595977Y-127719655D01*
X142710941Y-127547598D01*
X142790130Y-127356420D01*
X142830500Y-127153465D01*
X142830500Y-126946535D01*
X142790130Y-126743580D01*
X142710941Y-126552402D01*
X142595977Y-126380345D01*
X142595975Y-126380342D01*
X142449657Y-126234024D01*
X142292564Y-126129059D01*
X142277598Y-126119059D01*
X142086420Y-126039870D01*
X142086412Y-126039868D01*
X141883469Y-125999500D01*
X141883465Y-125999500D01*
X141676535Y-125999500D01*
X141676530Y-125999500D01*
X141473587Y-126039868D01*
X141473579Y-126039870D01*
X141282403Y-126119058D01*
X141110342Y-126234024D01*
X140964024Y-126380342D01*
X140849058Y-126552403D01*
X140769870Y-126743579D01*
X140769868Y-126743587D01*
X140729500Y-126946530D01*
X140729500Y-127153469D01*
X140769868Y-127356412D01*
X140769870Y-127356420D01*
X140849059Y-127547598D01*
X140855741Y-127557598D01*
X140964024Y-127719657D01*
X141110342Y-127865975D01*
X141110345Y-127865977D01*
X141282402Y-127980941D01*
X141306544Y-127990941D01*
X141331888Y-128001439D01*
X141386291Y-128045280D01*
X141408356Y-128111574D01*
X141391077Y-128179274D01*
X141339939Y-128226884D01*
X141284435Y-128240000D01*
X140882155Y-128240000D01*
X140822627Y-128246401D01*
X140822620Y-128246403D01*
X140687913Y-128296645D01*
X140687906Y-128296649D01*
X140572812Y-128382809D01*
X140572809Y-128382812D01*
X140486649Y-128497906D01*
X140486645Y-128497913D01*
X140436403Y-128632620D01*
X140436401Y-128632627D01*
X140430000Y-128692155D01*
X139588924Y-128692155D01*
X139583598Y-128642626D01*
X139583596Y-128642620D01*
X139533354Y-128507913D01*
X139533350Y-128507906D01*
X139447190Y-128392812D01*
X139447187Y-128392809D01*
X139332093Y-128306649D01*
X139332086Y-128306645D01*
X139197379Y-128256403D01*
X139197372Y-128256401D01*
X139137844Y-128250000D01*
X138735565Y-128250000D01*
X138668526Y-128230315D01*
X138622771Y-128177511D01*
X138612827Y-128108353D01*
X138641852Y-128044797D01*
X138688112Y-128011439D01*
X138693608Y-128009162D01*
X138737598Y-127990941D01*
X138909655Y-127875977D01*
X139055977Y-127729655D01*
X139170941Y-127557598D01*
X139250130Y-127366420D01*
X139290500Y-127163465D01*
X139290500Y-126956535D01*
X139250130Y-126753580D01*
X139170941Y-126562402D01*
X139055977Y-126390345D01*
X139055975Y-126390342D01*
X138909657Y-126244024D01*
X138823626Y-126186541D01*
X138737598Y-126129059D01*
X138546420Y-126049870D01*
X138546412Y-126049868D01*
X138343469Y-126009500D01*
X138343465Y-126009500D01*
X138136535Y-126009500D01*
X138136530Y-126009500D01*
X137933587Y-126049868D01*
X137933579Y-126049870D01*
X137742403Y-126129058D01*
X137570342Y-126244024D01*
X137424024Y-126390342D01*
X137309058Y-126562403D01*
X137229870Y-126753579D01*
X137229868Y-126753587D01*
X137189500Y-126956530D01*
X137189500Y-127163469D01*
X137229868Y-127366412D01*
X137229870Y-127366420D01*
X137309058Y-127557596D01*
X137424024Y-127729657D01*
X137570342Y-127875975D01*
X137570345Y-127875977D01*
X137742402Y-127990941D01*
X137781993Y-128007340D01*
X137791888Y-128011439D01*
X137846291Y-128055280D01*
X137868356Y-128121574D01*
X137851077Y-128189274D01*
X137799939Y-128236884D01*
X137744435Y-128250000D01*
X137342155Y-128250000D01*
X137282627Y-128256401D01*
X137282620Y-128256403D01*
X137147913Y-128306645D01*
X137147906Y-128306649D01*
X137032812Y-128392809D01*
X137032809Y-128392812D01*
X136946649Y-128507906D01*
X136946645Y-128507913D01*
X136896403Y-128642620D01*
X136896401Y-128642627D01*
X136890000Y-128702155D01*
X136049999Y-128702155D01*
X136043598Y-128642627D01*
X136043596Y-128642620D01*
X135993354Y-128507913D01*
X135993350Y-128507906D01*
X135907190Y-128392812D01*
X135907187Y-128392809D01*
X135792093Y-128306649D01*
X135792086Y-128306645D01*
X135657379Y-128256403D01*
X135657372Y-128256401D01*
X135597844Y-128250000D01*
X135195565Y-128250000D01*
X135128526Y-128230315D01*
X135082771Y-128177511D01*
X135072827Y-128108353D01*
X135101852Y-128044797D01*
X135148112Y-128011439D01*
X135153608Y-128009162D01*
X135197598Y-127990941D01*
X135369655Y-127875977D01*
X135515977Y-127729655D01*
X135630941Y-127557598D01*
X135710130Y-127366420D01*
X135750500Y-127163465D01*
X135750500Y-126956535D01*
X135710130Y-126753580D01*
X135630941Y-126562402D01*
X135515977Y-126390345D01*
X135515975Y-126390342D01*
X135369657Y-126244024D01*
X135283626Y-126186541D01*
X135197598Y-126129059D01*
X135006420Y-126049870D01*
X135006412Y-126049868D01*
X134803469Y-126009500D01*
X134803465Y-126009500D01*
X134596535Y-126009500D01*
X134596530Y-126009500D01*
X134393587Y-126049868D01*
X134393579Y-126049870D01*
X134202403Y-126129058D01*
X134030342Y-126244024D01*
X133884024Y-126390342D01*
X133769058Y-126562403D01*
X133689870Y-126753579D01*
X133689868Y-126753587D01*
X133649500Y-126956530D01*
X133649500Y-127163469D01*
X133689868Y-127366412D01*
X133689870Y-127366420D01*
X133769058Y-127557596D01*
X133884024Y-127729657D01*
X134030342Y-127875975D01*
X134030345Y-127875977D01*
X134202402Y-127990941D01*
X134241993Y-128007340D01*
X134251888Y-128011439D01*
X134306291Y-128055280D01*
X134328356Y-128121574D01*
X134311077Y-128189274D01*
X134259939Y-128236884D01*
X134204435Y-128250000D01*
X133802155Y-128250000D01*
X133742627Y-128256401D01*
X133742620Y-128256403D01*
X133607913Y-128306645D01*
X133607906Y-128306649D01*
X133492812Y-128392809D01*
X133492809Y-128392812D01*
X133406649Y-128507906D01*
X133406645Y-128507913D01*
X133356403Y-128642620D01*
X133356401Y-128642627D01*
X133350000Y-128702155D01*
X132510000Y-128702155D01*
X132510000Y-128692172D01*
X132509999Y-128692155D01*
X132503598Y-128632627D01*
X132503596Y-128632620D01*
X132453354Y-128497913D01*
X132453350Y-128497906D01*
X132367190Y-128382812D01*
X132367187Y-128382809D01*
X132252093Y-128296649D01*
X132252086Y-128296645D01*
X132117379Y-128246403D01*
X132117372Y-128246401D01*
X132057844Y-128240000D01*
X131655565Y-128240000D01*
X131588526Y-128220315D01*
X131542771Y-128167511D01*
X131532827Y-128098353D01*
X131561852Y-128034797D01*
X131608112Y-128001439D01*
X131613608Y-127999162D01*
X131657598Y-127980941D01*
X131829655Y-127865977D01*
X131975977Y-127719655D01*
X132090941Y-127547598D01*
X132170130Y-127356420D01*
X132210500Y-127153465D01*
X132210500Y-126946535D01*
X132170130Y-126743580D01*
X132090941Y-126552402D01*
X131975977Y-126380345D01*
X131975975Y-126380342D01*
X131829657Y-126234024D01*
X131672564Y-126129059D01*
X131657598Y-126119059D01*
X131466420Y-126039870D01*
X131466412Y-126039868D01*
X131263469Y-125999500D01*
X131263465Y-125999500D01*
X131056535Y-125999500D01*
X131056530Y-125999500D01*
X130853587Y-126039868D01*
X130853579Y-126039870D01*
X130662403Y-126119058D01*
X130490342Y-126234024D01*
X130344024Y-126380342D01*
X130229058Y-126552403D01*
X130149870Y-126743579D01*
X130149868Y-126743587D01*
X130109500Y-126946530D01*
X130109500Y-127153469D01*
X130149868Y-127356412D01*
X130149870Y-127356420D01*
X130229059Y-127547598D01*
X130235741Y-127557598D01*
X130344024Y-127719657D01*
X130490342Y-127865975D01*
X130490345Y-127865977D01*
X130662402Y-127980941D01*
X130686544Y-127990941D01*
X130711888Y-128001439D01*
X130766291Y-128045280D01*
X130788356Y-128111574D01*
X130771077Y-128179274D01*
X130719939Y-128226884D01*
X130664435Y-128240000D01*
X130262155Y-128240000D01*
X130202627Y-128246401D01*
X130202620Y-128246403D01*
X130067913Y-128296645D01*
X130067906Y-128296649D01*
X129952812Y-128382809D01*
X129952809Y-128382812D01*
X129866649Y-128497906D01*
X129866645Y-128497913D01*
X129816403Y-128632620D01*
X129816401Y-128632627D01*
X129810000Y-128692155D01*
X124001688Y-128692155D01*
X124004254Y-128672666D01*
X124008208Y-128642627D01*
X124010500Y-128625221D01*
X124010500Y-128374779D01*
X123977811Y-128126480D01*
X123912991Y-127884572D01*
X123817152Y-127653195D01*
X123691931Y-127436306D01*
X123539472Y-127237617D01*
X123539467Y-127237611D01*
X123362388Y-127060532D01*
X123362381Y-127060526D01*
X123163698Y-126908072D01*
X123163697Y-126908071D01*
X123163694Y-126908069D01*
X122946805Y-126782848D01*
X122946798Y-126782845D01*
X122715432Y-126687010D01*
X122473516Y-126622188D01*
X122225231Y-126589501D01*
X122225226Y-126589500D01*
X122225221Y-126589500D01*
X121974779Y-126589500D01*
X121974773Y-126589500D01*
X121974768Y-126589501D01*
X121726483Y-126622188D01*
X121484567Y-126687010D01*
X121253201Y-126782845D01*
X121253192Y-126782849D01*
X121036301Y-126908072D01*
X120837618Y-127060526D01*
X120837611Y-127060532D01*
X120660532Y-127237611D01*
X120660526Y-127237618D01*
X120508072Y-127436301D01*
X120382849Y-127653192D01*
X120382845Y-127653201D01*
X120287010Y-127884567D01*
X120222188Y-128126483D01*
X120189501Y-128374768D01*
X120189500Y-128374785D01*
X118950500Y-128374785D01*
X118950500Y-125777525D01*
X155349500Y-125777525D01*
X155349500Y-125922475D01*
X155383635Y-126049868D01*
X155387017Y-126062488D01*
X155459488Y-126188011D01*
X155459490Y-126188013D01*
X155459491Y-126188015D01*
X155561985Y-126290509D01*
X155561986Y-126290510D01*
X155561988Y-126290511D01*
X155687511Y-126362982D01*
X155687512Y-126362982D01*
X155687515Y-126362984D01*
X155827525Y-126400500D01*
X155827528Y-126400500D01*
X155972472Y-126400500D01*
X155972475Y-126400500D01*
X156112485Y-126362984D01*
X156238015Y-126290509D01*
X156340509Y-126188015D01*
X156412984Y-126062485D01*
X156450500Y-125922475D01*
X156450500Y-125777525D01*
X156412984Y-125637515D01*
X156368519Y-125560500D01*
X156340511Y-125511988D01*
X156340506Y-125511982D01*
X156238017Y-125409493D01*
X156238011Y-125409488D01*
X156112488Y-125337017D01*
X156112489Y-125337017D01*
X156071287Y-125325977D01*
X155972475Y-125299500D01*
X155827525Y-125299500D01*
X155728713Y-125325977D01*
X155687511Y-125337017D01*
X155561988Y-125409488D01*
X155561982Y-125409493D01*
X155459493Y-125511982D01*
X155459488Y-125511988D01*
X155387017Y-125637511D01*
X155386214Y-125640508D01*
X155349500Y-125777525D01*
X118950500Y-125777525D01*
X118950500Y-124406530D01*
X130109500Y-124406530D01*
X130109500Y-124613469D01*
X130149868Y-124816412D01*
X130149870Y-124816420D01*
X130220738Y-124987511D01*
X130229059Y-125007598D01*
X130286541Y-125093626D01*
X130344024Y-125179657D01*
X130490342Y-125325975D01*
X130490345Y-125325977D01*
X130662402Y-125440941D01*
X130853580Y-125520130D01*
X131056530Y-125560499D01*
X131056534Y-125560500D01*
X131056535Y-125560500D01*
X131263466Y-125560500D01*
X131263467Y-125560499D01*
X131466420Y-125520130D01*
X131657598Y-125440941D01*
X131829655Y-125325977D01*
X131975977Y-125179655D01*
X132090941Y-125007598D01*
X132170130Y-124816420D01*
X132210500Y-124613465D01*
X132210500Y-124416530D01*
X133649500Y-124416530D01*
X133649500Y-124623469D01*
X133689868Y-124826412D01*
X133689870Y-124826420D01*
X133769058Y-125017596D01*
X133884024Y-125189657D01*
X134030342Y-125335975D01*
X134030345Y-125335977D01*
X134202402Y-125450941D01*
X134393580Y-125530130D01*
X134596530Y-125570499D01*
X134596534Y-125570500D01*
X134596535Y-125570500D01*
X134803466Y-125570500D01*
X134803467Y-125570499D01*
X135006420Y-125530130D01*
X135197598Y-125450941D01*
X135369655Y-125335977D01*
X135515977Y-125189655D01*
X135630941Y-125017598D01*
X135710130Y-124826420D01*
X135750500Y-124623465D01*
X135750500Y-124416535D01*
X135750499Y-124416530D01*
X137189500Y-124416530D01*
X137189500Y-124623469D01*
X137229868Y-124826412D01*
X137229870Y-124826420D01*
X137309058Y-125017596D01*
X137424024Y-125189657D01*
X137570342Y-125335975D01*
X137570345Y-125335977D01*
X137742402Y-125450941D01*
X137933580Y-125530130D01*
X138136530Y-125570499D01*
X138136534Y-125570500D01*
X138136535Y-125570500D01*
X138343466Y-125570500D01*
X138343467Y-125570499D01*
X138546420Y-125530130D01*
X138737598Y-125450941D01*
X138909655Y-125335977D01*
X139055977Y-125189655D01*
X139170941Y-125017598D01*
X139250130Y-124826420D01*
X139290500Y-124623465D01*
X139290500Y-124416535D01*
X139290499Y-124416530D01*
X139290499Y-124416527D01*
X139288510Y-124406530D01*
X140729500Y-124406530D01*
X140729500Y-124613469D01*
X140769868Y-124816412D01*
X140769870Y-124816420D01*
X140840738Y-124987511D01*
X140849059Y-125007598D01*
X140906541Y-125093626D01*
X140964024Y-125179657D01*
X141110342Y-125325975D01*
X141110345Y-125325977D01*
X141282402Y-125440941D01*
X141473580Y-125520130D01*
X141676530Y-125560499D01*
X141676534Y-125560500D01*
X141676535Y-125560500D01*
X141883466Y-125560500D01*
X141883467Y-125560499D01*
X142086420Y-125520130D01*
X142277598Y-125440941D01*
X142449655Y-125325977D01*
X142595977Y-125179655D01*
X142630809Y-125127525D01*
X154049500Y-125127525D01*
X154049500Y-125272475D01*
X154086213Y-125409488D01*
X154087017Y-125412488D01*
X154159488Y-125538011D01*
X154159490Y-125538013D01*
X154159491Y-125538015D01*
X154261985Y-125640509D01*
X154261986Y-125640510D01*
X154261988Y-125640511D01*
X154387511Y-125712982D01*
X154387512Y-125712982D01*
X154387515Y-125712984D01*
X154527525Y-125750500D01*
X154527528Y-125750500D01*
X154672472Y-125750500D01*
X154672475Y-125750500D01*
X154812485Y-125712984D01*
X154938015Y-125640509D01*
X155040509Y-125538015D01*
X155112984Y-125412485D01*
X155150500Y-125272475D01*
X155150500Y-125127525D01*
X155112984Y-124987515D01*
X155085843Y-124940506D01*
X155040511Y-124861988D01*
X155040506Y-124861982D01*
X154938017Y-124759493D01*
X154938011Y-124759488D01*
X154812488Y-124687017D01*
X154812489Y-124687017D01*
X154801006Y-124683940D01*
X154672475Y-124649500D01*
X154527525Y-124649500D01*
X154398993Y-124683940D01*
X154387511Y-124687017D01*
X154261988Y-124759488D01*
X154261982Y-124759493D01*
X154159493Y-124861982D01*
X154159488Y-124861988D01*
X154087017Y-124987511D01*
X154087016Y-124987515D01*
X154049500Y-125127525D01*
X142630809Y-125127525D01*
X142710941Y-125007598D01*
X142790130Y-124816420D01*
X142830500Y-124613465D01*
X142830500Y-124427525D01*
X155349500Y-124427525D01*
X155349500Y-124572475D01*
X155370139Y-124649500D01*
X155387017Y-124712488D01*
X155459488Y-124838011D01*
X155459490Y-124838013D01*
X155459491Y-124838015D01*
X155561985Y-124940509D01*
X155561986Y-124940510D01*
X155561988Y-124940511D01*
X155687511Y-125012982D01*
X155687512Y-125012982D01*
X155687515Y-125012984D01*
X155827525Y-125050500D01*
X155827528Y-125050500D01*
X155972472Y-125050500D01*
X155972475Y-125050500D01*
X156112485Y-125012984D01*
X156238015Y-124940509D01*
X156340509Y-124838015D01*
X156412984Y-124712485D01*
X156450500Y-124572475D01*
X156450500Y-124427525D01*
X156412984Y-124287515D01*
X156370297Y-124213580D01*
X156340511Y-124161988D01*
X156340506Y-124161982D01*
X156238017Y-124059493D01*
X156238011Y-124059488D01*
X156112488Y-123987017D01*
X156112489Y-123987017D01*
X156101006Y-123983940D01*
X155972475Y-123949500D01*
X155827525Y-123949500D01*
X155698993Y-123983940D01*
X155687511Y-123987017D01*
X155561988Y-124059488D01*
X155561982Y-124059493D01*
X155459493Y-124161982D01*
X155459488Y-124161988D01*
X155387017Y-124287511D01*
X155387016Y-124287515D01*
X155349500Y-124427525D01*
X142830500Y-124427525D01*
X142830500Y-124406535D01*
X142790130Y-124203580D01*
X142710941Y-124012402D01*
X142595977Y-123840345D01*
X142595975Y-123840342D01*
X142449657Y-123694024D01*
X142292564Y-123589059D01*
X142277598Y-123579059D01*
X142086420Y-123499870D01*
X142086412Y-123499868D01*
X141883469Y-123459500D01*
X141883465Y-123459500D01*
X141676535Y-123459500D01*
X141676530Y-123459500D01*
X141473587Y-123499868D01*
X141473579Y-123499870D01*
X141282403Y-123579058D01*
X141110342Y-123694024D01*
X140964024Y-123840342D01*
X140849058Y-124012403D01*
X140769870Y-124203579D01*
X140769868Y-124203587D01*
X140729500Y-124406530D01*
X139288510Y-124406530D01*
X139250131Y-124213587D01*
X139250130Y-124213580D01*
X139170941Y-124022402D01*
X139055977Y-123850345D01*
X139055975Y-123850342D01*
X138909657Y-123704024D01*
X138772662Y-123612488D01*
X138737598Y-123589059D01*
X138546420Y-123509870D01*
X138546412Y-123509868D01*
X138343469Y-123469500D01*
X138343465Y-123469500D01*
X138136535Y-123469500D01*
X138136530Y-123469500D01*
X137933587Y-123509868D01*
X137933579Y-123509870D01*
X137742403Y-123589058D01*
X137570342Y-123704024D01*
X137424024Y-123850342D01*
X137309058Y-124022403D01*
X137229870Y-124213579D01*
X137229868Y-124213587D01*
X137189500Y-124416530D01*
X135750499Y-124416530D01*
X135710130Y-124213580D01*
X135630941Y-124022402D01*
X135515977Y-123850345D01*
X135515975Y-123850342D01*
X135369657Y-123704024D01*
X135232662Y-123612488D01*
X135197598Y-123589059D01*
X135006420Y-123509870D01*
X135006412Y-123509868D01*
X134803469Y-123469500D01*
X134803465Y-123469500D01*
X134596535Y-123469500D01*
X134596530Y-123469500D01*
X134393587Y-123509868D01*
X134393579Y-123509870D01*
X134202403Y-123589058D01*
X134030342Y-123704024D01*
X133884024Y-123850342D01*
X133769058Y-124022403D01*
X133689870Y-124213579D01*
X133689868Y-124213587D01*
X133649500Y-124416530D01*
X132210500Y-124416530D01*
X132210500Y-124406535D01*
X132170130Y-124203580D01*
X132090941Y-124012402D01*
X131975977Y-123840345D01*
X131975975Y-123840342D01*
X131829657Y-123694024D01*
X131672564Y-123589059D01*
X131657598Y-123579059D01*
X131466420Y-123499870D01*
X131466412Y-123499868D01*
X131263469Y-123459500D01*
X131263465Y-123459500D01*
X131056535Y-123459500D01*
X131056530Y-123459500D01*
X130853587Y-123499868D01*
X130853579Y-123499870D01*
X130662403Y-123579058D01*
X130490342Y-123694024D01*
X130344024Y-123840342D01*
X130229058Y-124012403D01*
X130149870Y-124203579D01*
X130149868Y-124203587D01*
X130109500Y-124406530D01*
X118950500Y-124406530D01*
X118950500Y-123327525D01*
X166849500Y-123327525D01*
X166849500Y-123472475D01*
X166880739Y-123589058D01*
X166887017Y-123612488D01*
X166959488Y-123738011D01*
X166959490Y-123738013D01*
X166959491Y-123738015D01*
X167061985Y-123840509D01*
X167061986Y-123840510D01*
X167061988Y-123840511D01*
X167187511Y-123912982D01*
X167187512Y-123912982D01*
X167187515Y-123912984D01*
X167327525Y-123950500D01*
X167327528Y-123950500D01*
X167472472Y-123950500D01*
X167472475Y-123950500D01*
X167612485Y-123912984D01*
X167738015Y-123840509D01*
X167840509Y-123738015D01*
X167912984Y-123612485D01*
X167950500Y-123472475D01*
X167950500Y-123327525D01*
X168349500Y-123327525D01*
X168349500Y-123472475D01*
X168380739Y-123589058D01*
X168387017Y-123612488D01*
X168459488Y-123738011D01*
X168459490Y-123738013D01*
X168459491Y-123738015D01*
X168561985Y-123840509D01*
X168561986Y-123840510D01*
X168561988Y-123840511D01*
X168687511Y-123912982D01*
X168687512Y-123912982D01*
X168687515Y-123912984D01*
X168827525Y-123950500D01*
X168827528Y-123950500D01*
X168972472Y-123950500D01*
X168972475Y-123950500D01*
X169112485Y-123912984D01*
X169238015Y-123840509D01*
X169340509Y-123738015D01*
X169412984Y-123612485D01*
X169450500Y-123472475D01*
X169450500Y-123327525D01*
X169412984Y-123187515D01*
X169404679Y-123173130D01*
X170644499Y-123173130D01*
X170682358Y-123314418D01*
X170689927Y-123327527D01*
X170755490Y-123441085D01*
X170858915Y-123544510D01*
X170936076Y-123589059D01*
X170985581Y-123617641D01*
X170985582Y-123617641D01*
X170985585Y-123617643D01*
X171126867Y-123655500D01*
X171126870Y-123655500D01*
X171273130Y-123655500D01*
X171273133Y-123655500D01*
X171414415Y-123617643D01*
X171541085Y-123544510D01*
X171644510Y-123441085D01*
X171717643Y-123314415D01*
X171755500Y-123173133D01*
X171755500Y-123026867D01*
X171717643Y-122885585D01*
X171644510Y-122758915D01*
X171541085Y-122655490D01*
X171472643Y-122615975D01*
X171414418Y-122582358D01*
X171414419Y-122582358D01*
X171377524Y-122572472D01*
X171273133Y-122544500D01*
X171126867Y-122544500D01*
X171022476Y-122572472D01*
X170985581Y-122582358D01*
X170858918Y-122655488D01*
X170858912Y-122655492D01*
X170755492Y-122758912D01*
X170755488Y-122758918D01*
X170682358Y-122885581D01*
X170681973Y-122887017D01*
X170644500Y-123026867D01*
X170644500Y-123026869D01*
X170644500Y-123173130D01*
X170644499Y-123173130D01*
X169404679Y-123173130D01*
X169391324Y-123149999D01*
X169351337Y-123080739D01*
X169351336Y-123080737D01*
X169340513Y-123061991D01*
X169340510Y-123061988D01*
X169340509Y-123061985D01*
X169238015Y-122959491D01*
X169238013Y-122959490D01*
X169238011Y-122959488D01*
X169112488Y-122887017D01*
X169112489Y-122887017D01*
X169101006Y-122883940D01*
X168972475Y-122849500D01*
X168827525Y-122849500D01*
X168698993Y-122883940D01*
X168687511Y-122887017D01*
X168561988Y-122959488D01*
X168561982Y-122959493D01*
X168459493Y-123061982D01*
X168459488Y-123061988D01*
X168387017Y-123187511D01*
X168387016Y-123187515D01*
X168349500Y-123327525D01*
X167950500Y-123327525D01*
X167912984Y-123187515D01*
X167887628Y-123143598D01*
X167840511Y-123061988D01*
X167840506Y-123061982D01*
X167738017Y-122959493D01*
X167738011Y-122959488D01*
X167612488Y-122887017D01*
X167612489Y-122887017D01*
X167601006Y-122883940D01*
X167472475Y-122849500D01*
X167327525Y-122849500D01*
X167198993Y-122883940D01*
X167187511Y-122887017D01*
X167061988Y-122959488D01*
X167061982Y-122959493D01*
X166959493Y-123061982D01*
X166959488Y-123061988D01*
X166887017Y-123187511D01*
X166887016Y-123187515D01*
X166849500Y-123327525D01*
X118950500Y-123327525D01*
X118950500Y-120902155D01*
X119410000Y-120902155D01*
X119410000Y-121550000D01*
X120326988Y-121550000D01*
X120294075Y-121607007D01*
X120260000Y-121734174D01*
X120260000Y-121865826D01*
X120294075Y-121992993D01*
X120326988Y-122050000D01*
X119410000Y-122050000D01*
X119410000Y-122697844D01*
X119416401Y-122757372D01*
X119416403Y-122757379D01*
X119466645Y-122892086D01*
X119466649Y-122892093D01*
X119552809Y-123007187D01*
X119552812Y-123007190D01*
X119667906Y-123093350D01*
X119667913Y-123093354D01*
X119802620Y-123143596D01*
X119802627Y-123143598D01*
X119862155Y-123149999D01*
X119862172Y-123150000D01*
X120510000Y-123150000D01*
X120510000Y-122233012D01*
X120567007Y-122265925D01*
X120694174Y-122300000D01*
X120825826Y-122300000D01*
X120952993Y-122265925D01*
X121010000Y-122233012D01*
X121010000Y-123150000D01*
X121657828Y-123150000D01*
X121657844Y-123149999D01*
X121717372Y-123143598D01*
X121717379Y-123143596D01*
X121852086Y-123093354D01*
X121852093Y-123093350D01*
X121967187Y-123007190D01*
X121967190Y-123007187D01*
X122053350Y-122892093D01*
X122053354Y-122892086D01*
X122103596Y-122757379D01*
X122103598Y-122757372D01*
X122109999Y-122697844D01*
X122110000Y-122697827D01*
X122110000Y-122295564D01*
X122129685Y-122228525D01*
X122182489Y-122182770D01*
X122251647Y-122172826D01*
X122315203Y-122201851D01*
X122348561Y-122248112D01*
X122355939Y-122265925D01*
X122369059Y-122297598D01*
X122404412Y-122350508D01*
X122484024Y-122469657D01*
X122630342Y-122615975D01*
X122630345Y-122615977D01*
X122802402Y-122730941D01*
X122993580Y-122810130D01*
X123191508Y-122849500D01*
X123196530Y-122850499D01*
X123196534Y-122850500D01*
X123196535Y-122850500D01*
X123403466Y-122850500D01*
X123403467Y-122850499D01*
X123606420Y-122810130D01*
X123797598Y-122730941D01*
X123969655Y-122615977D01*
X124115977Y-122469655D01*
X124230941Y-122297598D01*
X124310130Y-122106420D01*
X124350500Y-121903465D01*
X124350500Y-121696535D01*
X124350499Y-121696530D01*
X124789500Y-121696530D01*
X124789500Y-121903469D01*
X124829868Y-122106412D01*
X124829870Y-122106420D01*
X124909058Y-122297596D01*
X125024024Y-122469657D01*
X125170342Y-122615975D01*
X125170345Y-122615977D01*
X125342402Y-122730941D01*
X125533580Y-122810130D01*
X125731508Y-122849500D01*
X125736530Y-122850499D01*
X125736534Y-122850500D01*
X125736535Y-122850500D01*
X125943466Y-122850500D01*
X125943467Y-122850499D01*
X126146420Y-122810130D01*
X126337598Y-122730941D01*
X126509655Y-122615977D01*
X126655977Y-122469655D01*
X126684127Y-122427525D01*
X150249500Y-122427525D01*
X150249500Y-122572475D01*
X150283093Y-122697844D01*
X150287017Y-122712488D01*
X150359488Y-122838011D01*
X150359490Y-122838013D01*
X150359491Y-122838015D01*
X150461985Y-122940509D01*
X150461986Y-122940510D01*
X150461988Y-122940511D01*
X150587511Y-123012982D01*
X150587512Y-123012982D01*
X150587515Y-123012984D01*
X150727525Y-123050500D01*
X150727528Y-123050500D01*
X150872472Y-123050500D01*
X150872475Y-123050500D01*
X151012485Y-123012984D01*
X151138015Y-122940509D01*
X151240509Y-122838015D01*
X151312984Y-122712485D01*
X151350500Y-122572475D01*
X151350500Y-122427525D01*
X151312984Y-122287515D01*
X151252509Y-122182770D01*
X151240511Y-122161988D01*
X151240506Y-122161982D01*
X151138017Y-122059493D01*
X151138011Y-122059488D01*
X151012488Y-121987017D01*
X151012489Y-121987017D01*
X151001006Y-121983940D01*
X150872475Y-121949500D01*
X150727525Y-121949500D01*
X150598993Y-121983940D01*
X150587511Y-121987017D01*
X150461988Y-122059488D01*
X150461982Y-122059493D01*
X150359493Y-122161982D01*
X150359488Y-122161988D01*
X150287017Y-122287511D01*
X150287016Y-122287515D01*
X150249500Y-122427525D01*
X126684127Y-122427525D01*
X126770941Y-122297598D01*
X126850130Y-122106420D01*
X126890500Y-121903465D01*
X126890500Y-121696535D01*
X126850130Y-121493580D01*
X126770941Y-121302402D01*
X126655977Y-121130345D01*
X126655975Y-121130342D01*
X126553158Y-121027525D01*
X150249500Y-121027525D01*
X150249500Y-121172475D01*
X150283671Y-121300000D01*
X150287017Y-121312488D01*
X150359488Y-121438011D01*
X150359490Y-121438013D01*
X150359491Y-121438015D01*
X150461985Y-121540509D01*
X150461986Y-121540510D01*
X150461988Y-121540511D01*
X150587511Y-121612982D01*
X150587512Y-121612982D01*
X150587515Y-121612984D01*
X150727525Y-121650500D01*
X150727528Y-121650500D01*
X150872472Y-121650500D01*
X150872475Y-121650500D01*
X151012485Y-121612984D01*
X151138015Y-121540509D01*
X151240509Y-121438015D01*
X151312984Y-121312485D01*
X151350500Y-121172475D01*
X151350500Y-121027525D01*
X151312984Y-120887515D01*
X151302328Y-120869059D01*
X151240511Y-120761988D01*
X151240506Y-120761982D01*
X151138017Y-120659493D01*
X151138011Y-120659488D01*
X151012488Y-120587017D01*
X151012489Y-120587017D01*
X151001006Y-120583940D01*
X150872475Y-120549500D01*
X150727525Y-120549500D01*
X150598993Y-120583940D01*
X150587511Y-120587017D01*
X150461988Y-120659488D01*
X150461982Y-120659493D01*
X150359493Y-120761982D01*
X150359488Y-120761988D01*
X150287017Y-120887511D01*
X150287016Y-120887515D01*
X150249500Y-121027525D01*
X126553158Y-121027525D01*
X126509657Y-120984024D01*
X126387130Y-120902155D01*
X126337598Y-120869059D01*
X126146420Y-120789870D01*
X126146412Y-120789868D01*
X125943469Y-120749500D01*
X125943465Y-120749500D01*
X125736535Y-120749500D01*
X125736530Y-120749500D01*
X125533587Y-120789868D01*
X125533579Y-120789870D01*
X125342403Y-120869058D01*
X125170342Y-120984024D01*
X125024024Y-121130342D01*
X124909058Y-121302403D01*
X124829870Y-121493579D01*
X124829868Y-121493587D01*
X124789500Y-121696530D01*
X124350499Y-121696530D01*
X124310130Y-121493580D01*
X124230941Y-121302402D01*
X124115977Y-121130345D01*
X124115975Y-121130342D01*
X123969657Y-120984024D01*
X123847130Y-120902155D01*
X123797598Y-120869059D01*
X123606420Y-120789870D01*
X123606412Y-120789868D01*
X123403469Y-120749500D01*
X123403465Y-120749500D01*
X123196535Y-120749500D01*
X123196530Y-120749500D01*
X122993587Y-120789868D01*
X122993579Y-120789870D01*
X122802403Y-120869058D01*
X122630342Y-120984024D01*
X122484024Y-121130342D01*
X122369058Y-121302403D01*
X122348561Y-121351888D01*
X122304720Y-121406291D01*
X122238426Y-121428356D01*
X122170726Y-121411077D01*
X122123116Y-121359939D01*
X122110000Y-121304435D01*
X122110000Y-120902172D01*
X122109999Y-120902155D01*
X122103598Y-120842627D01*
X122103596Y-120842620D01*
X122053354Y-120707913D01*
X122053350Y-120707906D01*
X121967190Y-120592812D01*
X121967187Y-120592809D01*
X121852093Y-120506649D01*
X121852086Y-120506645D01*
X121717379Y-120456403D01*
X121717372Y-120456401D01*
X121657844Y-120450000D01*
X121010000Y-120450000D01*
X121010000Y-121366988D01*
X120952993Y-121334075D01*
X120825826Y-121300000D01*
X120694174Y-121300000D01*
X120567007Y-121334075D01*
X120510000Y-121366988D01*
X120510000Y-120450000D01*
X119862155Y-120450000D01*
X119802627Y-120456401D01*
X119802620Y-120456403D01*
X119667913Y-120506645D01*
X119667906Y-120506649D01*
X119552812Y-120592809D01*
X119552809Y-120592812D01*
X119466649Y-120707906D01*
X119466645Y-120707913D01*
X119416403Y-120842620D01*
X119416401Y-120842627D01*
X119410000Y-120902155D01*
X118950500Y-120902155D01*
X118950500Y-119627525D01*
X148849500Y-119627525D01*
X148849500Y-119772475D01*
X148887016Y-119912485D01*
X148887017Y-119912488D01*
X148959488Y-120038011D01*
X148959490Y-120038013D01*
X148959491Y-120038015D01*
X149061985Y-120140509D01*
X149061986Y-120140510D01*
X149061988Y-120140511D01*
X149187511Y-120212982D01*
X149187512Y-120212982D01*
X149187515Y-120212984D01*
X149327525Y-120250500D01*
X149327528Y-120250500D01*
X149472472Y-120250500D01*
X149472475Y-120250500D01*
X149612485Y-120212984D01*
X149738015Y-120140509D01*
X149840509Y-120038015D01*
X149912984Y-119912485D01*
X149950500Y-119772475D01*
X149950500Y-119627525D01*
X150249500Y-119627525D01*
X150249500Y-119772475D01*
X150287016Y-119912485D01*
X150287017Y-119912488D01*
X150359488Y-120038011D01*
X150359490Y-120038013D01*
X150359491Y-120038015D01*
X150461985Y-120140509D01*
X150461986Y-120140510D01*
X150461988Y-120140511D01*
X150587511Y-120212982D01*
X150587512Y-120212982D01*
X150587515Y-120212984D01*
X150727525Y-120250500D01*
X150727528Y-120250500D01*
X150872472Y-120250500D01*
X150872475Y-120250500D01*
X151012485Y-120212984D01*
X151138015Y-120140509D01*
X151240509Y-120038015D01*
X151246565Y-120027525D01*
X164349500Y-120027525D01*
X164349500Y-120172475D01*
X164370407Y-120250500D01*
X164387017Y-120312488D01*
X164459488Y-120438011D01*
X164459490Y-120438013D01*
X164459491Y-120438015D01*
X164561985Y-120540509D01*
X164561986Y-120540510D01*
X164561988Y-120540511D01*
X164687511Y-120612982D01*
X164687512Y-120612982D01*
X164687515Y-120612984D01*
X164827525Y-120650500D01*
X164827528Y-120650500D01*
X164972472Y-120650500D01*
X164972475Y-120650500D01*
X165112485Y-120612984D01*
X165238015Y-120540509D01*
X165340509Y-120438015D01*
X165412984Y-120312485D01*
X165450500Y-120172475D01*
X165450500Y-120027525D01*
X165412984Y-119887515D01*
X165346565Y-119772475D01*
X165340511Y-119761988D01*
X165340506Y-119761982D01*
X165238017Y-119659493D01*
X165238011Y-119659488D01*
X165112488Y-119587017D01*
X165112489Y-119587017D01*
X165101006Y-119583940D01*
X164972475Y-119549500D01*
X164827525Y-119549500D01*
X164698993Y-119583940D01*
X164687511Y-119587017D01*
X164561988Y-119659488D01*
X164561982Y-119659493D01*
X164459493Y-119761982D01*
X164459488Y-119761988D01*
X164387017Y-119887511D01*
X164387016Y-119887515D01*
X164349500Y-120027525D01*
X151246565Y-120027525D01*
X151312984Y-119912485D01*
X151350500Y-119772475D01*
X151350500Y-119627525D01*
X151312984Y-119487515D01*
X151301249Y-119467190D01*
X151240511Y-119361988D01*
X151240506Y-119361982D01*
X151138017Y-119259493D01*
X151138011Y-119259488D01*
X151012488Y-119187017D01*
X151012489Y-119187017D01*
X151001006Y-119183940D01*
X150872475Y-119149500D01*
X150727525Y-119149500D01*
X150598993Y-119183940D01*
X150587511Y-119187017D01*
X150461988Y-119259488D01*
X150461982Y-119259493D01*
X150359493Y-119361982D01*
X150359488Y-119361988D01*
X150287017Y-119487511D01*
X150287016Y-119487515D01*
X150249500Y-119627525D01*
X149950500Y-119627525D01*
X149912984Y-119487515D01*
X149901249Y-119467190D01*
X149840511Y-119361988D01*
X149840506Y-119361982D01*
X149738017Y-119259493D01*
X149738011Y-119259488D01*
X149612488Y-119187017D01*
X149612489Y-119187017D01*
X149601006Y-119183940D01*
X149472475Y-119149500D01*
X149327525Y-119149500D01*
X149198993Y-119183940D01*
X149187511Y-119187017D01*
X149061988Y-119259488D01*
X149061982Y-119259493D01*
X148959493Y-119361982D01*
X148959488Y-119361988D01*
X148887017Y-119487511D01*
X148887016Y-119487515D01*
X148849500Y-119627525D01*
X118950500Y-119627525D01*
X118950500Y-117362155D01*
X119410000Y-117362155D01*
X119410000Y-118010000D01*
X120326988Y-118010000D01*
X120294075Y-118067007D01*
X120260000Y-118194174D01*
X120260000Y-118325826D01*
X120294075Y-118452993D01*
X120326988Y-118510000D01*
X119410000Y-118510000D01*
X119410000Y-119157844D01*
X119416401Y-119217372D01*
X119416403Y-119217379D01*
X119466645Y-119352086D01*
X119466649Y-119352093D01*
X119552809Y-119467187D01*
X119552812Y-119467190D01*
X119667906Y-119553350D01*
X119667913Y-119553354D01*
X119802620Y-119603596D01*
X119802627Y-119603598D01*
X119862155Y-119609999D01*
X119862172Y-119610000D01*
X120510000Y-119610000D01*
X120510000Y-118693012D01*
X120567007Y-118725925D01*
X120694174Y-118760000D01*
X120825826Y-118760000D01*
X120952993Y-118725925D01*
X121010000Y-118693012D01*
X121010000Y-119610000D01*
X121657828Y-119610000D01*
X121657844Y-119609999D01*
X121717372Y-119603598D01*
X121717379Y-119603596D01*
X121852086Y-119553354D01*
X121852089Y-119553352D01*
X121896466Y-119520132D01*
X121896467Y-119520131D01*
X121967190Y-119467186D01*
X122053350Y-119352093D01*
X122053354Y-119352086D01*
X122103596Y-119217379D01*
X122103598Y-119217372D01*
X122109999Y-119157844D01*
X122110000Y-119157827D01*
X122110000Y-118755564D01*
X122129685Y-118688525D01*
X122182489Y-118642770D01*
X122251647Y-118632826D01*
X122315203Y-118661851D01*
X122348561Y-118708112D01*
X122355939Y-118725925D01*
X122369059Y-118757598D01*
X122445701Y-118872302D01*
X122484024Y-118929657D01*
X122630342Y-119075975D01*
X122630345Y-119075977D01*
X122802402Y-119190941D01*
X122993580Y-119270130D01*
X123196530Y-119310499D01*
X123196534Y-119310500D01*
X123196535Y-119310500D01*
X123403466Y-119310500D01*
X123403467Y-119310499D01*
X123606420Y-119270130D01*
X123797598Y-119190941D01*
X123969655Y-119075977D01*
X124115977Y-118929655D01*
X124230941Y-118757598D01*
X124310130Y-118566420D01*
X124350500Y-118363465D01*
X124350500Y-118156535D01*
X124350499Y-118156530D01*
X124789500Y-118156530D01*
X124789500Y-118363469D01*
X124829868Y-118566412D01*
X124829870Y-118566420D01*
X124909058Y-118757596D01*
X125024024Y-118929657D01*
X125170342Y-119075975D01*
X125170345Y-119075977D01*
X125342402Y-119190941D01*
X125533580Y-119270130D01*
X125736530Y-119310499D01*
X125736534Y-119310500D01*
X125736535Y-119310500D01*
X125943466Y-119310500D01*
X125943467Y-119310499D01*
X126146420Y-119270130D01*
X126337598Y-119190941D01*
X126509655Y-119075977D01*
X126655977Y-118929655D01*
X126770941Y-118757598D01*
X126850130Y-118566420D01*
X126890500Y-118363465D01*
X126890500Y-118223130D01*
X165694499Y-118223130D01*
X165694500Y-118223133D01*
X165732102Y-118363465D01*
X165732358Y-118364418D01*
X165783498Y-118452993D01*
X165805490Y-118491085D01*
X165908915Y-118594510D01*
X165992504Y-118642770D01*
X166035581Y-118667641D01*
X166035582Y-118667641D01*
X166035585Y-118667643D01*
X166176867Y-118705500D01*
X166176870Y-118705500D01*
X166323130Y-118705500D01*
X166323133Y-118705500D01*
X166464415Y-118667643D01*
X166591085Y-118594510D01*
X166694510Y-118491085D01*
X166767643Y-118364415D01*
X166805500Y-118223133D01*
X166805500Y-118076867D01*
X166767643Y-117935585D01*
X166694510Y-117808915D01*
X166591085Y-117705490D01*
X166553451Y-117683762D01*
X166464418Y-117632358D01*
X166464419Y-117632358D01*
X166452831Y-117629253D01*
X166323133Y-117594500D01*
X166176867Y-117594500D01*
X166047168Y-117629253D01*
X166035581Y-117632358D01*
X165908918Y-117705488D01*
X165908912Y-117705492D01*
X165805492Y-117808912D01*
X165805488Y-117808918D01*
X165732358Y-117935581D01*
X165732357Y-117935585D01*
X165694500Y-118076867D01*
X165694500Y-118076869D01*
X165694500Y-118223130D01*
X165694499Y-118223130D01*
X126890500Y-118223130D01*
X126890500Y-118156535D01*
X126890406Y-118156065D01*
X126877849Y-118092930D01*
X126850131Y-117953587D01*
X126850130Y-117953580D01*
X126770941Y-117762402D01*
X126655977Y-117590345D01*
X126655975Y-117590342D01*
X126509657Y-117444024D01*
X126387130Y-117362155D01*
X126337598Y-117329059D01*
X126146420Y-117249870D01*
X126146412Y-117249868D01*
X125943469Y-117209500D01*
X125943465Y-117209500D01*
X125736535Y-117209500D01*
X125736530Y-117209500D01*
X125533587Y-117249868D01*
X125533579Y-117249870D01*
X125342403Y-117329058D01*
X125170342Y-117444024D01*
X125024024Y-117590342D01*
X124909058Y-117762403D01*
X124829870Y-117953579D01*
X124829868Y-117953587D01*
X124789500Y-118156530D01*
X124350499Y-118156530D01*
X124310130Y-117953580D01*
X124230941Y-117762402D01*
X124115977Y-117590345D01*
X124115975Y-117590342D01*
X123969657Y-117444024D01*
X123847130Y-117362155D01*
X123797598Y-117329059D01*
X123606420Y-117249870D01*
X123606412Y-117249868D01*
X123403469Y-117209500D01*
X123403465Y-117209500D01*
X123196535Y-117209500D01*
X123196530Y-117209500D01*
X122993587Y-117249868D01*
X122993579Y-117249870D01*
X122802403Y-117329058D01*
X122630342Y-117444024D01*
X122484024Y-117590342D01*
X122369058Y-117762403D01*
X122348561Y-117811888D01*
X122304720Y-117866291D01*
X122238426Y-117888356D01*
X122170726Y-117871077D01*
X122123116Y-117819939D01*
X122110000Y-117764435D01*
X122110000Y-117362172D01*
X122109999Y-117362155D01*
X122103598Y-117302627D01*
X122103596Y-117302620D01*
X122053354Y-117167913D01*
X122053350Y-117167906D01*
X121967190Y-117052812D01*
X121967187Y-117052809D01*
X121852093Y-116966649D01*
X121852086Y-116966645D01*
X121717379Y-116916403D01*
X121717372Y-116916401D01*
X121657844Y-116910000D01*
X121010000Y-116910000D01*
X121010000Y-117826988D01*
X120952993Y-117794075D01*
X120825826Y-117760000D01*
X120694174Y-117760000D01*
X120567007Y-117794075D01*
X120510000Y-117826988D01*
X120510000Y-116910000D01*
X119862155Y-116910000D01*
X119802627Y-116916401D01*
X119802620Y-116916403D01*
X119667913Y-116966645D01*
X119667906Y-116966649D01*
X119552812Y-117052809D01*
X119552809Y-117052812D01*
X119466649Y-117167906D01*
X119466645Y-117167913D01*
X119416403Y-117302620D01*
X119416401Y-117302627D01*
X119410000Y-117362155D01*
X118950500Y-117362155D01*
X118950500Y-113822155D01*
X119410000Y-113822155D01*
X119410000Y-114470000D01*
X120326988Y-114470000D01*
X120294075Y-114527007D01*
X120260000Y-114654174D01*
X120260000Y-114785826D01*
X120294075Y-114912993D01*
X120326988Y-114970000D01*
X119410000Y-114970000D01*
X119410000Y-115617844D01*
X119416401Y-115677372D01*
X119416403Y-115677379D01*
X119466645Y-115812086D01*
X119466649Y-115812093D01*
X119552809Y-115927187D01*
X119552812Y-115927190D01*
X119667906Y-116013350D01*
X119667913Y-116013354D01*
X119802620Y-116063596D01*
X119802627Y-116063598D01*
X119862155Y-116069999D01*
X119862172Y-116070000D01*
X120510000Y-116070000D01*
X120510000Y-115153012D01*
X120567007Y-115185925D01*
X120694174Y-115220000D01*
X120825826Y-115220000D01*
X120952993Y-115185925D01*
X121010000Y-115153012D01*
X121010000Y-116070000D01*
X121657828Y-116070000D01*
X121657844Y-116069999D01*
X121717372Y-116063598D01*
X121717379Y-116063596D01*
X121852086Y-116013354D01*
X121852093Y-116013350D01*
X121905820Y-115973130D01*
X162644499Y-115973130D01*
X162682358Y-116114418D01*
X162733762Y-116203451D01*
X162755490Y-116241085D01*
X162858915Y-116344510D01*
X162947951Y-116395915D01*
X162985581Y-116417641D01*
X162985582Y-116417641D01*
X162985585Y-116417643D01*
X163126867Y-116455500D01*
X163126870Y-116455500D01*
X163273130Y-116455500D01*
X163273133Y-116455500D01*
X163414415Y-116417643D01*
X163541085Y-116344510D01*
X163644510Y-116241085D01*
X163717643Y-116114415D01*
X163755500Y-115973133D01*
X163755500Y-115826867D01*
X163717643Y-115685585D01*
X163712905Y-115677379D01*
X163695915Y-115647951D01*
X163644510Y-115558915D01*
X163541085Y-115455490D01*
X163503451Y-115433762D01*
X163414418Y-115382358D01*
X163414419Y-115382358D01*
X163402831Y-115379253D01*
X163273133Y-115344500D01*
X163126867Y-115344500D01*
X162997168Y-115379253D01*
X162985581Y-115382358D01*
X162858918Y-115455488D01*
X162858912Y-115455492D01*
X162755492Y-115558912D01*
X162755488Y-115558918D01*
X162682358Y-115685581D01*
X162682357Y-115685585D01*
X162644500Y-115826867D01*
X162644500Y-115826869D01*
X162644500Y-115973130D01*
X162644499Y-115973130D01*
X121905820Y-115973130D01*
X121967187Y-115927190D01*
X121967190Y-115927187D01*
X122053350Y-115812093D01*
X122053354Y-115812086D01*
X122103596Y-115677379D01*
X122103598Y-115677372D01*
X122109999Y-115617844D01*
X122110000Y-115617827D01*
X122110000Y-115215564D01*
X122129685Y-115148525D01*
X122182489Y-115102770D01*
X122251647Y-115092826D01*
X122315203Y-115121851D01*
X122348561Y-115168112D01*
X122355939Y-115185925D01*
X122369059Y-115217598D01*
X122384754Y-115241087D01*
X122484024Y-115389657D01*
X122630342Y-115535975D01*
X122630345Y-115535977D01*
X122802402Y-115650941D01*
X122993580Y-115730130D01*
X123196530Y-115770499D01*
X123196534Y-115770500D01*
X123196535Y-115770500D01*
X123403466Y-115770500D01*
X123403467Y-115770499D01*
X123606420Y-115730130D01*
X123797598Y-115650941D01*
X123969655Y-115535977D01*
X124115977Y-115389655D01*
X124230941Y-115217598D01*
X124310130Y-115026420D01*
X124350500Y-114823465D01*
X124350500Y-114616535D01*
X124350499Y-114616530D01*
X124789500Y-114616530D01*
X124789500Y-114823469D01*
X124829868Y-115026412D01*
X124829870Y-115026420D01*
X124895939Y-115185925D01*
X124909059Y-115217598D01*
X124924754Y-115241087D01*
X125024024Y-115389657D01*
X125170342Y-115535975D01*
X125170345Y-115535977D01*
X125342402Y-115650941D01*
X125533580Y-115730130D01*
X125736530Y-115770499D01*
X125736534Y-115770500D01*
X125736535Y-115770500D01*
X125943466Y-115770500D01*
X125943467Y-115770499D01*
X126146420Y-115730130D01*
X126337598Y-115650941D01*
X126509655Y-115535977D01*
X126655977Y-115389655D01*
X126770941Y-115217598D01*
X126850130Y-115026420D01*
X126860730Y-114973130D01*
X152744499Y-114973130D01*
X152782358Y-115114418D01*
X152786650Y-115121851D01*
X152855490Y-115241085D01*
X152958915Y-115344510D01*
X153037112Y-115389657D01*
X153085581Y-115417641D01*
X153085582Y-115417641D01*
X153085585Y-115417643D01*
X153226867Y-115455500D01*
X153226870Y-115455500D01*
X153373130Y-115455500D01*
X153373133Y-115455500D01*
X153514415Y-115417643D01*
X153641085Y-115344510D01*
X153744510Y-115241085D01*
X153817643Y-115114415D01*
X153855500Y-114973133D01*
X153855500Y-114826867D01*
X153817643Y-114685585D01*
X153744510Y-114558915D01*
X153641085Y-114455490D01*
X153568495Y-114413580D01*
X153514418Y-114382358D01*
X153514419Y-114382358D01*
X153502831Y-114379253D01*
X153373133Y-114344500D01*
X153226867Y-114344500D01*
X153097168Y-114379253D01*
X153085581Y-114382358D01*
X152958918Y-114455488D01*
X152958912Y-114455492D01*
X152855492Y-114558912D01*
X152855488Y-114558918D01*
X152782358Y-114685581D01*
X152782357Y-114685585D01*
X152744500Y-114826867D01*
X152744500Y-114826869D01*
X152744500Y-114973130D01*
X152744499Y-114973130D01*
X126860730Y-114973130D01*
X126890500Y-114823465D01*
X126890500Y-114616535D01*
X126850130Y-114413580D01*
X126770941Y-114222402D01*
X126655977Y-114050345D01*
X126655975Y-114050342D01*
X126509658Y-113904025D01*
X126509650Y-113904019D01*
X126387722Y-113822549D01*
X126387648Y-113822501D01*
X126375770Y-113814564D01*
X126337598Y-113789059D01*
X126189043Y-113727525D01*
X146149500Y-113727525D01*
X146149500Y-113872475D01*
X146161603Y-113917643D01*
X146187017Y-114012488D01*
X146259488Y-114138011D01*
X146259490Y-114138013D01*
X146259491Y-114138015D01*
X146361985Y-114240509D01*
X146361986Y-114240510D01*
X146361988Y-114240511D01*
X146487511Y-114312982D01*
X146487512Y-114312982D01*
X146487515Y-114312984D01*
X146627525Y-114350500D01*
X146627528Y-114350500D01*
X146772472Y-114350500D01*
X146772475Y-114350500D01*
X146912485Y-114312984D01*
X147038015Y-114240509D01*
X147140509Y-114138015D01*
X147212984Y-114012485D01*
X147250500Y-113872475D01*
X147250500Y-113727525D01*
X147212984Y-113587515D01*
X147169852Y-113512809D01*
X147146944Y-113473130D01*
X157044499Y-113473130D01*
X157082358Y-113614418D01*
X157114160Y-113669500D01*
X157155490Y-113741085D01*
X157258915Y-113844510D01*
X157307347Y-113872472D01*
X157385581Y-113917641D01*
X157385582Y-113917641D01*
X157385585Y-113917643D01*
X157526867Y-113955500D01*
X157526870Y-113955500D01*
X157673130Y-113955500D01*
X157673133Y-113955500D01*
X157814415Y-113917643D01*
X157941085Y-113844510D01*
X158044510Y-113741085D01*
X158117643Y-113614415D01*
X158155500Y-113473133D01*
X158155500Y-113473130D01*
X158844499Y-113473130D01*
X158882358Y-113614418D01*
X158914160Y-113669500D01*
X158955490Y-113741085D01*
X159058915Y-113844510D01*
X159107347Y-113872472D01*
X159185581Y-113917641D01*
X159185582Y-113917641D01*
X159185585Y-113917643D01*
X159326867Y-113955500D01*
X159326870Y-113955500D01*
X159473130Y-113955500D01*
X159473133Y-113955500D01*
X159614415Y-113917643D01*
X159741085Y-113844510D01*
X159844510Y-113741085D01*
X159917643Y-113614415D01*
X159955500Y-113473133D01*
X159955500Y-113326867D01*
X159917643Y-113185585D01*
X159844510Y-113058915D01*
X159741085Y-112955490D01*
X159703451Y-112933762D01*
X159614418Y-112882358D01*
X159614419Y-112882358D01*
X159602831Y-112879253D01*
X159473133Y-112844500D01*
X159326867Y-112844500D01*
X159197168Y-112879253D01*
X159185581Y-112882358D01*
X159058918Y-112955488D01*
X159058912Y-112955492D01*
X158955492Y-113058912D01*
X158955488Y-113058918D01*
X158882358Y-113185581D01*
X158882357Y-113185585D01*
X158844500Y-113326867D01*
X158844500Y-113326869D01*
X158844500Y-113473130D01*
X158844499Y-113473130D01*
X158155500Y-113473130D01*
X158155500Y-113326867D01*
X158117643Y-113185585D01*
X158044510Y-113058915D01*
X157941085Y-112955490D01*
X157903451Y-112933762D01*
X157814418Y-112882358D01*
X157814419Y-112882358D01*
X157802831Y-112879253D01*
X157673133Y-112844500D01*
X157526867Y-112844500D01*
X157397168Y-112879253D01*
X157385581Y-112882358D01*
X157258918Y-112955488D01*
X157258912Y-112955492D01*
X157155492Y-113058912D01*
X157155488Y-113058918D01*
X157082358Y-113185581D01*
X157082357Y-113185585D01*
X157044500Y-113326867D01*
X157044500Y-113326869D01*
X157044500Y-113473130D01*
X157044499Y-113473130D01*
X147146944Y-113473130D01*
X147140511Y-113461988D01*
X147140506Y-113461982D01*
X147038017Y-113359493D01*
X147038011Y-113359488D01*
X146912488Y-113287017D01*
X146912489Y-113287017D01*
X146901006Y-113283940D01*
X146772475Y-113249500D01*
X146627525Y-113249500D01*
X146498993Y-113283940D01*
X146487511Y-113287017D01*
X146361988Y-113359488D01*
X146361982Y-113359493D01*
X146259493Y-113461982D01*
X146259488Y-113461988D01*
X146187017Y-113587511D01*
X146187016Y-113587515D01*
X146149500Y-113727525D01*
X126189043Y-113727525D01*
X126146420Y-113709870D01*
X126146412Y-113709868D01*
X125943469Y-113669500D01*
X125943465Y-113669500D01*
X125736535Y-113669500D01*
X125736530Y-113669500D01*
X125533587Y-113709868D01*
X125533579Y-113709870D01*
X125342403Y-113789058D01*
X125170342Y-113904024D01*
X125024024Y-114050342D01*
X124909058Y-114222403D01*
X124829870Y-114413579D01*
X124829868Y-114413587D01*
X124789500Y-114616530D01*
X124350499Y-114616530D01*
X124310130Y-114413580D01*
X124230941Y-114222402D01*
X124115977Y-114050345D01*
X124115975Y-114050342D01*
X123969657Y-113904024D01*
X123880582Y-113844507D01*
X123797598Y-113789059D01*
X123606420Y-113709870D01*
X123606412Y-113709868D01*
X123403469Y-113669500D01*
X123403465Y-113669500D01*
X123196535Y-113669500D01*
X123196530Y-113669500D01*
X122993587Y-113709868D01*
X122993579Y-113709870D01*
X122802403Y-113789058D01*
X122630342Y-113904024D01*
X122484024Y-114050342D01*
X122369058Y-114222403D01*
X122348561Y-114271888D01*
X122304720Y-114326291D01*
X122238426Y-114348356D01*
X122170726Y-114331077D01*
X122123116Y-114279939D01*
X122110000Y-114224435D01*
X122110000Y-113822172D01*
X122109999Y-113822155D01*
X122103598Y-113762627D01*
X122103596Y-113762620D01*
X122053354Y-113627913D01*
X122053350Y-113627906D01*
X121967190Y-113512812D01*
X121967187Y-113512809D01*
X121852093Y-113426649D01*
X121852086Y-113426645D01*
X121717379Y-113376403D01*
X121717372Y-113376401D01*
X121657844Y-113370000D01*
X121010000Y-113370000D01*
X121010000Y-114286988D01*
X120952993Y-114254075D01*
X120825826Y-114220000D01*
X120694174Y-114220000D01*
X120567007Y-114254075D01*
X120510000Y-114286988D01*
X120510000Y-113370000D01*
X119862155Y-113370000D01*
X119802627Y-113376401D01*
X119802620Y-113376403D01*
X119667913Y-113426645D01*
X119667906Y-113426649D01*
X119552812Y-113512809D01*
X119552809Y-113512812D01*
X119466649Y-113627906D01*
X119466645Y-113627913D01*
X119416403Y-113762620D01*
X119416401Y-113762627D01*
X119410000Y-113822155D01*
X118950500Y-113822155D01*
X118950500Y-110282155D01*
X119410000Y-110282155D01*
X119410000Y-110930000D01*
X120326988Y-110930000D01*
X120294075Y-110987007D01*
X120260000Y-111114174D01*
X120260000Y-111245826D01*
X120294075Y-111372993D01*
X120326988Y-111430000D01*
X119410000Y-111430000D01*
X119410000Y-112077844D01*
X119416401Y-112137372D01*
X119416403Y-112137379D01*
X119466645Y-112272086D01*
X119466649Y-112272093D01*
X119552809Y-112387187D01*
X119552812Y-112387190D01*
X119667906Y-112473350D01*
X119667913Y-112473354D01*
X119802620Y-112523596D01*
X119802627Y-112523598D01*
X119862155Y-112529999D01*
X119862172Y-112530000D01*
X120510000Y-112530000D01*
X120510000Y-111613012D01*
X120567007Y-111645925D01*
X120694174Y-111680000D01*
X120825826Y-111680000D01*
X120952993Y-111645925D01*
X121010000Y-111613012D01*
X121010000Y-112530000D01*
X121657828Y-112530000D01*
X121657844Y-112529999D01*
X121717372Y-112523598D01*
X121717379Y-112523596D01*
X121852086Y-112473354D01*
X121852093Y-112473350D01*
X121967187Y-112387190D01*
X121967190Y-112387187D01*
X122053350Y-112272093D01*
X122053354Y-112272086D01*
X122103596Y-112137379D01*
X122103598Y-112137372D01*
X122109999Y-112077844D01*
X122110000Y-112077827D01*
X122110000Y-111675564D01*
X122129685Y-111608525D01*
X122182489Y-111562770D01*
X122251647Y-111552826D01*
X122315203Y-111581851D01*
X122348561Y-111628112D01*
X122355939Y-111645925D01*
X122369059Y-111677598D01*
X122445701Y-111792302D01*
X122484024Y-111849657D01*
X122630342Y-111995975D01*
X122630345Y-111995977D01*
X122802402Y-112110941D01*
X122993580Y-112190130D01*
X123196530Y-112230499D01*
X123196534Y-112230500D01*
X123196535Y-112230500D01*
X123403466Y-112230500D01*
X123403467Y-112230499D01*
X123606420Y-112190130D01*
X123797598Y-112110941D01*
X123969655Y-111995977D01*
X124115977Y-111849655D01*
X124230941Y-111677598D01*
X124310130Y-111486420D01*
X124350500Y-111283465D01*
X124350500Y-111076535D01*
X124350499Y-111076530D01*
X124789500Y-111076530D01*
X124789500Y-111283469D01*
X124829868Y-111486412D01*
X124829870Y-111486420D01*
X124909058Y-111677596D01*
X125024024Y-111849657D01*
X125170342Y-111995975D01*
X125170345Y-111995977D01*
X125342402Y-112110941D01*
X125533580Y-112190130D01*
X125736530Y-112230499D01*
X125736534Y-112230500D01*
X125736535Y-112230500D01*
X125943466Y-112230500D01*
X125943467Y-112230499D01*
X126146420Y-112190130D01*
X126337598Y-112110941D01*
X126509655Y-111995977D01*
X126655977Y-111849655D01*
X126770941Y-111677598D01*
X126850130Y-111486420D01*
X126890500Y-111283465D01*
X126890500Y-111076535D01*
X126850130Y-110873580D01*
X126770941Y-110682402D01*
X126655977Y-110510345D01*
X126655975Y-110510342D01*
X126509657Y-110364024D01*
X126387130Y-110282155D01*
X126337598Y-110249059D01*
X126146420Y-110169870D01*
X126146412Y-110169868D01*
X125943469Y-110129500D01*
X125943465Y-110129500D01*
X125736535Y-110129500D01*
X125736530Y-110129500D01*
X125533587Y-110169868D01*
X125533579Y-110169870D01*
X125342403Y-110249058D01*
X125170342Y-110364024D01*
X125024024Y-110510342D01*
X124909058Y-110682403D01*
X124829870Y-110873579D01*
X124829868Y-110873587D01*
X124789500Y-111076530D01*
X124350499Y-111076530D01*
X124310130Y-110873580D01*
X124230941Y-110682402D01*
X124115977Y-110510345D01*
X124115975Y-110510342D01*
X123969657Y-110364024D01*
X123847130Y-110282155D01*
X123797598Y-110249059D01*
X123606420Y-110169870D01*
X123606412Y-110169868D01*
X123403469Y-110129500D01*
X123403465Y-110129500D01*
X123196535Y-110129500D01*
X123196530Y-110129500D01*
X122993587Y-110169868D01*
X122993579Y-110169870D01*
X122802403Y-110249058D01*
X122630342Y-110364024D01*
X122484024Y-110510342D01*
X122369058Y-110682403D01*
X122348561Y-110731888D01*
X122304720Y-110786291D01*
X122238426Y-110808356D01*
X122170726Y-110791077D01*
X122123116Y-110739939D01*
X122110000Y-110684435D01*
X122110000Y-110282172D01*
X122109999Y-110282155D01*
X122103598Y-110222627D01*
X122103596Y-110222620D01*
X122053354Y-110087913D01*
X122053350Y-110087906D01*
X121967190Y-109972812D01*
X121967187Y-109972809D01*
X121852093Y-109886649D01*
X121852086Y-109886645D01*
X121717379Y-109836403D01*
X121717372Y-109836401D01*
X121657844Y-109830000D01*
X121010000Y-109830000D01*
X121010000Y-110746988D01*
X120952993Y-110714075D01*
X120825826Y-110680000D01*
X120694174Y-110680000D01*
X120567007Y-110714075D01*
X120510000Y-110746988D01*
X120510000Y-109830000D01*
X119862155Y-109830000D01*
X119802627Y-109836401D01*
X119802620Y-109836403D01*
X119667913Y-109886645D01*
X119667906Y-109886649D01*
X119552812Y-109972809D01*
X119552809Y-109972812D01*
X119466649Y-110087906D01*
X119466645Y-110087913D01*
X119416403Y-110222620D01*
X119416401Y-110222627D01*
X119410000Y-110282155D01*
X118950500Y-110282155D01*
X118950500Y-109327525D01*
X170849500Y-109327525D01*
X170849500Y-109472475D01*
X170887016Y-109612485D01*
X170887017Y-109612488D01*
X170959488Y-109738011D01*
X170959490Y-109738013D01*
X170959491Y-109738015D01*
X171061985Y-109840509D01*
X171061986Y-109840510D01*
X171061988Y-109840511D01*
X171187511Y-109912982D01*
X171187512Y-109912982D01*
X171187515Y-109912984D01*
X171327525Y-109950500D01*
X171327528Y-109950500D01*
X171472472Y-109950500D01*
X171472475Y-109950500D01*
X171612485Y-109912984D01*
X171738015Y-109840509D01*
X171840509Y-109738015D01*
X171912984Y-109612485D01*
X171950500Y-109472475D01*
X171950500Y-109327525D01*
X171912984Y-109187515D01*
X171840509Y-109061985D01*
X171738015Y-108959491D01*
X171738013Y-108959490D01*
X171738011Y-108959488D01*
X171612488Y-108887017D01*
X171612489Y-108887017D01*
X171601006Y-108883940D01*
X171472475Y-108849500D01*
X171327525Y-108849500D01*
X171198993Y-108883940D01*
X171187511Y-108887017D01*
X171061988Y-108959488D01*
X171061982Y-108959493D01*
X170959493Y-109061982D01*
X170959488Y-109061988D01*
X170887017Y-109187511D01*
X170887016Y-109187515D01*
X170849500Y-109327525D01*
X118950500Y-109327525D01*
X118950500Y-107873130D01*
X131144499Y-107873130D01*
X131182358Y-108014418D01*
X131220937Y-108081238D01*
X131255490Y-108141085D01*
X131358915Y-108244510D01*
X131447951Y-108295915D01*
X131485581Y-108317641D01*
X131485582Y-108317641D01*
X131485585Y-108317643D01*
X131626867Y-108355500D01*
X131626870Y-108355500D01*
X131773130Y-108355500D01*
X131773133Y-108355500D01*
X131914415Y-108317643D01*
X132041085Y-108244510D01*
X132144510Y-108141085D01*
X132217643Y-108014415D01*
X132255500Y-107873133D01*
X132255500Y-107796275D01*
X142487000Y-107796275D01*
X142487000Y-107941225D01*
X142513604Y-108040511D01*
X142524517Y-108081238D01*
X142596988Y-108206761D01*
X142596990Y-108206763D01*
X142596991Y-108206765D01*
X142699485Y-108309259D01*
X142699486Y-108309260D01*
X142699488Y-108309261D01*
X142825011Y-108381732D01*
X142825012Y-108381732D01*
X142825015Y-108381734D01*
X142965025Y-108419250D01*
X142965028Y-108419250D01*
X143109972Y-108419250D01*
X143109975Y-108419250D01*
X143249985Y-108381734D01*
X143375515Y-108309259D01*
X143478009Y-108206765D01*
X143550484Y-108081235D01*
X143588000Y-107941225D01*
X143588000Y-107796275D01*
X143550484Y-107656265D01*
X143509677Y-107585585D01*
X143507261Y-107581400D01*
X143507260Y-107581399D01*
X143506219Y-107579596D01*
X143478009Y-107530735D01*
X143474799Y-107527525D01*
X150349500Y-107527525D01*
X150349500Y-107672475D01*
X150382673Y-107796277D01*
X150387017Y-107812488D01*
X150459488Y-107938011D01*
X150459490Y-107938013D01*
X150459491Y-107938015D01*
X150561985Y-108040509D01*
X150561986Y-108040510D01*
X150561988Y-108040511D01*
X150687511Y-108112982D01*
X150687512Y-108112982D01*
X150687515Y-108112984D01*
X150827525Y-108150500D01*
X150827528Y-108150500D01*
X150972472Y-108150500D01*
X150972475Y-108150500D01*
X151112485Y-108112984D01*
X151238015Y-108040509D01*
X151340509Y-107938015D01*
X151412984Y-107812485D01*
X151450500Y-107672475D01*
X151450500Y-107527525D01*
X151412984Y-107387515D01*
X151394654Y-107355767D01*
X151340511Y-107261988D01*
X151340506Y-107261982D01*
X151238017Y-107159493D01*
X151238011Y-107159488D01*
X151112488Y-107087017D01*
X151112489Y-107087017D01*
X151101006Y-107083940D01*
X150972475Y-107049500D01*
X150827525Y-107049500D01*
X150698993Y-107083940D01*
X150687511Y-107087017D01*
X150561988Y-107159488D01*
X150561982Y-107159493D01*
X150459493Y-107261982D01*
X150459488Y-107261988D01*
X150387017Y-107387511D01*
X150387016Y-107387515D01*
X150349500Y-107527525D01*
X143474799Y-107527525D01*
X143375515Y-107428241D01*
X143375513Y-107428240D01*
X143375511Y-107428238D01*
X143249988Y-107355767D01*
X143249989Y-107355767D01*
X143238506Y-107352690D01*
X143109975Y-107318250D01*
X142965025Y-107318250D01*
X142836493Y-107352690D01*
X142825011Y-107355767D01*
X142699488Y-107428238D01*
X142699482Y-107428243D01*
X142596993Y-107530732D01*
X142596988Y-107530738D01*
X142524517Y-107656261D01*
X142524516Y-107656265D01*
X142487000Y-107796275D01*
X132255500Y-107796275D01*
X132255500Y-107726867D01*
X132217643Y-107585585D01*
X132144510Y-107458915D01*
X132041085Y-107355490D01*
X132003451Y-107333762D01*
X131914418Y-107282358D01*
X131914419Y-107282358D01*
X131902831Y-107279253D01*
X131773133Y-107244500D01*
X131626867Y-107244500D01*
X131497168Y-107279253D01*
X131485581Y-107282358D01*
X131358918Y-107355488D01*
X131358912Y-107355492D01*
X131255492Y-107458912D01*
X131255488Y-107458918D01*
X131182358Y-107585581D01*
X131182357Y-107585585D01*
X131144500Y-107726867D01*
X131144500Y-107726869D01*
X131144500Y-107873130D01*
X131144499Y-107873130D01*
X118950500Y-107873130D01*
X118950500Y-105973130D01*
X132044499Y-105973130D01*
X132082358Y-106114418D01*
X132133762Y-106203451D01*
X132155490Y-106241085D01*
X132258915Y-106344510D01*
X132347951Y-106395915D01*
X132385581Y-106417641D01*
X132385582Y-106417641D01*
X132385585Y-106417643D01*
X132526867Y-106455500D01*
X132526870Y-106455500D01*
X132673130Y-106455500D01*
X132673133Y-106455500D01*
X132814415Y-106417643D01*
X132941085Y-106344510D01*
X133044510Y-106241085D01*
X133117643Y-106114415D01*
X133155500Y-105973133D01*
X133155500Y-105826867D01*
X133117643Y-105685585D01*
X133044510Y-105558915D01*
X132941085Y-105455490D01*
X132903451Y-105433762D01*
X132814418Y-105382358D01*
X132814419Y-105382358D01*
X132802831Y-105379253D01*
X132673133Y-105344500D01*
X132526867Y-105344500D01*
X132397168Y-105379253D01*
X132385581Y-105382358D01*
X132258918Y-105455488D01*
X132258912Y-105455492D01*
X132155492Y-105558912D01*
X132155488Y-105558918D01*
X132082358Y-105685581D01*
X132082357Y-105685585D01*
X132044500Y-105826867D01*
X132044500Y-105826869D01*
X132044500Y-105973130D01*
X132044499Y-105973130D01*
X118950500Y-105973130D01*
X118950500Y-104073130D01*
X133744499Y-104073130D01*
X133782358Y-104214418D01*
X133833762Y-104303451D01*
X133855490Y-104341085D01*
X133958915Y-104444510D01*
X134047951Y-104495915D01*
X134085581Y-104517641D01*
X134085582Y-104517641D01*
X134085585Y-104517643D01*
X134226867Y-104555500D01*
X134226870Y-104555500D01*
X134373130Y-104555500D01*
X134373133Y-104555500D01*
X134514415Y-104517643D01*
X134641085Y-104444510D01*
X134744510Y-104341085D01*
X134817643Y-104214415D01*
X134855500Y-104073133D01*
X134855500Y-103926867D01*
X134817643Y-103785585D01*
X134744510Y-103658915D01*
X134641085Y-103555490D01*
X134603451Y-103533762D01*
X134514418Y-103482358D01*
X134514419Y-103482358D01*
X134502831Y-103479253D01*
X134373133Y-103444500D01*
X134226867Y-103444500D01*
X134097168Y-103479253D01*
X134085581Y-103482358D01*
X133958918Y-103555488D01*
X133958912Y-103555492D01*
X133855492Y-103658912D01*
X133855488Y-103658918D01*
X133782358Y-103785581D01*
X133782357Y-103785585D01*
X133744500Y-103926867D01*
X133744500Y-103926869D01*
X133744500Y-104073130D01*
X133744499Y-104073130D01*
X118950500Y-104073130D01*
X118950500Y-103173130D01*
X151844499Y-103173130D01*
X151882358Y-103314418D01*
X151933762Y-103403451D01*
X151955490Y-103441085D01*
X152058915Y-103544510D01*
X152147951Y-103595915D01*
X152185581Y-103617641D01*
X152185582Y-103617641D01*
X152185585Y-103617643D01*
X152326867Y-103655500D01*
X152326870Y-103655500D01*
X152473130Y-103655500D01*
X152473133Y-103655500D01*
X152614415Y-103617643D01*
X152741085Y-103544510D01*
X152844510Y-103441085D01*
X152917643Y-103314415D01*
X152955500Y-103173133D01*
X152955500Y-103026867D01*
X152917643Y-102885585D01*
X152844510Y-102758915D01*
X152741085Y-102655490D01*
X152703451Y-102633762D01*
X152614418Y-102582358D01*
X152614419Y-102582358D01*
X152602831Y-102579253D01*
X152473133Y-102544500D01*
X152326867Y-102544500D01*
X152197168Y-102579253D01*
X152185581Y-102582358D01*
X152058918Y-102655488D01*
X152058912Y-102655492D01*
X151955492Y-102758912D01*
X151955488Y-102758918D01*
X151882358Y-102885581D01*
X151882357Y-102885585D01*
X151844500Y-103026867D01*
X151844500Y-103026869D01*
X151844500Y-103173130D01*
X151844499Y-103173130D01*
X118950500Y-103173130D01*
X118950500Y-102273130D01*
X142544499Y-102273130D01*
X142582358Y-102414418D01*
X142616256Y-102473130D01*
X142655490Y-102541085D01*
X142758915Y-102644510D01*
X142847951Y-102695915D01*
X142885581Y-102717641D01*
X142885582Y-102717641D01*
X142885585Y-102717643D01*
X143026867Y-102755500D01*
X143026870Y-102755500D01*
X143173130Y-102755500D01*
X143173133Y-102755500D01*
X143314415Y-102717643D01*
X143441085Y-102644510D01*
X143544510Y-102541085D01*
X143583744Y-102473130D01*
X146444499Y-102473130D01*
X146482358Y-102614418D01*
X146533762Y-102703451D01*
X146555490Y-102741085D01*
X146658915Y-102844510D01*
X146730052Y-102885581D01*
X146785581Y-102917641D01*
X146785582Y-102917641D01*
X146785585Y-102917643D01*
X146926867Y-102955500D01*
X146926870Y-102955500D01*
X147073130Y-102955500D01*
X147073133Y-102955500D01*
X147214415Y-102917643D01*
X147341085Y-102844510D01*
X147444510Y-102741085D01*
X147517643Y-102614415D01*
X147555500Y-102473133D01*
X147555500Y-102326867D01*
X147517643Y-102185585D01*
X147444510Y-102058915D01*
X147341085Y-101955490D01*
X147303451Y-101933762D01*
X147214418Y-101882358D01*
X147214419Y-101882358D01*
X147202831Y-101879253D01*
X147073133Y-101844500D01*
X146926867Y-101844500D01*
X146797168Y-101879253D01*
X146785581Y-101882358D01*
X146658918Y-101955488D01*
X146658912Y-101955492D01*
X146555492Y-102058912D01*
X146555488Y-102058918D01*
X146482358Y-102185581D01*
X146482357Y-102185585D01*
X146444500Y-102326867D01*
X146444500Y-102326869D01*
X146444500Y-102473130D01*
X146444499Y-102473130D01*
X143583744Y-102473130D01*
X143617643Y-102414415D01*
X143655500Y-102273133D01*
X143655500Y-102126867D01*
X143617643Y-101985585D01*
X143600266Y-101955488D01*
X143545332Y-101860339D01*
X143544510Y-101858915D01*
X143441085Y-101755490D01*
X143392993Y-101727724D01*
X143392992Y-101727723D01*
X143314418Y-101682358D01*
X143314419Y-101682358D01*
X143276785Y-101672274D01*
X143173133Y-101644500D01*
X143026867Y-101644500D01*
X142923215Y-101672274D01*
X142885581Y-101682358D01*
X142758918Y-101755488D01*
X142758912Y-101755492D01*
X142655492Y-101858912D01*
X142655488Y-101858918D01*
X142582358Y-101985581D01*
X142582357Y-101985585D01*
X142544500Y-102126867D01*
X142544500Y-102126869D01*
X142544500Y-102273130D01*
X142544499Y-102273130D01*
X118950500Y-102273130D01*
X118950500Y-100927525D01*
X133249500Y-100927525D01*
X133249500Y-101072475D01*
X133287016Y-101212485D01*
X133287017Y-101212488D01*
X133359488Y-101338011D01*
X133359490Y-101338013D01*
X133359491Y-101338015D01*
X133461985Y-101440509D01*
X133461986Y-101440510D01*
X133461988Y-101440511D01*
X133587511Y-101512982D01*
X133587512Y-101512982D01*
X133587515Y-101512984D01*
X133727525Y-101550500D01*
X133727528Y-101550500D01*
X133872472Y-101550500D01*
X133872475Y-101550500D01*
X134012485Y-101512984D01*
X134138015Y-101440509D01*
X134240509Y-101338015D01*
X134277970Y-101273130D01*
X143444499Y-101273130D01*
X143482358Y-101414418D01*
X143554667Y-101539660D01*
X143555490Y-101541085D01*
X143658915Y-101644510D01*
X143785585Y-101717643D01*
X143926867Y-101755500D01*
X143926870Y-101755500D01*
X144073130Y-101755500D01*
X144073133Y-101755500D01*
X144214415Y-101717643D01*
X144341085Y-101644510D01*
X144444510Y-101541085D01*
X144517643Y-101414415D01*
X144555500Y-101273133D01*
X144555500Y-101126867D01*
X144517643Y-100985585D01*
X144444510Y-100858915D01*
X144341085Y-100755490D01*
X144292993Y-100727724D01*
X144292992Y-100727723D01*
X144214418Y-100682358D01*
X144214419Y-100682358D01*
X144176785Y-100672274D01*
X144073133Y-100644500D01*
X143926867Y-100644500D01*
X143823215Y-100672274D01*
X143785581Y-100682358D01*
X143658918Y-100755488D01*
X143658912Y-100755492D01*
X143555492Y-100858912D01*
X143555488Y-100858918D01*
X143482358Y-100985581D01*
X143482357Y-100985585D01*
X143444500Y-101126867D01*
X143444500Y-101126869D01*
X143444500Y-101273130D01*
X143444499Y-101273130D01*
X134277970Y-101273130D01*
X134312984Y-101212485D01*
X134350500Y-101072475D01*
X134350500Y-100927525D01*
X134312984Y-100787515D01*
X134294495Y-100755492D01*
X134240511Y-100661988D01*
X134240506Y-100661982D01*
X134138017Y-100559493D01*
X134138011Y-100559488D01*
X134012488Y-100487017D01*
X134012489Y-100487017D01*
X133995549Y-100482478D01*
X133872475Y-100449500D01*
X133727525Y-100449500D01*
X133604451Y-100482478D01*
X133587511Y-100487017D01*
X133461988Y-100559488D01*
X133461982Y-100559493D01*
X133359493Y-100661982D01*
X133359488Y-100661988D01*
X133287017Y-100787511D01*
X133287016Y-100787515D01*
X133249500Y-100927525D01*
X118950500Y-100927525D01*
X118950500Y-100273130D01*
X144344499Y-100273130D01*
X144382358Y-100414418D01*
X144454667Y-100539660D01*
X144455490Y-100541085D01*
X144558915Y-100644510D01*
X144685585Y-100717643D01*
X144826867Y-100755500D01*
X144826870Y-100755500D01*
X144973130Y-100755500D01*
X144973133Y-100755500D01*
X145114415Y-100717643D01*
X145241085Y-100644510D01*
X145344510Y-100541085D01*
X145417643Y-100414415D01*
X145455500Y-100273133D01*
X145455500Y-100126867D01*
X145446012Y-100091457D01*
X170369499Y-100091457D01*
X170397379Y-100231614D01*
X170397381Y-100231620D01*
X170452069Y-100363650D01*
X170452074Y-100363659D01*
X170531467Y-100482478D01*
X170531470Y-100482482D01*
X170632517Y-100583529D01*
X170632521Y-100583532D01*
X170751340Y-100662925D01*
X170751346Y-100662928D01*
X170751347Y-100662929D01*
X170883380Y-100717619D01*
X170883384Y-100717619D01*
X170883385Y-100717620D01*
X171023542Y-100745500D01*
X171023545Y-100745500D01*
X172216457Y-100745500D01*
X172310751Y-100726742D01*
X172356620Y-100717619D01*
X172488653Y-100662929D01*
X172607479Y-100583532D01*
X172708532Y-100482479D01*
X172787929Y-100363653D01*
X172842619Y-100231620D01*
X172870500Y-100091455D01*
X172870500Y-100086533D01*
X174674499Y-100086533D01*
X174700458Y-100217030D01*
X174700461Y-100217040D01*
X174751376Y-100339961D01*
X174751386Y-100339979D01*
X174825301Y-100450601D01*
X174825307Y-100450609D01*
X174919390Y-100544692D01*
X174919398Y-100544698D01*
X175030020Y-100618613D01*
X175030023Y-100618614D01*
X175030031Y-100618620D01*
X175030037Y-100618622D01*
X175030038Y-100618623D01*
X175136994Y-100662925D01*
X175152964Y-100669540D01*
X175152968Y-100669540D01*
X175152969Y-100669541D01*
X175283466Y-100695500D01*
X175283469Y-100695500D01*
X176316533Y-100695500D01*
X176404325Y-100678035D01*
X176447036Y-100669540D01*
X176569969Y-100618620D01*
X176680606Y-100544695D01*
X176774695Y-100450606D01*
X176848620Y-100339969D01*
X176899540Y-100217036D01*
X176917476Y-100126869D01*
X176925500Y-100086533D01*
X176925500Y-99953466D01*
X176899541Y-99822969D01*
X176899540Y-99822968D01*
X176899540Y-99822964D01*
X176893499Y-99808379D01*
X176848623Y-99700038D01*
X176848622Y-99700037D01*
X176848620Y-99700031D01*
X176836811Y-99682358D01*
X176774698Y-99589398D01*
X176774692Y-99589390D01*
X176680609Y-99495307D01*
X176680601Y-99495301D01*
X176569979Y-99421386D01*
X176569972Y-99421382D01*
X176569969Y-99421380D01*
X176569965Y-99421378D01*
X176569961Y-99421376D01*
X176447040Y-99370461D01*
X176447030Y-99370458D01*
X176316533Y-99344500D01*
X176316531Y-99344500D01*
X175283469Y-99344500D01*
X175283467Y-99344500D01*
X175152969Y-99370458D01*
X175152959Y-99370461D01*
X175030038Y-99421376D01*
X175030020Y-99421386D01*
X174919398Y-99495301D01*
X174919390Y-99495307D01*
X174825307Y-99589390D01*
X174825301Y-99589398D01*
X174751386Y-99700020D01*
X174751376Y-99700038D01*
X174700461Y-99822959D01*
X174700458Y-99822969D01*
X174674500Y-99953466D01*
X174674500Y-99953469D01*
X174674500Y-100086531D01*
X174674500Y-100086533D01*
X174674499Y-100086533D01*
X172870500Y-100086533D01*
X172870500Y-99948545D01*
X172870500Y-99948542D01*
X172842620Y-99808385D01*
X172842619Y-99808384D01*
X172842619Y-99808380D01*
X172790419Y-99682358D01*
X172787930Y-99676349D01*
X172787925Y-99676340D01*
X172708532Y-99557521D01*
X172708529Y-99557517D01*
X172607482Y-99456470D01*
X172607478Y-99456467D01*
X172488659Y-99377074D01*
X172488649Y-99377069D01*
X172454377Y-99362873D01*
X172399973Y-99319032D01*
X172377909Y-99252737D01*
X172395189Y-99185038D01*
X172432938Y-99145210D01*
X172525108Y-99083625D01*
X172613625Y-98995108D01*
X172683173Y-98891022D01*
X172731078Y-98775369D01*
X172755500Y-98652591D01*
X172755500Y-98527409D01*
X172731078Y-98404631D01*
X172693711Y-98314418D01*
X172683176Y-98288984D01*
X172683169Y-98288971D01*
X172613625Y-98184892D01*
X172613622Y-98184888D01*
X172525111Y-98096377D01*
X172525107Y-98096374D01*
X172421028Y-98026830D01*
X172421015Y-98026823D01*
X172305373Y-97978923D01*
X172305361Y-97978920D01*
X172182595Y-97954500D01*
X172182591Y-97954500D01*
X172057409Y-97954500D01*
X172057404Y-97954500D01*
X171934638Y-97978920D01*
X171934626Y-97978923D01*
X171818984Y-98026823D01*
X171818971Y-98026830D01*
X171714892Y-98096374D01*
X171714888Y-98096377D01*
X171626377Y-98184888D01*
X171626374Y-98184892D01*
X171556830Y-98288971D01*
X171556823Y-98288984D01*
X171508923Y-98404626D01*
X171508920Y-98404638D01*
X171484500Y-98527404D01*
X171484500Y-98652595D01*
X171508920Y-98775361D01*
X171508923Y-98775373D01*
X171556823Y-98891015D01*
X171556830Y-98891028D01*
X171626374Y-98995107D01*
X171626377Y-98995111D01*
X171714085Y-99082819D01*
X171747570Y-99144142D01*
X171742586Y-99213834D01*
X171700714Y-99269767D01*
X171635250Y-99294184D01*
X171626404Y-99294500D01*
X171023543Y-99294500D01*
X170883385Y-99322379D01*
X170883379Y-99322381D01*
X170751349Y-99377069D01*
X170751340Y-99377074D01*
X170632521Y-99456467D01*
X170632517Y-99456470D01*
X170531470Y-99557517D01*
X170531467Y-99557521D01*
X170452074Y-99676340D01*
X170452069Y-99676349D01*
X170397381Y-99808379D01*
X170397379Y-99808385D01*
X170369500Y-99948542D01*
X170369500Y-99948545D01*
X170369500Y-100091455D01*
X170369500Y-100091457D01*
X170369499Y-100091457D01*
X145446012Y-100091457D01*
X145417643Y-99985585D01*
X145344510Y-99858915D01*
X145241085Y-99755490D01*
X145203451Y-99733762D01*
X145114418Y-99682358D01*
X145114419Y-99682358D01*
X145091993Y-99676349D01*
X144973133Y-99644500D01*
X144826867Y-99644500D01*
X144708007Y-99676349D01*
X144685581Y-99682358D01*
X144558918Y-99755488D01*
X144558912Y-99755492D01*
X144455492Y-99858912D01*
X144455488Y-99858918D01*
X144382358Y-99985581D01*
X144382357Y-99985585D01*
X144344500Y-100126867D01*
X144344500Y-100126869D01*
X144344500Y-100273130D01*
X144344499Y-100273130D01*
X118950500Y-100273130D01*
X118950500Y-99573130D01*
X160544499Y-99573130D01*
X160582358Y-99714418D01*
X160633762Y-99803451D01*
X160655490Y-99841085D01*
X160758915Y-99944510D01*
X160830052Y-99985581D01*
X160885581Y-100017641D01*
X160885582Y-100017641D01*
X160885585Y-100017643D01*
X161026867Y-100055500D01*
X161026870Y-100055500D01*
X161173130Y-100055500D01*
X161173133Y-100055500D01*
X161314415Y-100017643D01*
X161441085Y-99944510D01*
X161544510Y-99841085D01*
X161617643Y-99714415D01*
X161655500Y-99573133D01*
X161655500Y-99426867D01*
X161617643Y-99285585D01*
X161608510Y-99269767D01*
X161582953Y-99225500D01*
X161544510Y-99158915D01*
X161441085Y-99055490D01*
X161403451Y-99033762D01*
X161314418Y-98982358D01*
X161314419Y-98982358D01*
X161302831Y-98979253D01*
X161173133Y-98944500D01*
X161026867Y-98944500D01*
X160897168Y-98979253D01*
X160885581Y-98982358D01*
X160758918Y-99055488D01*
X160758912Y-99055492D01*
X160655492Y-99158912D01*
X160655488Y-99158918D01*
X160582358Y-99285581D01*
X160582357Y-99285585D01*
X160544500Y-99426867D01*
X160544500Y-99426869D01*
X160544500Y-99573130D01*
X160544499Y-99573130D01*
X118950500Y-99573130D01*
X118950500Y-98573130D01*
X147444499Y-98573130D01*
X147482358Y-98714418D01*
X147517544Y-98775361D01*
X147555490Y-98841085D01*
X147658915Y-98944510D01*
X147724468Y-98982357D01*
X147785581Y-99017641D01*
X147785582Y-99017641D01*
X147785585Y-99017643D01*
X147926867Y-99055500D01*
X147926870Y-99055500D01*
X148073130Y-99055500D01*
X148073133Y-99055500D01*
X148214415Y-99017643D01*
X148341085Y-98944510D01*
X148444510Y-98841085D01*
X148517643Y-98714415D01*
X148555500Y-98573133D01*
X148555500Y-98426867D01*
X148517643Y-98285585D01*
X148452717Y-98173130D01*
X159544499Y-98173130D01*
X159582358Y-98314418D01*
X159633762Y-98403451D01*
X159655490Y-98441085D01*
X159758915Y-98544510D01*
X159847951Y-98595915D01*
X159885581Y-98617641D01*
X159885582Y-98617641D01*
X159885585Y-98617643D01*
X160026867Y-98655500D01*
X160026870Y-98655500D01*
X160173130Y-98655500D01*
X160173133Y-98655500D01*
X160314415Y-98617643D01*
X160441085Y-98544510D01*
X160544510Y-98441085D01*
X160617643Y-98314415D01*
X160655500Y-98173133D01*
X160655500Y-98026867D01*
X160617643Y-97885585D01*
X160544510Y-97758915D01*
X160441085Y-97655490D01*
X160403451Y-97633762D01*
X160314418Y-97582358D01*
X160314419Y-97582358D01*
X160277524Y-97572472D01*
X160173133Y-97544500D01*
X160026867Y-97544500D01*
X159922476Y-97572472D01*
X159885581Y-97582358D01*
X159758918Y-97655488D01*
X159758912Y-97655492D01*
X159655492Y-97758912D01*
X159655488Y-97758918D01*
X159582358Y-97885581D01*
X159582357Y-97885585D01*
X159544500Y-98026867D01*
X159544500Y-98026869D01*
X159544500Y-98173130D01*
X159544499Y-98173130D01*
X148452717Y-98173130D01*
X148444510Y-98158915D01*
X148341085Y-98055490D01*
X148322069Y-98044511D01*
X148214418Y-97982358D01*
X148214419Y-97982358D01*
X148201588Y-97978920D01*
X148073133Y-97944500D01*
X147926867Y-97944500D01*
X147798412Y-97978920D01*
X147785581Y-97982358D01*
X147658918Y-98055488D01*
X147658912Y-98055492D01*
X147555492Y-98158912D01*
X147555488Y-98158918D01*
X147482358Y-98285581D01*
X147482357Y-98285585D01*
X147444500Y-98426867D01*
X147444500Y-98426869D01*
X147444500Y-98573130D01*
X147444499Y-98573130D01*
X118950500Y-98573130D01*
X118950500Y-97327525D01*
X141349500Y-97327525D01*
X141349500Y-97472475D01*
X141387016Y-97612485D01*
X141387017Y-97612488D01*
X141459488Y-97738011D01*
X141459490Y-97738013D01*
X141459491Y-97738015D01*
X141561985Y-97840509D01*
X141561986Y-97840510D01*
X141561988Y-97840511D01*
X141687511Y-97912982D01*
X141687512Y-97912982D01*
X141687515Y-97912984D01*
X141827525Y-97950500D01*
X141827528Y-97950500D01*
X141972472Y-97950500D01*
X141972475Y-97950500D01*
X142112485Y-97912984D01*
X142238015Y-97840509D01*
X142340509Y-97738015D01*
X142377970Y-97673130D01*
X148444499Y-97673130D01*
X148482358Y-97814418D01*
X148523447Y-97885585D01*
X148555490Y-97941085D01*
X148658915Y-98044510D01*
X148684863Y-98059491D01*
X148785581Y-98117641D01*
X148785582Y-98117641D01*
X148785585Y-98117643D01*
X148926867Y-98155500D01*
X148926870Y-98155500D01*
X149073130Y-98155500D01*
X149073133Y-98155500D01*
X149214415Y-98117643D01*
X149341085Y-98044510D01*
X149444510Y-97941085D01*
X149517643Y-97814415D01*
X149555500Y-97673133D01*
X149555500Y-97526867D01*
X149528881Y-97427525D01*
X165849500Y-97427525D01*
X165849500Y-97572475D01*
X165871745Y-97655492D01*
X165887017Y-97712488D01*
X165959488Y-97838011D01*
X165959493Y-97838017D01*
X166033795Y-97912319D01*
X166067280Y-97973642D01*
X166062296Y-98043334D01*
X166033795Y-98087681D01*
X165959493Y-98161982D01*
X165959488Y-98161988D01*
X165887017Y-98287511D01*
X165887016Y-98287515D01*
X165849500Y-98427525D01*
X165849500Y-98572475D01*
X165871747Y-98655500D01*
X165887017Y-98712488D01*
X165959488Y-98838011D01*
X165959490Y-98838013D01*
X165959491Y-98838015D01*
X166061985Y-98940509D01*
X166061986Y-98940510D01*
X166061988Y-98940511D01*
X166187511Y-99012982D01*
X166187512Y-99012982D01*
X166187515Y-99012984D01*
X166327525Y-99050500D01*
X166327528Y-99050500D01*
X166472472Y-99050500D01*
X166472475Y-99050500D01*
X166612485Y-99012984D01*
X166738015Y-98940509D01*
X166840509Y-98838015D01*
X166912984Y-98712485D01*
X166950500Y-98572475D01*
X166950500Y-98427525D01*
X166912984Y-98287515D01*
X166911867Y-98285581D01*
X166840511Y-98161988D01*
X166840506Y-98161982D01*
X166766205Y-98087681D01*
X166732720Y-98026358D01*
X166737704Y-97956666D01*
X166766205Y-97912319D01*
X166792943Y-97885581D01*
X166840509Y-97838015D01*
X166912984Y-97712485D01*
X166950500Y-97572475D01*
X166950500Y-97427525D01*
X166912984Y-97287515D01*
X166896473Y-97258918D01*
X166840511Y-97161988D01*
X166840506Y-97161982D01*
X166738017Y-97059493D01*
X166738011Y-97059488D01*
X166612488Y-96987017D01*
X166612489Y-96987017D01*
X166601006Y-96983940D01*
X166472475Y-96949500D01*
X166327525Y-96949500D01*
X166198993Y-96983940D01*
X166187511Y-96987017D01*
X166061988Y-97059488D01*
X166061982Y-97059493D01*
X165959493Y-97161982D01*
X165959488Y-97161988D01*
X165887017Y-97287511D01*
X165887016Y-97287515D01*
X165849500Y-97427525D01*
X149528881Y-97427525D01*
X149517643Y-97385585D01*
X149444510Y-97258915D01*
X149341085Y-97155490D01*
X149303451Y-97133762D01*
X149214418Y-97082358D01*
X149214419Y-97082358D01*
X149202831Y-97079253D01*
X149073133Y-97044500D01*
X148926867Y-97044500D01*
X148797168Y-97079253D01*
X148785581Y-97082358D01*
X148658918Y-97155488D01*
X148658912Y-97155492D01*
X148555492Y-97258912D01*
X148555488Y-97258918D01*
X148482358Y-97385581D01*
X148482357Y-97385585D01*
X148444500Y-97526867D01*
X148444500Y-97526869D01*
X148444500Y-97673130D01*
X148444499Y-97673130D01*
X142377970Y-97673130D01*
X142412984Y-97612485D01*
X142450500Y-97472475D01*
X142450500Y-97327525D01*
X142412984Y-97187515D01*
X142398244Y-97161985D01*
X142340511Y-97061988D01*
X142340506Y-97061982D01*
X142238017Y-96959493D01*
X142238011Y-96959488D01*
X142112488Y-96887017D01*
X142112489Y-96887017D01*
X142101006Y-96883940D01*
X141972475Y-96849500D01*
X141827525Y-96849500D01*
X141698993Y-96883940D01*
X141687511Y-96887017D01*
X141561988Y-96959488D01*
X141561982Y-96959493D01*
X141459493Y-97061982D01*
X141459488Y-97061988D01*
X141387017Y-97187511D01*
X141387016Y-97187515D01*
X141349500Y-97327525D01*
X118950500Y-97327525D01*
X118950500Y-95727525D01*
X164049500Y-95727525D01*
X164049500Y-95872475D01*
X164087016Y-96012485D01*
X164087017Y-96012488D01*
X164159488Y-96138011D01*
X164159490Y-96138013D01*
X164159491Y-96138015D01*
X164261985Y-96240509D01*
X164261986Y-96240510D01*
X164261988Y-96240511D01*
X164387511Y-96312982D01*
X164387512Y-96312982D01*
X164387515Y-96312984D01*
X164527525Y-96350500D01*
X164527528Y-96350500D01*
X164672472Y-96350500D01*
X164672475Y-96350500D01*
X164812485Y-96312984D01*
X164938015Y-96240509D01*
X165040509Y-96138015D01*
X165112984Y-96012485D01*
X165150500Y-95872475D01*
X165150500Y-95727525D01*
X165112984Y-95587515D01*
X165040509Y-95461985D01*
X164938015Y-95359491D01*
X164938013Y-95359490D01*
X164938011Y-95359488D01*
X164812488Y-95287017D01*
X164812489Y-95287017D01*
X164801006Y-95283940D01*
X164672475Y-95249500D01*
X164527525Y-95249500D01*
X164398993Y-95283940D01*
X164387511Y-95287017D01*
X164261988Y-95359488D01*
X164261982Y-95359493D01*
X164159493Y-95461982D01*
X164159488Y-95461988D01*
X164087017Y-95587511D01*
X164087016Y-95587515D01*
X164049500Y-95727525D01*
X118950500Y-95727525D01*
X118950500Y-94427525D01*
X143049500Y-94427525D01*
X143049500Y-94572475D01*
X143070407Y-94650500D01*
X143087017Y-94712488D01*
X143159488Y-94838011D01*
X143159490Y-94838013D01*
X143159491Y-94838015D01*
X143261985Y-94940509D01*
X143261986Y-94940510D01*
X143261988Y-94940511D01*
X143387511Y-95012982D01*
X143387512Y-95012982D01*
X143387515Y-95012984D01*
X143527525Y-95050500D01*
X143527528Y-95050500D01*
X143672472Y-95050500D01*
X143672475Y-95050500D01*
X143812485Y-95012984D01*
X143938015Y-94940509D01*
X144040509Y-94838015D01*
X144112984Y-94712485D01*
X144150324Y-94573130D01*
X144444499Y-94573130D01*
X144482358Y-94714418D01*
X144516256Y-94773130D01*
X144555490Y-94841085D01*
X144658915Y-94944510D01*
X144747951Y-94995915D01*
X144785581Y-95017641D01*
X144785582Y-95017641D01*
X144785585Y-95017643D01*
X144926867Y-95055500D01*
X144926870Y-95055500D01*
X145073130Y-95055500D01*
X145073133Y-95055500D01*
X145214415Y-95017643D01*
X145341085Y-94944510D01*
X145444510Y-94841085D01*
X145483744Y-94773130D01*
X146244499Y-94773130D01*
X146282358Y-94914418D01*
X146333762Y-95003451D01*
X146355490Y-95041085D01*
X146458915Y-95144510D01*
X146547951Y-95195915D01*
X146585581Y-95217641D01*
X146585582Y-95217641D01*
X146585585Y-95217643D01*
X146726867Y-95255500D01*
X146726870Y-95255500D01*
X146873130Y-95255500D01*
X146873133Y-95255500D01*
X147014415Y-95217643D01*
X147141085Y-95144510D01*
X147244510Y-95041085D01*
X147317643Y-94914415D01*
X147355500Y-94773133D01*
X147355500Y-94626867D01*
X147317643Y-94485585D01*
X147244510Y-94358915D01*
X147141085Y-94255490D01*
X147103451Y-94233762D01*
X147014418Y-94182358D01*
X147014419Y-94182358D01*
X146977524Y-94172472D01*
X146873133Y-94144500D01*
X146726867Y-94144500D01*
X146622476Y-94172472D01*
X146585581Y-94182358D01*
X146458918Y-94255488D01*
X146458912Y-94255492D01*
X146355492Y-94358912D01*
X146355488Y-94358918D01*
X146282358Y-94485581D01*
X146282357Y-94485585D01*
X146244500Y-94626867D01*
X146244500Y-94626869D01*
X146244500Y-94773130D01*
X146244499Y-94773130D01*
X145483744Y-94773130D01*
X145517643Y-94714415D01*
X145555500Y-94573133D01*
X145555500Y-94426867D01*
X145517643Y-94285585D01*
X145500266Y-94255488D01*
X145495915Y-94247951D01*
X145444510Y-94158915D01*
X145341085Y-94055490D01*
X145292648Y-94027525D01*
X145214418Y-93982358D01*
X145214419Y-93982358D01*
X145202831Y-93979253D01*
X145073133Y-93944500D01*
X144926867Y-93944500D01*
X144797168Y-93979253D01*
X144785581Y-93982358D01*
X144658918Y-94055488D01*
X144658912Y-94055492D01*
X144555492Y-94158912D01*
X144555488Y-94158918D01*
X144482358Y-94285581D01*
X144482357Y-94285585D01*
X144444500Y-94426867D01*
X144444500Y-94426869D01*
X144444500Y-94573130D01*
X144444499Y-94573130D01*
X144150324Y-94573130D01*
X144150500Y-94572475D01*
X144150500Y-94427525D01*
X144112984Y-94287515D01*
X144111867Y-94285581D01*
X144040511Y-94161988D01*
X144040506Y-94161982D01*
X143938017Y-94059493D01*
X143938011Y-94059488D01*
X143812488Y-93987017D01*
X143812489Y-93987017D01*
X143795101Y-93982358D01*
X143672475Y-93949500D01*
X143527525Y-93949500D01*
X143404899Y-93982358D01*
X143387511Y-93987017D01*
X143261988Y-94059488D01*
X143261982Y-94059493D01*
X143159493Y-94161982D01*
X143159488Y-94161988D01*
X143087017Y-94287511D01*
X143087016Y-94287515D01*
X143049500Y-94427525D01*
X118950500Y-94427525D01*
X118950500Y-93427525D01*
X135849500Y-93427525D01*
X135849500Y-93572475D01*
X135887016Y-93712485D01*
X135887017Y-93712488D01*
X135959488Y-93838011D01*
X135959490Y-93838013D01*
X135959491Y-93838015D01*
X136061985Y-93940509D01*
X136061986Y-93940510D01*
X136061988Y-93940511D01*
X136187511Y-94012982D01*
X136187512Y-94012982D01*
X136187515Y-94012984D01*
X136327525Y-94050500D01*
X136327528Y-94050500D01*
X136472472Y-94050500D01*
X136472475Y-94050500D01*
X136612485Y-94012984D01*
X136738015Y-93940509D01*
X136840509Y-93838015D01*
X136912984Y-93712485D01*
X136950500Y-93572475D01*
X136950500Y-93427525D01*
X136923705Y-93327525D01*
X157249500Y-93327525D01*
X157249500Y-93472475D01*
X157280192Y-93587016D01*
X157287017Y-93612488D01*
X157359488Y-93738011D01*
X157359490Y-93738013D01*
X157359491Y-93738015D01*
X157461985Y-93840509D01*
X157461986Y-93840510D01*
X157461988Y-93840511D01*
X157587511Y-93912982D01*
X157587512Y-93912982D01*
X157587515Y-93912984D01*
X157727525Y-93950500D01*
X157727528Y-93950500D01*
X157872472Y-93950500D01*
X157872475Y-93950500D01*
X158012485Y-93912984D01*
X158138015Y-93840509D01*
X158240509Y-93738015D01*
X158312984Y-93612485D01*
X158350500Y-93472475D01*
X158350500Y-93327525D01*
X158312984Y-93187515D01*
X158298244Y-93161985D01*
X158240511Y-93061988D01*
X158240506Y-93061982D01*
X158138017Y-92959493D01*
X158138011Y-92959488D01*
X158117291Y-92947525D01*
X165949500Y-92947525D01*
X165949500Y-93092475D01*
X165982360Y-93215107D01*
X165987017Y-93232488D01*
X166059488Y-93358011D01*
X166059490Y-93358013D01*
X166059491Y-93358015D01*
X166161985Y-93460509D01*
X166161987Y-93460510D01*
X166163441Y-93461626D01*
X166164358Y-93462882D01*
X166167732Y-93466256D01*
X166167205Y-93466782D01*
X166204642Y-93518055D01*
X166208795Y-93587801D01*
X166174581Y-93648721D01*
X166163441Y-93658374D01*
X166161983Y-93659492D01*
X166059493Y-93761982D01*
X166059488Y-93761988D01*
X165987017Y-93887511D01*
X165987016Y-93887515D01*
X165949500Y-94027525D01*
X165949500Y-94172475D01*
X165987016Y-94312485D01*
X165987017Y-94312488D01*
X166059488Y-94438011D01*
X166059490Y-94438013D01*
X166059491Y-94438015D01*
X166161985Y-94540509D01*
X166161986Y-94540510D01*
X166161988Y-94540511D01*
X166287511Y-94612982D01*
X166287512Y-94612982D01*
X166287515Y-94612984D01*
X166427525Y-94650500D01*
X166427528Y-94650500D01*
X166572472Y-94650500D01*
X166572475Y-94650500D01*
X166712485Y-94612984D01*
X166838015Y-94540509D01*
X166940509Y-94438015D01*
X167012984Y-94312485D01*
X167050500Y-94172475D01*
X167050500Y-94027525D01*
X167012984Y-93887515D01*
X166985843Y-93840506D01*
X166940511Y-93761988D01*
X166940506Y-93761982D01*
X166838016Y-93659492D01*
X166836564Y-93658378D01*
X166835648Y-93657124D01*
X166832268Y-93653744D01*
X166832795Y-93653216D01*
X166795359Y-93601952D01*
X166791202Y-93532206D01*
X166825412Y-93471284D01*
X166836564Y-93461622D01*
X166838008Y-93460512D01*
X166838015Y-93460509D01*
X166940509Y-93358015D01*
X167012984Y-93232485D01*
X167050500Y-93092475D01*
X167050500Y-92947525D01*
X167012984Y-92807515D01*
X166940509Y-92681985D01*
X166838015Y-92579491D01*
X166838013Y-92579490D01*
X166838011Y-92579488D01*
X166712488Y-92507017D01*
X166712489Y-92507017D01*
X166701006Y-92503940D01*
X166572475Y-92469500D01*
X166427525Y-92469500D01*
X166298993Y-92503940D01*
X166287511Y-92507017D01*
X166161988Y-92579488D01*
X166161982Y-92579493D01*
X166059493Y-92681982D01*
X166059488Y-92681988D01*
X165987017Y-92807511D01*
X165987016Y-92807515D01*
X165949500Y-92947525D01*
X158117291Y-92947525D01*
X158012488Y-92887017D01*
X158012489Y-92887017D01*
X158001006Y-92883940D01*
X157872475Y-92849500D01*
X157727525Y-92849500D01*
X157598993Y-92883940D01*
X157587511Y-92887017D01*
X157461988Y-92959488D01*
X157461982Y-92959493D01*
X157359493Y-93061982D01*
X157359488Y-93061988D01*
X157287017Y-93187511D01*
X157287016Y-93187515D01*
X157249500Y-93327525D01*
X136923705Y-93327525D01*
X136912984Y-93287515D01*
X136881212Y-93232485D01*
X136840511Y-93161988D01*
X136840506Y-93161982D01*
X136738017Y-93059493D01*
X136738011Y-93059488D01*
X136612488Y-92987017D01*
X136612489Y-92987017D01*
X136601006Y-92983940D01*
X136472475Y-92949500D01*
X136327525Y-92949500D01*
X136198993Y-92983940D01*
X136187511Y-92987017D01*
X136061988Y-93059488D01*
X136061982Y-93059493D01*
X135959493Y-93161982D01*
X135959488Y-93161988D01*
X135887017Y-93287511D01*
X135887016Y-93287515D01*
X135849500Y-93427525D01*
X118950500Y-93427525D01*
X118950500Y-92027525D01*
X132549500Y-92027525D01*
X132549500Y-92172475D01*
X132586539Y-92310703D01*
X132587017Y-92312488D01*
X132659488Y-92438011D01*
X132659490Y-92438013D01*
X132659491Y-92438015D01*
X132761985Y-92540509D01*
X132761986Y-92540510D01*
X132761988Y-92540511D01*
X132887511Y-92612982D01*
X132887512Y-92612982D01*
X132887515Y-92612984D01*
X133027525Y-92650500D01*
X133027528Y-92650500D01*
X133172472Y-92650500D01*
X133172475Y-92650500D01*
X133312485Y-92612984D01*
X133438015Y-92540509D01*
X133540509Y-92438015D01*
X133612984Y-92312485D01*
X133650500Y-92172475D01*
X133650500Y-92027525D01*
X133612984Y-91887515D01*
X133586982Y-91842479D01*
X133540511Y-91761988D01*
X133540506Y-91761982D01*
X133438017Y-91659493D01*
X133438011Y-91659488D01*
X133312488Y-91587017D01*
X133312489Y-91587017D01*
X133301006Y-91583940D01*
X133172475Y-91549500D01*
X133027525Y-91549500D01*
X132898993Y-91583940D01*
X132887511Y-91587017D01*
X132761988Y-91659488D01*
X132761982Y-91659493D01*
X132659493Y-91761982D01*
X132659488Y-91761988D01*
X132587017Y-91887511D01*
X132587016Y-91887515D01*
X132549500Y-92027525D01*
X118950500Y-92027525D01*
X118950500Y-91451457D01*
X170369499Y-91451457D01*
X170397379Y-91591614D01*
X170397381Y-91591620D01*
X170452069Y-91723650D01*
X170452074Y-91723659D01*
X170531467Y-91842478D01*
X170531470Y-91842482D01*
X170632517Y-91943529D01*
X170632521Y-91943532D01*
X170751340Y-92022925D01*
X170751349Y-92022930D01*
X170781258Y-92035318D01*
X170883380Y-92077619D01*
X170883384Y-92077619D01*
X170883385Y-92077620D01*
X171023542Y-92105500D01*
X171626404Y-92105500D01*
X171693443Y-92125185D01*
X171739198Y-92177989D01*
X171749142Y-92247147D01*
X171720117Y-92310703D01*
X171714085Y-92317181D01*
X171626377Y-92404888D01*
X171626374Y-92404892D01*
X171556830Y-92508971D01*
X171556823Y-92508984D01*
X171508923Y-92624626D01*
X171508920Y-92624638D01*
X171484500Y-92747404D01*
X171484500Y-92872595D01*
X171508920Y-92995361D01*
X171508923Y-92995373D01*
X171556823Y-93111015D01*
X171556830Y-93111028D01*
X171626374Y-93215107D01*
X171626377Y-93215111D01*
X171714888Y-93303622D01*
X171714892Y-93303625D01*
X171818971Y-93373169D01*
X171818984Y-93373176D01*
X171934626Y-93421076D01*
X171934631Y-93421078D01*
X172057404Y-93445499D01*
X172057408Y-93445500D01*
X172057409Y-93445500D01*
X172182592Y-93445500D01*
X172182593Y-93445499D01*
X172305369Y-93421078D01*
X172421022Y-93373173D01*
X172525108Y-93303625D01*
X172613625Y-93215108D01*
X172683173Y-93111022D01*
X172731078Y-92995369D01*
X172755500Y-92872591D01*
X172755500Y-92747409D01*
X172731078Y-92624631D01*
X172712381Y-92579493D01*
X172683176Y-92508984D01*
X172683169Y-92508971D01*
X172613625Y-92404892D01*
X172613622Y-92404888D01*
X172525111Y-92316377D01*
X172525107Y-92316374D01*
X172432939Y-92254789D01*
X172388134Y-92201177D01*
X172379427Y-92131852D01*
X172409582Y-92068824D01*
X172454376Y-92037126D01*
X172488653Y-92022929D01*
X172607479Y-91943532D01*
X172708532Y-91842479D01*
X172787929Y-91723653D01*
X172842619Y-91591620D01*
X172870500Y-91451455D01*
X172870500Y-91448995D01*
X174649499Y-91448995D01*
X174676418Y-91584322D01*
X174676421Y-91584332D01*
X174729221Y-91711804D01*
X174729228Y-91711817D01*
X174805885Y-91826541D01*
X174805888Y-91826545D01*
X174903454Y-91924111D01*
X174903458Y-91924114D01*
X175018182Y-92000771D01*
X175018195Y-92000778D01*
X175145667Y-92053578D01*
X175145672Y-92053580D01*
X175145676Y-92053580D01*
X175145677Y-92053581D01*
X175281004Y-92080500D01*
X175281007Y-92080500D01*
X176318995Y-92080500D01*
X176410041Y-92062389D01*
X176454328Y-92053580D01*
X176581811Y-92000775D01*
X176696542Y-91924114D01*
X176794114Y-91826542D01*
X176870775Y-91711811D01*
X176923580Y-91584328D01*
X176950010Y-91451457D01*
X176950500Y-91448995D01*
X176950500Y-91311004D01*
X176923581Y-91175677D01*
X176923580Y-91175676D01*
X176923580Y-91175672D01*
X176920559Y-91168379D01*
X176870778Y-91048195D01*
X176870771Y-91048182D01*
X176794114Y-90933458D01*
X176794111Y-90933454D01*
X176696545Y-90835888D01*
X176696541Y-90835885D01*
X176581817Y-90759228D01*
X176581804Y-90759221D01*
X176454332Y-90706421D01*
X176454322Y-90706418D01*
X176318995Y-90679500D01*
X176318993Y-90679500D01*
X175281007Y-90679500D01*
X175281005Y-90679500D01*
X175145677Y-90706418D01*
X175145667Y-90706421D01*
X175018195Y-90759221D01*
X175018182Y-90759228D01*
X174903458Y-90835885D01*
X174903454Y-90835888D01*
X174805888Y-90933454D01*
X174805885Y-90933458D01*
X174729228Y-91048182D01*
X174729221Y-91048195D01*
X174676421Y-91175667D01*
X174676418Y-91175677D01*
X174649500Y-91311004D01*
X174649500Y-91311007D01*
X174649500Y-91448993D01*
X174649500Y-91448995D01*
X174649499Y-91448995D01*
X172870500Y-91448995D01*
X172870500Y-91308545D01*
X172870500Y-91308542D01*
X172842620Y-91168385D01*
X172842619Y-91168384D01*
X172842619Y-91168380D01*
X172787929Y-91036347D01*
X172787928Y-91036346D01*
X172787925Y-91036340D01*
X172708532Y-90917521D01*
X172708529Y-90917517D01*
X172607482Y-90816470D01*
X172607478Y-90816467D01*
X172488659Y-90737074D01*
X172488650Y-90737069D01*
X172356620Y-90682381D01*
X172356614Y-90682379D01*
X172216457Y-90654500D01*
X172216455Y-90654500D01*
X171023545Y-90654500D01*
X171023543Y-90654500D01*
X170883385Y-90682379D01*
X170883379Y-90682381D01*
X170751349Y-90737069D01*
X170751340Y-90737074D01*
X170632521Y-90816467D01*
X170632517Y-90816470D01*
X170531470Y-90917517D01*
X170531467Y-90917521D01*
X170452074Y-91036340D01*
X170452069Y-91036349D01*
X170397381Y-91168379D01*
X170397379Y-91168385D01*
X170369500Y-91308542D01*
X170369500Y-91308545D01*
X170369500Y-91451455D01*
X170369500Y-91451457D01*
X170369499Y-91451457D01*
X118950500Y-91451457D01*
X118950500Y-88973130D01*
X137944499Y-88973130D01*
X137982358Y-89114418D01*
X138007173Y-89157398D01*
X138055490Y-89241085D01*
X138158915Y-89344510D01*
X138207347Y-89372472D01*
X138285581Y-89417641D01*
X138285582Y-89417641D01*
X138285585Y-89417643D01*
X138426867Y-89455500D01*
X138426870Y-89455500D01*
X138573130Y-89455500D01*
X138573133Y-89455500D01*
X138714415Y-89417643D01*
X138841085Y-89344510D01*
X138944510Y-89241085D01*
X138952339Y-89227525D01*
X151649500Y-89227525D01*
X151649500Y-89372475D01*
X151661603Y-89417643D01*
X151687017Y-89512488D01*
X151759488Y-89638011D01*
X151759490Y-89638013D01*
X151759491Y-89638015D01*
X151861985Y-89740509D01*
X151861986Y-89740510D01*
X151861988Y-89740511D01*
X151987511Y-89812982D01*
X151987512Y-89812982D01*
X151987515Y-89812984D01*
X152127525Y-89850500D01*
X152127528Y-89850500D01*
X152272472Y-89850500D01*
X152272475Y-89850500D01*
X152412485Y-89812984D01*
X152538015Y-89740509D01*
X152640509Y-89638015D01*
X152712984Y-89512485D01*
X152750500Y-89372475D01*
X152750500Y-89227525D01*
X152712984Y-89087515D01*
X152646945Y-88973133D01*
X152640511Y-88961988D01*
X152640506Y-88961982D01*
X152538017Y-88859493D01*
X152538011Y-88859488D01*
X152412488Y-88787017D01*
X152412489Y-88787017D01*
X152401006Y-88783940D01*
X152272475Y-88749500D01*
X152127525Y-88749500D01*
X151998993Y-88783940D01*
X151987511Y-88787017D01*
X151861988Y-88859488D01*
X151861982Y-88859493D01*
X151759493Y-88961982D01*
X151759488Y-88961988D01*
X151687017Y-89087511D01*
X151687016Y-89087515D01*
X151649500Y-89227525D01*
X138952339Y-89227525D01*
X139017643Y-89114415D01*
X139055500Y-88973133D01*
X139055500Y-88826867D01*
X139017643Y-88685585D01*
X138944510Y-88558915D01*
X138841085Y-88455490D01*
X138803451Y-88433762D01*
X138714418Y-88382358D01*
X138714419Y-88382358D01*
X138702831Y-88379253D01*
X138573133Y-88344500D01*
X138426867Y-88344500D01*
X138297168Y-88379253D01*
X138285581Y-88382358D01*
X138158918Y-88455488D01*
X138158912Y-88455492D01*
X138055492Y-88558912D01*
X138055488Y-88558918D01*
X137982358Y-88685581D01*
X137982357Y-88685585D01*
X137944500Y-88826867D01*
X137944500Y-88826869D01*
X137944500Y-88973130D01*
X137944499Y-88973130D01*
X118950500Y-88973130D01*
X118950500Y-87773130D01*
X120344499Y-87773130D01*
X120382358Y-87914418D01*
X120433762Y-88003451D01*
X120455490Y-88041085D01*
X120558915Y-88144510D01*
X120647951Y-88195915D01*
X120685581Y-88217641D01*
X120685582Y-88217641D01*
X120685585Y-88217643D01*
X120826867Y-88255500D01*
X120826870Y-88255500D01*
X120973130Y-88255500D01*
X120973133Y-88255500D01*
X121114415Y-88217643D01*
X121241085Y-88144510D01*
X121344510Y-88041085D01*
X121417643Y-87914415D01*
X121455500Y-87773133D01*
X121455500Y-87626867D01*
X121417643Y-87485585D01*
X121344510Y-87358915D01*
X121241085Y-87255490D01*
X121203451Y-87233762D01*
X121114418Y-87182358D01*
X121114419Y-87182358D01*
X121102831Y-87179253D01*
X120973133Y-87144500D01*
X120826867Y-87144500D01*
X120697168Y-87179253D01*
X120685581Y-87182358D01*
X120558918Y-87255488D01*
X120558912Y-87255492D01*
X120455492Y-87358912D01*
X120455488Y-87358918D01*
X120382358Y-87485581D01*
X120382357Y-87485585D01*
X120344500Y-87626867D01*
X120344500Y-87626869D01*
X120344500Y-87773130D01*
X120344499Y-87773130D01*
X118950500Y-87773130D01*
X118950500Y-86325550D01*
X140734500Y-86325550D01*
X140734500Y-86474450D01*
X140760573Y-86571756D01*
X140773038Y-86618276D01*
X140773039Y-86618277D01*
X140847484Y-86747221D01*
X140847486Y-86747224D01*
X140847487Y-86747225D01*
X140952775Y-86852513D01*
X141081725Y-86926962D01*
X141225550Y-86965500D01*
X141225553Y-86965500D01*
X141374447Y-86965500D01*
X141374450Y-86965500D01*
X141518275Y-86926962D01*
X141647225Y-86852513D01*
X141752513Y-86747225D01*
X141826962Y-86618275D01*
X141865500Y-86474450D01*
X141865500Y-86325550D01*
X141839234Y-86227525D01*
X155349500Y-86227525D01*
X155349500Y-86372475D01*
X155387016Y-86512485D01*
X155387017Y-86512488D01*
X155459488Y-86638011D01*
X155459490Y-86638013D01*
X155459491Y-86638015D01*
X155561985Y-86740509D01*
X155561986Y-86740510D01*
X155561988Y-86740511D01*
X155687511Y-86812982D01*
X155687512Y-86812982D01*
X155687515Y-86812984D01*
X155827525Y-86850500D01*
X155827528Y-86850500D01*
X155972472Y-86850500D01*
X155972475Y-86850500D01*
X156112485Y-86812984D01*
X156238015Y-86740509D01*
X156340509Y-86638015D01*
X156412984Y-86512485D01*
X156450500Y-86372475D01*
X156450500Y-86227525D01*
X156412984Y-86087515D01*
X156396391Y-86058775D01*
X170918250Y-86058775D01*
X170918250Y-86203725D01*
X170950894Y-86325552D01*
X170955767Y-86343738D01*
X171028238Y-86469261D01*
X171028240Y-86469263D01*
X171028241Y-86469265D01*
X171130735Y-86571759D01*
X171130736Y-86571760D01*
X171130738Y-86571761D01*
X171256261Y-86644232D01*
X171256262Y-86644232D01*
X171256265Y-86644234D01*
X171396275Y-86681750D01*
X171396278Y-86681750D01*
X171541222Y-86681750D01*
X171541225Y-86681750D01*
X171681235Y-86644234D01*
X171806765Y-86571759D01*
X171909259Y-86469265D01*
X171981734Y-86343735D01*
X172019250Y-86203725D01*
X172019250Y-86058775D01*
X171981734Y-85918765D01*
X171955333Y-85873038D01*
X171909261Y-85793238D01*
X171909256Y-85793232D01*
X171806767Y-85690743D01*
X171806761Y-85690738D01*
X171681238Y-85618267D01*
X171681239Y-85618267D01*
X171669756Y-85615190D01*
X171541225Y-85580750D01*
X171396275Y-85580750D01*
X171267743Y-85615190D01*
X171256261Y-85618267D01*
X171130738Y-85690738D01*
X171130732Y-85690743D01*
X171028243Y-85793232D01*
X171028238Y-85793238D01*
X170955767Y-85918761D01*
X170955766Y-85918765D01*
X170918250Y-86058775D01*
X156396391Y-86058775D01*
X156378022Y-86026960D01*
X156340511Y-85961988D01*
X156340506Y-85961982D01*
X156238017Y-85859493D01*
X156238011Y-85859488D01*
X156112488Y-85787017D01*
X156112489Y-85787017D01*
X156101006Y-85783940D01*
X155972475Y-85749500D01*
X155827525Y-85749500D01*
X155698993Y-85783940D01*
X155687511Y-85787017D01*
X155561988Y-85859488D01*
X155561982Y-85859493D01*
X155459493Y-85961982D01*
X155459488Y-85961988D01*
X155387017Y-86087511D01*
X155387016Y-86087515D01*
X155349500Y-86227525D01*
X141839234Y-86227525D01*
X141826962Y-86181725D01*
X141752513Y-86052775D01*
X141647225Y-85947487D01*
X141647224Y-85947486D01*
X141647221Y-85947484D01*
X141518277Y-85873039D01*
X141518276Y-85873038D01*
X141482318Y-85863403D01*
X141374450Y-85834500D01*
X141225550Y-85834500D01*
X141139255Y-85857622D01*
X141081723Y-85873038D01*
X141081722Y-85873039D01*
X140952778Y-85947484D01*
X140952773Y-85947488D01*
X140847488Y-86052773D01*
X140847484Y-86052778D01*
X140773039Y-86181722D01*
X140773038Y-86181723D01*
X140767144Y-86203722D01*
X140734500Y-86325550D01*
X118950500Y-86325550D01*
X118950500Y-85425550D01*
X137134500Y-85425550D01*
X137134500Y-85574450D01*
X137146241Y-85618266D01*
X137173038Y-85718276D01*
X137173039Y-85718277D01*
X137247484Y-85847221D01*
X137247486Y-85847224D01*
X137247487Y-85847225D01*
X137352775Y-85952513D01*
X137481725Y-86026962D01*
X137625550Y-86065500D01*
X137625553Y-86065500D01*
X137774447Y-86065500D01*
X137774450Y-86065500D01*
X137918275Y-86026962D01*
X138047225Y-85952513D01*
X138152513Y-85847225D01*
X138226962Y-85718275D01*
X138265500Y-85574450D01*
X138265500Y-85425550D01*
X138226962Y-85281725D01*
X138152513Y-85152775D01*
X138047225Y-85047487D01*
X137918277Y-84973039D01*
X137918276Y-84973038D01*
X137882318Y-84963403D01*
X137774450Y-84934500D01*
X137625550Y-84934500D01*
X137539255Y-84957622D01*
X137481723Y-84973038D01*
X137481722Y-84973039D01*
X137352778Y-85047484D01*
X137352773Y-85047488D01*
X137247488Y-85152773D01*
X137247484Y-85152778D01*
X137173039Y-85281722D01*
X137173038Y-85281723D01*
X137153769Y-85353637D01*
X137134500Y-85425550D01*
X118950500Y-85425550D01*
X118950500Y-84927525D01*
X148849500Y-84927525D01*
X148849500Y-85072475D01*
X148887016Y-85212485D01*
X148887017Y-85212488D01*
X148959488Y-85338011D01*
X148959490Y-85338013D01*
X148959491Y-85338015D01*
X149061985Y-85440509D01*
X149061986Y-85440510D01*
X149061988Y-85440511D01*
X149187511Y-85512982D01*
X149187512Y-85512982D01*
X149187515Y-85512984D01*
X149327525Y-85550500D01*
X149327528Y-85550500D01*
X149472472Y-85550500D01*
X149472475Y-85550500D01*
X149612485Y-85512984D01*
X149738015Y-85440509D01*
X149840509Y-85338015D01*
X149912984Y-85212485D01*
X149950500Y-85072475D01*
X149950500Y-84927525D01*
X149912984Y-84787515D01*
X149840509Y-84661985D01*
X149738015Y-84559491D01*
X149738013Y-84559490D01*
X149738011Y-84559488D01*
X149612488Y-84487017D01*
X149612489Y-84487017D01*
X149601006Y-84483940D01*
X149472475Y-84449500D01*
X149327525Y-84449500D01*
X149198993Y-84483940D01*
X149187511Y-84487017D01*
X149061988Y-84559488D01*
X149061982Y-84559493D01*
X148959493Y-84661982D01*
X148959488Y-84661988D01*
X148887017Y-84787511D01*
X148887016Y-84787515D01*
X148849500Y-84927525D01*
X118950500Y-84927525D01*
X118950500Y-83973130D01*
X169844499Y-83973130D01*
X169882358Y-84114418D01*
X169933762Y-84203451D01*
X169955490Y-84241085D01*
X170058915Y-84344510D01*
X170147951Y-84395915D01*
X170185581Y-84417641D01*
X170185582Y-84417641D01*
X170185585Y-84417643D01*
X170326867Y-84455500D01*
X170326870Y-84455500D01*
X170473130Y-84455500D01*
X170473133Y-84455500D01*
X170614415Y-84417643D01*
X170741085Y-84344510D01*
X170844510Y-84241085D01*
X170917643Y-84114415D01*
X170955500Y-83973133D01*
X170955500Y-83826867D01*
X170917643Y-83685585D01*
X170844510Y-83558915D01*
X170741085Y-83455490D01*
X170703451Y-83433762D01*
X170614418Y-83382358D01*
X170614419Y-83382358D01*
X170602831Y-83379253D01*
X170473133Y-83344500D01*
X170326867Y-83344500D01*
X170197168Y-83379253D01*
X170185581Y-83382358D01*
X170058918Y-83455488D01*
X170058912Y-83455492D01*
X169955492Y-83558912D01*
X169955488Y-83558918D01*
X169882358Y-83685581D01*
X169882357Y-83685585D01*
X169844500Y-83826867D01*
X169844500Y-83826869D01*
X169844500Y-83973130D01*
X169844499Y-83973130D01*
X118950500Y-83973130D01*
X118950500Y-83273130D01*
X145644499Y-83273130D01*
X145682358Y-83414418D01*
X145716256Y-83473130D01*
X145755490Y-83541085D01*
X145858915Y-83644510D01*
X145930052Y-83685581D01*
X145985581Y-83717641D01*
X145985582Y-83717641D01*
X145985585Y-83717643D01*
X146126867Y-83755500D01*
X146126870Y-83755500D01*
X146273130Y-83755500D01*
X146273133Y-83755500D01*
X146414415Y-83717643D01*
X146541085Y-83644510D01*
X146644510Y-83541085D01*
X146683744Y-83473130D01*
X153044499Y-83473130D01*
X153082358Y-83614418D01*
X153123445Y-83685581D01*
X153155490Y-83741085D01*
X153258915Y-83844510D01*
X153347951Y-83895915D01*
X153385581Y-83917641D01*
X153385582Y-83917641D01*
X153385585Y-83917643D01*
X153526867Y-83955500D01*
X153526870Y-83955500D01*
X153673130Y-83955500D01*
X153673133Y-83955500D01*
X153814415Y-83917643D01*
X153941085Y-83844510D01*
X154044510Y-83741085D01*
X154117643Y-83614415D01*
X154155500Y-83473133D01*
X154155500Y-83326867D01*
X154117643Y-83185585D01*
X154044510Y-83058915D01*
X153941085Y-82955490D01*
X153903451Y-82933762D01*
X153814418Y-82882358D01*
X153814419Y-82882358D01*
X153802831Y-82879253D01*
X153673133Y-82844500D01*
X153526867Y-82844500D01*
X153397168Y-82879253D01*
X153385581Y-82882358D01*
X153258918Y-82955488D01*
X153258912Y-82955492D01*
X153155492Y-83058912D01*
X153155488Y-83058918D01*
X153082358Y-83185581D01*
X153082357Y-83185585D01*
X153044500Y-83326867D01*
X153044500Y-83326869D01*
X153044500Y-83473130D01*
X153044499Y-83473130D01*
X146683744Y-83473130D01*
X146717643Y-83414415D01*
X146755500Y-83273133D01*
X146755500Y-83126867D01*
X146717643Y-82985585D01*
X146700266Y-82955488D01*
X146695915Y-82947951D01*
X146644510Y-82858915D01*
X146541085Y-82755490D01*
X146503451Y-82733762D01*
X146414418Y-82682358D01*
X146414419Y-82682358D01*
X146402831Y-82679253D01*
X146273133Y-82644500D01*
X146126867Y-82644500D01*
X145997168Y-82679253D01*
X145985581Y-82682358D01*
X145858918Y-82755488D01*
X145858912Y-82755492D01*
X145755492Y-82858912D01*
X145755488Y-82858918D01*
X145682358Y-82985581D01*
X145682357Y-82985585D01*
X145644500Y-83126867D01*
X145644500Y-83126869D01*
X145644500Y-83273130D01*
X145644499Y-83273130D01*
X118950500Y-83273130D01*
X118950500Y-81525550D01*
X141734500Y-81525550D01*
X141734500Y-81674450D01*
X141763403Y-81782318D01*
X141773038Y-81818276D01*
X141773039Y-81818277D01*
X141847484Y-81947221D01*
X141847486Y-81947224D01*
X141847487Y-81947225D01*
X141952775Y-82052513D01*
X142081725Y-82126962D01*
X142225550Y-82165500D01*
X142225553Y-82165500D01*
X142374447Y-82165500D01*
X142374450Y-82165500D01*
X142518275Y-82126962D01*
X142647225Y-82052513D01*
X142752513Y-81947225D01*
X142826962Y-81818275D01*
X142865500Y-81674450D01*
X142865500Y-81673130D01*
X169044499Y-81673130D01*
X169082358Y-81814418D01*
X169133762Y-81903451D01*
X169155490Y-81941085D01*
X169258915Y-82044510D01*
X169347951Y-82095915D01*
X169385581Y-82117641D01*
X169385582Y-82117641D01*
X169385585Y-82117643D01*
X169526867Y-82155500D01*
X169526870Y-82155500D01*
X169673130Y-82155500D01*
X169673133Y-82155500D01*
X169814415Y-82117643D01*
X169941085Y-82044510D01*
X170044510Y-81941085D01*
X170117643Y-81814415D01*
X170155500Y-81673133D01*
X170155500Y-81526867D01*
X170117643Y-81385585D01*
X170115414Y-81381725D01*
X170095915Y-81347951D01*
X170044510Y-81258915D01*
X169941085Y-81155490D01*
X169903451Y-81133762D01*
X169814418Y-81082358D01*
X169814419Y-81082358D01*
X169779640Y-81073039D01*
X169673133Y-81044500D01*
X169526867Y-81044500D01*
X169420360Y-81073039D01*
X169385581Y-81082358D01*
X169258918Y-81155488D01*
X169258912Y-81155492D01*
X169155492Y-81258912D01*
X169155488Y-81258918D01*
X169082358Y-81385581D01*
X169082357Y-81385585D01*
X169044500Y-81526867D01*
X169044500Y-81526869D01*
X169044500Y-81673130D01*
X169044499Y-81673130D01*
X142865500Y-81673130D01*
X142865500Y-81525550D01*
X142826962Y-81381725D01*
X142752513Y-81252775D01*
X142647225Y-81147487D01*
X142647224Y-81147486D01*
X142647221Y-81147484D01*
X142518277Y-81073039D01*
X142518276Y-81073038D01*
X142482318Y-81063403D01*
X142374450Y-81034500D01*
X142225550Y-81034500D01*
X142139255Y-81057622D01*
X142081723Y-81073038D01*
X142081722Y-81073039D01*
X141952778Y-81147484D01*
X141952773Y-81147488D01*
X141847488Y-81252773D01*
X141847484Y-81252778D01*
X141773039Y-81381722D01*
X141773038Y-81381723D01*
X141753769Y-81453637D01*
X141734500Y-81525550D01*
X118950500Y-81525550D01*
X118950500Y-79377525D01*
X125199500Y-79377525D01*
X125199500Y-79522475D01*
X125237016Y-79662485D01*
X125237017Y-79662488D01*
X125309488Y-79788011D01*
X125309490Y-79788013D01*
X125309491Y-79788015D01*
X125411985Y-79890509D01*
X125411986Y-79890510D01*
X125411988Y-79890511D01*
X125537511Y-79962982D01*
X125537512Y-79962982D01*
X125537515Y-79962984D01*
X125677525Y-80000500D01*
X125677528Y-80000500D01*
X125822472Y-80000500D01*
X125822475Y-80000500D01*
X125924620Y-79973130D01*
X153244499Y-79973130D01*
X153282358Y-80114418D01*
X153333762Y-80203451D01*
X153355490Y-80241085D01*
X153458915Y-80344510D01*
X153547951Y-80395915D01*
X153585581Y-80417641D01*
X153585582Y-80417641D01*
X153585585Y-80417643D01*
X153726867Y-80455500D01*
X153726870Y-80455500D01*
X153873130Y-80455500D01*
X153873133Y-80455500D01*
X154014415Y-80417643D01*
X154141085Y-80344510D01*
X154244510Y-80241085D01*
X154317643Y-80114415D01*
X154355500Y-79973133D01*
X154355500Y-79826867D01*
X154317643Y-79685585D01*
X154244510Y-79558915D01*
X154141085Y-79455490D01*
X154103451Y-79433762D01*
X154014418Y-79382358D01*
X154014419Y-79382358D01*
X153996382Y-79377525D01*
X153873133Y-79344500D01*
X153726867Y-79344500D01*
X153603618Y-79377525D01*
X153585581Y-79382358D01*
X153458918Y-79455488D01*
X153458912Y-79455492D01*
X153355492Y-79558912D01*
X153355488Y-79558918D01*
X153282358Y-79685581D01*
X153282357Y-79685585D01*
X153244500Y-79826867D01*
X153244500Y-79826869D01*
X153244500Y-79973130D01*
X153244499Y-79973130D01*
X125924620Y-79973130D01*
X125962485Y-79962984D01*
X126088015Y-79890509D01*
X126190509Y-79788015D01*
X126262984Y-79662485D01*
X126300500Y-79522475D01*
X126300500Y-79377525D01*
X126262984Y-79237515D01*
X126225811Y-79173130D01*
X138944499Y-79173130D01*
X138982358Y-79314418D01*
X139018795Y-79377527D01*
X139055490Y-79441085D01*
X139158915Y-79544510D01*
X139247951Y-79595915D01*
X139285581Y-79617641D01*
X139285582Y-79617641D01*
X139285585Y-79617643D01*
X139426867Y-79655500D01*
X139426870Y-79655500D01*
X139573130Y-79655500D01*
X139573133Y-79655500D01*
X139714415Y-79617643D01*
X139841085Y-79544510D01*
X139944510Y-79441085D01*
X140017643Y-79314415D01*
X140055500Y-79173133D01*
X140055500Y-79073130D01*
X149244499Y-79073130D01*
X149282358Y-79214418D01*
X149333762Y-79303451D01*
X149355490Y-79341085D01*
X149458915Y-79444510D01*
X149547951Y-79495915D01*
X149585581Y-79517641D01*
X149585582Y-79517641D01*
X149585585Y-79517643D01*
X149726867Y-79555500D01*
X149726870Y-79555500D01*
X149873130Y-79555500D01*
X149873133Y-79555500D01*
X150014415Y-79517643D01*
X150141085Y-79444510D01*
X150244510Y-79341085D01*
X150317643Y-79214415D01*
X150355500Y-79073133D01*
X150355500Y-78926867D01*
X150317643Y-78785585D01*
X150244510Y-78658915D01*
X150141085Y-78555490D01*
X150103451Y-78533762D01*
X150014418Y-78482358D01*
X150014419Y-78482358D01*
X150002831Y-78479253D01*
X149873133Y-78444500D01*
X149726867Y-78444500D01*
X149597168Y-78479253D01*
X149585581Y-78482358D01*
X149458918Y-78555488D01*
X149458912Y-78555492D01*
X149355492Y-78658912D01*
X149355488Y-78658918D01*
X149282358Y-78785581D01*
X149282357Y-78785585D01*
X149244500Y-78926867D01*
X149244500Y-78926869D01*
X149244500Y-79073130D01*
X149244499Y-79073130D01*
X140055500Y-79073130D01*
X140055500Y-79026867D01*
X140017643Y-78885585D01*
X139944510Y-78758915D01*
X139841085Y-78655490D01*
X139803451Y-78633762D01*
X139714418Y-78582358D01*
X139714419Y-78582358D01*
X139702831Y-78579253D01*
X139573133Y-78544500D01*
X139426867Y-78544500D01*
X139297168Y-78579253D01*
X139285581Y-78582358D01*
X139158918Y-78655488D01*
X139158912Y-78655492D01*
X139055492Y-78758912D01*
X139055488Y-78758918D01*
X138982358Y-78885581D01*
X138982357Y-78885585D01*
X138944500Y-79026867D01*
X138944500Y-79026869D01*
X138944500Y-79173130D01*
X138944499Y-79173130D01*
X126225811Y-79173130D01*
X126190509Y-79111985D01*
X126088015Y-79009491D01*
X126088013Y-79009490D01*
X126088011Y-79009488D01*
X125962488Y-78937017D01*
X125962489Y-78937017D01*
X125924616Y-78926869D01*
X125822475Y-78899500D01*
X125677525Y-78899500D01*
X125575384Y-78926869D01*
X125537511Y-78937017D01*
X125411988Y-79009488D01*
X125411982Y-79009493D01*
X125309493Y-79111982D01*
X125309488Y-79111988D01*
X125237017Y-79237511D01*
X125237016Y-79237515D01*
X125199500Y-79377525D01*
X118950500Y-79377525D01*
X118950500Y-77673130D01*
X134344499Y-77673130D01*
X134382358Y-77814418D01*
X134433762Y-77903451D01*
X134455490Y-77941085D01*
X134558915Y-78044510D01*
X134647951Y-78095915D01*
X134685581Y-78117641D01*
X134685582Y-78117641D01*
X134685585Y-78117643D01*
X134826867Y-78155500D01*
X134826870Y-78155500D01*
X134973130Y-78155500D01*
X134973133Y-78155500D01*
X135114415Y-78117643D01*
X135241085Y-78044510D01*
X135344510Y-77941085D01*
X135417643Y-77814415D01*
X135455500Y-77673133D01*
X135455500Y-77673130D01*
X141744499Y-77673130D01*
X141782358Y-77814418D01*
X141833762Y-77903451D01*
X141855490Y-77941085D01*
X141958915Y-78044510D01*
X142047951Y-78095915D01*
X142085581Y-78117641D01*
X142085582Y-78117641D01*
X142085585Y-78117643D01*
X142226867Y-78155500D01*
X142226870Y-78155500D01*
X142373130Y-78155500D01*
X142373133Y-78155500D01*
X142514415Y-78117643D01*
X142641085Y-78044510D01*
X142744510Y-77941085D01*
X142817643Y-77814415D01*
X142855500Y-77673133D01*
X142855500Y-77526867D01*
X142817643Y-77385585D01*
X142744510Y-77258915D01*
X142641085Y-77155490D01*
X142603451Y-77133762D01*
X142514418Y-77082358D01*
X142514419Y-77082358D01*
X142502831Y-77079253D01*
X142373133Y-77044500D01*
X142226867Y-77044500D01*
X142097168Y-77079253D01*
X142085581Y-77082358D01*
X141958918Y-77155488D01*
X141958912Y-77155492D01*
X141855492Y-77258912D01*
X141855488Y-77258918D01*
X141782358Y-77385581D01*
X141782357Y-77385585D01*
X141744500Y-77526867D01*
X141744500Y-77526869D01*
X141744500Y-77673130D01*
X141744499Y-77673130D01*
X135455500Y-77673130D01*
X135455500Y-77526867D01*
X135417643Y-77385585D01*
X135344510Y-77258915D01*
X135241085Y-77155490D01*
X135203451Y-77133762D01*
X135114418Y-77082358D01*
X135114419Y-77082358D01*
X135102831Y-77079253D01*
X134973133Y-77044500D01*
X134826867Y-77044500D01*
X134697168Y-77079253D01*
X134685581Y-77082358D01*
X134558918Y-77155488D01*
X134558912Y-77155492D01*
X134455492Y-77258912D01*
X134455488Y-77258918D01*
X134382358Y-77385581D01*
X134382357Y-77385585D01*
X134344500Y-77526867D01*
X134344500Y-77526869D01*
X134344500Y-77673130D01*
X134344499Y-77673130D01*
X118950500Y-77673130D01*
X118950500Y-75503246D01*
X118950670Y-75496757D01*
X118957062Y-75374785D01*
X120189500Y-75374785D01*
X120189500Y-75625214D01*
X120189501Y-75625231D01*
X120222188Y-75873516D01*
X120287010Y-76115432D01*
X120382845Y-76346798D01*
X120382848Y-76346805D01*
X120508069Y-76563694D01*
X120508071Y-76563697D01*
X120508072Y-76563698D01*
X120660526Y-76762381D01*
X120660532Y-76762388D01*
X120837611Y-76939467D01*
X120837617Y-76939472D01*
X121036306Y-77091931D01*
X121253195Y-77217152D01*
X121484572Y-77312991D01*
X121726480Y-77377811D01*
X121974779Y-77410500D01*
X121974786Y-77410500D01*
X122225214Y-77410500D01*
X122225221Y-77410500D01*
X122322170Y-77397736D01*
X122336880Y-77395800D01*
X122359361Y-77392840D01*
X122473520Y-77377811D01*
X122715428Y-77312991D01*
X122946805Y-77217152D01*
X123163694Y-77091931D01*
X123362383Y-76939472D01*
X123539472Y-76762383D01*
X123691931Y-76563694D01*
X123817152Y-76346805D01*
X123912991Y-76115428D01*
X123977811Y-75873520D01*
X124010500Y-75625221D01*
X124010500Y-75374779D01*
X123977811Y-75126480D01*
X123912991Y-74884572D01*
X123817152Y-74653195D01*
X123744596Y-74527525D01*
X136949500Y-74527525D01*
X136949500Y-74672475D01*
X136987016Y-74812485D01*
X136987017Y-74812488D01*
X137059488Y-74938011D01*
X137059490Y-74938013D01*
X137059491Y-74938015D01*
X137161985Y-75040509D01*
X137161986Y-75040510D01*
X137161988Y-75040511D01*
X137287511Y-75112982D01*
X137287512Y-75112982D01*
X137287515Y-75112984D01*
X137427525Y-75150500D01*
X137427528Y-75150500D01*
X137572472Y-75150500D01*
X137572475Y-75150500D01*
X137712485Y-75112984D01*
X137838015Y-75040509D01*
X137940509Y-74938015D01*
X138012984Y-74812485D01*
X138050500Y-74672475D01*
X138050500Y-74665025D01*
X147114500Y-74665025D01*
X147114500Y-74809975D01*
X147152016Y-74949985D01*
X147152017Y-74949988D01*
X147224488Y-75075511D01*
X147224490Y-75075513D01*
X147224491Y-75075515D01*
X147326985Y-75178009D01*
X147326986Y-75178010D01*
X147326988Y-75178011D01*
X147452511Y-75250482D01*
X147452512Y-75250482D01*
X147452515Y-75250484D01*
X147592525Y-75288000D01*
X147592528Y-75288000D01*
X147737472Y-75288000D01*
X147737475Y-75288000D01*
X147877485Y-75250484D01*
X148003015Y-75178009D01*
X148105509Y-75075515D01*
X148177984Y-74949985D01*
X148215500Y-74809975D01*
X148215500Y-74665025D01*
X148177984Y-74525015D01*
X148105509Y-74399485D01*
X148003015Y-74296991D01*
X148003013Y-74296990D01*
X148003011Y-74296988D01*
X147877488Y-74224517D01*
X147877489Y-74224517D01*
X147835227Y-74213193D01*
X147737475Y-74187000D01*
X147592525Y-74187000D01*
X147494773Y-74213193D01*
X147452511Y-74224517D01*
X147326988Y-74296988D01*
X147326982Y-74296993D01*
X147224493Y-74399482D01*
X147224488Y-74399488D01*
X147152017Y-74525011D01*
X147152016Y-74525015D01*
X147114500Y-74665025D01*
X138050500Y-74665025D01*
X138050500Y-74527525D01*
X138012984Y-74387515D01*
X137940509Y-74261985D01*
X137838015Y-74159491D01*
X137838013Y-74159490D01*
X137838011Y-74159488D01*
X137712488Y-74087017D01*
X137712489Y-74087017D01*
X137701006Y-74083940D01*
X137572475Y-74049500D01*
X137427525Y-74049500D01*
X137298993Y-74083940D01*
X137287511Y-74087017D01*
X137161988Y-74159488D01*
X137161982Y-74159493D01*
X137059493Y-74261982D01*
X137059488Y-74261988D01*
X136987017Y-74387511D01*
X136987016Y-74387515D01*
X136949500Y-74527525D01*
X123744596Y-74527525D01*
X123691931Y-74436306D01*
X123585029Y-74296988D01*
X123539473Y-74237618D01*
X123539467Y-74237611D01*
X123362388Y-74060532D01*
X123362381Y-74060526D01*
X123163698Y-73908072D01*
X123163697Y-73908071D01*
X123163694Y-73908069D01*
X122986501Y-73805766D01*
X122946807Y-73782849D01*
X122946793Y-73782842D01*
X122840274Y-73738721D01*
X122840273Y-73738721D01*
X122715432Y-73687010D01*
X122503592Y-73630247D01*
X157869500Y-73630247D01*
X157869500Y-75369752D01*
X157881131Y-75428229D01*
X157881132Y-75428230D01*
X157925447Y-75494552D01*
X157991769Y-75538867D01*
X157991770Y-75538868D01*
X158050247Y-75550499D01*
X158050250Y-75550500D01*
X158050252Y-75550500D01*
X159789750Y-75550500D01*
X159789751Y-75550499D01*
X159804568Y-75547552D01*
X159848229Y-75538868D01*
X159848229Y-75538867D01*
X159848231Y-75538867D01*
X159914552Y-75494552D01*
X159958867Y-75428231D01*
X159958867Y-75428229D01*
X159958868Y-75428229D01*
X159970499Y-75369752D01*
X159970500Y-75369750D01*
X159970500Y-75066048D01*
X159990185Y-74999009D01*
X160042989Y-74953254D01*
X160112147Y-74943310D01*
X160175703Y-74972335D01*
X160205938Y-75014264D01*
X160206694Y-75013879D01*
X160305375Y-75207550D01*
X160344728Y-75261716D01*
X160977037Y-74629408D01*
X160994075Y-74692993D01*
X161059901Y-74807007D01*
X161152993Y-74900099D01*
X161267007Y-74965925D01*
X161330590Y-74982962D01*
X160698282Y-75615269D01*
X160698282Y-75615270D01*
X160752449Y-75654624D01*
X160941782Y-75751095D01*
X161143870Y-75816757D01*
X161353754Y-75850000D01*
X161566246Y-75850000D01*
X161776127Y-75816757D01*
X161776130Y-75816757D01*
X161978217Y-75751095D01*
X162167554Y-75654622D01*
X162221716Y-75615270D01*
X162221717Y-75615270D01*
X161589408Y-74982962D01*
X161652993Y-74965925D01*
X161767007Y-74900099D01*
X161860099Y-74807007D01*
X161925925Y-74692993D01*
X161942962Y-74629409D01*
X162575270Y-75261717D01*
X162575270Y-75261716D01*
X162614622Y-75207554D01*
X162711095Y-75018217D01*
X162768343Y-74842026D01*
X162807780Y-74784351D01*
X162872139Y-74757152D01*
X162940985Y-74769066D01*
X162992461Y-74816310D01*
X163000835Y-74832891D01*
X163055939Y-74965925D01*
X163069059Y-74997598D01*
X163114796Y-75066048D01*
X163184024Y-75169657D01*
X163330342Y-75315975D01*
X163330345Y-75315977D01*
X163502402Y-75430941D01*
X163693580Y-75510130D01*
X163838052Y-75538867D01*
X163896530Y-75550499D01*
X163896534Y-75550500D01*
X163896535Y-75550500D01*
X164103466Y-75550500D01*
X164103467Y-75550499D01*
X164306420Y-75510130D01*
X164497598Y-75430941D01*
X164669655Y-75315977D01*
X164815977Y-75169655D01*
X164930941Y-74997598D01*
X165010130Y-74806420D01*
X165050500Y-74603465D01*
X165050500Y-74396535D01*
X165050499Y-74396530D01*
X165489500Y-74396530D01*
X165489500Y-74603469D01*
X165529868Y-74806412D01*
X165529870Y-74806420D01*
X165595939Y-74965925D01*
X165609059Y-74997598D01*
X165654796Y-75066048D01*
X165724024Y-75169657D01*
X165870342Y-75315975D01*
X165870345Y-75315977D01*
X166042402Y-75430941D01*
X166233580Y-75510130D01*
X166378052Y-75538867D01*
X166436530Y-75550499D01*
X166436534Y-75550500D01*
X166436535Y-75550500D01*
X166643466Y-75550500D01*
X166643467Y-75550499D01*
X166846420Y-75510130D01*
X167037598Y-75430941D01*
X167121642Y-75374785D01*
X173289500Y-75374785D01*
X173289500Y-75625214D01*
X173289501Y-75625231D01*
X173322188Y-75873516D01*
X173387010Y-76115432D01*
X173482845Y-76346798D01*
X173482848Y-76346805D01*
X173608069Y-76563694D01*
X173608071Y-76563697D01*
X173608072Y-76563698D01*
X173760526Y-76762381D01*
X173760532Y-76762388D01*
X173937611Y-76939467D01*
X173937617Y-76939472D01*
X174136306Y-77091931D01*
X174353195Y-77217152D01*
X174584572Y-77312991D01*
X174826480Y-77377811D01*
X175074779Y-77410500D01*
X175074786Y-77410500D01*
X175325214Y-77410500D01*
X175325221Y-77410500D01*
X175573520Y-77377811D01*
X175815428Y-77312991D01*
X176046805Y-77217152D01*
X176263694Y-77091931D01*
X176462383Y-76939472D01*
X176639472Y-76762383D01*
X176791931Y-76563694D01*
X176917152Y-76346805D01*
X177012991Y-76115428D01*
X177077811Y-75873520D01*
X177110500Y-75625221D01*
X177110500Y-75374779D01*
X177077811Y-75126480D01*
X177012991Y-74884572D01*
X176917152Y-74653195D01*
X176791931Y-74436306D01*
X176685029Y-74296988D01*
X176639473Y-74237618D01*
X176639467Y-74237611D01*
X176462388Y-74060532D01*
X176462381Y-74060526D01*
X176263698Y-73908072D01*
X176263697Y-73908071D01*
X176263694Y-73908069D01*
X176086501Y-73805766D01*
X176046807Y-73782849D01*
X176046798Y-73782845D01*
X175815432Y-73687010D01*
X175573516Y-73622188D01*
X175325231Y-73589501D01*
X175325226Y-73589500D01*
X175325221Y-73589500D01*
X175074779Y-73589500D01*
X175074773Y-73589500D01*
X175074768Y-73589501D01*
X174826483Y-73622188D01*
X174584567Y-73687010D01*
X174353201Y-73782845D01*
X174353192Y-73782849D01*
X174136301Y-73908072D01*
X173937618Y-74060526D01*
X173937611Y-74060532D01*
X173760532Y-74237611D01*
X173760526Y-74237618D01*
X173608072Y-74436301D01*
X173482849Y-74653192D01*
X173482845Y-74653201D01*
X173387010Y-74884567D01*
X173322188Y-75126483D01*
X173289501Y-75374768D01*
X173289500Y-75374785D01*
X167121642Y-75374785D01*
X167209655Y-75315977D01*
X167214795Y-75310837D01*
X167242594Y-75283039D01*
X167355974Y-75169658D01*
X167355975Y-75169657D01*
X167355977Y-75169655D01*
X167470941Y-74997598D01*
X167550130Y-74806420D01*
X167590500Y-74603465D01*
X167590500Y-74396535D01*
X167550130Y-74193580D01*
X167470941Y-74002402D01*
X167355977Y-73830345D01*
X167355975Y-73830342D01*
X167209657Y-73684024D01*
X167041655Y-73571770D01*
X167037598Y-73569059D01*
X166846420Y-73489870D01*
X166846412Y-73489868D01*
X166643469Y-73449500D01*
X166643465Y-73449500D01*
X166436535Y-73449500D01*
X166436530Y-73449500D01*
X166233587Y-73489868D01*
X166233579Y-73489870D01*
X166042403Y-73569058D01*
X165870342Y-73684024D01*
X165724024Y-73830342D01*
X165609058Y-74002403D01*
X165529870Y-74193579D01*
X165529868Y-74193587D01*
X165489500Y-74396530D01*
X165050499Y-74396530D01*
X165010130Y-74193580D01*
X164930941Y-74002402D01*
X164815977Y-73830345D01*
X164815975Y-73830342D01*
X164669657Y-73684024D01*
X164501655Y-73571770D01*
X164497598Y-73569059D01*
X164306420Y-73489870D01*
X164306412Y-73489868D01*
X164103469Y-73449500D01*
X164103465Y-73449500D01*
X163896535Y-73449500D01*
X163896530Y-73449500D01*
X163693587Y-73489868D01*
X163693579Y-73489870D01*
X163502403Y-73569058D01*
X163330342Y-73684024D01*
X163184024Y-73830342D01*
X163069057Y-74002403D01*
X163000835Y-74167108D01*
X162956994Y-74221511D01*
X162890700Y-74243576D01*
X162823000Y-74226297D01*
X162775390Y-74175159D01*
X162768343Y-74157973D01*
X162711095Y-73981782D01*
X162614624Y-73792449D01*
X162575270Y-73738282D01*
X162575269Y-73738282D01*
X161942962Y-74370590D01*
X161925925Y-74307007D01*
X161860099Y-74192993D01*
X161767007Y-74099901D01*
X161652993Y-74034075D01*
X161589409Y-74017037D01*
X162221716Y-73384728D01*
X162167550Y-73345375D01*
X161978217Y-73248904D01*
X161776129Y-73183242D01*
X161566246Y-73150000D01*
X161353754Y-73150000D01*
X161143872Y-73183242D01*
X161143869Y-73183242D01*
X160941782Y-73248904D01*
X160752439Y-73345380D01*
X160698282Y-73384727D01*
X160698282Y-73384728D01*
X161330591Y-74017037D01*
X161267007Y-74034075D01*
X161152993Y-74099901D01*
X161059901Y-74192993D01*
X160994075Y-74307007D01*
X160977037Y-74370591D01*
X160344728Y-73738282D01*
X160344727Y-73738282D01*
X160305380Y-73792439D01*
X160206694Y-73986121D01*
X160205678Y-73985603D01*
X160165212Y-74035813D01*
X160098916Y-74057872D01*
X160031218Y-74040588D01*
X159983612Y-73989447D01*
X159970500Y-73933951D01*
X159970500Y-73630249D01*
X159970499Y-73630247D01*
X159958868Y-73571770D01*
X159958867Y-73571769D01*
X159914552Y-73505447D01*
X159848230Y-73461132D01*
X159848229Y-73461131D01*
X159789752Y-73449500D01*
X159789748Y-73449500D01*
X158050252Y-73449500D01*
X158050247Y-73449500D01*
X157991770Y-73461131D01*
X157991769Y-73461132D01*
X157925447Y-73505447D01*
X157881132Y-73571769D01*
X157881131Y-73571770D01*
X157869500Y-73630247D01*
X122503592Y-73630247D01*
X122473516Y-73622188D01*
X122225231Y-73589501D01*
X122225226Y-73589500D01*
X122225221Y-73589500D01*
X121974779Y-73589500D01*
X121974773Y-73589500D01*
X121974768Y-73589501D01*
X121726483Y-73622188D01*
X121484567Y-73687010D01*
X121253201Y-73782845D01*
X121253192Y-73782849D01*
X121036301Y-73908072D01*
X120837618Y-74060526D01*
X120837611Y-74060532D01*
X120660532Y-74237611D01*
X120660526Y-74237618D01*
X120508072Y-74436301D01*
X120382849Y-74653192D01*
X120382845Y-74653201D01*
X120287010Y-74884567D01*
X120222188Y-75126483D01*
X120189501Y-75374768D01*
X120189500Y-75374785D01*
X118957062Y-75374785D01*
X118957615Y-75364231D01*
X118957615Y-75364230D01*
X118967375Y-75178009D01*
X118967413Y-75177272D01*
X118968770Y-75164366D01*
X118976908Y-75112984D01*
X119018308Y-74851596D01*
X119021001Y-74838920D01*
X119102969Y-74533015D01*
X119106977Y-74520683D01*
X119114916Y-74500001D01*
X119220464Y-74225039D01*
X119225730Y-74213210D01*
X119369508Y-73931029D01*
X119375990Y-73919802D01*
X119548466Y-73654212D01*
X119556081Y-73643731D01*
X119755386Y-73397609D01*
X119764053Y-73387984D01*
X119987984Y-73164053D01*
X119997609Y-73155386D01*
X120243731Y-72956081D01*
X120254212Y-72948466D01*
X120519802Y-72775990D01*
X120531029Y-72769508D01*
X120813210Y-72625730D01*
X120825039Y-72620464D01*
X121120687Y-72506975D01*
X121133015Y-72502969D01*
X121438920Y-72421001D01*
X121451596Y-72418308D01*
X121764368Y-72368769D01*
X121777272Y-72367413D01*
X122096756Y-72350669D01*
X122103246Y-72350500D01*
X122155514Y-72350500D01*
X175144486Y-72350500D01*
X175196754Y-72350500D01*
X175203243Y-72350669D01*
G37*
G04 #@! TD.AperFunction*
M02*
