G04 #@! TF.GenerationSoftware,KiCad,Pcbnew,9.0.4*
G04 #@! TF.CreationDate,2025-09-13T12:43:22+05:30*
G04 #@! TF.ProjectId,Udayate,55646179-6174-4652-9e6b-696361645f70,1*
G04 #@! TF.SameCoordinates,Original*
G04 #@! TF.FileFunction,Legend,Top*
G04 #@! TF.FilePolarity,Positive*
%FSLAX46Y46*%
G04 Gerber Fmt 4.6, Leading zero omitted, Abs format (unit mm)*
G04 Created by KiCad (PCBNEW 9.0.4) date 2025-09-13 12:43:22*
%MOMM*%
%LPD*%
G01*
G04 APERTURE LIST*
G04 Aperture macros list*
%AMRoundRect*
0 Rectangle with rounded corners*
0 $1 Rounding radius*
0 $2 $3 $4 $5 $6 $7 $8 $9 X,Y pos of 4 corners*
0 Add a 4 corners polygon primitive as box body*
4,1,4,$2,$3,$4,$5,$6,$7,$8,$9,$2,$3,0*
0 Add four circle primitives for the rounded corners*
1,1,$1+$1,$2,$3*
1,1,$1+$1,$4,$5*
1,1,$1+$1,$6,$7*
1,1,$1+$1,$8,$9*
0 Add four rect primitives between the rounded corners*
20,1,$1+$1,$2,$3,$4,$5,0*
20,1,$1+$1,$4,$5,$6,$7,0*
20,1,$1+$1,$6,$7,$8,$9,0*
20,1,$1+$1,$8,$9,$2,$3,0*%
G04 Aperture macros list end*
%ADD10C,0.100000*%
%ADD11C,0.160000*%
%ADD12C,0.200000*%
%ADD13C,0.150000*%
%ADD14C,0.120000*%
%ADD15C,0.152400*%
%ADD16C,0.000000*%
%ADD17C,0.158000*%
%ADD18C,0.127000*%
%ADD19RoundRect,0.250000X0.475000X-0.337500X0.475000X0.337500X-0.475000X0.337500X-0.475000X-0.337500X0*%
%ADD20RoundRect,0.237500X0.300000X0.237500X-0.300000X0.237500X-0.300000X-0.237500X0.300000X-0.237500X0*%
%ADD21RoundRect,0.237500X-0.237500X0.300000X-0.237500X-0.300000X0.237500X-0.300000X0.237500X0.300000X0*%
%ADD22RoundRect,0.237500X0.250000X0.237500X-0.250000X0.237500X-0.250000X-0.237500X0.250000X-0.237500X0*%
%ADD23RoundRect,0.250000X0.337500X0.475000X-0.337500X0.475000X-0.337500X-0.475000X0.337500X-0.475000X0*%
%ADD24R,1.700000X1.700000*%
%ADD25C,1.700000*%
%ADD26R,1.000000X1.000000*%
%ADD27RoundRect,0.237500X0.237500X-0.250000X0.237500X0.250000X-0.237500X0.250000X-0.237500X-0.250000X0*%
%ADD28RoundRect,0.237500X0.344715X-0.008839X-0.008839X0.344715X-0.344715X0.008839X0.008839X-0.344715X0*%
%ADD29RoundRect,0.237500X-0.250000X-0.237500X0.250000X-0.237500X0.250000X0.237500X-0.250000X0.237500X0*%
%ADD30RoundRect,0.237500X-0.287500X-0.237500X0.287500X-0.237500X0.287500X0.237500X-0.287500X0.237500X0*%
%ADD31RoundRect,0.045000X0.105000X-0.117500X0.105000X0.117500X-0.105000X0.117500X-0.105000X-0.117500X0*%
%ADD32RoundRect,0.045000X-0.105000X0.117500X-0.105000X-0.117500X0.105000X-0.117500X0.105000X0.117500X0*%
%ADD33RoundRect,0.105000X-0.445000X-0.245000X0.445000X-0.245000X0.445000X0.245000X-0.445000X0.245000X0*%
%ADD34RoundRect,0.250000X-0.475000X0.337500X-0.475000X-0.337500X0.475000X-0.337500X0.475000X0.337500X0*%
%ADD35RoundRect,0.081250X0.231250X0.081250X-0.231250X0.081250X-0.231250X-0.081250X0.231250X-0.081250X0*%
%ADD36RoundRect,0.081250X0.081250X0.231250X-0.081250X0.231250X-0.081250X-0.231250X0.081250X-0.231250X0*%
%ADD37RoundRect,0.237500X-0.300000X-0.237500X0.300000X-0.237500X0.300000X0.237500X-0.300000X0.237500X0*%
%ADD38RoundRect,0.237500X0.237500X-0.300000X0.237500X0.300000X-0.237500X0.300000X-0.237500X-0.300000X0*%
%ADD39R,1.050000X0.650000*%
%ADD40R,0.279400X0.254000*%
%ADD41R,0.254000X0.279400*%
%ADD42C,3.200000*%
%ADD43RoundRect,0.075000X-0.700000X-0.075000X0.700000X-0.075000X0.700000X0.075000X-0.700000X0.075000X0*%
%ADD44RoundRect,0.075000X-0.075000X-0.700000X0.075000X-0.700000X0.075000X0.700000X-0.075000X0.700000X0*%
%ADD45RoundRect,0.237500X-0.344715X0.008839X0.008839X-0.344715X0.344715X-0.008839X-0.008839X0.344715X0*%
%ADD46RoundRect,0.250000X-0.337500X-0.475000X0.337500X-0.475000X0.337500X0.475000X-0.337500X0.475000X0*%
%ADD47RoundRect,0.237500X-0.008839X-0.344715X0.344715X0.008839X0.008839X0.344715X-0.344715X-0.008839X0*%
%ADD48RoundRect,0.125000X-0.125000X-0.125000X0.125000X-0.125000X0.125000X0.125000X-0.125000X0.125000X0*%
%ADD49RoundRect,0.093750X0.156250X0.093750X-0.156250X0.093750X-0.156250X-0.093750X0.156250X-0.093750X0*%
%ADD50RoundRect,0.075000X0.250000X0.075000X-0.250000X0.075000X-0.250000X-0.075000X0.250000X-0.075000X0*%
%ADD51RoundRect,0.150000X0.825000X0.150000X-0.825000X0.150000X-0.825000X-0.150000X0.825000X-0.150000X0*%
%ADD52R,2.000000X2.000000*%
%ADD53C,0.650000*%
%ADD54RoundRect,0.102000X0.570000X-0.300000X0.570000X0.300000X-0.570000X0.300000X-0.570000X-0.300000X0*%
%ADD55RoundRect,0.102000X0.570000X-0.150000X0.570000X0.150000X-0.570000X0.150000X-0.570000X-0.150000X0*%
%ADD56O,2.304000X1.254000*%
%ADD57O,2.054000X1.154000*%
%ADD58O,2.104000X1.204000*%
%ADD59RoundRect,0.093750X-0.093750X-0.106250X0.093750X-0.106250X0.093750X0.106250X-0.093750X0.106250X0*%
%ADD60R,1.000000X1.600000*%
%ADD61RoundRect,0.250000X0.800000X0.650000X-0.800000X0.650000X-0.800000X-0.650000X0.800000X-0.650000X0*%
%ADD62RoundRect,0.237500X0.287500X0.237500X-0.287500X0.237500X-0.287500X-0.237500X0.287500X-0.237500X0*%
%ADD63RoundRect,0.125000X-0.125000X0.125000X-0.125000X-0.125000X0.125000X-0.125000X0.125000X0.125000X0*%
G04 APERTURE END LIST*
D10*
X164750000Y-102500000D02*
X161750000Y-104000000D01*
X161750000Y-101000000D01*
X164750000Y-102500000D01*
G36*
X164750000Y-102500000D02*
G01*
X161750000Y-104000000D01*
X161750000Y-101000000D01*
X164750000Y-102500000D01*
G37*
D11*
X130900000Y-118500000D02*
X130900000Y-120500000D01*
X130900000Y-113400000D02*
X130900000Y-109500000D01*
X130900000Y-109500000D02*
X127900000Y-109500000D01*
X134800000Y-119500000D02*
X130900000Y-119500000D01*
X143500000Y-119550000D02*
X143500000Y-122650000D01*
X142050000Y-119500000D02*
X143500000Y-119500000D01*
X138800000Y-119500000D02*
X142050000Y-119500000D01*
X174871929Y-106193775D02*
X174638596Y-105812822D01*
X174471929Y-106193775D02*
X174471929Y-105393775D01*
X174471929Y-105393775D02*
X174738596Y-105393775D01*
X174738596Y-105393775D02*
X174805263Y-105431870D01*
X174805263Y-105431870D02*
X174838596Y-105469965D01*
X174838596Y-105469965D02*
X174871929Y-105546156D01*
X174871929Y-105546156D02*
X174871929Y-105660441D01*
X174871929Y-105660441D02*
X174838596Y-105736632D01*
X174838596Y-105736632D02*
X174805263Y-105774727D01*
X174805263Y-105774727D02*
X174738596Y-105812822D01*
X174738596Y-105812822D02*
X174471929Y-105812822D01*
X175105263Y-105393775D02*
X175571929Y-106193775D01*
X175571929Y-105393775D02*
X175105263Y-106193775D01*
X176138596Y-105393775D02*
X176005263Y-105393775D01*
X176005263Y-105393775D02*
X175938596Y-105431870D01*
X175938596Y-105431870D02*
X175905263Y-105469965D01*
X175905263Y-105469965D02*
X175838596Y-105584251D01*
X175838596Y-105584251D02*
X175805263Y-105736632D01*
X175805263Y-105736632D02*
X175805263Y-106041394D01*
X175805263Y-106041394D02*
X175838596Y-106117584D01*
X175838596Y-106117584D02*
X175871930Y-106155680D01*
X175871930Y-106155680D02*
X175938596Y-106193775D01*
X175938596Y-106193775D02*
X176071930Y-106193775D01*
X176071930Y-106193775D02*
X176138596Y-106155680D01*
X176138596Y-106155680D02*
X176171930Y-106117584D01*
X176171930Y-106117584D02*
X176205263Y-106041394D01*
X176205263Y-106041394D02*
X176205263Y-105850918D01*
X176205263Y-105850918D02*
X176171930Y-105774727D01*
X176171930Y-105774727D02*
X176138596Y-105736632D01*
X176138596Y-105736632D02*
X176071930Y-105698537D01*
X176071930Y-105698537D02*
X175938596Y-105698537D01*
X175938596Y-105698537D02*
X175871930Y-105736632D01*
X175871930Y-105736632D02*
X175838596Y-105774727D01*
X175838596Y-105774727D02*
X175805263Y-105850918D01*
X149993775Y-127994737D02*
X149993775Y-128328070D01*
X149993775Y-128328070D02*
X150374727Y-128361403D01*
X150374727Y-128361403D02*
X150336632Y-128328070D01*
X150336632Y-128328070D02*
X150298537Y-128261403D01*
X150298537Y-128261403D02*
X150298537Y-128094737D01*
X150298537Y-128094737D02*
X150336632Y-128028070D01*
X150336632Y-128028070D02*
X150374727Y-127994737D01*
X150374727Y-127994737D02*
X150450918Y-127961403D01*
X150450918Y-127961403D02*
X150641394Y-127961403D01*
X150641394Y-127961403D02*
X150717584Y-127994737D01*
X150717584Y-127994737D02*
X150755680Y-128028070D01*
X150755680Y-128028070D02*
X150793775Y-128094737D01*
X150793775Y-128094737D02*
X150793775Y-128261403D01*
X150793775Y-128261403D02*
X150755680Y-128328070D01*
X150755680Y-128328070D02*
X150717584Y-128361403D01*
X149993775Y-127761403D02*
X150793775Y-127528070D01*
X150793775Y-127528070D02*
X149993775Y-127294736D01*
D12*
G36*
X129243891Y-115304593D02*
G01*
X127821669Y-115304593D01*
X127821669Y-114474435D01*
X127932780Y-114474435D01*
X127932780Y-115093482D01*
X127934701Y-115112991D01*
X127949633Y-115149039D01*
X127977223Y-115176629D01*
X128013271Y-115191561D01*
X128052289Y-115191561D01*
X128088337Y-115176629D01*
X128115927Y-115149039D01*
X128130859Y-115112991D01*
X128132780Y-115093482D01*
X128132780Y-114715856D01*
X128533498Y-115116574D01*
X128548652Y-115129010D01*
X128551970Y-115130384D01*
X128554686Y-115132740D01*
X128572586Y-115140731D01*
X128715443Y-115188350D01*
X128725115Y-115190549D01*
X128727557Y-115191561D01*
X128731094Y-115191909D01*
X128734558Y-115192697D01*
X128737192Y-115192509D01*
X128747066Y-115193482D01*
X128842304Y-115193482D01*
X128861813Y-115191561D01*
X128865133Y-115190185D01*
X128868717Y-115189931D01*
X128887025Y-115182925D01*
X128982263Y-115135306D01*
X128990659Y-115130020D01*
X128993099Y-115129010D01*
X128995845Y-115126756D01*
X128998853Y-115124863D01*
X129000582Y-115122868D01*
X129008253Y-115116574D01*
X129055871Y-115068955D01*
X129062163Y-115061288D01*
X129064161Y-115059556D01*
X129066054Y-115056547D01*
X129068308Y-115053802D01*
X129069318Y-115051361D01*
X129074604Y-115042965D01*
X129122223Y-114947728D01*
X129129229Y-114929419D01*
X129129483Y-114925835D01*
X129130859Y-114922515D01*
X129132780Y-114903006D01*
X129132780Y-114664911D01*
X129130859Y-114645402D01*
X129129483Y-114642081D01*
X129129229Y-114638498D01*
X129122223Y-114620189D01*
X129074604Y-114524952D01*
X129069318Y-114516555D01*
X129068308Y-114514115D01*
X129066054Y-114511369D01*
X129064161Y-114508361D01*
X129062163Y-114506628D01*
X129055871Y-114498962D01*
X129008253Y-114451343D01*
X128993099Y-114438907D01*
X128957051Y-114423975D01*
X128918033Y-114423975D01*
X128881985Y-114438907D01*
X128854395Y-114466497D01*
X128839463Y-114502545D01*
X128839463Y-114541563D01*
X128854395Y-114577611D01*
X128866831Y-114592765D01*
X128902975Y-114628908D01*
X128932780Y-114688518D01*
X128932780Y-114879399D01*
X128902975Y-114939008D01*
X128878306Y-114963676D01*
X128818697Y-114993482D01*
X128763292Y-114993482D01*
X128658228Y-114958460D01*
X128103491Y-114403724D01*
X128088337Y-114391288D01*
X128052289Y-114376356D01*
X128013271Y-114376356D01*
X127977223Y-114391288D01*
X127949633Y-114418878D01*
X127934701Y-114454926D01*
X127932780Y-114474435D01*
X127821669Y-114474435D01*
X127821669Y-114265245D01*
X129243891Y-114265245D01*
X129243891Y-115304593D01*
G37*
G36*
X129290726Y-122550291D02*
G01*
X127823590Y-122550291D01*
X127823590Y-122178735D01*
X127934701Y-122178735D01*
X127934701Y-122217753D01*
X127949633Y-122253801D01*
X127977223Y-122281391D01*
X128013271Y-122296323D01*
X128032780Y-122298244D01*
X128266114Y-122298244D01*
X128266114Y-122341101D01*
X128268035Y-122360610D01*
X128282967Y-122396658D01*
X128310557Y-122424248D01*
X128346605Y-122439180D01*
X128385623Y-122439180D01*
X128421671Y-122424248D01*
X128449261Y-122396658D01*
X128464193Y-122360610D01*
X128466114Y-122341101D01*
X128466114Y-122298244D01*
X128699447Y-122298244D01*
X128718956Y-122296323D01*
X128755004Y-122281391D01*
X128782594Y-122253801D01*
X128797526Y-122217753D01*
X128797526Y-122178735D01*
X128782594Y-122142687D01*
X128755004Y-122115097D01*
X128718956Y-122100165D01*
X128699447Y-122098244D01*
X128466114Y-122098244D01*
X128466114Y-121860796D01*
X129048777Y-122055017D01*
X129067892Y-122059364D01*
X129106812Y-122056598D01*
X129141711Y-122039148D01*
X129167276Y-122009672D01*
X129179615Y-121972656D01*
X129176848Y-121933736D01*
X129159399Y-121898837D01*
X129129923Y-121873272D01*
X129112022Y-121865281D01*
X128397737Y-121627186D01*
X128388065Y-121624986D01*
X128385623Y-121623975D01*
X128383617Y-121623975D01*
X128378621Y-121622839D01*
X128362637Y-121623975D01*
X128346605Y-121623975D01*
X128343284Y-121625350D01*
X128339701Y-121625605D01*
X128325365Y-121632772D01*
X128310557Y-121638907D01*
X128308016Y-121641447D01*
X128304802Y-121643055D01*
X128294297Y-121655166D01*
X128282967Y-121666497D01*
X128281592Y-121669815D01*
X128279237Y-121672531D01*
X128274167Y-121687740D01*
X128268035Y-121702545D01*
X128267532Y-121707645D01*
X128266899Y-121709547D01*
X128267086Y-121712180D01*
X128266114Y-121722054D01*
X128266114Y-122098244D01*
X128032780Y-122098244D01*
X128013271Y-122100165D01*
X127977223Y-122115097D01*
X127949633Y-122142687D01*
X127934701Y-122178735D01*
X127823590Y-122178735D01*
X127823590Y-121511728D01*
X129290726Y-121511728D01*
X129290726Y-122550291D01*
G37*
D11*
X158523775Y-78294737D02*
X158523775Y-77861403D01*
X158523775Y-77861403D02*
X158828537Y-78094737D01*
X158828537Y-78094737D02*
X158828537Y-77994737D01*
X158828537Y-77994737D02*
X158866632Y-77928070D01*
X158866632Y-77928070D02*
X158904727Y-77894737D01*
X158904727Y-77894737D02*
X158980918Y-77861403D01*
X158980918Y-77861403D02*
X159171394Y-77861403D01*
X159171394Y-77861403D02*
X159247584Y-77894737D01*
X159247584Y-77894737D02*
X159285680Y-77928070D01*
X159285680Y-77928070D02*
X159323775Y-77994737D01*
X159323775Y-77994737D02*
X159323775Y-78194737D01*
X159323775Y-78194737D02*
X159285680Y-78261403D01*
X159285680Y-78261403D02*
X159247584Y-78294737D01*
X158523775Y-77661403D02*
X159323775Y-77428070D01*
X159323775Y-77428070D02*
X158523775Y-77194736D01*
X158523775Y-77028070D02*
X158523775Y-76594736D01*
X158523775Y-76594736D02*
X158828537Y-76828070D01*
X158828537Y-76828070D02*
X158828537Y-76728070D01*
X158828537Y-76728070D02*
X158866632Y-76661403D01*
X158866632Y-76661403D02*
X158904727Y-76628070D01*
X158904727Y-76628070D02*
X158980918Y-76594736D01*
X158980918Y-76594736D02*
X159171394Y-76594736D01*
X159171394Y-76594736D02*
X159247584Y-76628070D01*
X159247584Y-76628070D02*
X159285680Y-76661403D01*
X159285680Y-76661403D02*
X159323775Y-76728070D01*
X159323775Y-76728070D02*
X159323775Y-76928070D01*
X159323775Y-76928070D02*
X159285680Y-76994736D01*
X159285680Y-76994736D02*
X159247584Y-77028070D01*
X127993775Y-126994737D02*
X127993775Y-127328070D01*
X127993775Y-127328070D02*
X128374727Y-127361403D01*
X128374727Y-127361403D02*
X128336632Y-127328070D01*
X128336632Y-127328070D02*
X128298537Y-127261403D01*
X128298537Y-127261403D02*
X128298537Y-127094737D01*
X128298537Y-127094737D02*
X128336632Y-127028070D01*
X128336632Y-127028070D02*
X128374727Y-126994737D01*
X128374727Y-126994737D02*
X128450918Y-126961403D01*
X128450918Y-126961403D02*
X128641394Y-126961403D01*
X128641394Y-126961403D02*
X128717584Y-126994737D01*
X128717584Y-126994737D02*
X128755680Y-127028070D01*
X128755680Y-127028070D02*
X128793775Y-127094737D01*
X128793775Y-127094737D02*
X128793775Y-127261403D01*
X128793775Y-127261403D02*
X128755680Y-127328070D01*
X128755680Y-127328070D02*
X128717584Y-127361403D01*
X127993775Y-126761403D02*
X128793775Y-126528070D01*
X128793775Y-126528070D02*
X127993775Y-126294736D01*
D12*
G36*
X138704593Y-122278330D02*
G01*
X137665245Y-122278330D01*
X137665245Y-121047710D01*
X137776356Y-121047710D01*
X137776356Y-121086728D01*
X137791288Y-121122776D01*
X137818878Y-121150366D01*
X137854926Y-121165298D01*
X137874435Y-121167219D01*
X138273105Y-121167219D01*
X138084891Y-121382321D01*
X138078861Y-121390754D01*
X138077002Y-121392614D01*
X138076271Y-121394377D01*
X138073490Y-121398268D01*
X138068285Y-121413656D01*
X138062070Y-121428662D01*
X138062070Y-121432035D01*
X138060990Y-121435229D01*
X138062070Y-121451431D01*
X138062070Y-121467680D01*
X138063360Y-121470795D01*
X138063585Y-121474161D01*
X138070785Y-121488721D01*
X138077002Y-121503728D01*
X138079386Y-121506112D01*
X138080882Y-121509136D01*
X138093107Y-121519833D01*
X138104592Y-121531318D01*
X138107706Y-121532608D01*
X138110246Y-121534830D01*
X138125634Y-121540034D01*
X138140640Y-121546250D01*
X138145399Y-121546718D01*
X138147207Y-121547330D01*
X138149831Y-121547155D01*
X138160149Y-121548171D01*
X138279399Y-121548171D01*
X138339008Y-121577976D01*
X138363677Y-121602644D01*
X138393482Y-121662254D01*
X138393482Y-121853135D01*
X138363677Y-121912743D01*
X138339008Y-121937413D01*
X138279399Y-121967219D01*
X138040899Y-121967219D01*
X137981289Y-121937414D01*
X137945146Y-121901270D01*
X137929993Y-121888833D01*
X137893945Y-121873902D01*
X137854927Y-121873901D01*
X137818878Y-121888832D01*
X137791288Y-121916422D01*
X137776357Y-121952470D01*
X137776356Y-121991488D01*
X137791287Y-122027537D01*
X137803724Y-122042690D01*
X137851342Y-122090310D01*
X137859010Y-122096603D01*
X137860742Y-122098600D01*
X137863750Y-122100493D01*
X137866496Y-122102747D01*
X137868936Y-122103757D01*
X137877333Y-122109043D01*
X137972570Y-122156662D01*
X137990879Y-122163668D01*
X137994462Y-122163922D01*
X137997783Y-122165298D01*
X138017292Y-122167219D01*
X138303006Y-122167219D01*
X138322515Y-122165298D01*
X138325835Y-122163922D01*
X138329419Y-122163668D01*
X138347727Y-122156662D01*
X138442965Y-122109043D01*
X138451360Y-122103758D01*
X138453802Y-122102747D01*
X138456549Y-122100491D01*
X138459555Y-122098600D01*
X138461285Y-122096605D01*
X138468955Y-122090310D01*
X138516574Y-122042690D01*
X138522866Y-122035023D01*
X138524863Y-122033292D01*
X138526756Y-122030284D01*
X138529011Y-122027537D01*
X138530022Y-122025095D01*
X138535306Y-122016701D01*
X138582925Y-121921464D01*
X138589931Y-121903155D01*
X138590185Y-121899571D01*
X138591561Y-121896251D01*
X138593482Y-121876742D01*
X138593482Y-121638647D01*
X138591561Y-121619138D01*
X138590185Y-121615817D01*
X138589931Y-121612234D01*
X138582925Y-121593925D01*
X138535306Y-121498688D01*
X138530020Y-121490291D01*
X138529010Y-121487851D01*
X138526756Y-121485105D01*
X138524863Y-121482097D01*
X138522865Y-121480364D01*
X138516573Y-121472698D01*
X138468955Y-121425079D01*
X138461284Y-121418784D01*
X138459555Y-121416790D01*
X138456547Y-121414896D01*
X138453801Y-121412643D01*
X138451361Y-121411632D01*
X138442965Y-121406347D01*
X138364117Y-121366923D01*
X138568740Y-121133069D01*
X138574769Y-121124635D01*
X138576629Y-121122776D01*
X138577359Y-121121012D01*
X138580141Y-121117122D01*
X138585345Y-121101733D01*
X138591561Y-121086728D01*
X138591561Y-121083354D01*
X138592641Y-121080161D01*
X138591561Y-121063958D01*
X138591561Y-121047710D01*
X138590270Y-121044594D01*
X138590046Y-121041229D01*
X138582843Y-121026663D01*
X138576629Y-121011662D01*
X138574245Y-121009278D01*
X138572750Y-121006254D01*
X138560516Y-120995549D01*
X138549039Y-120984072D01*
X138545925Y-120982782D01*
X138543386Y-120980560D01*
X138527994Y-120975354D01*
X138512991Y-120969140D01*
X138508231Y-120968671D01*
X138506424Y-120968060D01*
X138503799Y-120968234D01*
X138493482Y-120967219D01*
X137874435Y-120967219D01*
X137854926Y-120969140D01*
X137818878Y-120984072D01*
X137791288Y-121011662D01*
X137776356Y-121047710D01*
X137665245Y-121047710D01*
X137665245Y-120856108D01*
X138704593Y-120856108D01*
X138704593Y-122278330D01*
G37*
G36*
X131502672Y-122278330D02*
G01*
X130511728Y-122278330D01*
X130511728Y-121340426D01*
X130622839Y-121340426D01*
X130625605Y-121379346D01*
X130643054Y-121414245D01*
X130672531Y-121439809D01*
X130709547Y-121452148D01*
X130748467Y-121449382D01*
X130766775Y-121442376D01*
X130862013Y-121394757D01*
X130870409Y-121389471D01*
X130872849Y-121388461D01*
X130875595Y-121386207D01*
X130878603Y-121384314D01*
X130880332Y-121382319D01*
X130888003Y-121376025D01*
X130907768Y-121356260D01*
X130907768Y-121967219D01*
X130722054Y-121967219D01*
X130702545Y-121969140D01*
X130666497Y-121984072D01*
X130638907Y-122011662D01*
X130623975Y-122047710D01*
X130623975Y-122086728D01*
X130638907Y-122122776D01*
X130666497Y-122150366D01*
X130702545Y-122165298D01*
X130722054Y-122167219D01*
X131293482Y-122167219D01*
X131312991Y-122165298D01*
X131349039Y-122150366D01*
X131376629Y-122122776D01*
X131391561Y-122086728D01*
X131391561Y-122047710D01*
X131376629Y-122011662D01*
X131349039Y-121984072D01*
X131312991Y-121969140D01*
X131293482Y-121967219D01*
X131107768Y-121967219D01*
X131107768Y-121067219D01*
X131107761Y-121067148D01*
X131107768Y-121067114D01*
X131107747Y-121067012D01*
X131105847Y-121047710D01*
X131102057Y-121038561D01*
X131100116Y-121028854D01*
X131094664Y-121020713D01*
X131090915Y-121011662D01*
X131083915Y-121004662D01*
X131078405Y-120996434D01*
X131070250Y-120990997D01*
X131063325Y-120984072D01*
X131054181Y-120980284D01*
X131045940Y-120974790D01*
X131036326Y-120972888D01*
X131027277Y-120969140D01*
X131017376Y-120969140D01*
X131007664Y-120967219D01*
X130998059Y-120969140D01*
X130988259Y-120969140D01*
X130979110Y-120972929D01*
X130969403Y-120974871D01*
X130961262Y-120980322D01*
X130952211Y-120984072D01*
X130945211Y-120991071D01*
X130936983Y-120996582D01*
X130924694Y-121011588D01*
X130924621Y-121011662D01*
X130924607Y-121011694D01*
X130924563Y-121011749D01*
X130834819Y-121146365D01*
X130758055Y-121223128D01*
X130677333Y-121263490D01*
X130660742Y-121273933D01*
X130635178Y-121303410D01*
X130622839Y-121340426D01*
X130511728Y-121340426D01*
X130511728Y-120856108D01*
X131502672Y-120856108D01*
X131502672Y-122278330D01*
G37*
D11*
X174707346Y-83963120D02*
X174640679Y-83925025D01*
X174640679Y-83925025D02*
X174540679Y-83925025D01*
X174540679Y-83925025D02*
X174440679Y-83963120D01*
X174440679Y-83963120D02*
X174374013Y-84039310D01*
X174374013Y-84039310D02*
X174340679Y-84115501D01*
X174340679Y-84115501D02*
X174307346Y-84267882D01*
X174307346Y-84267882D02*
X174307346Y-84382168D01*
X174307346Y-84382168D02*
X174340679Y-84534549D01*
X174340679Y-84534549D02*
X174374013Y-84610739D01*
X174374013Y-84610739D02*
X174440679Y-84686930D01*
X174440679Y-84686930D02*
X174540679Y-84725025D01*
X174540679Y-84725025D02*
X174607346Y-84725025D01*
X174607346Y-84725025D02*
X174707346Y-84686930D01*
X174707346Y-84686930D02*
X174740679Y-84648834D01*
X174740679Y-84648834D02*
X174740679Y-84382168D01*
X174740679Y-84382168D02*
X174607346Y-84382168D01*
X175040679Y-84725025D02*
X175040679Y-83925025D01*
X175040679Y-83925025D02*
X175440679Y-84725025D01*
X175440679Y-84725025D02*
X175440679Y-83925025D01*
X175774012Y-84725025D02*
X175774012Y-83925025D01*
X175774012Y-83925025D02*
X175940679Y-83925025D01*
X175940679Y-83925025D02*
X176040679Y-83963120D01*
X176040679Y-83963120D02*
X176107346Y-84039310D01*
X176107346Y-84039310D02*
X176140679Y-84115501D01*
X176140679Y-84115501D02*
X176174012Y-84267882D01*
X176174012Y-84267882D02*
X176174012Y-84382168D01*
X176174012Y-84382168D02*
X176140679Y-84534549D01*
X176140679Y-84534549D02*
X176107346Y-84610739D01*
X176107346Y-84610739D02*
X176040679Y-84686930D01*
X176040679Y-84686930D02*
X175940679Y-84725025D01*
X175940679Y-84725025D02*
X175774012Y-84725025D01*
X160961870Y-78061403D02*
X160923775Y-78128070D01*
X160923775Y-78128070D02*
X160923775Y-78228070D01*
X160923775Y-78228070D02*
X160961870Y-78328070D01*
X160961870Y-78328070D02*
X161038060Y-78394737D01*
X161038060Y-78394737D02*
X161114251Y-78428070D01*
X161114251Y-78428070D02*
X161266632Y-78461403D01*
X161266632Y-78461403D02*
X161380918Y-78461403D01*
X161380918Y-78461403D02*
X161533299Y-78428070D01*
X161533299Y-78428070D02*
X161609489Y-78394737D01*
X161609489Y-78394737D02*
X161685680Y-78328070D01*
X161685680Y-78328070D02*
X161723775Y-78228070D01*
X161723775Y-78228070D02*
X161723775Y-78161403D01*
X161723775Y-78161403D02*
X161685680Y-78061403D01*
X161685680Y-78061403D02*
X161647584Y-78028070D01*
X161647584Y-78028070D02*
X161380918Y-78028070D01*
X161380918Y-78028070D02*
X161380918Y-78161403D01*
X161723775Y-77728070D02*
X160923775Y-77728070D01*
X160923775Y-77728070D02*
X161723775Y-77328070D01*
X161723775Y-77328070D02*
X160923775Y-77328070D01*
X161723775Y-76994737D02*
X160923775Y-76994737D01*
X160923775Y-76994737D02*
X160923775Y-76828070D01*
X160923775Y-76828070D02*
X160961870Y-76728070D01*
X160961870Y-76728070D02*
X161038060Y-76661404D01*
X161038060Y-76661404D02*
X161114251Y-76628070D01*
X161114251Y-76628070D02*
X161266632Y-76594737D01*
X161266632Y-76594737D02*
X161380918Y-76594737D01*
X161380918Y-76594737D02*
X161533299Y-76628070D01*
X161533299Y-76628070D02*
X161609489Y-76661404D01*
X161609489Y-76661404D02*
X161685680Y-76728070D01*
X161685680Y-76728070D02*
X161723775Y-76828070D01*
X161723775Y-76828070D02*
X161723775Y-76994737D01*
X175305263Y-122893775D02*
X174971929Y-122893775D01*
X174971929Y-122893775D02*
X174938596Y-123274727D01*
X174938596Y-123274727D02*
X174971929Y-123236632D01*
X174971929Y-123236632D02*
X175038596Y-123198537D01*
X175038596Y-123198537D02*
X175205263Y-123198537D01*
X175205263Y-123198537D02*
X175271929Y-123236632D01*
X175271929Y-123236632D02*
X175305263Y-123274727D01*
X175305263Y-123274727D02*
X175338596Y-123350918D01*
X175338596Y-123350918D02*
X175338596Y-123541394D01*
X175338596Y-123541394D02*
X175305263Y-123617584D01*
X175305263Y-123617584D02*
X175271929Y-123655680D01*
X175271929Y-123655680D02*
X175205263Y-123693775D01*
X175205263Y-123693775D02*
X175038596Y-123693775D01*
X175038596Y-123693775D02*
X174971929Y-123655680D01*
X174971929Y-123655680D02*
X174938596Y-123617584D01*
X175538596Y-122893775D02*
X175771930Y-123693775D01*
X175771930Y-123693775D02*
X176005263Y-122893775D01*
X173871929Y-115493775D02*
X173871929Y-114693775D01*
X173871929Y-114693775D02*
X174105263Y-115265203D01*
X174105263Y-115265203D02*
X174338596Y-114693775D01*
X174338596Y-114693775D02*
X174338596Y-115493775D01*
X174671929Y-115493775D02*
X174671929Y-114693775D01*
X174971929Y-115455680D02*
X175071929Y-115493775D01*
X175071929Y-115493775D02*
X175238596Y-115493775D01*
X175238596Y-115493775D02*
X175305262Y-115455680D01*
X175305262Y-115455680D02*
X175338596Y-115417584D01*
X175338596Y-115417584D02*
X175371929Y-115341394D01*
X175371929Y-115341394D02*
X175371929Y-115265203D01*
X175371929Y-115265203D02*
X175338596Y-115189013D01*
X175338596Y-115189013D02*
X175305262Y-115150918D01*
X175305262Y-115150918D02*
X175238596Y-115112822D01*
X175238596Y-115112822D02*
X175105262Y-115074727D01*
X175105262Y-115074727D02*
X175038596Y-115036632D01*
X175038596Y-115036632D02*
X175005262Y-114998537D01*
X175005262Y-114998537D02*
X174971929Y-114922346D01*
X174971929Y-114922346D02*
X174971929Y-114846156D01*
X174971929Y-114846156D02*
X175005262Y-114769965D01*
X175005262Y-114769965D02*
X175038596Y-114731870D01*
X175038596Y-114731870D02*
X175105262Y-114693775D01*
X175105262Y-114693775D02*
X175271929Y-114693775D01*
X175271929Y-114693775D02*
X175371929Y-114731870D01*
X175805263Y-114693775D02*
X175938596Y-114693775D01*
X175938596Y-114693775D02*
X176005263Y-114731870D01*
X176005263Y-114731870D02*
X176071929Y-114808060D01*
X176071929Y-114808060D02*
X176105263Y-114960441D01*
X176105263Y-114960441D02*
X176105263Y-115227108D01*
X176105263Y-115227108D02*
X176071929Y-115379489D01*
X176071929Y-115379489D02*
X176005263Y-115455680D01*
X176005263Y-115455680D02*
X175938596Y-115493775D01*
X175938596Y-115493775D02*
X175805263Y-115493775D01*
X175805263Y-115493775D02*
X175738596Y-115455680D01*
X175738596Y-115455680D02*
X175671929Y-115379489D01*
X175671929Y-115379489D02*
X175638596Y-115227108D01*
X175638596Y-115227108D02*
X175638596Y-114960441D01*
X175638596Y-114960441D02*
X175671929Y-114808060D01*
X175671929Y-114808060D02*
X175738596Y-114731870D01*
X175738596Y-114731870D02*
X175805263Y-114693775D01*
D12*
G36*
X135859502Y-119481504D02*
G01*
X135660797Y-119481504D01*
X135760149Y-119183446D01*
X135859502Y-119481504D01*
G37*
G36*
X138256974Y-120078330D02*
G01*
X135216490Y-120078330D01*
X135216490Y-119854712D01*
X135327601Y-119854712D01*
X135330367Y-119893632D01*
X135347817Y-119928531D01*
X135377293Y-119954096D01*
X135414309Y-119966434D01*
X135453229Y-119963668D01*
X135488128Y-119946218D01*
X135513693Y-119916742D01*
X135521684Y-119898842D01*
X135594130Y-119681504D01*
X135926168Y-119681504D01*
X135998614Y-119898841D01*
X136006605Y-119916742D01*
X136032170Y-119946218D01*
X136067069Y-119963667D01*
X136105989Y-119966434D01*
X136143005Y-119954095D01*
X136172481Y-119928530D01*
X136189931Y-119893631D01*
X136192697Y-119854711D01*
X136188350Y-119835596D01*
X135865558Y-118867219D01*
X136326816Y-118867219D01*
X136326816Y-119676742D01*
X136328737Y-119696251D01*
X136330112Y-119699571D01*
X136330367Y-119703155D01*
X136337373Y-119721463D01*
X136384992Y-119816701D01*
X136390275Y-119825093D01*
X136391287Y-119827537D01*
X136393543Y-119830286D01*
X136395435Y-119833291D01*
X136397429Y-119835020D01*
X136403724Y-119842690D01*
X136451342Y-119890310D01*
X136459010Y-119896603D01*
X136460742Y-119898600D01*
X136463750Y-119900493D01*
X136466496Y-119902747D01*
X136468936Y-119903757D01*
X136477333Y-119909043D01*
X136572570Y-119956662D01*
X136590879Y-119963668D01*
X136594462Y-119963922D01*
X136597783Y-119965298D01*
X136617292Y-119967219D01*
X136807768Y-119967219D01*
X136827277Y-119965298D01*
X136830597Y-119963922D01*
X136834181Y-119963668D01*
X136852489Y-119956662D01*
X136947727Y-119909043D01*
X136956122Y-119903758D01*
X136958564Y-119902747D01*
X136961311Y-119900491D01*
X136964317Y-119898600D01*
X136966047Y-119896605D01*
X136973717Y-119890310D01*
X137021336Y-119842690D01*
X137027628Y-119835023D01*
X137029625Y-119833292D01*
X137031518Y-119830284D01*
X137033773Y-119827537D01*
X137034784Y-119825095D01*
X137040068Y-119816701D01*
X137087687Y-119721464D01*
X137094693Y-119703155D01*
X137094947Y-119699571D01*
X137096323Y-119696251D01*
X137098244Y-119676742D01*
X137098244Y-118867219D01*
X137098234Y-118867114D01*
X137279197Y-118867114D01*
X137286769Y-118905391D01*
X137295992Y-118922689D01*
X137592345Y-119367219D01*
X137295992Y-119811749D01*
X137286769Y-119829047D01*
X137279197Y-119867324D01*
X137286849Y-119905584D01*
X137308560Y-119938004D01*
X137341025Y-119959647D01*
X137379302Y-119967219D01*
X137417562Y-119959567D01*
X137449982Y-119937856D01*
X137462402Y-119922689D01*
X137712530Y-119547496D01*
X137962658Y-119922689D01*
X137975078Y-119937856D01*
X138007498Y-119959567D01*
X138045758Y-119967219D01*
X138084035Y-119959647D01*
X138116500Y-119938004D01*
X138138211Y-119905584D01*
X138145863Y-119867324D01*
X138138291Y-119829047D01*
X138129068Y-119811749D01*
X137832714Y-119367219D01*
X138129068Y-118922689D01*
X138138291Y-118905391D01*
X138145863Y-118867114D01*
X138138211Y-118828854D01*
X138116500Y-118796434D01*
X138084035Y-118774791D01*
X138045758Y-118767219D01*
X138007498Y-118774871D01*
X137975078Y-118796582D01*
X137962658Y-118811749D01*
X137712530Y-119186941D01*
X137462402Y-118811749D01*
X137449982Y-118796582D01*
X137417562Y-118774871D01*
X137379302Y-118767219D01*
X137341025Y-118774791D01*
X137308560Y-118796434D01*
X137286849Y-118828854D01*
X137279197Y-118867114D01*
X137098234Y-118867114D01*
X137096323Y-118847710D01*
X137081391Y-118811662D01*
X137053801Y-118784072D01*
X137017753Y-118769140D01*
X136978735Y-118769140D01*
X136942687Y-118784072D01*
X136915097Y-118811662D01*
X136900165Y-118847710D01*
X136898244Y-118867219D01*
X136898244Y-119653135D01*
X136868439Y-119712743D01*
X136843770Y-119737413D01*
X136784161Y-119767219D01*
X136640899Y-119767219D01*
X136581289Y-119737414D01*
X136556622Y-119712746D01*
X136526816Y-119653134D01*
X136526816Y-118867219D01*
X136524895Y-118847710D01*
X136509963Y-118811662D01*
X136482373Y-118784072D01*
X136446325Y-118769140D01*
X136407307Y-118769140D01*
X136371259Y-118784072D01*
X136343669Y-118811662D01*
X136328737Y-118847710D01*
X136326816Y-118867219D01*
X135865558Y-118867219D01*
X135855017Y-118835596D01*
X135847026Y-118817696D01*
X135842341Y-118812294D01*
X135839148Y-118805908D01*
X135829679Y-118797695D01*
X135821461Y-118788220D01*
X135815069Y-118785023D01*
X135809672Y-118780343D01*
X135797778Y-118776378D01*
X135786562Y-118770770D01*
X135779434Y-118770263D01*
X135772656Y-118768004D01*
X135760151Y-118768893D01*
X135747642Y-118768004D01*
X135740860Y-118770264D01*
X135733736Y-118770771D01*
X135722527Y-118776374D01*
X135710626Y-118780342D01*
X135705225Y-118785025D01*
X135698837Y-118788220D01*
X135690621Y-118797691D01*
X135681150Y-118805907D01*
X135677955Y-118812296D01*
X135673272Y-118817696D01*
X135665281Y-118835597D01*
X135331948Y-119835596D01*
X135327601Y-119854712D01*
X135216490Y-119854712D01*
X135216490Y-118656108D01*
X138256974Y-118656108D01*
X138256974Y-120078330D01*
G37*
D11*
X174738596Y-120931870D02*
X174671929Y-120893775D01*
X174671929Y-120893775D02*
X174571929Y-120893775D01*
X174571929Y-120893775D02*
X174471929Y-120931870D01*
X174471929Y-120931870D02*
X174405263Y-121008060D01*
X174405263Y-121008060D02*
X174371929Y-121084251D01*
X174371929Y-121084251D02*
X174338596Y-121236632D01*
X174338596Y-121236632D02*
X174338596Y-121350918D01*
X174338596Y-121350918D02*
X174371929Y-121503299D01*
X174371929Y-121503299D02*
X174405263Y-121579489D01*
X174405263Y-121579489D02*
X174471929Y-121655680D01*
X174471929Y-121655680D02*
X174571929Y-121693775D01*
X174571929Y-121693775D02*
X174638596Y-121693775D01*
X174638596Y-121693775D02*
X174738596Y-121655680D01*
X174738596Y-121655680D02*
X174771929Y-121617584D01*
X174771929Y-121617584D02*
X174771929Y-121350918D01*
X174771929Y-121350918D02*
X174638596Y-121350918D01*
X175071929Y-121693775D02*
X175071929Y-120893775D01*
X175071929Y-120893775D02*
X175471929Y-121693775D01*
X175471929Y-121693775D02*
X175471929Y-120893775D01*
X175805262Y-121693775D02*
X175805262Y-120893775D01*
X175805262Y-120893775D02*
X175971929Y-120893775D01*
X175971929Y-120893775D02*
X176071929Y-120931870D01*
X176071929Y-120931870D02*
X176138596Y-121008060D01*
X176138596Y-121008060D02*
X176171929Y-121084251D01*
X176171929Y-121084251D02*
X176205262Y-121236632D01*
X176205262Y-121236632D02*
X176205262Y-121350918D01*
X176205262Y-121350918D02*
X176171929Y-121503299D01*
X176171929Y-121503299D02*
X176138596Y-121579489D01*
X176138596Y-121579489D02*
X176071929Y-121655680D01*
X176071929Y-121655680D02*
X175971929Y-121693775D01*
X175971929Y-121693775D02*
X175805262Y-121693775D01*
X174471929Y-103393775D02*
X174871929Y-103393775D01*
X174671929Y-104193775D02*
X174671929Y-103393775D01*
X175038596Y-103393775D02*
X175505262Y-104193775D01*
X175505262Y-103393775D02*
X175038596Y-104193775D01*
X176071929Y-103393775D02*
X175938596Y-103393775D01*
X175938596Y-103393775D02*
X175871929Y-103431870D01*
X175871929Y-103431870D02*
X175838596Y-103469965D01*
X175838596Y-103469965D02*
X175771929Y-103584251D01*
X175771929Y-103584251D02*
X175738596Y-103736632D01*
X175738596Y-103736632D02*
X175738596Y-104041394D01*
X175738596Y-104041394D02*
X175771929Y-104117584D01*
X175771929Y-104117584D02*
X175805263Y-104155680D01*
X175805263Y-104155680D02*
X175871929Y-104193775D01*
X175871929Y-104193775D02*
X176005263Y-104193775D01*
X176005263Y-104193775D02*
X176071929Y-104155680D01*
X176071929Y-104155680D02*
X176105263Y-104117584D01*
X176105263Y-104117584D02*
X176138596Y-104041394D01*
X176138596Y-104041394D02*
X176138596Y-103850918D01*
X176138596Y-103850918D02*
X176105263Y-103774727D01*
X176105263Y-103774727D02*
X176071929Y-103736632D01*
X176071929Y-103736632D02*
X176005263Y-103698537D01*
X176005263Y-103698537D02*
X175871929Y-103698537D01*
X175871929Y-103698537D02*
X175805263Y-103736632D01*
X175805263Y-103736632D02*
X175771929Y-103774727D01*
X175771929Y-103774727D02*
X175738596Y-103850918D01*
X174738596Y-107531870D02*
X174671929Y-107493775D01*
X174671929Y-107493775D02*
X174571929Y-107493775D01*
X174571929Y-107493775D02*
X174471929Y-107531870D01*
X174471929Y-107531870D02*
X174405263Y-107608060D01*
X174405263Y-107608060D02*
X174371929Y-107684251D01*
X174371929Y-107684251D02*
X174338596Y-107836632D01*
X174338596Y-107836632D02*
X174338596Y-107950918D01*
X174338596Y-107950918D02*
X174371929Y-108103299D01*
X174371929Y-108103299D02*
X174405263Y-108179489D01*
X174405263Y-108179489D02*
X174471929Y-108255680D01*
X174471929Y-108255680D02*
X174571929Y-108293775D01*
X174571929Y-108293775D02*
X174638596Y-108293775D01*
X174638596Y-108293775D02*
X174738596Y-108255680D01*
X174738596Y-108255680D02*
X174771929Y-108217584D01*
X174771929Y-108217584D02*
X174771929Y-107950918D01*
X174771929Y-107950918D02*
X174638596Y-107950918D01*
X175071929Y-108293775D02*
X175071929Y-107493775D01*
X175071929Y-107493775D02*
X175471929Y-108293775D01*
X175471929Y-108293775D02*
X175471929Y-107493775D01*
X175805262Y-108293775D02*
X175805262Y-107493775D01*
X175805262Y-107493775D02*
X175971929Y-107493775D01*
X175971929Y-107493775D02*
X176071929Y-107531870D01*
X176071929Y-107531870D02*
X176138596Y-107608060D01*
X176138596Y-107608060D02*
X176171929Y-107684251D01*
X176171929Y-107684251D02*
X176205262Y-107836632D01*
X176205262Y-107836632D02*
X176205262Y-107950918D01*
X176205262Y-107950918D02*
X176171929Y-108103299D01*
X176171929Y-108103299D02*
X176138596Y-108179489D01*
X176138596Y-108179489D02*
X176071929Y-108255680D01*
X176071929Y-108255680D02*
X175971929Y-108293775D01*
X175971929Y-108293775D02*
X175805262Y-108293775D01*
X128031870Y-130061403D02*
X127993775Y-130128070D01*
X127993775Y-130128070D02*
X127993775Y-130228070D01*
X127993775Y-130228070D02*
X128031870Y-130328070D01*
X128031870Y-130328070D02*
X128108060Y-130394737D01*
X128108060Y-130394737D02*
X128184251Y-130428070D01*
X128184251Y-130428070D02*
X128336632Y-130461403D01*
X128336632Y-130461403D02*
X128450918Y-130461403D01*
X128450918Y-130461403D02*
X128603299Y-130428070D01*
X128603299Y-130428070D02*
X128679489Y-130394737D01*
X128679489Y-130394737D02*
X128755680Y-130328070D01*
X128755680Y-130328070D02*
X128793775Y-130228070D01*
X128793775Y-130228070D02*
X128793775Y-130161403D01*
X128793775Y-130161403D02*
X128755680Y-130061403D01*
X128755680Y-130061403D02*
X128717584Y-130028070D01*
X128717584Y-130028070D02*
X128450918Y-130028070D01*
X128450918Y-130028070D02*
X128450918Y-130161403D01*
X128793775Y-129728070D02*
X127993775Y-129728070D01*
X127993775Y-129728070D02*
X128793775Y-129328070D01*
X128793775Y-129328070D02*
X127993775Y-129328070D01*
X128793775Y-128994737D02*
X127993775Y-128994737D01*
X127993775Y-128994737D02*
X127993775Y-128828070D01*
X127993775Y-128828070D02*
X128031870Y-128728070D01*
X128031870Y-128728070D02*
X128108060Y-128661404D01*
X128108060Y-128661404D02*
X128184251Y-128628070D01*
X128184251Y-128628070D02*
X128336632Y-128594737D01*
X128336632Y-128594737D02*
X128450918Y-128594737D01*
X128450918Y-128594737D02*
X128603299Y-128628070D01*
X128603299Y-128628070D02*
X128679489Y-128661404D01*
X128679489Y-128661404D02*
X128755680Y-128728070D01*
X128755680Y-128728070D02*
X128793775Y-128828070D01*
X128793775Y-128828070D02*
X128793775Y-128994737D01*
X123305263Y-123993775D02*
X122971929Y-123993775D01*
X122971929Y-123993775D02*
X122938596Y-124374727D01*
X122938596Y-124374727D02*
X122971929Y-124336632D01*
X122971929Y-124336632D02*
X123038596Y-124298537D01*
X123038596Y-124298537D02*
X123205263Y-124298537D01*
X123205263Y-124298537D02*
X123271929Y-124336632D01*
X123271929Y-124336632D02*
X123305263Y-124374727D01*
X123305263Y-124374727D02*
X123338596Y-124450918D01*
X123338596Y-124450918D02*
X123338596Y-124641394D01*
X123338596Y-124641394D02*
X123305263Y-124717584D01*
X123305263Y-124717584D02*
X123271929Y-124755680D01*
X123271929Y-124755680D02*
X123205263Y-124793775D01*
X123205263Y-124793775D02*
X123038596Y-124793775D01*
X123038596Y-124793775D02*
X122971929Y-124755680D01*
X122971929Y-124755680D02*
X122938596Y-124717584D01*
X123538596Y-123993775D02*
X123771930Y-124793775D01*
X123771930Y-124793775D02*
X124005263Y-123993775D01*
X120238596Y-124031870D02*
X120171929Y-123993775D01*
X120171929Y-123993775D02*
X120071929Y-123993775D01*
X120071929Y-123993775D02*
X119971929Y-124031870D01*
X119971929Y-124031870D02*
X119905263Y-124108060D01*
X119905263Y-124108060D02*
X119871929Y-124184251D01*
X119871929Y-124184251D02*
X119838596Y-124336632D01*
X119838596Y-124336632D02*
X119838596Y-124450918D01*
X119838596Y-124450918D02*
X119871929Y-124603299D01*
X119871929Y-124603299D02*
X119905263Y-124679489D01*
X119905263Y-124679489D02*
X119971929Y-124755680D01*
X119971929Y-124755680D02*
X120071929Y-124793775D01*
X120071929Y-124793775D02*
X120138596Y-124793775D01*
X120138596Y-124793775D02*
X120238596Y-124755680D01*
X120238596Y-124755680D02*
X120271929Y-124717584D01*
X120271929Y-124717584D02*
X120271929Y-124450918D01*
X120271929Y-124450918D02*
X120138596Y-124450918D01*
X120571929Y-124793775D02*
X120571929Y-123993775D01*
X120571929Y-123993775D02*
X120971929Y-124793775D01*
X120971929Y-124793775D02*
X120971929Y-123993775D01*
X121305262Y-124793775D02*
X121305262Y-123993775D01*
X121305262Y-123993775D02*
X121471929Y-123993775D01*
X121471929Y-123993775D02*
X121571929Y-124031870D01*
X121571929Y-124031870D02*
X121638596Y-124108060D01*
X121638596Y-124108060D02*
X121671929Y-124184251D01*
X121671929Y-124184251D02*
X121705262Y-124336632D01*
X121705262Y-124336632D02*
X121705262Y-124450918D01*
X121705262Y-124450918D02*
X121671929Y-124603299D01*
X121671929Y-124603299D02*
X121638596Y-124679489D01*
X121638596Y-124679489D02*
X121571929Y-124755680D01*
X121571929Y-124755680D02*
X121471929Y-124793775D01*
X121471929Y-124793775D02*
X121305262Y-124793775D01*
X145631870Y-127961403D02*
X145593775Y-128028070D01*
X145593775Y-128028070D02*
X145593775Y-128128070D01*
X145593775Y-128128070D02*
X145631870Y-128228070D01*
X145631870Y-128228070D02*
X145708060Y-128294737D01*
X145708060Y-128294737D02*
X145784251Y-128328070D01*
X145784251Y-128328070D02*
X145936632Y-128361403D01*
X145936632Y-128361403D02*
X146050918Y-128361403D01*
X146050918Y-128361403D02*
X146203299Y-128328070D01*
X146203299Y-128328070D02*
X146279489Y-128294737D01*
X146279489Y-128294737D02*
X146355680Y-128228070D01*
X146355680Y-128228070D02*
X146393775Y-128128070D01*
X146393775Y-128128070D02*
X146393775Y-128061403D01*
X146393775Y-128061403D02*
X146355680Y-127961403D01*
X146355680Y-127961403D02*
X146317584Y-127928070D01*
X146317584Y-127928070D02*
X146050918Y-127928070D01*
X146050918Y-127928070D02*
X146050918Y-128061403D01*
X146393775Y-127628070D02*
X145593775Y-127628070D01*
X145593775Y-127628070D02*
X146393775Y-127228070D01*
X146393775Y-127228070D02*
X145593775Y-127228070D01*
X146393775Y-126894737D02*
X145593775Y-126894737D01*
X145593775Y-126894737D02*
X145593775Y-126728070D01*
X145593775Y-126728070D02*
X145631870Y-126628070D01*
X145631870Y-126628070D02*
X145708060Y-126561404D01*
X145708060Y-126561404D02*
X145784251Y-126528070D01*
X145784251Y-126528070D02*
X145936632Y-126494737D01*
X145936632Y-126494737D02*
X146050918Y-126494737D01*
X146050918Y-126494737D02*
X146203299Y-126528070D01*
X146203299Y-126528070D02*
X146279489Y-126561404D01*
X146279489Y-126561404D02*
X146355680Y-126628070D01*
X146355680Y-126628070D02*
X146393775Y-126728070D01*
X146393775Y-126728070D02*
X146393775Y-126894737D01*
X174974013Y-85925025D02*
X174640679Y-85925025D01*
X174640679Y-85925025D02*
X174607346Y-86305977D01*
X174607346Y-86305977D02*
X174640679Y-86267882D01*
X174640679Y-86267882D02*
X174707346Y-86229787D01*
X174707346Y-86229787D02*
X174874013Y-86229787D01*
X174874013Y-86229787D02*
X174940679Y-86267882D01*
X174940679Y-86267882D02*
X174974013Y-86305977D01*
X174974013Y-86305977D02*
X175007346Y-86382168D01*
X175007346Y-86382168D02*
X175007346Y-86572644D01*
X175007346Y-86572644D02*
X174974013Y-86648834D01*
X174974013Y-86648834D02*
X174940679Y-86686930D01*
X174940679Y-86686930D02*
X174874013Y-86725025D01*
X174874013Y-86725025D02*
X174707346Y-86725025D01*
X174707346Y-86725025D02*
X174640679Y-86686930D01*
X174640679Y-86686930D02*
X174607346Y-86648834D01*
X175207346Y-85925025D02*
X175440680Y-86725025D01*
X175440680Y-86725025D02*
X175674013Y-85925025D01*
X174394736Y-81993775D02*
X174794736Y-81993775D01*
X174594736Y-82793775D02*
X174594736Y-81993775D01*
X174961403Y-81993775D02*
X175428069Y-82793775D01*
X175428069Y-81993775D02*
X174961403Y-82793775D01*
X176061403Y-82793775D02*
X175661403Y-82793775D01*
X175861403Y-82793775D02*
X175861403Y-81993775D01*
X175861403Y-81993775D02*
X175794736Y-82108060D01*
X175794736Y-82108060D02*
X175728070Y-82184251D01*
X175728070Y-82184251D02*
X175661403Y-82222346D01*
X175371929Y-119517584D02*
X175338596Y-119555680D01*
X175338596Y-119555680D02*
X175238596Y-119593775D01*
X175238596Y-119593775D02*
X175171929Y-119593775D01*
X175171929Y-119593775D02*
X175071929Y-119555680D01*
X175071929Y-119555680D02*
X175005263Y-119479489D01*
X175005263Y-119479489D02*
X174971929Y-119403299D01*
X174971929Y-119403299D02*
X174938596Y-119250918D01*
X174938596Y-119250918D02*
X174938596Y-119136632D01*
X174938596Y-119136632D02*
X174971929Y-118984251D01*
X174971929Y-118984251D02*
X175005263Y-118908060D01*
X175005263Y-118908060D02*
X175071929Y-118831870D01*
X175071929Y-118831870D02*
X175171929Y-118793775D01*
X175171929Y-118793775D02*
X175238596Y-118793775D01*
X175238596Y-118793775D02*
X175338596Y-118831870D01*
X175338596Y-118831870D02*
X175371929Y-118869965D01*
X175638596Y-119555680D02*
X175738596Y-119593775D01*
X175738596Y-119593775D02*
X175905263Y-119593775D01*
X175905263Y-119593775D02*
X175971929Y-119555680D01*
X175971929Y-119555680D02*
X176005263Y-119517584D01*
X176005263Y-119517584D02*
X176038596Y-119441394D01*
X176038596Y-119441394D02*
X176038596Y-119365203D01*
X176038596Y-119365203D02*
X176005263Y-119289013D01*
X176005263Y-119289013D02*
X175971929Y-119250918D01*
X175971929Y-119250918D02*
X175905263Y-119212822D01*
X175905263Y-119212822D02*
X175771929Y-119174727D01*
X175771929Y-119174727D02*
X175705263Y-119136632D01*
X175705263Y-119136632D02*
X175671929Y-119098537D01*
X175671929Y-119098537D02*
X175638596Y-119022346D01*
X175638596Y-119022346D02*
X175638596Y-118946156D01*
X175638596Y-118946156D02*
X175671929Y-118869965D01*
X175671929Y-118869965D02*
X175705263Y-118831870D01*
X175705263Y-118831870D02*
X175771929Y-118793775D01*
X175771929Y-118793775D02*
X175938596Y-118793775D01*
X175938596Y-118793775D02*
X176038596Y-118831870D01*
X153471929Y-130593775D02*
X153471929Y-129793775D01*
X153471929Y-129793775D02*
X153738596Y-129793775D01*
X153738596Y-129793775D02*
X153805263Y-129831870D01*
X153805263Y-129831870D02*
X153838596Y-129869965D01*
X153838596Y-129869965D02*
X153871929Y-129946156D01*
X153871929Y-129946156D02*
X153871929Y-130060441D01*
X153871929Y-130060441D02*
X153838596Y-130136632D01*
X153838596Y-130136632D02*
X153805263Y-130174727D01*
X153805263Y-130174727D02*
X153738596Y-130212822D01*
X153738596Y-130212822D02*
X153471929Y-130212822D01*
X154105263Y-129793775D02*
X154271929Y-130593775D01*
X154271929Y-130593775D02*
X154405263Y-130022346D01*
X154405263Y-130022346D02*
X154538596Y-130593775D01*
X154538596Y-130593775D02*
X154705263Y-129793775D01*
X155371929Y-130593775D02*
X155138596Y-130212822D01*
X154971929Y-130593775D02*
X154971929Y-129793775D01*
X154971929Y-129793775D02*
X155238596Y-129793775D01*
X155238596Y-129793775D02*
X155305263Y-129831870D01*
X155305263Y-129831870D02*
X155338596Y-129869965D01*
X155338596Y-129869965D02*
X155371929Y-129946156D01*
X155371929Y-129946156D02*
X155371929Y-130060441D01*
X155371929Y-130060441D02*
X155338596Y-130136632D01*
X155338596Y-130136632D02*
X155305263Y-130174727D01*
X155305263Y-130174727D02*
X155238596Y-130212822D01*
X155238596Y-130212822D02*
X154971929Y-130212822D01*
G36*
X129587239Y-107494663D02*
G01*
X129631506Y-107545255D01*
X129658596Y-107669089D01*
X129658596Y-107918459D01*
X129631507Y-108042292D01*
X129587237Y-108092887D01*
X129550683Y-108113775D01*
X129459841Y-108113775D01*
X129423285Y-108092885D01*
X129379017Y-108042294D01*
X129351929Y-107918460D01*
X129351929Y-107669088D01*
X129379017Y-107545256D01*
X129423286Y-107494663D01*
X129459841Y-107473775D01*
X129550683Y-107473775D01*
X129587239Y-107494663D01*
G37*
G36*
X128187239Y-107494663D02*
G01*
X128203586Y-107513346D01*
X128225262Y-107562890D01*
X128225262Y-107643706D01*
X128203586Y-107693250D01*
X128187239Y-107711933D01*
X128150683Y-107732822D01*
X127985262Y-107732822D01*
X127985262Y-107473775D01*
X128150683Y-107473775D01*
X128187239Y-107494663D01*
G37*
G36*
X128887239Y-107494663D02*
G01*
X128903586Y-107513346D01*
X128925262Y-107562890D01*
X128925262Y-107643706D01*
X128903586Y-107693250D01*
X128887239Y-107711933D01*
X128850683Y-107732822D01*
X128685262Y-107732822D01*
X128685262Y-107473775D01*
X128850683Y-107473775D01*
X128887239Y-107494663D01*
G37*
G36*
X130320572Y-107494663D02*
G01*
X130336919Y-107513346D01*
X130358595Y-107562890D01*
X130358595Y-107643706D01*
X130336919Y-107693250D01*
X130320572Y-107711933D01*
X130284016Y-107732822D01*
X130118595Y-107732822D01*
X130118595Y-107473775D01*
X130284016Y-107473775D01*
X130320572Y-107494663D01*
G37*
G36*
X130607484Y-108362664D02*
G01*
X127103040Y-108362664D01*
X127103040Y-107393775D01*
X127191929Y-107393775D01*
X127191929Y-108193775D01*
X127193466Y-108209382D01*
X127205411Y-108238221D01*
X127227483Y-108260293D01*
X127256322Y-108272238D01*
X127271929Y-108273775D01*
X127605263Y-108273775D01*
X127620870Y-108272238D01*
X127649709Y-108260293D01*
X127671781Y-108238221D01*
X127683726Y-108209382D01*
X127683726Y-108178168D01*
X127671781Y-108149329D01*
X127649709Y-108127257D01*
X127620870Y-108115312D01*
X127605263Y-108113775D01*
X127351929Y-108113775D01*
X127351929Y-107854727D01*
X127505263Y-107854727D01*
X127520870Y-107853190D01*
X127549709Y-107841245D01*
X127571781Y-107819173D01*
X127583726Y-107790334D01*
X127583726Y-107759120D01*
X127571781Y-107730281D01*
X127549709Y-107708209D01*
X127520870Y-107696264D01*
X127505263Y-107694727D01*
X127351929Y-107694727D01*
X127351929Y-107473775D01*
X127605263Y-107473775D01*
X127620870Y-107472238D01*
X127649709Y-107460293D01*
X127671781Y-107438221D01*
X127683726Y-107409382D01*
X127683726Y-107393775D01*
X127825262Y-107393775D01*
X127825262Y-108193775D01*
X127826799Y-108209382D01*
X127838744Y-108238221D01*
X127860816Y-108260293D01*
X127889655Y-108272238D01*
X127920869Y-108272238D01*
X127949708Y-108260293D01*
X127971780Y-108238221D01*
X127983725Y-108209382D01*
X127985262Y-108193775D01*
X127985262Y-107892822D01*
X128027116Y-107892822D01*
X128237042Y-108235560D01*
X128246504Y-108248066D01*
X128271753Y-108266420D01*
X128302104Y-108273713D01*
X128332935Y-108268836D01*
X128359553Y-108252533D01*
X128377907Y-108227284D01*
X128385200Y-108196933D01*
X128380323Y-108166102D01*
X128373482Y-108151990D01*
X128209003Y-107883453D01*
X128211620Y-107882282D01*
X128278287Y-107844186D01*
X128285506Y-107839061D01*
X128287368Y-107838141D01*
X128289118Y-107836497D01*
X128291075Y-107835109D01*
X128292346Y-107833467D01*
X128298802Y-107827407D01*
X128332135Y-107789313D01*
X128336066Y-107783814D01*
X128337558Y-107782380D01*
X128339245Y-107779367D01*
X128341256Y-107776555D01*
X128341919Y-107774593D01*
X128345222Y-107768697D01*
X128378555Y-107692506D01*
X128383402Y-107677592D01*
X128383417Y-107676789D01*
X128383725Y-107676048D01*
X128385262Y-107660441D01*
X128385262Y-107546156D01*
X128383725Y-107530549D01*
X128383417Y-107529807D01*
X128383402Y-107529005D01*
X128378555Y-107514091D01*
X128345222Y-107437900D01*
X128341919Y-107432003D01*
X128341256Y-107430042D01*
X128339245Y-107427229D01*
X128337558Y-107424217D01*
X128336066Y-107422782D01*
X128332135Y-107417284D01*
X128311564Y-107393775D01*
X128525262Y-107393775D01*
X128525262Y-108193775D01*
X128526799Y-108209382D01*
X128538744Y-108238221D01*
X128560816Y-108260293D01*
X128589655Y-108272238D01*
X128620869Y-108272238D01*
X128649708Y-108260293D01*
X128671780Y-108238221D01*
X128683725Y-108209382D01*
X128685262Y-108193775D01*
X128685262Y-107892822D01*
X128727116Y-107892822D01*
X128937042Y-108235560D01*
X128946504Y-108248066D01*
X128971753Y-108266420D01*
X129002104Y-108273713D01*
X129032935Y-108268836D01*
X129059553Y-108252533D01*
X129077907Y-108227284D01*
X129085200Y-108196933D01*
X129080323Y-108166102D01*
X129073482Y-108151990D01*
X128909003Y-107883453D01*
X128911620Y-107882282D01*
X128978287Y-107844186D01*
X128985506Y-107839061D01*
X128987368Y-107838141D01*
X128989118Y-107836497D01*
X128991075Y-107835109D01*
X128992346Y-107833467D01*
X128998802Y-107827407D01*
X129032135Y-107789313D01*
X129036066Y-107783814D01*
X129037558Y-107782380D01*
X129039245Y-107779367D01*
X129041256Y-107776555D01*
X129041919Y-107774593D01*
X129045222Y-107768697D01*
X129078555Y-107692506D01*
X129083402Y-107677592D01*
X129083417Y-107676789D01*
X129083725Y-107676048D01*
X129085262Y-107660441D01*
X129191929Y-107660441D01*
X129191929Y-107927108D01*
X129192030Y-107928140D01*
X129191943Y-107928629D01*
X129192772Y-107935675D01*
X129193466Y-107942715D01*
X129193655Y-107943172D01*
X129193777Y-107944204D01*
X129227110Y-108096584D01*
X129231947Y-108111502D01*
X129234500Y-108115171D01*
X129235935Y-108119412D01*
X129245056Y-108132169D01*
X129311723Y-108208360D01*
X129318178Y-108214420D01*
X129319450Y-108216062D01*
X129321407Y-108217451D01*
X129323157Y-108219094D01*
X129325016Y-108220013D01*
X129332238Y-108225140D01*
X129398906Y-108263235D01*
X129413219Y-108269644D01*
X129418279Y-108270287D01*
X129422989Y-108272238D01*
X129438596Y-108273775D01*
X129571929Y-108273775D01*
X129587536Y-108272238D01*
X129592248Y-108270286D01*
X129597307Y-108269643D01*
X129611620Y-108263235D01*
X129678287Y-108225139D01*
X129685508Y-108220013D01*
X129687369Y-108219093D01*
X129689118Y-108217450D01*
X129691075Y-108216062D01*
X129692345Y-108214421D01*
X129698803Y-108208360D01*
X129765468Y-108132169D01*
X129774589Y-108119412D01*
X129776022Y-108115172D01*
X129778577Y-108111503D01*
X129783414Y-108096585D01*
X129816748Y-107944204D01*
X129816869Y-107943172D01*
X129817059Y-107942715D01*
X129817751Y-107935678D01*
X129818582Y-107928630D01*
X129818494Y-107928140D01*
X129818596Y-107927108D01*
X129818596Y-107660441D01*
X129818494Y-107659408D01*
X129818582Y-107658919D01*
X129817751Y-107651870D01*
X129817059Y-107644834D01*
X129816869Y-107644376D01*
X129816748Y-107643345D01*
X129783414Y-107490964D01*
X129778577Y-107476046D01*
X129776022Y-107472375D01*
X129774589Y-107468138D01*
X129765468Y-107455380D01*
X129711564Y-107393775D01*
X129958595Y-107393775D01*
X129958595Y-108193775D01*
X129960132Y-108209382D01*
X129972077Y-108238221D01*
X129994149Y-108260293D01*
X130022988Y-108272238D01*
X130054202Y-108272238D01*
X130083041Y-108260293D01*
X130105113Y-108238221D01*
X130117058Y-108209382D01*
X130118595Y-108193775D01*
X130118595Y-107892822D01*
X130160449Y-107892822D01*
X130370375Y-108235560D01*
X130379837Y-108248066D01*
X130405086Y-108266420D01*
X130435437Y-108273713D01*
X130466268Y-108268836D01*
X130492886Y-108252533D01*
X130511240Y-108227284D01*
X130518533Y-108196933D01*
X130513656Y-108166102D01*
X130506815Y-108151990D01*
X130342336Y-107883453D01*
X130344953Y-107882282D01*
X130411620Y-107844186D01*
X130418839Y-107839061D01*
X130420701Y-107838141D01*
X130422451Y-107836497D01*
X130424408Y-107835109D01*
X130425679Y-107833467D01*
X130432135Y-107827407D01*
X130465468Y-107789313D01*
X130469399Y-107783814D01*
X130470891Y-107782380D01*
X130472578Y-107779367D01*
X130474589Y-107776555D01*
X130475252Y-107774593D01*
X130478555Y-107768697D01*
X130511888Y-107692506D01*
X130516735Y-107677592D01*
X130516750Y-107676789D01*
X130517058Y-107676048D01*
X130518595Y-107660441D01*
X130518595Y-107546156D01*
X130517058Y-107530549D01*
X130516750Y-107529807D01*
X130516735Y-107529005D01*
X130511888Y-107514091D01*
X130478555Y-107437900D01*
X130475252Y-107432003D01*
X130474589Y-107430042D01*
X130472578Y-107427229D01*
X130470891Y-107424217D01*
X130469399Y-107422782D01*
X130465468Y-107417284D01*
X130432135Y-107379190D01*
X130425679Y-107373129D01*
X130424408Y-107371488D01*
X130422451Y-107370099D01*
X130420701Y-107368456D01*
X130418839Y-107367535D01*
X130411620Y-107362411D01*
X130344953Y-107324315D01*
X130330640Y-107317907D01*
X130325581Y-107317263D01*
X130320869Y-107315312D01*
X130305262Y-107313775D01*
X130038595Y-107313775D01*
X130022988Y-107315312D01*
X129994149Y-107327257D01*
X129972077Y-107349329D01*
X129960132Y-107378168D01*
X129958595Y-107393775D01*
X129711564Y-107393775D01*
X129698802Y-107379190D01*
X129692346Y-107373129D01*
X129691075Y-107371488D01*
X129689118Y-107370099D01*
X129687368Y-107368456D01*
X129685506Y-107367535D01*
X129678287Y-107362411D01*
X129611620Y-107324315D01*
X129597307Y-107317907D01*
X129592248Y-107317263D01*
X129587536Y-107315312D01*
X129571929Y-107313775D01*
X129438596Y-107313775D01*
X129422989Y-107315312D01*
X129418279Y-107317262D01*
X129413219Y-107317906D01*
X129398906Y-107324315D01*
X129332238Y-107362410D01*
X129325016Y-107367536D01*
X129323157Y-107368456D01*
X129321407Y-107370098D01*
X129319450Y-107371488D01*
X129318178Y-107373129D01*
X129311723Y-107379190D01*
X129245056Y-107455379D01*
X129235936Y-107468137D01*
X129234502Y-107472375D01*
X129231947Y-107476047D01*
X129227110Y-107490965D01*
X129193777Y-107643345D01*
X129193655Y-107644376D01*
X129193466Y-107644834D01*
X129192772Y-107651873D01*
X129191943Y-107658920D01*
X129192030Y-107659408D01*
X129191929Y-107660441D01*
X129085262Y-107660441D01*
X129085262Y-107546156D01*
X129083725Y-107530549D01*
X129083417Y-107529807D01*
X129083402Y-107529005D01*
X129078555Y-107514091D01*
X129045222Y-107437900D01*
X129041919Y-107432003D01*
X129041256Y-107430042D01*
X129039245Y-107427229D01*
X129037558Y-107424217D01*
X129036066Y-107422782D01*
X129032135Y-107417284D01*
X128998802Y-107379190D01*
X128992346Y-107373129D01*
X128991075Y-107371488D01*
X128989118Y-107370099D01*
X128987368Y-107368456D01*
X128985506Y-107367535D01*
X128978287Y-107362411D01*
X128911620Y-107324315D01*
X128897307Y-107317907D01*
X128892248Y-107317263D01*
X128887536Y-107315312D01*
X128871929Y-107313775D01*
X128605262Y-107313775D01*
X128589655Y-107315312D01*
X128560816Y-107327257D01*
X128538744Y-107349329D01*
X128526799Y-107378168D01*
X128525262Y-107393775D01*
X128311564Y-107393775D01*
X128298802Y-107379190D01*
X128292346Y-107373129D01*
X128291075Y-107371488D01*
X128289118Y-107370099D01*
X128287368Y-107368456D01*
X128285506Y-107367535D01*
X128278287Y-107362411D01*
X128211620Y-107324315D01*
X128197307Y-107317907D01*
X128192248Y-107317263D01*
X128187536Y-107315312D01*
X128171929Y-107313775D01*
X127905262Y-107313775D01*
X127889655Y-107315312D01*
X127860816Y-107327257D01*
X127838744Y-107349329D01*
X127826799Y-107378168D01*
X127825262Y-107393775D01*
X127683726Y-107393775D01*
X127683726Y-107378168D01*
X127671781Y-107349329D01*
X127649709Y-107327257D01*
X127620870Y-107315312D01*
X127605263Y-107313775D01*
X127271929Y-107313775D01*
X127256322Y-107315312D01*
X127227483Y-107327257D01*
X127205411Y-107349329D01*
X127193466Y-107378168D01*
X127191929Y-107393775D01*
X127103040Y-107393775D01*
X127103040Y-107224886D01*
X130607484Y-107224886D01*
X130607484Y-108362664D01*
G37*
X174338596Y-117555680D02*
X174438596Y-117593775D01*
X174438596Y-117593775D02*
X174605263Y-117593775D01*
X174605263Y-117593775D02*
X174671929Y-117555680D01*
X174671929Y-117555680D02*
X174705263Y-117517584D01*
X174705263Y-117517584D02*
X174738596Y-117441394D01*
X174738596Y-117441394D02*
X174738596Y-117365203D01*
X174738596Y-117365203D02*
X174705263Y-117289013D01*
X174705263Y-117289013D02*
X174671929Y-117250918D01*
X174671929Y-117250918D02*
X174605263Y-117212822D01*
X174605263Y-117212822D02*
X174471929Y-117174727D01*
X174471929Y-117174727D02*
X174405263Y-117136632D01*
X174405263Y-117136632D02*
X174371929Y-117098537D01*
X174371929Y-117098537D02*
X174338596Y-117022346D01*
X174338596Y-117022346D02*
X174338596Y-116946156D01*
X174338596Y-116946156D02*
X174371929Y-116869965D01*
X174371929Y-116869965D02*
X174405263Y-116831870D01*
X174405263Y-116831870D02*
X174471929Y-116793775D01*
X174471929Y-116793775D02*
X174638596Y-116793775D01*
X174638596Y-116793775D02*
X174738596Y-116831870D01*
X175438596Y-117517584D02*
X175405263Y-117555680D01*
X175405263Y-117555680D02*
X175305263Y-117593775D01*
X175305263Y-117593775D02*
X175238596Y-117593775D01*
X175238596Y-117593775D02*
X175138596Y-117555680D01*
X175138596Y-117555680D02*
X175071930Y-117479489D01*
X175071930Y-117479489D02*
X175038596Y-117403299D01*
X175038596Y-117403299D02*
X175005263Y-117250918D01*
X175005263Y-117250918D02*
X175005263Y-117136632D01*
X175005263Y-117136632D02*
X175038596Y-116984251D01*
X175038596Y-116984251D02*
X175071930Y-116908060D01*
X175071930Y-116908060D02*
X175138596Y-116831870D01*
X175138596Y-116831870D02*
X175238596Y-116793775D01*
X175238596Y-116793775D02*
X175305263Y-116793775D01*
X175305263Y-116793775D02*
X175405263Y-116831870D01*
X175405263Y-116831870D02*
X175438596Y-116869965D01*
X175738596Y-117593775D02*
X175738596Y-116793775D01*
X176138596Y-117593775D02*
X175838596Y-117136632D01*
X176138596Y-116793775D02*
X175738596Y-117250918D01*
X174835569Y-80848775D02*
X174602236Y-80467822D01*
X174435569Y-80848775D02*
X174435569Y-80048775D01*
X174435569Y-80048775D02*
X174702236Y-80048775D01*
X174702236Y-80048775D02*
X174768903Y-80086870D01*
X174768903Y-80086870D02*
X174802236Y-80124965D01*
X174802236Y-80124965D02*
X174835569Y-80201156D01*
X174835569Y-80201156D02*
X174835569Y-80315441D01*
X174835569Y-80315441D02*
X174802236Y-80391632D01*
X174802236Y-80391632D02*
X174768903Y-80429727D01*
X174768903Y-80429727D02*
X174702236Y-80467822D01*
X174702236Y-80467822D02*
X174435569Y-80467822D01*
X175068903Y-80048775D02*
X175535569Y-80848775D01*
X175535569Y-80048775D02*
X175068903Y-80848775D01*
X176168903Y-80848775D02*
X175768903Y-80848775D01*
X175968903Y-80848775D02*
X175968903Y-80048775D01*
X175968903Y-80048775D02*
X175902236Y-80163060D01*
X175902236Y-80163060D02*
X175835570Y-80239251D01*
X175835570Y-80239251D02*
X175768903Y-80277346D01*
X121805263Y-79574727D02*
X121905263Y-79612822D01*
X121905263Y-79612822D02*
X121938596Y-79650918D01*
X121938596Y-79650918D02*
X121971929Y-79727108D01*
X121971929Y-79727108D02*
X121971929Y-79841394D01*
X121971929Y-79841394D02*
X121938596Y-79917584D01*
X121938596Y-79917584D02*
X121905263Y-79955680D01*
X121905263Y-79955680D02*
X121838596Y-79993775D01*
X121838596Y-79993775D02*
X121571929Y-79993775D01*
X121571929Y-79993775D02*
X121571929Y-79193775D01*
X121571929Y-79193775D02*
X121805263Y-79193775D01*
X121805263Y-79193775D02*
X121871929Y-79231870D01*
X121871929Y-79231870D02*
X121905263Y-79269965D01*
X121905263Y-79269965D02*
X121938596Y-79346156D01*
X121938596Y-79346156D02*
X121938596Y-79422346D01*
X121938596Y-79422346D02*
X121905263Y-79498537D01*
X121905263Y-79498537D02*
X121871929Y-79536632D01*
X121871929Y-79536632D02*
X121805263Y-79574727D01*
X121805263Y-79574727D02*
X121571929Y-79574727D01*
X122405263Y-79193775D02*
X122538596Y-79193775D01*
X122538596Y-79193775D02*
X122605263Y-79231870D01*
X122605263Y-79231870D02*
X122671929Y-79308060D01*
X122671929Y-79308060D02*
X122705263Y-79460441D01*
X122705263Y-79460441D02*
X122705263Y-79727108D01*
X122705263Y-79727108D02*
X122671929Y-79879489D01*
X122671929Y-79879489D02*
X122605263Y-79955680D01*
X122605263Y-79955680D02*
X122538596Y-79993775D01*
X122538596Y-79993775D02*
X122405263Y-79993775D01*
X122405263Y-79993775D02*
X122338596Y-79955680D01*
X122338596Y-79955680D02*
X122271929Y-79879489D01*
X122271929Y-79879489D02*
X122238596Y-79727108D01*
X122238596Y-79727108D02*
X122238596Y-79460441D01*
X122238596Y-79460441D02*
X122271929Y-79308060D01*
X122271929Y-79308060D02*
X122338596Y-79231870D01*
X122338596Y-79231870D02*
X122405263Y-79193775D01*
X123138596Y-79193775D02*
X123271929Y-79193775D01*
X123271929Y-79193775D02*
X123338596Y-79231870D01*
X123338596Y-79231870D02*
X123405262Y-79308060D01*
X123405262Y-79308060D02*
X123438596Y-79460441D01*
X123438596Y-79460441D02*
X123438596Y-79727108D01*
X123438596Y-79727108D02*
X123405262Y-79879489D01*
X123405262Y-79879489D02*
X123338596Y-79955680D01*
X123338596Y-79955680D02*
X123271929Y-79993775D01*
X123271929Y-79993775D02*
X123138596Y-79993775D01*
X123138596Y-79993775D02*
X123071929Y-79955680D01*
X123071929Y-79955680D02*
X123005262Y-79879489D01*
X123005262Y-79879489D02*
X122971929Y-79727108D01*
X122971929Y-79727108D02*
X122971929Y-79460441D01*
X122971929Y-79460441D02*
X123005262Y-79308060D01*
X123005262Y-79308060D02*
X123071929Y-79231870D01*
X123071929Y-79231870D02*
X123138596Y-79193775D01*
X123638595Y-79193775D02*
X124038595Y-79193775D01*
X123838595Y-79993775D02*
X123838595Y-79193775D01*
X124405262Y-79193775D02*
X124471928Y-79193775D01*
X124471928Y-79193775D02*
X124538595Y-79231870D01*
X124538595Y-79231870D02*
X124571928Y-79269965D01*
X124571928Y-79269965D02*
X124605262Y-79346156D01*
X124605262Y-79346156D02*
X124638595Y-79498537D01*
X124638595Y-79498537D02*
X124638595Y-79689013D01*
X124638595Y-79689013D02*
X124605262Y-79841394D01*
X124605262Y-79841394D02*
X124571928Y-79917584D01*
X124571928Y-79917584D02*
X124538595Y-79955680D01*
X124538595Y-79955680D02*
X124471928Y-79993775D01*
X124471928Y-79993775D02*
X124405262Y-79993775D01*
X124405262Y-79993775D02*
X124338595Y-79955680D01*
X124338595Y-79955680D02*
X124305262Y-79917584D01*
X124305262Y-79917584D02*
X124271928Y-79841394D01*
X124271928Y-79841394D02*
X124238595Y-79689013D01*
X124238595Y-79689013D02*
X124238595Y-79498537D01*
X124238595Y-79498537D02*
X124271928Y-79346156D01*
X124271928Y-79346156D02*
X124305262Y-79269965D01*
X124305262Y-79269965D02*
X124338595Y-79231870D01*
X124338595Y-79231870D02*
X124405262Y-79193775D01*
D12*
G36*
X142350291Y-122276409D02*
G01*
X141311728Y-122276409D01*
X141311728Y-121721378D01*
X141422839Y-121721378D01*
X141423975Y-121737362D01*
X141423975Y-121753394D01*
X141425350Y-121756714D01*
X141425605Y-121760298D01*
X141432772Y-121774633D01*
X141438907Y-121789442D01*
X141441447Y-121791982D01*
X141443055Y-121795197D01*
X141455166Y-121805701D01*
X141466497Y-121817032D01*
X141469815Y-121818406D01*
X141472531Y-121820762D01*
X141487740Y-121825831D01*
X141502545Y-121831964D01*
X141507645Y-121832466D01*
X141509547Y-121833100D01*
X141512180Y-121832912D01*
X141522054Y-121833885D01*
X141898244Y-121833885D01*
X141898244Y-122067219D01*
X141900165Y-122086728D01*
X141915097Y-122122776D01*
X141942687Y-122150366D01*
X141978735Y-122165298D01*
X142017753Y-122165298D01*
X142053801Y-122150366D01*
X142081391Y-122122776D01*
X142096323Y-122086728D01*
X142098244Y-122067219D01*
X142098244Y-121833885D01*
X142141101Y-121833885D01*
X142160610Y-121831964D01*
X142196658Y-121817032D01*
X142224248Y-121789442D01*
X142239180Y-121753394D01*
X142239180Y-121714376D01*
X142224248Y-121678328D01*
X142196658Y-121650738D01*
X142160610Y-121635806D01*
X142141101Y-121633885D01*
X142098244Y-121633885D01*
X142098244Y-121400552D01*
X142096323Y-121381043D01*
X142081391Y-121344995D01*
X142053801Y-121317405D01*
X142017753Y-121302473D01*
X141978735Y-121302473D01*
X141942687Y-121317405D01*
X141915097Y-121344995D01*
X141900165Y-121381043D01*
X141898244Y-121400552D01*
X141898244Y-121633885D01*
X141660796Y-121633885D01*
X141855017Y-121051223D01*
X141859364Y-121032108D01*
X141856598Y-120993188D01*
X141839148Y-120958289D01*
X141809672Y-120932724D01*
X141772656Y-120920385D01*
X141733736Y-120923152D01*
X141698837Y-120940601D01*
X141673272Y-120970077D01*
X141665281Y-120987978D01*
X141427186Y-121702262D01*
X141424986Y-121711933D01*
X141423975Y-121714376D01*
X141423975Y-121716382D01*
X141422839Y-121721378D01*
X141311728Y-121721378D01*
X141311728Y-120809274D01*
X142350291Y-120809274D01*
X142350291Y-122276409D01*
G37*
G36*
X135104593Y-122278330D02*
G01*
X134065245Y-122278330D01*
X134065245Y-122047710D01*
X134176356Y-122047710D01*
X134176356Y-122086728D01*
X134191288Y-122122776D01*
X134218878Y-122150366D01*
X134254926Y-122165298D01*
X134274435Y-122167219D01*
X134893482Y-122167219D01*
X134912991Y-122165298D01*
X134949039Y-122150366D01*
X134976629Y-122122776D01*
X134991561Y-122086728D01*
X134991561Y-122047710D01*
X134976629Y-122011662D01*
X134949039Y-121984072D01*
X134912991Y-121969140D01*
X134893482Y-121967219D01*
X134515857Y-121967219D01*
X134916574Y-121566501D01*
X134929010Y-121551347D01*
X134930384Y-121548028D01*
X134932740Y-121545313D01*
X134940731Y-121527413D01*
X134988350Y-121384556D01*
X134990549Y-121374883D01*
X134991561Y-121372442D01*
X134991909Y-121368904D01*
X134992697Y-121365441D01*
X134992509Y-121362806D01*
X134993482Y-121352933D01*
X134993482Y-121257695D01*
X134991561Y-121238186D01*
X134990185Y-121234865D01*
X134989931Y-121231282D01*
X134982925Y-121212973D01*
X134935306Y-121117736D01*
X134930020Y-121109339D01*
X134929010Y-121106899D01*
X134926756Y-121104153D01*
X134924863Y-121101145D01*
X134922865Y-121099412D01*
X134916573Y-121091746D01*
X134868955Y-121044127D01*
X134861284Y-121037832D01*
X134859555Y-121035838D01*
X134856547Y-121033944D01*
X134853801Y-121031691D01*
X134851361Y-121030680D01*
X134842965Y-121025395D01*
X134747727Y-120977776D01*
X134729419Y-120970770D01*
X134725835Y-120970515D01*
X134722515Y-120969140D01*
X134703006Y-120967219D01*
X134464911Y-120967219D01*
X134445402Y-120969140D01*
X134442081Y-120970515D01*
X134438498Y-120970770D01*
X134420189Y-120977776D01*
X134324952Y-121025395D01*
X134316555Y-121030680D01*
X134314115Y-121031691D01*
X134311369Y-121033944D01*
X134308361Y-121035838D01*
X134306628Y-121037835D01*
X134298962Y-121044128D01*
X134251343Y-121091746D01*
X134238907Y-121106900D01*
X134223975Y-121142948D01*
X134223975Y-121181966D01*
X134238907Y-121218014D01*
X134266497Y-121245604D01*
X134302545Y-121260536D01*
X134341563Y-121260536D01*
X134377611Y-121245604D01*
X134392765Y-121233168D01*
X134428908Y-121197023D01*
X134488518Y-121167219D01*
X134679399Y-121167219D01*
X134739008Y-121197024D01*
X134763677Y-121221692D01*
X134793482Y-121281302D01*
X134793482Y-121336706D01*
X134758460Y-121441770D01*
X134203724Y-121996508D01*
X134191288Y-122011662D01*
X134176356Y-122047710D01*
X134065245Y-122047710D01*
X134065245Y-120856108D01*
X135104593Y-120856108D01*
X135104593Y-122278330D01*
G37*
D11*
X122171929Y-93593775D02*
X121938596Y-93212822D01*
X121771929Y-93593775D02*
X121771929Y-92793775D01*
X121771929Y-92793775D02*
X122038596Y-92793775D01*
X122038596Y-92793775D02*
X122105263Y-92831870D01*
X122105263Y-92831870D02*
X122138596Y-92869965D01*
X122138596Y-92869965D02*
X122171929Y-92946156D01*
X122171929Y-92946156D02*
X122171929Y-93060441D01*
X122171929Y-93060441D02*
X122138596Y-93136632D01*
X122138596Y-93136632D02*
X122105263Y-93174727D01*
X122105263Y-93174727D02*
X122038596Y-93212822D01*
X122038596Y-93212822D02*
X121771929Y-93212822D01*
X122438596Y-93555680D02*
X122538596Y-93593775D01*
X122538596Y-93593775D02*
X122705263Y-93593775D01*
X122705263Y-93593775D02*
X122771929Y-93555680D01*
X122771929Y-93555680D02*
X122805263Y-93517584D01*
X122805263Y-93517584D02*
X122838596Y-93441394D01*
X122838596Y-93441394D02*
X122838596Y-93365203D01*
X122838596Y-93365203D02*
X122805263Y-93289013D01*
X122805263Y-93289013D02*
X122771929Y-93250918D01*
X122771929Y-93250918D02*
X122705263Y-93212822D01*
X122705263Y-93212822D02*
X122571929Y-93174727D01*
X122571929Y-93174727D02*
X122505263Y-93136632D01*
X122505263Y-93136632D02*
X122471929Y-93098537D01*
X122471929Y-93098537D02*
X122438596Y-93022346D01*
X122438596Y-93022346D02*
X122438596Y-92946156D01*
X122438596Y-92946156D02*
X122471929Y-92869965D01*
X122471929Y-92869965D02*
X122505263Y-92831870D01*
X122505263Y-92831870D02*
X122571929Y-92793775D01*
X122571929Y-92793775D02*
X122738596Y-92793775D01*
X122738596Y-92793775D02*
X122838596Y-92831870D01*
X123038596Y-92793775D02*
X123438596Y-92793775D01*
X123238596Y-93593775D02*
X123238596Y-92793775D01*
X128855680Y-125361403D02*
X128893775Y-125261403D01*
X128893775Y-125261403D02*
X128893775Y-125094737D01*
X128893775Y-125094737D02*
X128855680Y-125028070D01*
X128855680Y-125028070D02*
X128817584Y-124994737D01*
X128817584Y-124994737D02*
X128741394Y-124961403D01*
X128741394Y-124961403D02*
X128665203Y-124961403D01*
X128665203Y-124961403D02*
X128589013Y-124994737D01*
X128589013Y-124994737D02*
X128550918Y-125028070D01*
X128550918Y-125028070D02*
X128512822Y-125094737D01*
X128512822Y-125094737D02*
X128474727Y-125228070D01*
X128474727Y-125228070D02*
X128436632Y-125294737D01*
X128436632Y-125294737D02*
X128398537Y-125328070D01*
X128398537Y-125328070D02*
X128322346Y-125361403D01*
X128322346Y-125361403D02*
X128246156Y-125361403D01*
X128246156Y-125361403D02*
X128169965Y-125328070D01*
X128169965Y-125328070D02*
X128131870Y-125294737D01*
X128131870Y-125294737D02*
X128093775Y-125228070D01*
X128093775Y-125228070D02*
X128093775Y-125061403D01*
X128093775Y-125061403D02*
X128131870Y-124961403D01*
X128893775Y-124661403D02*
X128093775Y-124661403D01*
X128131870Y-123961403D02*
X128093775Y-124028070D01*
X128093775Y-124028070D02*
X128093775Y-124128070D01*
X128093775Y-124128070D02*
X128131870Y-124228070D01*
X128131870Y-124228070D02*
X128208060Y-124294737D01*
X128208060Y-124294737D02*
X128284251Y-124328070D01*
X128284251Y-124328070D02*
X128436632Y-124361403D01*
X128436632Y-124361403D02*
X128550918Y-124361403D01*
X128550918Y-124361403D02*
X128703299Y-124328070D01*
X128703299Y-124328070D02*
X128779489Y-124294737D01*
X128779489Y-124294737D02*
X128855680Y-124228070D01*
X128855680Y-124228070D02*
X128893775Y-124128070D01*
X128893775Y-124128070D02*
X128893775Y-124061403D01*
X128893775Y-124061403D02*
X128855680Y-123961403D01*
X128855680Y-123961403D02*
X128817584Y-123928070D01*
X128817584Y-123928070D02*
X128550918Y-123928070D01*
X128550918Y-123928070D02*
X128550918Y-124061403D01*
X164385680Y-79761403D02*
X164423775Y-79661403D01*
X164423775Y-79661403D02*
X164423775Y-79494737D01*
X164423775Y-79494737D02*
X164385680Y-79428070D01*
X164385680Y-79428070D02*
X164347584Y-79394737D01*
X164347584Y-79394737D02*
X164271394Y-79361403D01*
X164271394Y-79361403D02*
X164195203Y-79361403D01*
X164195203Y-79361403D02*
X164119013Y-79394737D01*
X164119013Y-79394737D02*
X164080918Y-79428070D01*
X164080918Y-79428070D02*
X164042822Y-79494737D01*
X164042822Y-79494737D02*
X164004727Y-79628070D01*
X164004727Y-79628070D02*
X163966632Y-79694737D01*
X163966632Y-79694737D02*
X163928537Y-79728070D01*
X163928537Y-79728070D02*
X163852346Y-79761403D01*
X163852346Y-79761403D02*
X163776156Y-79761403D01*
X163776156Y-79761403D02*
X163699965Y-79728070D01*
X163699965Y-79728070D02*
X163661870Y-79694737D01*
X163661870Y-79694737D02*
X163623775Y-79628070D01*
X163623775Y-79628070D02*
X163623775Y-79461403D01*
X163623775Y-79461403D02*
X163661870Y-79361403D01*
X163623775Y-79128070D02*
X164423775Y-78961403D01*
X164423775Y-78961403D02*
X163852346Y-78828070D01*
X163852346Y-78828070D02*
X164423775Y-78694736D01*
X164423775Y-78694736D02*
X163623775Y-78528070D01*
X164347584Y-77861403D02*
X164385680Y-77894736D01*
X164385680Y-77894736D02*
X164423775Y-77994736D01*
X164423775Y-77994736D02*
X164423775Y-78061403D01*
X164423775Y-78061403D02*
X164385680Y-78161403D01*
X164385680Y-78161403D02*
X164309489Y-78228070D01*
X164309489Y-78228070D02*
X164233299Y-78261403D01*
X164233299Y-78261403D02*
X164080918Y-78294736D01*
X164080918Y-78294736D02*
X163966632Y-78294736D01*
X163966632Y-78294736D02*
X163814251Y-78261403D01*
X163814251Y-78261403D02*
X163738060Y-78228070D01*
X163738060Y-78228070D02*
X163661870Y-78161403D01*
X163661870Y-78161403D02*
X163623775Y-78061403D01*
X163623775Y-78061403D02*
X163623775Y-77994736D01*
X163623775Y-77994736D02*
X163661870Y-77894736D01*
X163661870Y-77894736D02*
X163699965Y-77861403D01*
X164423775Y-77228070D02*
X164423775Y-77561403D01*
X164423775Y-77561403D02*
X163623775Y-77561403D01*
X164423775Y-76994736D02*
X163623775Y-76994736D01*
X164423775Y-76594736D02*
X163966632Y-76894736D01*
X163623775Y-76594736D02*
X164080918Y-76994736D01*
X173871929Y-113593775D02*
X173871929Y-112793775D01*
X173871929Y-112793775D02*
X174105263Y-113365203D01*
X174105263Y-113365203D02*
X174338596Y-112793775D01*
X174338596Y-112793775D02*
X174338596Y-113593775D01*
X174805263Y-112793775D02*
X174938596Y-112793775D01*
X174938596Y-112793775D02*
X175005263Y-112831870D01*
X175005263Y-112831870D02*
X175071929Y-112908060D01*
X175071929Y-112908060D02*
X175105263Y-113060441D01*
X175105263Y-113060441D02*
X175105263Y-113327108D01*
X175105263Y-113327108D02*
X175071929Y-113479489D01*
X175071929Y-113479489D02*
X175005263Y-113555680D01*
X175005263Y-113555680D02*
X174938596Y-113593775D01*
X174938596Y-113593775D02*
X174805263Y-113593775D01*
X174805263Y-113593775D02*
X174738596Y-113555680D01*
X174738596Y-113555680D02*
X174671929Y-113479489D01*
X174671929Y-113479489D02*
X174638596Y-113327108D01*
X174638596Y-113327108D02*
X174638596Y-113060441D01*
X174638596Y-113060441D02*
X174671929Y-112908060D01*
X174671929Y-112908060D02*
X174738596Y-112831870D01*
X174738596Y-112831870D02*
X174805263Y-112793775D01*
X175371929Y-113555680D02*
X175471929Y-113593775D01*
X175471929Y-113593775D02*
X175638596Y-113593775D01*
X175638596Y-113593775D02*
X175705262Y-113555680D01*
X175705262Y-113555680D02*
X175738596Y-113517584D01*
X175738596Y-113517584D02*
X175771929Y-113441394D01*
X175771929Y-113441394D02*
X175771929Y-113365203D01*
X175771929Y-113365203D02*
X175738596Y-113289013D01*
X175738596Y-113289013D02*
X175705262Y-113250918D01*
X175705262Y-113250918D02*
X175638596Y-113212822D01*
X175638596Y-113212822D02*
X175505262Y-113174727D01*
X175505262Y-113174727D02*
X175438596Y-113136632D01*
X175438596Y-113136632D02*
X175405262Y-113098537D01*
X175405262Y-113098537D02*
X175371929Y-113022346D01*
X175371929Y-113022346D02*
X175371929Y-112946156D01*
X175371929Y-112946156D02*
X175405262Y-112869965D01*
X175405262Y-112869965D02*
X175438596Y-112831870D01*
X175438596Y-112831870D02*
X175505262Y-112793775D01*
X175505262Y-112793775D02*
X175671929Y-112793775D01*
X175671929Y-112793775D02*
X175771929Y-112831870D01*
X176071929Y-113593775D02*
X176071929Y-112793775D01*
X175005263Y-109493775D02*
X174671929Y-109493775D01*
X174671929Y-109493775D02*
X174638596Y-109874727D01*
X174638596Y-109874727D02*
X174671929Y-109836632D01*
X174671929Y-109836632D02*
X174738596Y-109798537D01*
X174738596Y-109798537D02*
X174905263Y-109798537D01*
X174905263Y-109798537D02*
X174971929Y-109836632D01*
X174971929Y-109836632D02*
X175005263Y-109874727D01*
X175005263Y-109874727D02*
X175038596Y-109950918D01*
X175038596Y-109950918D02*
X175038596Y-110141394D01*
X175038596Y-110141394D02*
X175005263Y-110217584D01*
X175005263Y-110217584D02*
X174971929Y-110255680D01*
X174971929Y-110255680D02*
X174905263Y-110293775D01*
X174905263Y-110293775D02*
X174738596Y-110293775D01*
X174738596Y-110293775D02*
X174671929Y-110255680D01*
X174671929Y-110255680D02*
X174638596Y-110217584D01*
X175238596Y-109493775D02*
X175471930Y-110293775D01*
X175471930Y-110293775D02*
X175705263Y-109493775D01*
G36*
X128253906Y-103694663D02*
G01*
X128270253Y-103713346D01*
X128291929Y-103762890D01*
X128291929Y-103843706D01*
X128270253Y-103893250D01*
X128253906Y-103911933D01*
X128217350Y-103932822D01*
X128051929Y-103932822D01*
X128051929Y-103673775D01*
X128217350Y-103673775D01*
X128253906Y-103694663D01*
G37*
G36*
X127565263Y-104085203D02*
G01*
X127445263Y-104085203D01*
X127505262Y-103879489D01*
X127565263Y-104085203D01*
G37*
G36*
X129307485Y-104562602D02*
G01*
X127103346Y-104562602D01*
X127103346Y-104386788D01*
X127192235Y-104386788D01*
X127195627Y-104417818D01*
X127210636Y-104445187D01*
X127234977Y-104464729D01*
X127264942Y-104473469D01*
X127295972Y-104470077D01*
X127323341Y-104455068D01*
X127342883Y-104430727D01*
X127348729Y-104416175D01*
X127398596Y-104245203D01*
X127611929Y-104245203D01*
X127661796Y-104416175D01*
X127667641Y-104430727D01*
X127687184Y-104455068D01*
X127714553Y-104470077D01*
X127745583Y-104473469D01*
X127775548Y-104464729D01*
X127799889Y-104445187D01*
X127814898Y-104417818D01*
X127818290Y-104386788D01*
X127815396Y-104371375D01*
X127588596Y-103593775D01*
X127891929Y-103593775D01*
X127891929Y-104393775D01*
X127893466Y-104409382D01*
X127905411Y-104438221D01*
X127927483Y-104460293D01*
X127956322Y-104472238D01*
X127987536Y-104472238D01*
X128016375Y-104460293D01*
X128038447Y-104438221D01*
X128050392Y-104409382D01*
X128051929Y-104393775D01*
X128051929Y-104092822D01*
X128093783Y-104092822D01*
X128303709Y-104435560D01*
X128313171Y-104448066D01*
X128338420Y-104466420D01*
X128368771Y-104473713D01*
X128399602Y-104468836D01*
X128426220Y-104452533D01*
X128444574Y-104427284D01*
X128451867Y-104396933D01*
X128446990Y-104366102D01*
X128440149Y-104351990D01*
X128275670Y-104083453D01*
X128278287Y-104082282D01*
X128344954Y-104044186D01*
X128352173Y-104039061D01*
X128354035Y-104038141D01*
X128355785Y-104036497D01*
X128357742Y-104035109D01*
X128359013Y-104033467D01*
X128365469Y-104027407D01*
X128398802Y-103989313D01*
X128402733Y-103983814D01*
X128404225Y-103982380D01*
X128405912Y-103979367D01*
X128407923Y-103976555D01*
X128408586Y-103974593D01*
X128411889Y-103968697D01*
X128445222Y-103892506D01*
X128450069Y-103877592D01*
X128450084Y-103876789D01*
X128450392Y-103876048D01*
X128451929Y-103860441D01*
X128451929Y-103746156D01*
X128450392Y-103730549D01*
X128450084Y-103729807D01*
X128450069Y-103729005D01*
X128445222Y-103714091D01*
X128411889Y-103637900D01*
X128408586Y-103632003D01*
X128407923Y-103630042D01*
X128405912Y-103627229D01*
X128404225Y-103624217D01*
X128402733Y-103622782D01*
X128398802Y-103617284D01*
X128378231Y-103593775D01*
X128591929Y-103593775D01*
X128591929Y-104393775D01*
X128593466Y-104409382D01*
X128605411Y-104438221D01*
X128627483Y-104460293D01*
X128656322Y-104472238D01*
X128687536Y-104472238D01*
X128716375Y-104460293D01*
X128738447Y-104438221D01*
X128750392Y-104409382D01*
X128751929Y-104393775D01*
X128751929Y-104001314D01*
X128831199Y-104195445D01*
X128838522Y-104209313D01*
X128838809Y-104209603D01*
X128838969Y-104209983D01*
X128849805Y-104220710D01*
X128860483Y-104231496D01*
X128860860Y-104231654D01*
X128861153Y-104231944D01*
X128875264Y-104237706D01*
X128889261Y-104243586D01*
X128889670Y-104243588D01*
X128890050Y-104243743D01*
X128905311Y-104243666D01*
X128920476Y-104243743D01*
X128920852Y-104243589D01*
X128921265Y-104243587D01*
X128935389Y-104237653D01*
X128949373Y-104231943D01*
X128949661Y-104231657D01*
X128950043Y-104231497D01*
X128960795Y-104220635D01*
X128971557Y-104209982D01*
X128971715Y-104209604D01*
X128972004Y-104209313D01*
X128979326Y-104195446D01*
X129058596Y-104001315D01*
X129058596Y-104393775D01*
X129060133Y-104409382D01*
X129072078Y-104438221D01*
X129094150Y-104460293D01*
X129122989Y-104472238D01*
X129154203Y-104472238D01*
X129183042Y-104460293D01*
X129205114Y-104438221D01*
X129217059Y-104409382D01*
X129218596Y-104393775D01*
X129218596Y-103593775D01*
X129217059Y-103578168D01*
X129216981Y-103577979D01*
X129216980Y-103577773D01*
X129210972Y-103563472D01*
X129205114Y-103549329D01*
X129204969Y-103549184D01*
X129204890Y-103548995D01*
X129193996Y-103538211D01*
X129183042Y-103527257D01*
X129182849Y-103527177D01*
X129182706Y-103527035D01*
X129168544Y-103521252D01*
X129154203Y-103515312D01*
X129153998Y-103515312D01*
X129153809Y-103515235D01*
X129138402Y-103515312D01*
X129122989Y-103515312D01*
X129122800Y-103515389D01*
X129122594Y-103515391D01*
X129108293Y-103521398D01*
X129094150Y-103527257D01*
X129094005Y-103527401D01*
X129093816Y-103527481D01*
X129082983Y-103538423D01*
X129072078Y-103549329D01*
X129071999Y-103549519D01*
X129071855Y-103549665D01*
X129064533Y-103563533D01*
X128905262Y-103953581D01*
X128745992Y-103563532D01*
X128738669Y-103549665D01*
X128738526Y-103549521D01*
X128738447Y-103549329D01*
X128727492Y-103538374D01*
X128716709Y-103527481D01*
X128716519Y-103527401D01*
X128716375Y-103527257D01*
X128702231Y-103521398D01*
X128687931Y-103515391D01*
X128687724Y-103515389D01*
X128687536Y-103515312D01*
X128672123Y-103515312D01*
X128656716Y-103515235D01*
X128656527Y-103515312D01*
X128656322Y-103515312D01*
X128641980Y-103521252D01*
X128627819Y-103527035D01*
X128627675Y-103527177D01*
X128627483Y-103527257D01*
X128616528Y-103538211D01*
X128605635Y-103548995D01*
X128605555Y-103549184D01*
X128605411Y-103549329D01*
X128599552Y-103563472D01*
X128593545Y-103577773D01*
X128593543Y-103577979D01*
X128593466Y-103578168D01*
X128591929Y-103593775D01*
X128378231Y-103593775D01*
X128365469Y-103579190D01*
X128359013Y-103573129D01*
X128357742Y-103571488D01*
X128355785Y-103570099D01*
X128354035Y-103568456D01*
X128352173Y-103567535D01*
X128344954Y-103562411D01*
X128278287Y-103524315D01*
X128263974Y-103517907D01*
X128258915Y-103517263D01*
X128254203Y-103515312D01*
X128238596Y-103513775D01*
X127971929Y-103513775D01*
X127956322Y-103515312D01*
X127927483Y-103527257D01*
X127905411Y-103549329D01*
X127893466Y-103578168D01*
X127891929Y-103593775D01*
X127588596Y-103593775D01*
X127582063Y-103571375D01*
X127581625Y-103570286D01*
X127581565Y-103569731D01*
X127580958Y-103568624D01*
X127576218Y-103556823D01*
X127570754Y-103550018D01*
X127566556Y-103542362D01*
X127561073Y-103537959D01*
X127556675Y-103532482D01*
X127549025Y-103528286D01*
X127542216Y-103522820D01*
X127535466Y-103520851D01*
X127529306Y-103517473D01*
X127520632Y-103516524D01*
X127512250Y-103514080D01*
X127505258Y-103514844D01*
X127498276Y-103514081D01*
X127489903Y-103516522D01*
X127481220Y-103517472D01*
X127475053Y-103520853D01*
X127468311Y-103522820D01*
X127461508Y-103528281D01*
X127453851Y-103532481D01*
X127449449Y-103537963D01*
X127443970Y-103542363D01*
X127439773Y-103550016D01*
X127434309Y-103556822D01*
X127429565Y-103568629D01*
X127428961Y-103569732D01*
X127428900Y-103570284D01*
X127428463Y-103571374D01*
X127195129Y-104371375D01*
X127192235Y-104386788D01*
X127103346Y-104386788D01*
X127103346Y-103424886D01*
X129307485Y-103424886D01*
X129307485Y-104562602D01*
G37*
X166885680Y-79561403D02*
X166923775Y-79461403D01*
X166923775Y-79461403D02*
X166923775Y-79294737D01*
X166923775Y-79294737D02*
X166885680Y-79228070D01*
X166885680Y-79228070D02*
X166847584Y-79194737D01*
X166847584Y-79194737D02*
X166771394Y-79161403D01*
X166771394Y-79161403D02*
X166695203Y-79161403D01*
X166695203Y-79161403D02*
X166619013Y-79194737D01*
X166619013Y-79194737D02*
X166580918Y-79228070D01*
X166580918Y-79228070D02*
X166542822Y-79294737D01*
X166542822Y-79294737D02*
X166504727Y-79428070D01*
X166504727Y-79428070D02*
X166466632Y-79494737D01*
X166466632Y-79494737D02*
X166428537Y-79528070D01*
X166428537Y-79528070D02*
X166352346Y-79561403D01*
X166352346Y-79561403D02*
X166276156Y-79561403D01*
X166276156Y-79561403D02*
X166199965Y-79528070D01*
X166199965Y-79528070D02*
X166161870Y-79494737D01*
X166161870Y-79494737D02*
X166123775Y-79428070D01*
X166123775Y-79428070D02*
X166123775Y-79261403D01*
X166123775Y-79261403D02*
X166161870Y-79161403D01*
X166123775Y-78928070D02*
X166923775Y-78761403D01*
X166923775Y-78761403D02*
X166352346Y-78628070D01*
X166352346Y-78628070D02*
X166923775Y-78494736D01*
X166923775Y-78494736D02*
X166123775Y-78328070D01*
X166923775Y-78061403D02*
X166123775Y-78061403D01*
X166123775Y-78061403D02*
X166123775Y-77894736D01*
X166123775Y-77894736D02*
X166161870Y-77794736D01*
X166161870Y-77794736D02*
X166238060Y-77728070D01*
X166238060Y-77728070D02*
X166314251Y-77694736D01*
X166314251Y-77694736D02*
X166466632Y-77661403D01*
X166466632Y-77661403D02*
X166580918Y-77661403D01*
X166580918Y-77661403D02*
X166733299Y-77694736D01*
X166733299Y-77694736D02*
X166809489Y-77728070D01*
X166809489Y-77728070D02*
X166885680Y-77794736D01*
X166885680Y-77794736D02*
X166923775Y-77894736D01*
X166923775Y-77894736D02*
X166923775Y-78061403D01*
X166923775Y-77361403D02*
X166123775Y-77361403D01*
X166123775Y-76894737D02*
X166123775Y-76761403D01*
X166123775Y-76761403D02*
X166161870Y-76694737D01*
X166161870Y-76694737D02*
X166238060Y-76628070D01*
X166238060Y-76628070D02*
X166390441Y-76594737D01*
X166390441Y-76594737D02*
X166657108Y-76594737D01*
X166657108Y-76594737D02*
X166809489Y-76628070D01*
X166809489Y-76628070D02*
X166885680Y-76694737D01*
X166885680Y-76694737D02*
X166923775Y-76761403D01*
X166923775Y-76761403D02*
X166923775Y-76894737D01*
X166923775Y-76894737D02*
X166885680Y-76961403D01*
X166885680Y-76961403D02*
X166809489Y-77028070D01*
X166809489Y-77028070D02*
X166657108Y-77061403D01*
X166657108Y-77061403D02*
X166390441Y-77061403D01*
X166390441Y-77061403D02*
X166238060Y-77028070D01*
X166238060Y-77028070D02*
X166161870Y-76961403D01*
X166161870Y-76961403D02*
X166123775Y-76894737D01*
G36*
X128283906Y-105584663D02*
G01*
X128300253Y-105603346D01*
X128321929Y-105652890D01*
X128321929Y-105733706D01*
X128300253Y-105783250D01*
X128283906Y-105801933D01*
X128247350Y-105822822D01*
X128081929Y-105822822D01*
X128081929Y-105563775D01*
X128247350Y-105563775D01*
X128283906Y-105584663D01*
G37*
G36*
X129237485Y-106452664D02*
G01*
X127099707Y-106452664D01*
X127099707Y-105826632D01*
X127188596Y-105826632D01*
X127188596Y-105940918D01*
X127188697Y-105941950D01*
X127188610Y-105942439D01*
X127189439Y-105949485D01*
X127190133Y-105956525D01*
X127190322Y-105956982D01*
X127190444Y-105958014D01*
X127223777Y-106110394D01*
X127223788Y-106110429D01*
X127223789Y-106110451D01*
X127226344Y-106118312D01*
X127228614Y-106125312D01*
X127228624Y-106125327D01*
X127228637Y-106125365D01*
X127261971Y-106201555D01*
X127265272Y-106207449D01*
X127265936Y-106209411D01*
X127267946Y-106212223D01*
X127269635Y-106215238D01*
X127271126Y-106216671D01*
X127275056Y-106222169D01*
X127341722Y-106298360D01*
X127353156Y-106309093D01*
X127356609Y-106310800D01*
X127359412Y-106313447D01*
X127373450Y-106320439D01*
X127473449Y-106358534D01*
X127484919Y-106361657D01*
X127486322Y-106362238D01*
X127487467Y-106362350D01*
X127488581Y-106362654D01*
X127490102Y-106362610D01*
X127501929Y-106363775D01*
X127568596Y-106363775D01*
X127580422Y-106362610D01*
X127581944Y-106362654D01*
X127583057Y-106362350D01*
X127584203Y-106362238D01*
X127585606Y-106361656D01*
X127597075Y-106358534D01*
X127697075Y-106320439D01*
X127711112Y-106313447D01*
X127713913Y-106310801D01*
X127717369Y-106309093D01*
X127728803Y-106298359D01*
X127762136Y-106260264D01*
X127766956Y-106253520D01*
X127768447Y-106252030D01*
X127769032Y-106250616D01*
X127771256Y-106247506D01*
X127775418Y-106235198D01*
X127780392Y-106223191D01*
X127780766Y-106219385D01*
X127781257Y-106217936D01*
X127781116Y-106215832D01*
X127781929Y-106207584D01*
X127781929Y-105940918D01*
X127780392Y-105925311D01*
X127768447Y-105896472D01*
X127746375Y-105874400D01*
X127717536Y-105862455D01*
X127701929Y-105860918D01*
X127568596Y-105860918D01*
X127552989Y-105862455D01*
X127524150Y-105874400D01*
X127502078Y-105896472D01*
X127490133Y-105925311D01*
X127490133Y-105956525D01*
X127502078Y-105985364D01*
X127524150Y-106007436D01*
X127552989Y-106019381D01*
X127568596Y-106020918D01*
X127621929Y-106020918D01*
X127621929Y-106177526D01*
X127621504Y-106178010D01*
X127553875Y-106203775D01*
X127516650Y-106203775D01*
X127449020Y-106178011D01*
X127403602Y-106126103D01*
X127378391Y-106068479D01*
X127348596Y-105932270D01*
X127348596Y-105835279D01*
X127378391Y-105699069D01*
X127403603Y-105641443D01*
X127449019Y-105589538D01*
X127516650Y-105563775D01*
X127580683Y-105563775D01*
X127628906Y-105591330D01*
X127643219Y-105597739D01*
X127674185Y-105601675D01*
X127704299Y-105593462D01*
X127728978Y-105574349D01*
X127744465Y-105547248D01*
X127748402Y-105516282D01*
X127740188Y-105486167D01*
X127738335Y-105483775D01*
X127921929Y-105483775D01*
X127921929Y-106283775D01*
X127923466Y-106299382D01*
X127935411Y-106328221D01*
X127957483Y-106350293D01*
X127986322Y-106362238D01*
X128017536Y-106362238D01*
X128046375Y-106350293D01*
X128068447Y-106328221D01*
X128080392Y-106299382D01*
X128081929Y-106283775D01*
X128081929Y-105982822D01*
X128268596Y-105982822D01*
X128284203Y-105981285D01*
X128288915Y-105979333D01*
X128293974Y-105978690D01*
X128308287Y-105972282D01*
X128374954Y-105934186D01*
X128382173Y-105929061D01*
X128384035Y-105928141D01*
X128385785Y-105926497D01*
X128387742Y-105925109D01*
X128389013Y-105923467D01*
X128395469Y-105917407D01*
X128428802Y-105879313D01*
X128432733Y-105873814D01*
X128434225Y-105872380D01*
X128435912Y-105869367D01*
X128437923Y-105866555D01*
X128438586Y-105864593D01*
X128441889Y-105858697D01*
X128475222Y-105782506D01*
X128480069Y-105767592D01*
X128480084Y-105766789D01*
X128480392Y-105766048D01*
X128481929Y-105750441D01*
X128481929Y-105636156D01*
X128588596Y-105636156D01*
X128588596Y-105712346D01*
X128590133Y-105727953D01*
X128590440Y-105728694D01*
X128590456Y-105729496D01*
X128595303Y-105744411D01*
X128628636Y-105820602D01*
X128631939Y-105826499D01*
X128632603Y-105828461D01*
X128634612Y-105831272D01*
X128636300Y-105834284D01*
X128637791Y-105835718D01*
X128641724Y-105841218D01*
X128675058Y-105879313D01*
X128681511Y-105885370D01*
X128682784Y-105887014D01*
X128684744Y-105888405D01*
X128686492Y-105890046D01*
X128688350Y-105890965D01*
X128695572Y-105896091D01*
X128762238Y-105934187D01*
X128764511Y-105935204D01*
X128765367Y-105935884D01*
X128771014Y-105938116D01*
X128776551Y-105940595D01*
X128777633Y-105940732D01*
X128779952Y-105941649D01*
X128903977Y-105977084D01*
X128950572Y-106003711D01*
X128966921Y-106022395D01*
X128988596Y-106071936D01*
X128988596Y-106114660D01*
X128966921Y-106164200D01*
X128950572Y-106182886D01*
X128914018Y-106203775D01*
X128783317Y-106203775D01*
X128697075Y-106170921D01*
X128681944Y-106166801D01*
X128650742Y-106167697D01*
X128622258Y-106180466D01*
X128600829Y-106203163D01*
X128589717Y-106232332D01*
X128590613Y-106263534D01*
X128603382Y-106292018D01*
X128626079Y-106313447D01*
X128640117Y-106320439D01*
X128740116Y-106358534D01*
X128751586Y-106361657D01*
X128752989Y-106362238D01*
X128754134Y-106362350D01*
X128755248Y-106362654D01*
X128756769Y-106362610D01*
X128768596Y-106363775D01*
X128935263Y-106363775D01*
X128950870Y-106362238D01*
X128955582Y-106360286D01*
X128960641Y-106359643D01*
X128974954Y-106353234D01*
X129041620Y-106315139D01*
X129048838Y-106310014D01*
X129050701Y-106309094D01*
X129052452Y-106307449D01*
X129054409Y-106306061D01*
X129055679Y-106304419D01*
X129062135Y-106298360D01*
X129095469Y-106260264D01*
X129099399Y-106254767D01*
X129100892Y-106253332D01*
X129102580Y-106250318D01*
X129104590Y-106247507D01*
X129105253Y-106245545D01*
X129108556Y-106239649D01*
X129141889Y-106163459D01*
X129146736Y-106148544D01*
X129146751Y-106147742D01*
X129147059Y-106147001D01*
X129148596Y-106131394D01*
X129148596Y-106055203D01*
X129147059Y-106039596D01*
X129146751Y-106038854D01*
X129146736Y-106038053D01*
X129141889Y-106023138D01*
X129108556Y-105946948D01*
X129105252Y-105941049D01*
X129104589Y-105939089D01*
X129102581Y-105936280D01*
X129100892Y-105933265D01*
X129099398Y-105931828D01*
X129095468Y-105926332D01*
X129062134Y-105888237D01*
X129055681Y-105882179D01*
X129054409Y-105880537D01*
X129052448Y-105879145D01*
X129050700Y-105877504D01*
X129048842Y-105876585D01*
X129041621Y-105871459D01*
X128974955Y-105833363D01*
X128972679Y-105832344D01*
X128971824Y-105831665D01*
X128966183Y-105829435D01*
X128960642Y-105826954D01*
X128959557Y-105826816D01*
X128957240Y-105825900D01*
X128833213Y-105790464D01*
X128786620Y-105763839D01*
X128770270Y-105745155D01*
X128748596Y-105695611D01*
X128748596Y-105652890D01*
X128770270Y-105603346D01*
X128786620Y-105584662D01*
X128823173Y-105563775D01*
X128953875Y-105563775D01*
X129040116Y-105596629D01*
X129055248Y-105600749D01*
X129086450Y-105599853D01*
X129114933Y-105587084D01*
X129136362Y-105564387D01*
X129147474Y-105535218D01*
X129146578Y-105504016D01*
X129133810Y-105475532D01*
X129111112Y-105454103D01*
X129097075Y-105447111D01*
X128997075Y-105409016D01*
X128985606Y-105405893D01*
X128984203Y-105405312D01*
X128983057Y-105405199D01*
X128981944Y-105404896D01*
X128980422Y-105404939D01*
X128968596Y-105403775D01*
X128801929Y-105403775D01*
X128786322Y-105405312D01*
X128781609Y-105407263D01*
X128776551Y-105407907D01*
X128762238Y-105414315D01*
X128695572Y-105452411D01*
X128688350Y-105457536D01*
X128686492Y-105458456D01*
X128684744Y-105460096D01*
X128682784Y-105461488D01*
X128681511Y-105463131D01*
X128675058Y-105469189D01*
X128641724Y-105507284D01*
X128637791Y-105512783D01*
X128636300Y-105514218D01*
X128634612Y-105517229D01*
X128632603Y-105520041D01*
X128631939Y-105522002D01*
X128628636Y-105527900D01*
X128595303Y-105604091D01*
X128590456Y-105619006D01*
X128590440Y-105619807D01*
X128590133Y-105620549D01*
X128588596Y-105636156D01*
X128481929Y-105636156D01*
X128480392Y-105620549D01*
X128480084Y-105619807D01*
X128480069Y-105619005D01*
X128475222Y-105604091D01*
X128441889Y-105527900D01*
X128438586Y-105522003D01*
X128437923Y-105520042D01*
X128435912Y-105517229D01*
X128434225Y-105514217D01*
X128432733Y-105512782D01*
X128428802Y-105507284D01*
X128395469Y-105469190D01*
X128389013Y-105463129D01*
X128387742Y-105461488D01*
X128385785Y-105460099D01*
X128384035Y-105458456D01*
X128382173Y-105457535D01*
X128374954Y-105452411D01*
X128308287Y-105414315D01*
X128293974Y-105407907D01*
X128288915Y-105407263D01*
X128284203Y-105405312D01*
X128268596Y-105403775D01*
X128001929Y-105403775D01*
X127986322Y-105405312D01*
X127957483Y-105417257D01*
X127935411Y-105439329D01*
X127923466Y-105468168D01*
X127921929Y-105483775D01*
X127738335Y-105483775D01*
X127721075Y-105461488D01*
X127708287Y-105452411D01*
X127641620Y-105414315D01*
X127627307Y-105407907D01*
X127622248Y-105407263D01*
X127617536Y-105405312D01*
X127601929Y-105403775D01*
X127501929Y-105403775D01*
X127490102Y-105404939D01*
X127488581Y-105404896D01*
X127487467Y-105405199D01*
X127486322Y-105405312D01*
X127484919Y-105405892D01*
X127473449Y-105409016D01*
X127373450Y-105447111D01*
X127359412Y-105454103D01*
X127356610Y-105456748D01*
X127353157Y-105458456D01*
X127341723Y-105469190D01*
X127275057Y-105545380D01*
X127271127Y-105550876D01*
X127269634Y-105552312D01*
X127267946Y-105555325D01*
X127265936Y-105558137D01*
X127265272Y-105560100D01*
X127261971Y-105565994D01*
X127228637Y-105642185D01*
X127228624Y-105642222D01*
X127228614Y-105642238D01*
X127226282Y-105649429D01*
X127223789Y-105657100D01*
X127223788Y-105657120D01*
X127223777Y-105657156D01*
X127190444Y-105809536D01*
X127190322Y-105810567D01*
X127190133Y-105811025D01*
X127189439Y-105818064D01*
X127188610Y-105825111D01*
X127188697Y-105825599D01*
X127188596Y-105826632D01*
X127099707Y-105826632D01*
X127099707Y-105314886D01*
X129237485Y-105314886D01*
X129237485Y-106452664D01*
G37*
D12*
G36*
X129243891Y-111702672D02*
G01*
X127821669Y-111702672D01*
X127821669Y-110922054D01*
X127932780Y-110922054D01*
X127932780Y-111493482D01*
X127934701Y-111512991D01*
X127949633Y-111549039D01*
X127977223Y-111576629D01*
X128013271Y-111591561D01*
X128052289Y-111591561D01*
X128088337Y-111576629D01*
X128115927Y-111549039D01*
X128130859Y-111512991D01*
X128132780Y-111493482D01*
X128132780Y-111307768D01*
X129032780Y-111307768D01*
X129032850Y-111307761D01*
X129032885Y-111307768D01*
X129032986Y-111307747D01*
X129052289Y-111305847D01*
X129061437Y-111302057D01*
X129071145Y-111300116D01*
X129079285Y-111294664D01*
X129088337Y-111290915D01*
X129095336Y-111283915D01*
X129103565Y-111278405D01*
X129109001Y-111270250D01*
X129115927Y-111263325D01*
X129119714Y-111254181D01*
X129125209Y-111245940D01*
X129127110Y-111236326D01*
X129130859Y-111227277D01*
X129130859Y-111217375D01*
X129132780Y-111207664D01*
X129130859Y-111198058D01*
X129130859Y-111188259D01*
X129127069Y-111179110D01*
X129125128Y-111169403D01*
X129119676Y-111161262D01*
X129115927Y-111152211D01*
X129108927Y-111145211D01*
X129103417Y-111136983D01*
X129088410Y-111124694D01*
X129088337Y-111124621D01*
X129088304Y-111124607D01*
X129088250Y-111124563D01*
X128953634Y-111034819D01*
X128876870Y-110958055D01*
X128836509Y-110877333D01*
X128826066Y-110860742D01*
X128796589Y-110835178D01*
X128759573Y-110822839D01*
X128720653Y-110825605D01*
X128685754Y-110843054D01*
X128660190Y-110872531D01*
X128647851Y-110909547D01*
X128650617Y-110948467D01*
X128657623Y-110966775D01*
X128705242Y-111062013D01*
X128710527Y-111070409D01*
X128711538Y-111072849D01*
X128713791Y-111075595D01*
X128715685Y-111078603D01*
X128717679Y-111080332D01*
X128723974Y-111088003D01*
X128743739Y-111107768D01*
X128132780Y-111107768D01*
X128132780Y-110922054D01*
X128130859Y-110902545D01*
X128115927Y-110866497D01*
X128088337Y-110838907D01*
X128052289Y-110823975D01*
X128013271Y-110823975D01*
X127977223Y-110838907D01*
X127949633Y-110866497D01*
X127934701Y-110902545D01*
X127932780Y-110922054D01*
X127821669Y-110922054D01*
X127821669Y-110711728D01*
X129243891Y-110711728D01*
X129243891Y-111702672D01*
G37*
D11*
X125338596Y-124755680D02*
X125438596Y-124793775D01*
X125438596Y-124793775D02*
X125605263Y-124793775D01*
X125605263Y-124793775D02*
X125671929Y-124755680D01*
X125671929Y-124755680D02*
X125705263Y-124717584D01*
X125705263Y-124717584D02*
X125738596Y-124641394D01*
X125738596Y-124641394D02*
X125738596Y-124565203D01*
X125738596Y-124565203D02*
X125705263Y-124489013D01*
X125705263Y-124489013D02*
X125671929Y-124450918D01*
X125671929Y-124450918D02*
X125605263Y-124412822D01*
X125605263Y-124412822D02*
X125471929Y-124374727D01*
X125471929Y-124374727D02*
X125405263Y-124336632D01*
X125405263Y-124336632D02*
X125371929Y-124298537D01*
X125371929Y-124298537D02*
X125338596Y-124222346D01*
X125338596Y-124222346D02*
X125338596Y-124146156D01*
X125338596Y-124146156D02*
X125371929Y-124069965D01*
X125371929Y-124069965D02*
X125405263Y-124031870D01*
X125405263Y-124031870D02*
X125471929Y-123993775D01*
X125471929Y-123993775D02*
X125638596Y-123993775D01*
X125638596Y-123993775D02*
X125738596Y-124031870D01*
X126038596Y-124793775D02*
X126038596Y-123993775D01*
X126738596Y-124031870D02*
X126671929Y-123993775D01*
X126671929Y-123993775D02*
X126571929Y-123993775D01*
X126571929Y-123993775D02*
X126471929Y-124031870D01*
X126471929Y-124031870D02*
X126405263Y-124108060D01*
X126405263Y-124108060D02*
X126371929Y-124184251D01*
X126371929Y-124184251D02*
X126338596Y-124336632D01*
X126338596Y-124336632D02*
X126338596Y-124450918D01*
X126338596Y-124450918D02*
X126371929Y-124603299D01*
X126371929Y-124603299D02*
X126405263Y-124679489D01*
X126405263Y-124679489D02*
X126471929Y-124755680D01*
X126471929Y-124755680D02*
X126571929Y-124793775D01*
X126571929Y-124793775D02*
X126638596Y-124793775D01*
X126638596Y-124793775D02*
X126738596Y-124755680D01*
X126738596Y-124755680D02*
X126771929Y-124717584D01*
X126771929Y-124717584D02*
X126771929Y-124450918D01*
X126771929Y-124450918D02*
X126638596Y-124450918D01*
D12*
G36*
X129243891Y-118904593D02*
G01*
X127821669Y-118904593D01*
X127821669Y-118217292D01*
X127932780Y-118217292D01*
X127932780Y-118503006D01*
X127934701Y-118522515D01*
X127936076Y-118525834D01*
X127936331Y-118529420D01*
X127943338Y-118547728D01*
X127990958Y-118642966D01*
X127996242Y-118651361D01*
X127997253Y-118653801D01*
X127999506Y-118656546D01*
X128001401Y-118659557D01*
X128003397Y-118661288D01*
X128009689Y-118668955D01*
X128057308Y-118716573D01*
X128064974Y-118722865D01*
X128066707Y-118724863D01*
X128069715Y-118726756D01*
X128072461Y-118729010D01*
X128074901Y-118730020D01*
X128083298Y-118735306D01*
X128178535Y-118782925D01*
X128196844Y-118789931D01*
X128200427Y-118790185D01*
X128203748Y-118791561D01*
X128223257Y-118793482D01*
X128461352Y-118793482D01*
X128480861Y-118791561D01*
X128484181Y-118790185D01*
X128487765Y-118789931D01*
X128506073Y-118782925D01*
X128601311Y-118735306D01*
X128609707Y-118730020D01*
X128612147Y-118729010D01*
X128614893Y-118726756D01*
X128617901Y-118724863D01*
X128619630Y-118722868D01*
X128627301Y-118716574D01*
X128674919Y-118668955D01*
X128681211Y-118661288D01*
X128683209Y-118659556D01*
X128685102Y-118656547D01*
X128687356Y-118653802D01*
X128688366Y-118651361D01*
X128693652Y-118642965D01*
X128733076Y-118564117D01*
X128966930Y-118768740D01*
X128975363Y-118774769D01*
X128977223Y-118776629D01*
X128978986Y-118777359D01*
X128982877Y-118780141D01*
X128998265Y-118785345D01*
X129013271Y-118791561D01*
X129016645Y-118791561D01*
X129019838Y-118792641D01*
X129036041Y-118791561D01*
X129052289Y-118791561D01*
X129055404Y-118790270D01*
X129058770Y-118790046D01*
X129073335Y-118782843D01*
X129088337Y-118776629D01*
X129090720Y-118774245D01*
X129093745Y-118772750D01*
X129104449Y-118760516D01*
X129115927Y-118749039D01*
X129117216Y-118745925D01*
X129119439Y-118743386D01*
X129124644Y-118727994D01*
X129130859Y-118712991D01*
X129131327Y-118708231D01*
X129131939Y-118706424D01*
X129131764Y-118703799D01*
X129132780Y-118693482D01*
X129132780Y-118074435D01*
X129130859Y-118054926D01*
X129115927Y-118018878D01*
X129088337Y-117991288D01*
X129052289Y-117976356D01*
X129013271Y-117976356D01*
X128977223Y-117991288D01*
X128949633Y-118018878D01*
X128934701Y-118054926D01*
X128932780Y-118074435D01*
X128932780Y-118473104D01*
X128717678Y-118284891D01*
X128709244Y-118278861D01*
X128707385Y-118277002D01*
X128705621Y-118276271D01*
X128701731Y-118273490D01*
X128686342Y-118268285D01*
X128671337Y-118262070D01*
X128667963Y-118262070D01*
X128664770Y-118260990D01*
X128648567Y-118262070D01*
X128632319Y-118262070D01*
X128629203Y-118263360D01*
X128625838Y-118263585D01*
X128611277Y-118270785D01*
X128596271Y-118277002D01*
X128593886Y-118279386D01*
X128590863Y-118280882D01*
X128580165Y-118293107D01*
X128568681Y-118304592D01*
X128567390Y-118307706D01*
X128565169Y-118310246D01*
X128559964Y-118325634D01*
X128553749Y-118340640D01*
X128553280Y-118345399D01*
X128552669Y-118347207D01*
X128552843Y-118349831D01*
X128551828Y-118360149D01*
X128551828Y-118479399D01*
X128522023Y-118539008D01*
X128497354Y-118563676D01*
X128437745Y-118593482D01*
X128246864Y-118593482D01*
X128187254Y-118563677D01*
X128162583Y-118539006D01*
X128132780Y-118479399D01*
X128132780Y-118240898D01*
X128162583Y-118181291D01*
X128198729Y-118145146D01*
X128211166Y-118129993D01*
X128226097Y-118093944D01*
X128226097Y-118054926D01*
X128211166Y-118018878D01*
X128183576Y-117991288D01*
X128147528Y-117976357D01*
X128108510Y-117976357D01*
X128072461Y-117991288D01*
X128057308Y-118003725D01*
X128009689Y-118051343D01*
X128003397Y-118059009D01*
X128001401Y-118060741D01*
X127999506Y-118063751D01*
X127997253Y-118066497D01*
X127996242Y-118068936D01*
X127990958Y-118077332D01*
X127943338Y-118172570D01*
X127936331Y-118190878D01*
X127936076Y-118194463D01*
X127934701Y-118197783D01*
X127932780Y-118217292D01*
X127821669Y-118217292D01*
X127821669Y-117865245D01*
X129243891Y-117865245D01*
X129243891Y-118904593D01*
G37*
G36*
X131238797Y-115402826D02*
G01*
X131302976Y-115467005D01*
X131332780Y-115526613D01*
X131332780Y-115669875D01*
X131302976Y-115729483D01*
X131238797Y-115793662D01*
X131087137Y-115831577D01*
X130778423Y-115831577D01*
X130626764Y-115793662D01*
X130562583Y-115729481D01*
X130532780Y-115669875D01*
X130532780Y-115526612D01*
X130562583Y-115467006D01*
X130626764Y-115402825D01*
X130778423Y-115364911D01*
X131087137Y-115364911D01*
X131238797Y-115402826D01*
G37*
G36*
X131643891Y-118045529D02*
G01*
X130221669Y-118045529D01*
X130221669Y-117531116D01*
X130334701Y-117531116D01*
X130334701Y-117570134D01*
X130349633Y-117606182D01*
X130377223Y-117633772D01*
X130413271Y-117648704D01*
X130432780Y-117650625D01*
X131332780Y-117650625D01*
X131332780Y-117836339D01*
X131334701Y-117855848D01*
X131349633Y-117891896D01*
X131377223Y-117919486D01*
X131413271Y-117934418D01*
X131452289Y-117934418D01*
X131488337Y-117919486D01*
X131515927Y-117891896D01*
X131530859Y-117855848D01*
X131532780Y-117836339D01*
X131532780Y-117264911D01*
X131530859Y-117245402D01*
X131515927Y-117209354D01*
X131488337Y-117181764D01*
X131452289Y-117166832D01*
X131413271Y-117166832D01*
X131377223Y-117181764D01*
X131349633Y-117209354D01*
X131334701Y-117245402D01*
X131332780Y-117264911D01*
X131332780Y-117450625D01*
X130432780Y-117450625D01*
X130413271Y-117452546D01*
X130377223Y-117467478D01*
X130349633Y-117495068D01*
X130334701Y-117531116D01*
X130221669Y-117531116D01*
X130221669Y-116550625D01*
X130332780Y-116550625D01*
X130332780Y-116741101D01*
X130334701Y-116760610D01*
X130336076Y-116763929D01*
X130336331Y-116767515D01*
X130343338Y-116785823D01*
X130390958Y-116881061D01*
X130396242Y-116889456D01*
X130397253Y-116891896D01*
X130399506Y-116894641D01*
X130401401Y-116897652D01*
X130403397Y-116899383D01*
X130409689Y-116907050D01*
X130457308Y-116954668D01*
X130464974Y-116960960D01*
X130466707Y-116962958D01*
X130469715Y-116964851D01*
X130472461Y-116967105D01*
X130474901Y-116968115D01*
X130483298Y-116973401D01*
X130578535Y-117021020D01*
X130596844Y-117028026D01*
X130600427Y-117028280D01*
X130603748Y-117029656D01*
X130623257Y-117031577D01*
X131432780Y-117031577D01*
X131452289Y-117029656D01*
X131488337Y-117014724D01*
X131515927Y-116987134D01*
X131530859Y-116951086D01*
X131530859Y-116912068D01*
X131515927Y-116876020D01*
X131488337Y-116848430D01*
X131452289Y-116833498D01*
X131432780Y-116831577D01*
X130646864Y-116831577D01*
X130587254Y-116801772D01*
X130562583Y-116777101D01*
X130532780Y-116717494D01*
X130532780Y-116574231D01*
X130562583Y-116514624D01*
X130587254Y-116489953D01*
X130646864Y-116460149D01*
X131432780Y-116460149D01*
X131452289Y-116458228D01*
X131488337Y-116443296D01*
X131515927Y-116415706D01*
X131530859Y-116379658D01*
X131530859Y-116340640D01*
X131515927Y-116304592D01*
X131488337Y-116277002D01*
X131452289Y-116262070D01*
X131432780Y-116260149D01*
X130623257Y-116260149D01*
X130603748Y-116262070D01*
X130600427Y-116263445D01*
X130596844Y-116263700D01*
X130578535Y-116270706D01*
X130483298Y-116318325D01*
X130474901Y-116323610D01*
X130472461Y-116324621D01*
X130469715Y-116326874D01*
X130466707Y-116328768D01*
X130464974Y-116330765D01*
X130457308Y-116337058D01*
X130409689Y-116384676D01*
X130403397Y-116392342D01*
X130401401Y-116394074D01*
X130399506Y-116397084D01*
X130397253Y-116399830D01*
X130396242Y-116402269D01*
X130390958Y-116410665D01*
X130343338Y-116505903D01*
X130336331Y-116524211D01*
X130336076Y-116527796D01*
X130334701Y-116531116D01*
X130332780Y-116550625D01*
X130221669Y-116550625D01*
X130221669Y-115503006D01*
X130332780Y-115503006D01*
X130332780Y-115693482D01*
X130334701Y-115712991D01*
X130336076Y-115716310D01*
X130336331Y-115719896D01*
X130343338Y-115738204D01*
X130390958Y-115833442D01*
X130396242Y-115841837D01*
X130397253Y-115844277D01*
X130399506Y-115847022D01*
X130401401Y-115850033D01*
X130403397Y-115851764D01*
X130409689Y-115859431D01*
X130504927Y-115954669D01*
X130520081Y-115967105D01*
X130526949Y-115969950D01*
X130532924Y-115974377D01*
X130551384Y-115980972D01*
X130741860Y-116028591D01*
X130745241Y-116029091D01*
X130746605Y-116029656D01*
X130753955Y-116030379D01*
X130761253Y-116031459D01*
X130762711Y-116031241D01*
X130766114Y-116031577D01*
X131099447Y-116031577D01*
X131102849Y-116031241D01*
X131104308Y-116031459D01*
X131111605Y-116030379D01*
X131118956Y-116029656D01*
X131120319Y-116029091D01*
X131123701Y-116028591D01*
X131314176Y-115980972D01*
X131332637Y-115974377D01*
X131338611Y-115969950D01*
X131345480Y-115967105D01*
X131360634Y-115954669D01*
X131455872Y-115859431D01*
X131462163Y-115851764D01*
X131464161Y-115850032D01*
X131466056Y-115847020D01*
X131468308Y-115844277D01*
X131469317Y-115841839D01*
X131474604Y-115833441D01*
X131522223Y-115738204D01*
X131529229Y-115719895D01*
X131529483Y-115716311D01*
X131530859Y-115712991D01*
X131532780Y-115693482D01*
X131532780Y-115503006D01*
X131530859Y-115483497D01*
X131529483Y-115480176D01*
X131529229Y-115476593D01*
X131522223Y-115458284D01*
X131474604Y-115363047D01*
X131469317Y-115354648D01*
X131468308Y-115352211D01*
X131466056Y-115349467D01*
X131464161Y-115346456D01*
X131462163Y-115344723D01*
X131455872Y-115337057D01*
X131360634Y-115241819D01*
X131345480Y-115229383D01*
X131338611Y-115226537D01*
X131332637Y-115222111D01*
X131314176Y-115215516D01*
X131123701Y-115167897D01*
X131120319Y-115167396D01*
X131118956Y-115166832D01*
X131111605Y-115166108D01*
X131104308Y-115165029D01*
X131102849Y-115165246D01*
X131099447Y-115164911D01*
X130766114Y-115164911D01*
X130762711Y-115165246D01*
X130761253Y-115165029D01*
X130753955Y-115166108D01*
X130746605Y-115166832D01*
X130745241Y-115167396D01*
X130741860Y-115167897D01*
X130551384Y-115215516D01*
X130532924Y-115222111D01*
X130526949Y-115226537D01*
X130520081Y-115229383D01*
X130504927Y-115241819D01*
X130409689Y-115337057D01*
X130403397Y-115344723D01*
X130401401Y-115346455D01*
X130399506Y-115349465D01*
X130397253Y-115352211D01*
X130396242Y-115354650D01*
X130390958Y-115363046D01*
X130343338Y-115458284D01*
X130336331Y-115476592D01*
X130336076Y-115480177D01*
X130334701Y-115483497D01*
X130332780Y-115503006D01*
X130221669Y-115503006D01*
X130221669Y-114150164D01*
X130334701Y-114150164D01*
X130334701Y-114189182D01*
X130349633Y-114225230D01*
X130377223Y-114252820D01*
X130413271Y-114267752D01*
X130432780Y-114269673D01*
X130982024Y-114269673D01*
X130676206Y-114412388D01*
X130669060Y-114416620D01*
X130666643Y-114417500D01*
X130664933Y-114419065D01*
X130659340Y-114422379D01*
X130649076Y-114433587D01*
X130637868Y-114443851D01*
X130635988Y-114447878D01*
X130632989Y-114451154D01*
X130627797Y-114465430D01*
X130621367Y-114479209D01*
X130621171Y-114483649D01*
X130619654Y-114487823D01*
X130620321Y-114503006D01*
X130619654Y-114518189D01*
X130621171Y-114522362D01*
X130621367Y-114526803D01*
X130627797Y-114540581D01*
X130632989Y-114554858D01*
X130635988Y-114558133D01*
X130637868Y-114562161D01*
X130649076Y-114572424D01*
X130659340Y-114583633D01*
X130664933Y-114586946D01*
X130666643Y-114588512D01*
X130669060Y-114589391D01*
X130676206Y-114593624D01*
X130982024Y-114736339D01*
X130432780Y-114736339D01*
X130413271Y-114738260D01*
X130377223Y-114753192D01*
X130349633Y-114780782D01*
X130334701Y-114816830D01*
X130334701Y-114855848D01*
X130349633Y-114891896D01*
X130377223Y-114919486D01*
X130413271Y-114934418D01*
X130432780Y-114936339D01*
X131432780Y-114936339D01*
X131445603Y-114935076D01*
X131447963Y-114935180D01*
X131449230Y-114934719D01*
X131452289Y-114934418D01*
X131468319Y-114927777D01*
X131484632Y-114921846D01*
X131486277Y-114920339D01*
X131488337Y-114919486D01*
X131500598Y-114907224D01*
X131513408Y-114895494D01*
X131514352Y-114893470D01*
X131515927Y-114891896D01*
X131522561Y-114875880D01*
X131529908Y-114860137D01*
X131530005Y-114857907D01*
X131530859Y-114855848D01*
X131530859Y-114838496D01*
X131531621Y-114821156D01*
X131530859Y-114819060D01*
X131530859Y-114816830D01*
X131524218Y-114800799D01*
X131518287Y-114784487D01*
X131516780Y-114782841D01*
X131515927Y-114780782D01*
X131503659Y-114768514D01*
X131491935Y-114755712D01*
X131489290Y-114754145D01*
X131488337Y-114753192D01*
X131486155Y-114752288D01*
X131475069Y-114745721D01*
X130954965Y-114503006D01*
X131475069Y-114260291D01*
X131486155Y-114253723D01*
X131488337Y-114252820D01*
X131489290Y-114251866D01*
X131491935Y-114250300D01*
X131503659Y-114237497D01*
X131515927Y-114225230D01*
X131516780Y-114223170D01*
X131518287Y-114221525D01*
X131524218Y-114205212D01*
X131530859Y-114189182D01*
X131530859Y-114186951D01*
X131531621Y-114184856D01*
X131530859Y-114167515D01*
X131530859Y-114150164D01*
X131530005Y-114148104D01*
X131529908Y-114145875D01*
X131522561Y-114130131D01*
X131515927Y-114114116D01*
X131514352Y-114112541D01*
X131513408Y-114110518D01*
X131500598Y-114098787D01*
X131488337Y-114086526D01*
X131486277Y-114085672D01*
X131484632Y-114084166D01*
X131468319Y-114078234D01*
X131452289Y-114071594D01*
X131449230Y-114071292D01*
X131447963Y-114070832D01*
X131445603Y-114070935D01*
X131432780Y-114069673D01*
X130432780Y-114069673D01*
X130413271Y-114071594D01*
X130377223Y-114086526D01*
X130349633Y-114114116D01*
X130334701Y-114150164D01*
X130221669Y-114150164D01*
X130221669Y-113958562D01*
X131643891Y-113958562D01*
X131643891Y-118045529D01*
G37*
D13*
X153500000Y-84554819D02*
X153500000Y-84792914D01*
X153261905Y-84697676D02*
X153500000Y-84792914D01*
X153500000Y-84792914D02*
X153738095Y-84697676D01*
X153357143Y-84983390D02*
X153500000Y-84792914D01*
X153500000Y-84792914D02*
X153642857Y-84983390D01*
X153499999Y-85845180D02*
X153499999Y-85607085D01*
X153738094Y-85702323D02*
X153499999Y-85607085D01*
X153499999Y-85607085D02*
X153261904Y-85702323D01*
X153642856Y-85416609D02*
X153499999Y-85607085D01*
X153499999Y-85607085D02*
X153357142Y-85416609D01*
D14*
X172233750Y-85692502D02*
X172233750Y-85169998D01*
X173703750Y-85692502D02*
X173703750Y-85169998D01*
X137141267Y-75520000D02*
X136848733Y-75520000D01*
X137141267Y-76540000D02*
X136848733Y-76540000D01*
X159290000Y-126266233D02*
X159290000Y-126558767D01*
X160310000Y-126266233D02*
X160310000Y-126558767D01*
X172542224Y-101897500D02*
X172032776Y-101897500D01*
X172542224Y-102942500D02*
X172032776Y-102942500D01*
X139854724Y-81077500D02*
X139345276Y-81077500D01*
X139854724Y-82122500D02*
X139345276Y-82122500D01*
X148561252Y-120565000D02*
X148038748Y-120565000D01*
X148561252Y-122035000D02*
X148038748Y-122035000D01*
X136860000Y-128330000D02*
X136860000Y-123140000D01*
X139620000Y-123140000D02*
X136860000Y-123140000D01*
X139620000Y-128330000D02*
X136860000Y-128330000D01*
X139620000Y-128330000D02*
X139620000Y-123140000D01*
X139620000Y-129600000D02*
X139620000Y-130980000D01*
X139620000Y-130980000D02*
X138240000Y-130980000D01*
X176600000Y-118500000D02*
X178000000Y-118500000D01*
X176600000Y-119900000D02*
X176600000Y-118500000D01*
X178000000Y-118500000D02*
X178000000Y-119900000D01*
X178000000Y-119900000D02*
X176600000Y-119900000D01*
X176570000Y-79630000D02*
X177970000Y-79630000D01*
X176570000Y-81030000D02*
X176570000Y-79630000D01*
X177970000Y-79630000D02*
X177970000Y-81030000D01*
X177970000Y-81030000D02*
X176570000Y-81030000D01*
X126352500Y-90929724D02*
X126352500Y-90420276D01*
X127397500Y-90929724D02*
X127397500Y-90420276D01*
X159355889Y-100294815D02*
X158995655Y-99934581D01*
X160094815Y-99555889D02*
X159734581Y-99195655D01*
X172115276Y-79807500D02*
X172624724Y-79807500D01*
X172115276Y-80852500D02*
X172624724Y-80852500D01*
X176600000Y-109100000D02*
X178000000Y-109100000D01*
X176600000Y-110500000D02*
X176600000Y-109100000D01*
X178000000Y-109100000D02*
X178000000Y-110500000D01*
X178000000Y-110500000D02*
X176600000Y-110500000D01*
X122840000Y-105165000D02*
X122840000Y-106635000D01*
X122840000Y-106635000D02*
X125300000Y-106635000D01*
X125300000Y-105165000D02*
X122840000Y-105165000D01*
X122840000Y-103265000D02*
X122840000Y-104735000D01*
X122840000Y-104735000D02*
X125300000Y-104735000D01*
X125300000Y-103265000D02*
X122840000Y-103265000D01*
D10*
X136745000Y-77420000D02*
X138455000Y-77420000D01*
X138455000Y-79780000D01*
X136745000Y-79780000D01*
X136745000Y-77420000D01*
X138285000Y-80250000D02*
X137985000Y-80250000D01*
X138095000Y-80020000D01*
X138125000Y-79960000D01*
X138285000Y-80250000D01*
G36*
X138285000Y-80250000D02*
G01*
X137985000Y-80250000D01*
X138095000Y-80020000D01*
X138125000Y-79960000D01*
X138285000Y-80250000D01*
G37*
D14*
X176568750Y-85631250D02*
X177968750Y-85631250D01*
X176568750Y-87031250D02*
X176568750Y-85631250D01*
X177968750Y-85631250D02*
X177968750Y-87031250D01*
X177968750Y-87031250D02*
X176568750Y-87031250D01*
X120645276Y-105377500D02*
X121154724Y-105377500D01*
X120645276Y-106422500D02*
X121154724Y-106422500D01*
X155465000Y-93901248D02*
X155465000Y-94423752D01*
X156935000Y-93901248D02*
X156935000Y-94423752D01*
X145390000Y-77240000D02*
X145390000Y-77415000D01*
X145390000Y-79960000D02*
X145390000Y-79785000D01*
X146065000Y-77240000D02*
X145390000Y-77240000D01*
X146065000Y-79960000D02*
X145390000Y-79960000D01*
X147935000Y-77240000D02*
X148610000Y-77240000D01*
X147935000Y-79960000D02*
X148310000Y-79960000D01*
X148610000Y-77240000D02*
X148610000Y-77415000D01*
X148750000Y-80150000D02*
X148470000Y-80150000D01*
X148610000Y-79960000D01*
X148750000Y-80150000D01*
G36*
X148750000Y-80150000D02*
G01*
X148470000Y-80150000D01*
X148610000Y-79960000D01*
X148750000Y-80150000D01*
G37*
X141891233Y-89490000D02*
X142183767Y-89490000D01*
X141891233Y-90510000D02*
X142183767Y-90510000D01*
X144577500Y-112142224D02*
X144577500Y-111632776D01*
X145622500Y-112142224D02*
X145622500Y-111632776D01*
X119380000Y-123180000D02*
X119380000Y-121800000D01*
X120760000Y-123180000D02*
X119380000Y-123180000D01*
X122030000Y-120420000D02*
X127220000Y-120420000D01*
X122030000Y-123180000D02*
X122030000Y-120420000D01*
X122030000Y-123180000D02*
X127220000Y-123180000D01*
X127220000Y-123180000D02*
X127220000Y-120420000D01*
X157540000Y-75880000D02*
X157540000Y-74500000D01*
X158920000Y-75880000D02*
X157540000Y-75880000D01*
X160190000Y-73120000D02*
X167920000Y-73120000D01*
X160190000Y-75880000D02*
X160190000Y-73120000D01*
X160190000Y-75880000D02*
X167920000Y-75880000D01*
X167920000Y-75880000D02*
X167920000Y-73120000D01*
X156545276Y-114977500D02*
X157054724Y-114977500D01*
X156545276Y-116022500D02*
X157054724Y-116022500D01*
X176600000Y-103100000D02*
X178000000Y-103100000D01*
X176600000Y-104500000D02*
X176600000Y-103100000D01*
X178000000Y-103100000D02*
X178000000Y-104500000D01*
X178000000Y-104500000D02*
X176600000Y-104500000D01*
X126477500Y-82592224D02*
X126477500Y-82082776D01*
X127522500Y-82592224D02*
X127522500Y-82082776D01*
X176600000Y-105100000D02*
X178000000Y-105100000D01*
X176600000Y-106500000D02*
X176600000Y-105100000D01*
X178000000Y-105100000D02*
X178000000Y-106500000D01*
X178000000Y-106500000D02*
X176600000Y-106500000D01*
X134790000Y-100408767D02*
X134790000Y-100116233D01*
X135810000Y-100408767D02*
X135810000Y-100116233D01*
X164290000Y-126266233D02*
X164290000Y-126558767D01*
X165310000Y-126266233D02*
X165310000Y-126558767D01*
X133320000Y-128330000D02*
X133320000Y-123140000D01*
X136080000Y-123140000D02*
X133320000Y-123140000D01*
X136080000Y-128330000D02*
X133320000Y-128330000D01*
X136080000Y-128330000D02*
X136080000Y-123140000D01*
X136080000Y-129600000D02*
X136080000Y-130980000D01*
X136080000Y-130980000D02*
X134700000Y-130980000D01*
X120700000Y-80500000D02*
X120700000Y-80620000D01*
X120700000Y-81630000D02*
X120700000Y-82770000D01*
X120700000Y-83780000D02*
X120700000Y-83900000D01*
X120700000Y-83900000D02*
X125100000Y-83900000D01*
X125100000Y-80500000D02*
X120700000Y-80500000D01*
X125100000Y-80620000D02*
X125100000Y-80500000D01*
X125100000Y-82770000D02*
X125100000Y-81630000D01*
X125100000Y-83900000D02*
X125100000Y-83780000D01*
D15*
X150444300Y-84044300D02*
X150444300Y-84581220D01*
X150444300Y-85818780D02*
X150444300Y-86355700D01*
X150444300Y-86355700D02*
X150731220Y-86355700D01*
X150731220Y-84044300D02*
X150444300Y-84044300D01*
X152468780Y-86355700D02*
X152755700Y-86355700D01*
X152755700Y-84044300D02*
X152468780Y-84044300D01*
X152755700Y-84581220D02*
X152755700Y-84044300D01*
X152755700Y-86355700D02*
X152755700Y-85818780D01*
D16*
G36*
X152290499Y-86635100D02*
G01*
X151909499Y-86635100D01*
X151909499Y-86381100D01*
X152290499Y-86381100D01*
X152290499Y-86635100D01*
G37*
D14*
X128390000Y-82203733D02*
X128390000Y-82496267D01*
X129410000Y-82203733D02*
X129410000Y-82496267D01*
X127645276Y-84577500D02*
X128154724Y-84577500D01*
X127645276Y-85622500D02*
X128154724Y-85622500D01*
X148561252Y-124965000D02*
X148038748Y-124965000D01*
X148561252Y-126435000D02*
X148038748Y-126435000D01*
X142767500Y-112154724D02*
X142767500Y-111645276D01*
X143812500Y-112154724D02*
X143812500Y-111645276D01*
X137277500Y-112154724D02*
X137277500Y-111645276D01*
X138322500Y-112154724D02*
X138322500Y-111645276D01*
X176600000Y-112500000D02*
X178000000Y-112500000D01*
X176600000Y-113900000D02*
X176600000Y-112500000D01*
X178000000Y-112500000D02*
X178000000Y-113900000D01*
X178000000Y-113900000D02*
X176600000Y-113900000D01*
X140590000Y-93190000D02*
X140590000Y-94140000D01*
X140590000Y-103410000D02*
X140590000Y-102460000D01*
X141540000Y-93190000D02*
X140590000Y-93190000D01*
X141540000Y-103410000D02*
X140590000Y-103410000D01*
X149860000Y-93190000D02*
X150810000Y-93190000D01*
X149860000Y-103410000D02*
X150810000Y-103410000D01*
X150810000Y-93190000D02*
X150810000Y-94140000D01*
X150810000Y-103410000D02*
X150810000Y-102460000D01*
X139975000Y-94140000D02*
X139635000Y-93670000D01*
X140315000Y-93670000D01*
X139975000Y-94140000D01*
G36*
X139975000Y-94140000D02*
G01*
X139635000Y-93670000D01*
X140315000Y-93670000D01*
X139975000Y-94140000D01*
G37*
X157550420Y-101339346D02*
X157910654Y-101699580D01*
X158289346Y-100600420D02*
X158649580Y-100960654D01*
X176568750Y-81630000D02*
X177968750Y-81630000D01*
X176568750Y-83030000D02*
X176568750Y-81630000D01*
X177968750Y-81630000D02*
X177968750Y-83030000D01*
X177968750Y-83030000D02*
X176568750Y-83030000D01*
X144945276Y-81077500D02*
X145454724Y-81077500D01*
X144945276Y-82122500D02*
X145454724Y-82122500D01*
X140967500Y-112154724D02*
X140967500Y-111645276D01*
X142012500Y-112154724D02*
X142012500Y-111645276D01*
X122845276Y-84577500D02*
X123354724Y-84577500D01*
X122845276Y-85622500D02*
X123354724Y-85622500D01*
X119380000Y-119640000D02*
X119380000Y-118260000D01*
X120760000Y-119640000D02*
X119380000Y-119640000D01*
X122030000Y-116880000D02*
X127220000Y-116880000D01*
X122030000Y-119640000D02*
X122030000Y-116880000D01*
X122030000Y-119640000D02*
X127220000Y-119640000D01*
X127220000Y-119640000D02*
X127220000Y-116880000D01*
X176600000Y-120500000D02*
X178000000Y-120500000D01*
X176600000Y-121900000D02*
X176600000Y-120500000D01*
X178000000Y-120500000D02*
X178000000Y-121900000D01*
X178000000Y-121900000D02*
X176600000Y-121900000D01*
X176568750Y-83631250D02*
X177968750Y-83631250D01*
X176568750Y-85031250D02*
X176568750Y-83631250D01*
X177968750Y-83631250D02*
X177968750Y-85031250D01*
X177968750Y-85031250D02*
X176568750Y-85031250D01*
X120700000Y-88900000D02*
X120700000Y-89020000D01*
X120700000Y-90030000D02*
X120700000Y-91170000D01*
X120700000Y-92180000D02*
X120700000Y-92300000D01*
X120700000Y-92300000D02*
X125100000Y-92300000D01*
X125100000Y-88900000D02*
X120700000Y-88900000D01*
X125100000Y-89020000D02*
X125100000Y-88900000D01*
X125100000Y-91170000D02*
X125100000Y-90030000D01*
X125100000Y-92300000D02*
X125100000Y-92180000D01*
X176600000Y-116500000D02*
X178000000Y-116500000D01*
X176600000Y-117900000D02*
X176600000Y-116500000D01*
X178000000Y-116500000D02*
X178000000Y-117900000D01*
X178000000Y-117900000D02*
X176600000Y-117900000D01*
X128190000Y-90553733D02*
X128190000Y-90846267D01*
X129210000Y-90553733D02*
X129210000Y-90846267D01*
X171945276Y-105177500D02*
X172454724Y-105177500D01*
X171945276Y-106222500D02*
X172454724Y-106222500D01*
X142483767Y-106058750D02*
X142191233Y-106058750D01*
X142483767Y-107078750D02*
X142191233Y-107078750D01*
X162990000Y-119651267D02*
X162990000Y-119358733D01*
X164010000Y-119651267D02*
X164010000Y-119358733D01*
X148536252Y-122765000D02*
X148013748Y-122765000D01*
X148536252Y-124235000D02*
X148013748Y-124235000D01*
X149254724Y-81077500D02*
X148745276Y-81077500D01*
X149254724Y-82122500D02*
X148745276Y-82122500D01*
X160867224Y-114977500D02*
X160357776Y-114977500D01*
X160867224Y-116022500D02*
X160357776Y-116022500D01*
X129780000Y-128320000D02*
X129780000Y-123130000D01*
X132540000Y-123130000D02*
X129780000Y-123130000D01*
X132540000Y-128320000D02*
X129780000Y-128320000D01*
X132540000Y-128320000D02*
X132540000Y-123130000D01*
X132540000Y-129590000D02*
X132540000Y-130970000D01*
X132540000Y-130970000D02*
X131160000Y-130970000D01*
X127391233Y-100190000D02*
X127683767Y-100190000D01*
X127391233Y-101210000D02*
X127683767Y-101210000D01*
X139177500Y-112154724D02*
X139177500Y-111645276D01*
X140222500Y-112154724D02*
X140222500Y-111645276D01*
X176600000Y-107100000D02*
X178000000Y-107100000D01*
X176600000Y-108500000D02*
X176600000Y-107100000D01*
X178000000Y-107100000D02*
X178000000Y-108500000D01*
X178000000Y-108500000D02*
X176600000Y-108500000D01*
X147048767Y-75490000D02*
X146756233Y-75490000D01*
X147048767Y-76510000D02*
X146756233Y-76510000D01*
X148463748Y-108665000D02*
X148986252Y-108665000D01*
X148463748Y-110135000D02*
X148986252Y-110135000D01*
X154090000Y-86753733D02*
X154090000Y-87046267D01*
X155110000Y-86753733D02*
X155110000Y-87046267D01*
X136590000Y-100408767D02*
X136590000Y-100116233D01*
X137610000Y-100408767D02*
X137610000Y-100116233D01*
X135550420Y-107210654D02*
X135910654Y-106850420D01*
X136289346Y-107949580D02*
X136649580Y-107589346D01*
X172165000Y-109161252D02*
X172165000Y-108638748D01*
X173635000Y-109161252D02*
X173635000Y-108638748D01*
X137190000Y-93046267D02*
X137190000Y-92753733D01*
X138210000Y-93046267D02*
X138210000Y-92753733D01*
X141751248Y-87265000D02*
X142273752Y-87265000D01*
X141751248Y-88735000D02*
X142273752Y-88735000D01*
X135545276Y-81077500D02*
X136054724Y-81077500D01*
X135545276Y-82122500D02*
X136054724Y-82122500D01*
X120645276Y-103477500D02*
X121154724Y-103477500D01*
X120645276Y-104522500D02*
X121154724Y-104522500D01*
X172542224Y-88577500D02*
X172032776Y-88577500D01*
X172542224Y-89622500D02*
X172032776Y-89622500D01*
X156865000Y-126251248D02*
X156865000Y-126773752D01*
X158335000Y-126251248D02*
X158335000Y-126773752D01*
X119380000Y-112560000D02*
X119380000Y-111180000D01*
X120760000Y-112560000D02*
X119380000Y-112560000D01*
X122030000Y-109800000D02*
X127220000Y-109800000D01*
X122030000Y-112560000D02*
X122030000Y-109800000D01*
X122030000Y-112560000D02*
X127220000Y-112560000D01*
X127220000Y-112560000D02*
X127220000Y-109800000D01*
X122840000Y-107065000D02*
X122840000Y-108535000D01*
X122840000Y-108535000D02*
X125300000Y-108535000D01*
X125300000Y-107065000D02*
X122840000Y-107065000D01*
X130640000Y-95653733D02*
X130640000Y-95946267D01*
X131660000Y-95653733D02*
X131660000Y-95946267D01*
D17*
X166190000Y-124550000D02*
X166190000Y-126100000D01*
X166190000Y-124550000D02*
X168850000Y-124550000D01*
D14*
X165920000Y-94792500D02*
X167220000Y-94792500D01*
X165920000Y-96772500D02*
X166970000Y-96772500D01*
X167340000Y-97052500D02*
X167340000Y-96772500D01*
X167620000Y-96772500D01*
X167340000Y-97052500D01*
G36*
X167340000Y-97052500D02*
G01*
X167340000Y-96772500D01*
X167620000Y-96772500D01*
X167340000Y-97052500D01*
G37*
X150246267Y-105790000D02*
X149953733Y-105790000D01*
X150246267Y-106810000D02*
X149953733Y-106810000D01*
X158600000Y-116940000D02*
X156650000Y-116940000D01*
X158600000Y-116940000D02*
X160550000Y-116940000D01*
X158600000Y-122060000D02*
X156650000Y-122060000D01*
X158600000Y-122060000D02*
X160550000Y-122060000D01*
X161540000Y-122295000D02*
X161060000Y-122295000D01*
X161300000Y-121965000D01*
X161540000Y-122295000D01*
G36*
X161540000Y-122295000D02*
G01*
X161060000Y-122295000D01*
X161300000Y-121965000D01*
X161540000Y-122295000D01*
G37*
X167385000Y-92743752D02*
X167385000Y-92221248D01*
X168855000Y-92743752D02*
X168855000Y-92221248D01*
X176600000Y-114500000D02*
X178000000Y-114500000D01*
X176600000Y-115900000D02*
X176600000Y-114500000D01*
X178000000Y-114500000D02*
X178000000Y-115900000D01*
X178000000Y-115900000D02*
X176600000Y-115900000D01*
X148501248Y-110965000D02*
X149023752Y-110965000D01*
X148501248Y-112435000D02*
X149023752Y-112435000D01*
X167385000Y-98858748D02*
X167385000Y-99381252D01*
X168855000Y-98858748D02*
X168855000Y-99381252D01*
X149200000Y-128900000D02*
X151600000Y-128900000D01*
X149200000Y-131300000D02*
X149200000Y-128900000D01*
X151600000Y-128900000D02*
X151600000Y-131300000D01*
X151600000Y-131300000D02*
X149200000Y-131300000D01*
X151683767Y-87290000D02*
X151391233Y-87290000D01*
X151683767Y-88310000D02*
X151391233Y-88310000D01*
X176600000Y-122500000D02*
X178000000Y-122500000D01*
X176600000Y-123900000D02*
X176600000Y-122500000D01*
X178000000Y-122500000D02*
X178000000Y-123900000D01*
X178000000Y-123900000D02*
X176600000Y-123900000D01*
X144800000Y-128900000D02*
X147200000Y-128900000D01*
X144800000Y-131300000D02*
X144800000Y-128900000D01*
X147200000Y-128900000D02*
X147200000Y-131300000D01*
X147200000Y-131300000D02*
X144800000Y-131300000D01*
X122845276Y-87177500D02*
X123354724Y-87177500D01*
X122845276Y-88222500D02*
X123354724Y-88222500D01*
D18*
X172990000Y-91230000D02*
X174580000Y-91230000D01*
X172990000Y-100170000D02*
X174580000Y-100170000D01*
D14*
X120645276Y-107277500D02*
X121154724Y-107277500D01*
X120645276Y-108322500D02*
X121154724Y-108322500D01*
X119380000Y-116100000D02*
X119380000Y-114720000D01*
X120760000Y-116100000D02*
X119380000Y-116100000D01*
X122030000Y-113340000D02*
X127220000Y-113340000D01*
X122030000Y-116100000D02*
X122030000Y-113340000D01*
X122030000Y-116100000D02*
X127220000Y-116100000D01*
X127220000Y-116100000D02*
X127220000Y-113340000D01*
X140400000Y-128320000D02*
X140400000Y-123130000D01*
X143160000Y-123130000D02*
X140400000Y-123130000D01*
X143160000Y-128320000D02*
X140400000Y-128320000D01*
X143160000Y-128320000D02*
X143160000Y-123130000D01*
X143160000Y-129590000D02*
X143160000Y-130970000D01*
X143160000Y-130970000D02*
X141780000Y-130970000D01*
X167977500Y-120354724D02*
X167977500Y-119845276D01*
X169022500Y-120354724D02*
X169022500Y-119845276D01*
X161354724Y-129577500D02*
X160845276Y-129577500D01*
X161354724Y-130622500D02*
X160845276Y-130622500D01*
X153390000Y-94016233D02*
X153390000Y-94308767D01*
X154410000Y-94016233D02*
X154410000Y-94308767D01*
X136750420Y-108410654D02*
X137110654Y-108050420D01*
X137489346Y-109149580D02*
X137849580Y-108789346D01*
X161300000Y-125290000D02*
X163300000Y-125290000D01*
X161300000Y-127510000D02*
X163300000Y-127510000D01*
X161060000Y-125390000D02*
X160780000Y-125390000D01*
X161060000Y-125110000D01*
X161060000Y-125390000D01*
G36*
X161060000Y-125390000D02*
G01*
X160780000Y-125390000D01*
X161060000Y-125110000D01*
X161060000Y-125390000D01*
G37*
X130627500Y-99854724D02*
X130627500Y-99345276D01*
X131672500Y-99854724D02*
X131672500Y-99345276D01*
X134350420Y-106010654D02*
X134710654Y-105650420D01*
X135089346Y-106749580D02*
X135449580Y-106389346D01*
X154810654Y-104849580D02*
X154450420Y-104489346D01*
X155549580Y-104110654D02*
X155189346Y-103750420D01*
X129860000Y-95027500D02*
X124340000Y-95027500D01*
X129860000Y-99647500D02*
X129860000Y-95027500D01*
X127545276Y-87177500D02*
X128054724Y-87177500D01*
X127545276Y-88222500D02*
X128054724Y-88222500D01*
X156410654Y-103249580D02*
X156050420Y-102889346D01*
X157149580Y-102510654D02*
X156789346Y-102150420D01*
X143730000Y-77146267D02*
X143730000Y-76853733D01*
X144750000Y-77146267D02*
X144750000Y-76853733D01*
X156700000Y-130835000D02*
X159160000Y-130835000D01*
X159160000Y-129365000D02*
X156700000Y-129365000D01*
X159160000Y-130835000D02*
X159160000Y-129365000D01*
D17*
X166250000Y-126490000D02*
X166250000Y-129150000D01*
X167950000Y-126490000D02*
X166250000Y-126490000D01*
X167950000Y-126490000D02*
X167950000Y-129150000D01*
D14*
X172065000Y-122561252D02*
X172065000Y-122038748D01*
X173535000Y-122561252D02*
X173535000Y-122038748D01*
X153077500Y-120659724D02*
X153077500Y-120150276D01*
X154122500Y-120659724D02*
X154122500Y-120150276D01*
%LPC*%
D19*
X172968750Y-86468750D03*
X172968750Y-84393750D03*
D20*
X137857500Y-76030000D03*
X136132500Y-76030000D03*
D21*
X159800000Y-125550000D03*
X159800000Y-127275000D03*
D22*
X173200000Y-102420000D03*
X171375000Y-102420000D03*
X140512500Y-81600000D03*
X138687500Y-81600000D03*
D23*
X149337500Y-121300000D03*
X147262500Y-121300000D03*
D24*
X138240000Y-129600000D03*
D25*
X138240000Y-127060000D03*
X138240000Y-124520000D03*
D26*
X177300000Y-119200000D03*
X177270000Y-80330000D03*
D27*
X126875000Y-91587500D03*
X126875000Y-89762500D03*
D28*
X160190470Y-100390470D03*
X158900000Y-99100000D03*
D29*
X171457500Y-80330000D03*
X173282500Y-80330000D03*
D26*
X177300000Y-109800000D03*
D30*
X123625000Y-105900000D03*
X125375000Y-105900000D03*
X123625000Y-104000000D03*
X125375000Y-104000000D03*
D31*
X138095000Y-79430000D03*
D32*
X137595000Y-79430000D03*
X137095000Y-79430000D03*
X137095000Y-77790000D03*
D33*
X137600000Y-78600000D03*
D32*
X137595000Y-77790000D03*
D31*
X138095000Y-77790000D03*
D26*
X177268750Y-86331250D03*
D29*
X119987500Y-105900000D03*
X121812500Y-105900000D03*
D34*
X156200000Y-93125000D03*
X156200000Y-95200000D03*
D35*
X148162500Y-79350000D03*
X148162500Y-78850000D03*
X148162500Y-78350000D03*
X148162500Y-77850000D03*
D36*
X147500000Y-77687500D03*
X147000000Y-77687500D03*
X146500000Y-77687500D03*
D35*
X145837500Y-77850000D03*
X145837500Y-78350000D03*
X145837500Y-78850000D03*
X145837500Y-79350000D03*
D36*
X146500000Y-79512500D03*
X147000000Y-79512500D03*
X147500000Y-79512500D03*
D37*
X141175000Y-90000000D03*
X142900000Y-90000000D03*
D27*
X145100000Y-112800000D03*
X145100000Y-110975000D03*
D24*
X120760000Y-121800000D03*
D25*
X123300000Y-121800000D03*
X125840000Y-121800000D03*
D24*
X158920000Y-74500000D03*
D25*
X161460000Y-74500000D03*
X164000000Y-74500000D03*
X166540000Y-74500000D03*
D29*
X155887500Y-115500000D03*
X157712500Y-115500000D03*
D26*
X177300000Y-103800000D03*
D27*
X127000000Y-83250000D03*
X127000000Y-81425000D03*
D26*
X177300000Y-105800000D03*
D38*
X135300000Y-101125000D03*
X135300000Y-99400000D03*
D21*
X164800000Y-125550000D03*
X164800000Y-127275000D03*
D24*
X134700000Y-129600000D03*
D25*
X134700000Y-127060000D03*
X134700000Y-124520000D03*
D39*
X120625000Y-81125000D03*
X125175000Y-81125000D03*
X120625000Y-83275000D03*
X125175000Y-83275000D03*
D40*
X152387400Y-85450000D03*
X152387400Y-84950000D03*
D41*
X152099999Y-84412600D03*
X151600000Y-84412600D03*
X151100001Y-84412600D03*
D40*
X150812600Y-84950000D03*
X150812600Y-85450000D03*
D41*
X151100001Y-85987400D03*
X151600000Y-85987400D03*
X152099999Y-85987400D03*
D21*
X128900000Y-81487500D03*
X128900000Y-83212500D03*
D42*
X122100000Y-128500000D03*
D29*
X126987500Y-85100000D03*
X128812500Y-85100000D03*
D23*
X149337500Y-125700000D03*
X147262500Y-125700000D03*
D27*
X143290000Y-112812500D03*
X143290000Y-110987500D03*
X137800000Y-112812500D03*
X137800000Y-110987500D03*
D26*
X177300000Y-113200000D03*
D43*
X140025000Y-94550000D03*
X140025000Y-95050000D03*
X140025000Y-95550000D03*
X140025000Y-96050000D03*
X140025000Y-96550000D03*
X140025000Y-97050000D03*
X140025000Y-97550000D03*
X140025000Y-98050000D03*
X140025000Y-98550000D03*
X140025000Y-99050000D03*
X140025000Y-99550000D03*
X140025000Y-100050000D03*
X140025000Y-100550000D03*
X140025000Y-101050000D03*
X140025000Y-101550000D03*
X140025000Y-102050000D03*
D44*
X141950000Y-103975000D03*
X142450000Y-103975000D03*
X142950000Y-103975000D03*
X143450000Y-103975000D03*
X143950000Y-103975000D03*
X144450000Y-103975000D03*
X144950000Y-103975000D03*
X145450000Y-103975000D03*
X145950000Y-103975000D03*
X146450000Y-103975000D03*
X146950000Y-103975000D03*
X147450000Y-103975000D03*
X147950000Y-103975000D03*
X148450000Y-103975000D03*
X148950000Y-103975000D03*
X149450000Y-103975000D03*
D43*
X151375000Y-102050000D03*
X151375000Y-101550000D03*
X151375000Y-101050000D03*
X151375000Y-100550000D03*
X151375000Y-100050000D03*
X151375000Y-99550000D03*
X151375000Y-99050000D03*
X151375000Y-98550000D03*
X151375000Y-98050000D03*
X151375000Y-97550000D03*
X151375000Y-97050000D03*
X151375000Y-96550000D03*
X151375000Y-96050000D03*
X151375000Y-95550000D03*
X151375000Y-95050000D03*
X151375000Y-94550000D03*
D44*
X149450000Y-92625000D03*
X148950000Y-92625000D03*
X148450000Y-92625000D03*
X147950000Y-92625000D03*
X147450000Y-92625000D03*
X146950000Y-92625000D03*
X146450000Y-92625000D03*
X145950000Y-92625000D03*
X145450000Y-92625000D03*
X144950000Y-92625000D03*
X144450000Y-92625000D03*
X143950000Y-92625000D03*
X143450000Y-92625000D03*
X142950000Y-92625000D03*
X142450000Y-92625000D03*
X141950000Y-92625000D03*
D45*
X157454765Y-100504765D03*
X158745235Y-101795235D03*
D26*
X177268750Y-82330000D03*
D29*
X144287500Y-81600000D03*
X146112500Y-81600000D03*
D42*
X122100000Y-75500000D03*
D27*
X141490000Y-112812500D03*
X141490000Y-110987500D03*
D29*
X122187500Y-85100000D03*
X124012500Y-85100000D03*
D24*
X120760000Y-118260000D03*
D25*
X123300000Y-118260000D03*
X125840000Y-118260000D03*
D26*
X177300000Y-121200000D03*
X177268750Y-84331250D03*
D39*
X120625000Y-89525000D03*
X125175000Y-89525000D03*
X120625000Y-91675000D03*
X125175000Y-91675000D03*
D26*
X177300000Y-117200000D03*
D21*
X128700000Y-89837500D03*
X128700000Y-91562500D03*
D29*
X171287500Y-105700000D03*
X173112500Y-105700000D03*
D20*
X143200000Y-106568750D03*
X141475000Y-106568750D03*
D38*
X163500000Y-120367500D03*
X163500000Y-118642500D03*
D23*
X149312500Y-123500000D03*
X147237500Y-123500000D03*
D22*
X149912500Y-81600000D03*
X148087500Y-81600000D03*
X161525000Y-115500000D03*
X159700000Y-115500000D03*
D24*
X131160000Y-129590000D03*
D25*
X131160000Y-127050000D03*
X131160000Y-124510000D03*
D37*
X126675000Y-100700000D03*
X128400000Y-100700000D03*
D27*
X139700000Y-112812500D03*
X139700000Y-110987500D03*
D26*
X177300000Y-107800000D03*
D20*
X147765000Y-76000000D03*
X146040000Y-76000000D03*
D46*
X147687500Y-109400000D03*
X149762500Y-109400000D03*
D21*
X154600000Y-86037500D03*
X154600000Y-87762500D03*
D38*
X137100000Y-101125000D03*
X137100000Y-99400000D03*
D47*
X135454765Y-108045235D03*
X136745235Y-106754765D03*
D19*
X172900000Y-109937500D03*
X172900000Y-107862500D03*
D38*
X137700000Y-93762500D03*
X137700000Y-92037500D03*
D46*
X140975000Y-88000000D03*
X143050000Y-88000000D03*
D29*
X134887500Y-81600000D03*
X136712500Y-81600000D03*
X119987500Y-104000000D03*
X121812500Y-104000000D03*
D22*
X173200000Y-89100000D03*
X171375000Y-89100000D03*
D42*
X175200000Y-75500000D03*
X175200000Y-128500000D03*
D34*
X157600000Y-125475000D03*
X157600000Y-127550000D03*
D24*
X120760000Y-111180000D03*
D25*
X123300000Y-111180000D03*
X125840000Y-111180000D03*
D30*
X123625000Y-107800000D03*
X125375000Y-107800000D03*
D21*
X131150000Y-94937500D03*
X131150000Y-96662500D03*
D48*
X166700000Y-125400000D03*
X168900000Y-125400000D03*
D49*
X167420000Y-96320000D03*
D50*
X167495000Y-95782500D03*
D49*
X167420000Y-95245000D03*
X165720000Y-95245000D03*
D50*
X165645000Y-95782500D03*
D49*
X165720000Y-96320000D03*
D20*
X150962500Y-106300000D03*
X149237500Y-106300000D03*
D51*
X161075000Y-121405000D03*
X161075000Y-120135000D03*
X161075000Y-118865000D03*
X161075000Y-117595000D03*
X156125000Y-117595000D03*
X156125000Y-118865000D03*
X156125000Y-120135000D03*
X156125000Y-121405000D03*
D19*
X168120000Y-93520000D03*
X168120000Y-91445000D03*
D26*
X177300000Y-115200000D03*
D46*
X147725000Y-111700000D03*
X149800000Y-111700000D03*
D34*
X168120000Y-98082500D03*
X168120000Y-100157500D03*
D52*
X150400000Y-130100000D03*
D20*
X152400000Y-87800000D03*
X150675000Y-87800000D03*
D26*
X177300000Y-123200000D03*
D52*
X146000000Y-130100000D03*
D29*
X122187500Y-87700000D03*
X124012500Y-87700000D03*
D53*
X172120000Y-98590000D03*
X172120000Y-92810000D03*
D54*
X170900000Y-98900000D03*
X170900000Y-98100000D03*
D55*
X171050000Y-96950000D03*
X171050000Y-95950000D03*
X171050000Y-95450000D03*
X171050000Y-94450000D03*
D54*
X170900000Y-92500000D03*
X170900000Y-93300000D03*
D55*
X171050000Y-93950000D03*
X171050000Y-94950000D03*
X171050000Y-96450000D03*
X171050000Y-97450000D03*
D56*
X171620000Y-100020000D03*
X171620000Y-91380000D03*
D57*
X175800000Y-100020000D03*
D58*
X175800000Y-91380000D03*
D29*
X119987500Y-107800000D03*
X121812500Y-107800000D03*
D24*
X120760000Y-114720000D03*
D25*
X123300000Y-114720000D03*
X125840000Y-114720000D03*
D24*
X141780000Y-129590000D03*
D25*
X141780000Y-127050000D03*
X141780000Y-124510000D03*
D27*
X168500000Y-121012500D03*
X168500000Y-119187500D03*
D22*
X162012500Y-130100000D03*
X160187500Y-130100000D03*
D21*
X153900000Y-93300000D03*
X153900000Y-95025000D03*
D47*
X136654765Y-109245235D03*
X137945235Y-107954765D03*
D59*
X161412500Y-125750000D03*
X161412500Y-126400000D03*
X161412500Y-127050000D03*
X163187500Y-127050000D03*
X163187500Y-126400000D03*
X163187500Y-125750000D03*
D60*
X162300000Y-126400000D03*
D27*
X131150000Y-100512500D03*
X131150000Y-98687500D03*
D47*
X134254765Y-106845235D03*
X135545235Y-105554765D03*
D28*
X155645235Y-104945235D03*
X154354765Y-103654765D03*
D61*
X128550000Y-96187500D03*
X125650000Y-96187500D03*
X125650000Y-98487500D03*
X128550000Y-98487500D03*
D29*
X126887500Y-87700000D03*
X128712500Y-87700000D03*
D28*
X157245235Y-103345235D03*
X155954765Y-102054765D03*
D38*
X144240000Y-77862500D03*
X144240000Y-76137500D03*
D62*
X158375000Y-130100000D03*
X156625000Y-130100000D03*
D63*
X167100000Y-127000000D03*
X167100000Y-129200000D03*
D19*
X172800000Y-123337500D03*
X172800000Y-121262500D03*
D27*
X153600000Y-121317500D03*
X153600000Y-119492500D03*
%LPD*%
M02*
